%TF.GenerationSoftware,KiCad,Pcbnew,8.0.2*%
%TF.CreationDate,2024-12-14T16:27:33+01:00*%
%TF.ProjectId,pss_outstageboard,7073735f-6f75-4747-9374-616765626f61,1.0.0*%
%TF.SameCoordinates,Original*%
%TF.FileFunction,Drillmap*%
%TF.FilePolarity,Positive*%
%FSLAX45Y45*%
G04 Gerber Fmt 4.5, Leading zero omitted, Abs format (unit mm)*
G04 Created by KiCad (PCBNEW 8.0.2) date 2024-12-14 16:27:33*
%MOMM*%
%LPD*%
G01*
G04 APERTURE LIST*
%ADD10C,0.100000*%
%ADD11C,0.200000*%
%ADD12C,0.110000*%
%ADD13C,0.120000*%
%ADD14C,0.140000*%
G04 APERTURE END LIST*
D10*
X16000000Y-24000000D02*
X16000000Y-2000000D01*
X26000000Y-24000000D02*
X16000000Y-24000000D01*
X16000000Y-2000000D02*
X26000000Y-2000000D01*
X26000000Y-2000000D02*
X26000000Y-24000000D01*
D11*
D10*
X18507200Y-9850000D02*
X18537200Y-9880000D01*
X18537200Y-9850000D02*
X18507200Y-9880000D01*
X18507200Y-11850000D02*
X18537200Y-11880000D01*
X18537200Y-11850000D02*
X18507200Y-11880000D01*
X18507200Y-13850000D02*
X18537200Y-13880000D01*
X18537200Y-13850000D02*
X18507200Y-13880000D01*
X18507200Y-15850000D02*
X18537200Y-15880000D01*
X18537200Y-15850000D02*
X18507200Y-15880000D01*
X18507200Y-17850000D02*
X18537200Y-17880000D01*
X18537200Y-17850000D02*
X18507200Y-17880000D01*
X18507200Y-19850000D02*
X18537200Y-19880000D01*
X18537200Y-19850000D02*
X18507200Y-19880000D01*
X20604000Y-2874000D02*
X20634000Y-2904000D01*
X20634000Y-2874000D02*
X20604000Y-2904000D01*
X20604000Y-3001000D02*
X20634000Y-3031000D01*
X20634000Y-3001000D02*
X20604000Y-3031000D01*
X20604000Y-3128000D02*
X20634000Y-3158000D01*
X20634000Y-3128000D02*
X20604000Y-3158000D01*
X20604000Y-3255000D02*
X20634000Y-3285000D01*
X20634000Y-3255000D02*
X20604000Y-3285000D01*
X20731000Y-2874000D02*
X20761000Y-2904000D01*
X20761000Y-2874000D02*
X20731000Y-2904000D01*
X20731000Y-3001000D02*
X20761000Y-3031000D01*
X20761000Y-3001000D02*
X20731000Y-3031000D01*
X20731000Y-3128000D02*
X20761000Y-3158000D01*
X20761000Y-3128000D02*
X20731000Y-3158000D01*
X20858000Y-2874000D02*
X20888000Y-2904000D01*
X20888000Y-2874000D02*
X20858000Y-2904000D01*
X20858000Y-3001000D02*
X20888000Y-3031000D01*
X20888000Y-3001000D02*
X20858000Y-3031000D01*
X20858000Y-3128000D02*
X20888000Y-3158000D01*
X20888000Y-3128000D02*
X20858000Y-3158000D01*
X20858000Y-3255000D02*
X20888000Y-3285000D01*
X20888000Y-3255000D02*
X20858000Y-3285000D01*
X20934200Y-5109200D02*
X20964200Y-5139200D01*
X20964200Y-5109200D02*
X20934200Y-5139200D01*
X20959600Y-4601200D02*
X20989600Y-4631200D01*
X20989600Y-4601200D02*
X20959600Y-4631200D01*
X21011495Y-5108653D02*
X21041495Y-5138653D01*
X21041495Y-5108653D02*
X21011495Y-5138653D01*
X21112000Y-2874000D02*
X21142000Y-2904000D01*
X21142000Y-2874000D02*
X21112000Y-2904000D01*
X21112000Y-3001000D02*
X21142000Y-3031000D01*
X21142000Y-3001000D02*
X21112000Y-3031000D01*
X21112000Y-3128000D02*
X21142000Y-3158000D01*
X21142000Y-3128000D02*
X21112000Y-3158000D01*
X21112000Y-3255000D02*
X21142000Y-3285000D01*
X21142000Y-3255000D02*
X21112000Y-3285000D01*
X21239000Y-2874000D02*
X21269000Y-2904000D01*
X21269000Y-2874000D02*
X21239000Y-2904000D01*
X21239000Y-3001000D02*
X21269000Y-3031000D01*
X21269000Y-3001000D02*
X21239000Y-3031000D01*
X21239000Y-3128000D02*
X21269000Y-3158000D01*
X21269000Y-3128000D02*
X21239000Y-3158000D01*
X21366000Y-2874000D02*
X21396000Y-2904000D01*
X21396000Y-2874000D02*
X21366000Y-2904000D01*
X21366000Y-3001000D02*
X21396000Y-3031000D01*
X21396000Y-3001000D02*
X21366000Y-3031000D01*
X21366000Y-3128000D02*
X21396000Y-3158000D01*
X21396000Y-3128000D02*
X21366000Y-3158000D01*
X21366000Y-3255000D02*
X21396000Y-3285000D01*
X21396000Y-3255000D02*
X21366000Y-3285000D01*
X21620000Y-4652000D02*
X21650000Y-4682000D01*
X21650000Y-4652000D02*
X21620000Y-4682000D01*
X21620000Y-4779000D02*
X21650000Y-4809000D01*
X21650000Y-4779000D02*
X21620000Y-4809000D01*
X21747000Y-4652000D02*
X21777000Y-4682000D01*
X21777000Y-4652000D02*
X21747000Y-4682000D01*
X21747000Y-4779000D02*
X21777000Y-4809000D01*
X21777000Y-4779000D02*
X21747000Y-4809000D01*
X21747000Y-4906000D02*
X21777000Y-4936000D01*
X21777000Y-4906000D02*
X21747000Y-4936000D01*
X21874000Y-4652000D02*
X21904000Y-4682000D01*
X21904000Y-4652000D02*
X21874000Y-4682000D01*
X21874000Y-4779000D02*
X21904000Y-4809000D01*
X21904000Y-4779000D02*
X21874000Y-4809000D01*
X21874000Y-4906000D02*
X21904000Y-4936000D01*
X21904000Y-4906000D02*
X21874000Y-4936000D01*
X22001000Y-4652000D02*
X22031000Y-4682000D01*
X22031000Y-4652000D02*
X22001000Y-4682000D01*
X22001000Y-4779000D02*
X22031000Y-4809000D01*
X22031000Y-4779000D02*
X22001000Y-4809000D01*
X22001000Y-4906000D02*
X22031000Y-4936000D01*
X22031000Y-4906000D02*
X22001000Y-4936000D01*
X22763000Y-3001000D02*
X22793000Y-3031000D01*
X22793000Y-3001000D02*
X22763000Y-3031000D01*
X23462800Y-11120000D02*
X23492800Y-11150000D01*
X23492800Y-11120000D02*
X23462800Y-11150000D01*
X23462800Y-13120000D02*
X23492800Y-13150000D01*
X23492800Y-13120000D02*
X23462800Y-13150000D01*
X23462800Y-15120000D02*
X23492800Y-15150000D01*
X23492800Y-15120000D02*
X23462800Y-15150000D01*
X23462800Y-17120000D02*
X23492800Y-17150000D01*
X23492800Y-17120000D02*
X23462800Y-17150000D01*
X23462800Y-19120000D02*
X23492800Y-19150000D01*
X23492800Y-19120000D02*
X23462800Y-19150000D01*
X23462800Y-21120000D02*
X23492800Y-21150000D01*
X23492800Y-21120000D02*
X23462800Y-21150000D01*
X25385000Y-22735000D02*
X25415000Y-22765000D01*
X25415000Y-22735000D02*
X25385000Y-22765000D01*
X23750000Y-23000000D02*
G75*
G02*
X23650000Y-23000000I-50000J0D01*
G01*
X23650000Y-23000000D02*
G75*
G02*
X23750000Y-23000000I50000J0D01*
G01*
X23750000Y-23300000D02*
G75*
G02*
X23650000Y-23300000I-50000J0D01*
G01*
X23650000Y-23300000D02*
G75*
G02*
X23750000Y-23300000I50000J0D01*
G01*
D12*
X18400000Y-10191000D02*
X18400000Y-10301000D01*
X18345000Y-10246000D02*
X18455000Y-10246000D01*
X18400000Y-10445000D02*
X18400000Y-10555000D01*
X18345000Y-10500000D02*
X18455000Y-10500000D01*
X18400000Y-10699000D02*
X18400000Y-10809000D01*
X18345000Y-10754000D02*
X18455000Y-10754000D01*
X18400000Y-12191000D02*
X18400000Y-12301000D01*
X18345000Y-12246000D02*
X18455000Y-12246000D01*
X18400000Y-12445000D02*
X18400000Y-12555000D01*
X18345000Y-12500000D02*
X18455000Y-12500000D01*
X18400000Y-12699000D02*
X18400000Y-12809000D01*
X18345000Y-12754000D02*
X18455000Y-12754000D01*
X18400000Y-14191000D02*
X18400000Y-14301000D01*
X18345000Y-14246000D02*
X18455000Y-14246000D01*
X18400000Y-14445000D02*
X18400000Y-14555000D01*
X18345000Y-14500000D02*
X18455000Y-14500000D01*
X18400000Y-14699000D02*
X18400000Y-14809000D01*
X18345000Y-14754000D02*
X18455000Y-14754000D01*
X18400000Y-16191000D02*
X18400000Y-16301000D01*
X18345000Y-16246000D02*
X18455000Y-16246000D01*
X18400000Y-16445000D02*
X18400000Y-16555000D01*
X18345000Y-16500000D02*
X18455000Y-16500000D01*
X18400000Y-16699000D02*
X18400000Y-16809000D01*
X18345000Y-16754000D02*
X18455000Y-16754000D01*
X18400000Y-18191000D02*
X18400000Y-18301000D01*
X18345000Y-18246000D02*
X18455000Y-18246000D01*
X18400000Y-18445000D02*
X18400000Y-18555000D01*
X18345000Y-18500000D02*
X18455000Y-18500000D01*
X18400000Y-18699000D02*
X18400000Y-18809000D01*
X18345000Y-18754000D02*
X18455000Y-18754000D01*
X18400000Y-20191000D02*
X18400000Y-20301000D01*
X18345000Y-20246000D02*
X18455000Y-20246000D01*
X18400000Y-20445000D02*
X18400000Y-20555000D01*
X18345000Y-20500000D02*
X18455000Y-20500000D01*
X18400000Y-20699000D02*
X18400000Y-20809000D01*
X18345000Y-20754000D02*
X18455000Y-20754000D01*
X23600000Y-10191000D02*
X23600000Y-10301000D01*
X23545000Y-10246000D02*
X23655000Y-10246000D01*
X23600000Y-10445000D02*
X23600000Y-10555000D01*
X23545000Y-10500000D02*
X23655000Y-10500000D01*
X23600000Y-10699000D02*
X23600000Y-10809000D01*
X23545000Y-10754000D02*
X23655000Y-10754000D01*
X23600000Y-12191000D02*
X23600000Y-12301000D01*
X23545000Y-12246000D02*
X23655000Y-12246000D01*
X23600000Y-12445000D02*
X23600000Y-12555000D01*
X23545000Y-12500000D02*
X23655000Y-12500000D01*
X23600000Y-12699000D02*
X23600000Y-12809000D01*
X23545000Y-12754000D02*
X23655000Y-12754000D01*
X23600000Y-14191000D02*
X23600000Y-14301000D01*
X23545000Y-14246000D02*
X23655000Y-14246000D01*
X23600000Y-14445000D02*
X23600000Y-14555000D01*
X23545000Y-14500000D02*
X23655000Y-14500000D01*
X23600000Y-14699000D02*
X23600000Y-14809000D01*
X23545000Y-14754000D02*
X23655000Y-14754000D01*
X23600000Y-16191000D02*
X23600000Y-16301000D01*
X23545000Y-16246000D02*
X23655000Y-16246000D01*
X23600000Y-16445000D02*
X23600000Y-16555000D01*
X23545000Y-16500000D02*
X23655000Y-16500000D01*
X23600000Y-16699000D02*
X23600000Y-16809000D01*
X23545000Y-16754000D02*
X23655000Y-16754000D01*
X23600000Y-18191000D02*
X23600000Y-18301000D01*
X23545000Y-18246000D02*
X23655000Y-18246000D01*
X23600000Y-18445000D02*
X23600000Y-18555000D01*
X23545000Y-18500000D02*
X23655000Y-18500000D01*
X23600000Y-18699000D02*
X23600000Y-18809000D01*
X23545000Y-18754000D02*
X23655000Y-18754000D01*
X23600000Y-20191000D02*
X23600000Y-20301000D01*
X23545000Y-20246000D02*
X23655000Y-20246000D01*
X23600000Y-20445000D02*
X23600000Y-20555000D01*
X23545000Y-20500000D02*
X23655000Y-20500000D01*
X23600000Y-20699000D02*
X23600000Y-20809000D01*
X23545000Y-20754000D02*
X23655000Y-20754000D01*
D13*
X17114427Y-9907427D02*
X17114427Y-9822573D01*
X17029573Y-9822573D01*
X17029573Y-9907427D01*
X17114427Y-9907427D01*
X17114427Y-11177427D02*
X17114427Y-11092573D01*
X17029573Y-11092573D01*
X17029573Y-11177427D01*
X17114427Y-11177427D01*
X17114427Y-11907427D02*
X17114427Y-11822573D01*
X17029573Y-11822573D01*
X17029573Y-11907427D01*
X17114427Y-11907427D01*
X17114427Y-13177427D02*
X17114427Y-13092573D01*
X17029573Y-13092573D01*
X17029573Y-13177427D01*
X17114427Y-13177427D01*
X17114427Y-13907427D02*
X17114427Y-13822573D01*
X17029573Y-13822573D01*
X17029573Y-13907427D01*
X17114427Y-13907427D01*
X17114427Y-15177427D02*
X17114427Y-15092573D01*
X17029573Y-15092573D01*
X17029573Y-15177427D01*
X17114427Y-15177427D01*
X17114427Y-15907427D02*
X17114427Y-15822573D01*
X17029573Y-15822573D01*
X17029573Y-15907427D01*
X17114427Y-15907427D01*
X17114427Y-17177427D02*
X17114427Y-17092573D01*
X17029573Y-17092573D01*
X17029573Y-17177427D01*
X17114427Y-17177427D01*
X17114427Y-17907427D02*
X17114427Y-17822573D01*
X17029573Y-17822573D01*
X17029573Y-17907427D01*
X17114427Y-17907427D01*
X17114427Y-19177427D02*
X17114427Y-19092573D01*
X17029573Y-19092573D01*
X17029573Y-19177427D01*
X17114427Y-19177427D01*
X17114427Y-19907427D02*
X17114427Y-19822573D01*
X17029573Y-19822573D01*
X17029573Y-19907427D01*
X17114427Y-19907427D01*
X17114427Y-21177427D02*
X17114427Y-21092573D01*
X17029573Y-21092573D01*
X17029573Y-21177427D01*
X17114427Y-21177427D01*
X17673227Y-9907427D02*
X17673227Y-9822573D01*
X17588373Y-9822573D01*
X17588373Y-9907427D01*
X17673227Y-9907427D01*
X17673227Y-11177427D02*
X17673227Y-11092573D01*
X17588373Y-11092573D01*
X17588373Y-11177427D01*
X17673227Y-11177427D01*
X17673227Y-11907427D02*
X17673227Y-11822573D01*
X17588373Y-11822573D01*
X17588373Y-11907427D01*
X17673227Y-11907427D01*
X17673227Y-13177427D02*
X17673227Y-13092573D01*
X17588373Y-13092573D01*
X17588373Y-13177427D01*
X17673227Y-13177427D01*
X17673227Y-13907427D02*
X17673227Y-13822573D01*
X17588373Y-13822573D01*
X17588373Y-13907427D01*
X17673227Y-13907427D01*
X17673227Y-15177427D02*
X17673227Y-15092573D01*
X17588373Y-15092573D01*
X17588373Y-15177427D01*
X17673227Y-15177427D01*
X17673227Y-15907427D02*
X17673227Y-15822573D01*
X17588373Y-15822573D01*
X17588373Y-15907427D01*
X17673227Y-15907427D01*
X17673227Y-17177427D02*
X17673227Y-17092573D01*
X17588373Y-17092573D01*
X17588373Y-17177427D01*
X17673227Y-17177427D01*
X17673227Y-17907427D02*
X17673227Y-17822573D01*
X17588373Y-17822573D01*
X17588373Y-17907427D01*
X17673227Y-17907427D01*
X17673227Y-19177427D02*
X17673227Y-19092573D01*
X17588373Y-19092573D01*
X17588373Y-19177427D01*
X17673227Y-19177427D01*
X17673227Y-19907427D02*
X17673227Y-19822573D01*
X17588373Y-19822573D01*
X17588373Y-19907427D01*
X17673227Y-19907427D01*
X17673227Y-21177427D02*
X17673227Y-21092573D01*
X17588373Y-21092573D01*
X17588373Y-21177427D01*
X17673227Y-21177427D01*
X18776427Y-5292427D02*
X18776427Y-5207573D01*
X18691573Y-5207573D01*
X18691573Y-5292427D01*
X18776427Y-5292427D01*
X18776427Y-6042427D02*
X18776427Y-5957573D01*
X18691573Y-5957573D01*
X18691573Y-6042427D01*
X18776427Y-6042427D01*
X18776427Y-6792427D02*
X18776427Y-6707573D01*
X18691573Y-6707573D01*
X18691573Y-6792427D01*
X18776427Y-6792427D01*
X18776427Y-7542427D02*
X18776427Y-7457573D01*
X18691573Y-7457573D01*
X18691573Y-7542427D01*
X18776427Y-7542427D01*
X18776427Y-8292427D02*
X18776427Y-8207573D01*
X18691573Y-8207573D01*
X18691573Y-8292427D01*
X18776427Y-8292427D01*
X18776427Y-9042427D02*
X18776427Y-8957573D01*
X18691573Y-8957573D01*
X18691573Y-9042427D01*
X18776427Y-9042427D01*
X20808427Y-5292427D02*
X20808427Y-5207573D01*
X20723573Y-5207573D01*
X20723573Y-5292427D01*
X20808427Y-5292427D01*
X20808427Y-6042427D02*
X20808427Y-5957573D01*
X20723573Y-5957573D01*
X20723573Y-6042427D01*
X20808427Y-6042427D01*
X20808427Y-6792427D02*
X20808427Y-6707573D01*
X20723573Y-6707573D01*
X20723573Y-6792427D01*
X20808427Y-6792427D01*
X20808427Y-7542427D02*
X20808427Y-7457573D01*
X20723573Y-7457573D01*
X20723573Y-7542427D01*
X20808427Y-7542427D01*
X20808427Y-8292427D02*
X20808427Y-8207573D01*
X20723573Y-8207573D01*
X20723573Y-8292427D01*
X20808427Y-8292427D01*
X20808427Y-9042427D02*
X20808427Y-8957573D01*
X20723573Y-8957573D01*
X20723573Y-9042427D01*
X20808427Y-9042427D01*
X21276427Y-5292427D02*
X21276427Y-5207573D01*
X21191573Y-5207573D01*
X21191573Y-5292427D01*
X21276427Y-5292427D01*
X21276427Y-6042427D02*
X21276427Y-5957573D01*
X21191573Y-5957573D01*
X21191573Y-6042427D01*
X21276427Y-6042427D01*
X21276427Y-6792427D02*
X21276427Y-6707573D01*
X21191573Y-6707573D01*
X21191573Y-6792427D01*
X21276427Y-6792427D01*
X21276427Y-7542427D02*
X21276427Y-7457573D01*
X21191573Y-7457573D01*
X21191573Y-7542427D01*
X21276427Y-7542427D01*
X21276427Y-8292427D02*
X21276427Y-8207573D01*
X21191573Y-8207573D01*
X21191573Y-8292427D01*
X21276427Y-8292427D01*
X21276427Y-9042427D02*
X21276427Y-8957573D01*
X21191573Y-8957573D01*
X21191573Y-9042427D01*
X21276427Y-9042427D01*
X23308427Y-5292427D02*
X23308427Y-5207573D01*
X23223573Y-5207573D01*
X23223573Y-5292427D01*
X23308427Y-5292427D01*
X23308427Y-6042427D02*
X23308427Y-5957573D01*
X23223573Y-5957573D01*
X23223573Y-6042427D01*
X23308427Y-6042427D01*
X23308427Y-6792427D02*
X23308427Y-6707573D01*
X23223573Y-6707573D01*
X23223573Y-6792427D01*
X23308427Y-6792427D01*
X23308427Y-7542427D02*
X23308427Y-7457573D01*
X23223573Y-7457573D01*
X23223573Y-7542427D01*
X23308427Y-7542427D01*
X23308427Y-8292427D02*
X23308427Y-8207573D01*
X23223573Y-8207573D01*
X23223573Y-8292427D01*
X23308427Y-8292427D01*
X23308427Y-9042427D02*
X23308427Y-8957573D01*
X23223573Y-8957573D01*
X23223573Y-9042427D01*
X23308427Y-9042427D01*
X24411627Y-9907427D02*
X24411627Y-9822573D01*
X24326773Y-9822573D01*
X24326773Y-9907427D01*
X24411627Y-9907427D01*
X24411627Y-11177427D02*
X24411627Y-11092573D01*
X24326773Y-11092573D01*
X24326773Y-11177427D01*
X24411627Y-11177427D01*
X24411627Y-11907427D02*
X24411627Y-11822573D01*
X24326773Y-11822573D01*
X24326773Y-11907427D01*
X24411627Y-11907427D01*
X24411627Y-13177427D02*
X24411627Y-13092573D01*
X24326773Y-13092573D01*
X24326773Y-13177427D01*
X24411627Y-13177427D01*
X24411627Y-13907427D02*
X24411627Y-13822573D01*
X24326773Y-13822573D01*
X24326773Y-13907427D01*
X24411627Y-13907427D01*
X24411627Y-15177427D02*
X24411627Y-15092573D01*
X24326773Y-15092573D01*
X24326773Y-15177427D01*
X24411627Y-15177427D01*
X24411627Y-15907427D02*
X24411627Y-15822573D01*
X24326773Y-15822573D01*
X24326773Y-15907427D01*
X24411627Y-15907427D01*
X24411627Y-17177427D02*
X24411627Y-17092573D01*
X24326773Y-17092573D01*
X24326773Y-17177427D01*
X24411627Y-17177427D01*
X24411627Y-17907427D02*
X24411627Y-17822573D01*
X24326773Y-17822573D01*
X24326773Y-17907427D01*
X24411627Y-17907427D01*
X24411627Y-19177427D02*
X24411627Y-19092573D01*
X24326773Y-19092573D01*
X24326773Y-19177427D01*
X24411627Y-19177427D01*
X24411627Y-19907427D02*
X24411627Y-19822573D01*
X24326773Y-19822573D01*
X24326773Y-19907427D01*
X24411627Y-19907427D01*
X24411627Y-21177427D02*
X24411627Y-21092573D01*
X24326773Y-21092573D01*
X24326773Y-21177427D01*
X24411627Y-21177427D01*
X24970427Y-9907427D02*
X24970427Y-9822573D01*
X24885573Y-9822573D01*
X24885573Y-9907427D01*
X24970427Y-9907427D01*
X24970427Y-11177427D02*
X24970427Y-11092573D01*
X24885573Y-11092573D01*
X24885573Y-11177427D01*
X24970427Y-11177427D01*
X24970427Y-11907427D02*
X24970427Y-11822573D01*
X24885573Y-11822573D01*
X24885573Y-11907427D01*
X24970427Y-11907427D01*
X24970427Y-13177427D02*
X24970427Y-13092573D01*
X24885573Y-13092573D01*
X24885573Y-13177427D01*
X24970427Y-13177427D01*
X24970427Y-13907427D02*
X24970427Y-13822573D01*
X24885573Y-13822573D01*
X24885573Y-13907427D01*
X24970427Y-13907427D01*
X24970427Y-15177427D02*
X24970427Y-15092573D01*
X24885573Y-15092573D01*
X24885573Y-15177427D01*
X24970427Y-15177427D01*
X24970427Y-15907427D02*
X24970427Y-15822573D01*
X24885573Y-15822573D01*
X24885573Y-15907427D01*
X24970427Y-15907427D01*
X24970427Y-17177427D02*
X24970427Y-17092573D01*
X24885573Y-17092573D01*
X24885573Y-17177427D01*
X24970427Y-17177427D01*
X24970427Y-17907427D02*
X24970427Y-17822573D01*
X24885573Y-17822573D01*
X24885573Y-17907427D01*
X24970427Y-17907427D01*
X24970427Y-19177427D02*
X24970427Y-19092573D01*
X24885573Y-19092573D01*
X24885573Y-19177427D01*
X24970427Y-19177427D01*
X24970427Y-19907427D02*
X24970427Y-19822573D01*
X24885573Y-19822573D01*
X24885573Y-19907427D01*
X24970427Y-19907427D01*
X24970427Y-21177427D02*
X24970427Y-21092573D01*
X24885573Y-21092573D01*
X24885573Y-21177427D01*
X24970427Y-21177427D01*
D14*
X19730000Y-3594000D02*
X19800000Y-3524000D01*
X19730000Y-3454000D01*
X19660000Y-3524000D01*
X19730000Y-3594000D01*
X19730000Y-4464000D02*
X19800000Y-4394000D01*
X19730000Y-4324000D01*
X19660000Y-4394000D01*
X19730000Y-4464000D01*
X20238000Y-3594000D02*
X20308000Y-3524000D01*
X20238000Y-3454000D01*
X20168000Y-3524000D01*
X20238000Y-3594000D01*
X20238000Y-4464000D02*
X20308000Y-4394000D01*
X20238000Y-4324000D01*
X20168000Y-4394000D01*
X20238000Y-4464000D01*
X20746000Y-3594000D02*
X20816000Y-3524000D01*
X20746000Y-3454000D01*
X20676000Y-3524000D01*
X20746000Y-3594000D01*
X20746000Y-4464000D02*
X20816000Y-4394000D01*
X20746000Y-4324000D01*
X20676000Y-4394000D01*
X20746000Y-4464000D01*
X21254000Y-3594000D02*
X21324000Y-3524000D01*
X21254000Y-3454000D01*
X21184000Y-3524000D01*
X21254000Y-3594000D01*
X21254000Y-4464000D02*
X21324000Y-4394000D01*
X21254000Y-4324000D01*
X21184000Y-4394000D01*
X21254000Y-4464000D01*
X21762000Y-3594000D02*
X21832000Y-3524000D01*
X21762000Y-3454000D01*
X21692000Y-3524000D01*
X21762000Y-3594000D01*
X21762000Y-4464000D02*
X21832000Y-4394000D01*
X21762000Y-4324000D01*
X21692000Y-4394000D01*
X21762000Y-4464000D01*
X22270000Y-3594000D02*
X22340000Y-3524000D01*
X22270000Y-3454000D01*
X22200000Y-3524000D01*
X22270000Y-3594000D01*
X22270000Y-4464000D02*
X22340000Y-4394000D01*
X22270000Y-4324000D01*
X22200000Y-4394000D01*
X22270000Y-4464000D01*
D11*
X16255777Y-24316484D02*
X16255777Y-24116484D01*
X16255777Y-24116484D02*
X16303396Y-24116484D01*
X16303396Y-24116484D02*
X16331967Y-24126008D01*
X16331967Y-24126008D02*
X16351015Y-24145055D01*
X16351015Y-24145055D02*
X16360539Y-24164103D01*
X16360539Y-24164103D02*
X16370062Y-24202198D01*
X16370062Y-24202198D02*
X16370062Y-24230769D01*
X16370062Y-24230769D02*
X16360539Y-24268865D01*
X16360539Y-24268865D02*
X16351015Y-24287912D01*
X16351015Y-24287912D02*
X16331967Y-24306960D01*
X16331967Y-24306960D02*
X16303396Y-24316484D01*
X16303396Y-24316484D02*
X16255777Y-24316484D01*
X16455777Y-24316484D02*
X16455777Y-24183150D01*
X16455777Y-24221246D02*
X16465301Y-24202198D01*
X16465301Y-24202198D02*
X16474824Y-24192674D01*
X16474824Y-24192674D02*
X16493872Y-24183150D01*
X16493872Y-24183150D02*
X16512920Y-24183150D01*
X16579586Y-24316484D02*
X16579586Y-24183150D01*
X16579586Y-24116484D02*
X16570062Y-24126008D01*
X16570062Y-24126008D02*
X16579586Y-24135531D01*
X16579586Y-24135531D02*
X16589110Y-24126008D01*
X16589110Y-24126008D02*
X16579586Y-24116484D01*
X16579586Y-24116484D02*
X16579586Y-24135531D01*
X16703396Y-24316484D02*
X16684348Y-24306960D01*
X16684348Y-24306960D02*
X16674824Y-24287912D01*
X16674824Y-24287912D02*
X16674824Y-24116484D01*
X16808158Y-24316484D02*
X16789110Y-24306960D01*
X16789110Y-24306960D02*
X16779586Y-24287912D01*
X16779586Y-24287912D02*
X16779586Y-24116484D01*
X17036729Y-24316484D02*
X17036729Y-24116484D01*
X17036729Y-24116484D02*
X17103396Y-24259341D01*
X17103396Y-24259341D02*
X17170063Y-24116484D01*
X17170063Y-24116484D02*
X17170063Y-24316484D01*
X17351015Y-24316484D02*
X17351015Y-24211722D01*
X17351015Y-24211722D02*
X17341491Y-24192674D01*
X17341491Y-24192674D02*
X17322444Y-24183150D01*
X17322444Y-24183150D02*
X17284348Y-24183150D01*
X17284348Y-24183150D02*
X17265301Y-24192674D01*
X17351015Y-24306960D02*
X17331967Y-24316484D01*
X17331967Y-24316484D02*
X17284348Y-24316484D01*
X17284348Y-24316484D02*
X17265301Y-24306960D01*
X17265301Y-24306960D02*
X17255777Y-24287912D01*
X17255777Y-24287912D02*
X17255777Y-24268865D01*
X17255777Y-24268865D02*
X17265301Y-24249817D01*
X17265301Y-24249817D02*
X17284348Y-24240293D01*
X17284348Y-24240293D02*
X17331967Y-24240293D01*
X17331967Y-24240293D02*
X17351015Y-24230769D01*
X17446253Y-24183150D02*
X17446253Y-24383150D01*
X17446253Y-24192674D02*
X17465301Y-24183150D01*
X17465301Y-24183150D02*
X17503396Y-24183150D01*
X17503396Y-24183150D02*
X17522444Y-24192674D01*
X17522444Y-24192674D02*
X17531967Y-24202198D01*
X17531967Y-24202198D02*
X17541491Y-24221246D01*
X17541491Y-24221246D02*
X17541491Y-24278388D01*
X17541491Y-24278388D02*
X17531967Y-24297436D01*
X17531967Y-24297436D02*
X17522444Y-24306960D01*
X17522444Y-24306960D02*
X17503396Y-24316484D01*
X17503396Y-24316484D02*
X17465301Y-24316484D01*
X17465301Y-24316484D02*
X17446253Y-24306960D01*
X17627205Y-24297436D02*
X17636729Y-24306960D01*
X17636729Y-24306960D02*
X17627205Y-24316484D01*
X17627205Y-24316484D02*
X17617682Y-24306960D01*
X17617682Y-24306960D02*
X17627205Y-24297436D01*
X17627205Y-24297436D02*
X17627205Y-24316484D01*
X17627205Y-24192674D02*
X17636729Y-24202198D01*
X17636729Y-24202198D02*
X17627205Y-24211722D01*
X17627205Y-24211722D02*
X17617682Y-24202198D01*
X17617682Y-24202198D02*
X17627205Y-24192674D01*
X17627205Y-24192674D02*
X17627205Y-24211722D01*
D10*
X15965000Y-24630000D02*
X15995000Y-24660000D01*
X15995000Y-24630000D02*
X15965000Y-24660000D01*
D11*
X16293872Y-24536484D02*
X16312920Y-24536484D01*
X16312920Y-24536484D02*
X16331967Y-24546008D01*
X16331967Y-24546008D02*
X16341491Y-24555531D01*
X16341491Y-24555531D02*
X16351015Y-24574579D01*
X16351015Y-24574579D02*
X16360539Y-24612674D01*
X16360539Y-24612674D02*
X16360539Y-24660293D01*
X16360539Y-24660293D02*
X16351015Y-24698388D01*
X16351015Y-24698388D02*
X16341491Y-24717436D01*
X16341491Y-24717436D02*
X16331967Y-24726960D01*
X16331967Y-24726960D02*
X16312920Y-24736484D01*
X16312920Y-24736484D02*
X16293872Y-24736484D01*
X16293872Y-24736484D02*
X16274824Y-24726960D01*
X16274824Y-24726960D02*
X16265301Y-24717436D01*
X16265301Y-24717436D02*
X16255777Y-24698388D01*
X16255777Y-24698388D02*
X16246253Y-24660293D01*
X16246253Y-24660293D02*
X16246253Y-24612674D01*
X16246253Y-24612674D02*
X16255777Y-24574579D01*
X16255777Y-24574579D02*
X16265301Y-24555531D01*
X16265301Y-24555531D02*
X16274824Y-24546008D01*
X16274824Y-24546008D02*
X16293872Y-24536484D01*
X16446253Y-24717436D02*
X16455777Y-24726960D01*
X16455777Y-24726960D02*
X16446253Y-24736484D01*
X16446253Y-24736484D02*
X16436729Y-24726960D01*
X16436729Y-24726960D02*
X16446253Y-24717436D01*
X16446253Y-24717436D02*
X16446253Y-24736484D01*
X16522443Y-24536484D02*
X16646253Y-24536484D01*
X16646253Y-24536484D02*
X16579586Y-24612674D01*
X16579586Y-24612674D02*
X16608158Y-24612674D01*
X16608158Y-24612674D02*
X16627205Y-24622198D01*
X16627205Y-24622198D02*
X16636729Y-24631722D01*
X16636729Y-24631722D02*
X16646253Y-24650769D01*
X16646253Y-24650769D02*
X16646253Y-24698388D01*
X16646253Y-24698388D02*
X16636729Y-24717436D01*
X16636729Y-24717436D02*
X16627205Y-24726960D01*
X16627205Y-24726960D02*
X16608158Y-24736484D01*
X16608158Y-24736484D02*
X16551015Y-24736484D01*
X16551015Y-24736484D02*
X16531967Y-24726960D01*
X16531967Y-24726960D02*
X16522443Y-24717436D01*
X16770062Y-24536484D02*
X16789110Y-24536484D01*
X16789110Y-24536484D02*
X16808158Y-24546008D01*
X16808158Y-24546008D02*
X16817682Y-24555531D01*
X16817682Y-24555531D02*
X16827205Y-24574579D01*
X16827205Y-24574579D02*
X16836729Y-24612674D01*
X16836729Y-24612674D02*
X16836729Y-24660293D01*
X16836729Y-24660293D02*
X16827205Y-24698388D01*
X16827205Y-24698388D02*
X16817682Y-24717436D01*
X16817682Y-24717436D02*
X16808158Y-24726960D01*
X16808158Y-24726960D02*
X16789110Y-24736484D01*
X16789110Y-24736484D02*
X16770062Y-24736484D01*
X16770062Y-24736484D02*
X16751015Y-24726960D01*
X16751015Y-24726960D02*
X16741491Y-24717436D01*
X16741491Y-24717436D02*
X16731967Y-24698388D01*
X16731967Y-24698388D02*
X16722443Y-24660293D01*
X16722443Y-24660293D02*
X16722443Y-24612674D01*
X16722443Y-24612674D02*
X16731967Y-24574579D01*
X16731967Y-24574579D02*
X16741491Y-24555531D01*
X16741491Y-24555531D02*
X16751015Y-24546008D01*
X16751015Y-24546008D02*
X16770062Y-24536484D01*
X16960539Y-24536484D02*
X16979586Y-24536484D01*
X16979586Y-24536484D02*
X16998634Y-24546008D01*
X16998634Y-24546008D02*
X17008158Y-24555531D01*
X17008158Y-24555531D02*
X17017682Y-24574579D01*
X17017682Y-24574579D02*
X17027205Y-24612674D01*
X17027205Y-24612674D02*
X17027205Y-24660293D01*
X17027205Y-24660293D02*
X17017682Y-24698388D01*
X17017682Y-24698388D02*
X17008158Y-24717436D01*
X17008158Y-24717436D02*
X16998634Y-24726960D01*
X16998634Y-24726960D02*
X16979586Y-24736484D01*
X16979586Y-24736484D02*
X16960539Y-24736484D01*
X16960539Y-24736484D02*
X16941491Y-24726960D01*
X16941491Y-24726960D02*
X16931967Y-24717436D01*
X16931967Y-24717436D02*
X16922444Y-24698388D01*
X16922444Y-24698388D02*
X16912920Y-24660293D01*
X16912920Y-24660293D02*
X16912920Y-24612674D01*
X16912920Y-24612674D02*
X16922444Y-24574579D01*
X16922444Y-24574579D02*
X16931967Y-24555531D01*
X16931967Y-24555531D02*
X16941491Y-24546008D01*
X16941491Y-24546008D02*
X16960539Y-24536484D01*
X17112920Y-24736484D02*
X17112920Y-24603150D01*
X17112920Y-24622198D02*
X17122444Y-24612674D01*
X17122444Y-24612674D02*
X17141491Y-24603150D01*
X17141491Y-24603150D02*
X17170063Y-24603150D01*
X17170063Y-24603150D02*
X17189110Y-24612674D01*
X17189110Y-24612674D02*
X17198634Y-24631722D01*
X17198634Y-24631722D02*
X17198634Y-24736484D01*
X17198634Y-24631722D02*
X17208158Y-24612674D01*
X17208158Y-24612674D02*
X17227205Y-24603150D01*
X17227205Y-24603150D02*
X17255777Y-24603150D01*
X17255777Y-24603150D02*
X17274825Y-24612674D01*
X17274825Y-24612674D02*
X17284348Y-24631722D01*
X17284348Y-24631722D02*
X17284348Y-24736484D01*
X17379586Y-24736484D02*
X17379586Y-24603150D01*
X17379586Y-24622198D02*
X17389110Y-24612674D01*
X17389110Y-24612674D02*
X17408158Y-24603150D01*
X17408158Y-24603150D02*
X17436729Y-24603150D01*
X17436729Y-24603150D02*
X17455777Y-24612674D01*
X17455777Y-24612674D02*
X17465301Y-24631722D01*
X17465301Y-24631722D02*
X17465301Y-24736484D01*
X17465301Y-24631722D02*
X17474825Y-24612674D01*
X17474825Y-24612674D02*
X17493872Y-24603150D01*
X17493872Y-24603150D02*
X17522444Y-24603150D01*
X17522444Y-24603150D02*
X17541491Y-24612674D01*
X17541491Y-24612674D02*
X17551015Y-24631722D01*
X17551015Y-24631722D02*
X17551015Y-24736484D01*
X17941491Y-24526960D02*
X17770063Y-24784103D01*
X18198634Y-24536484D02*
X18217682Y-24536484D01*
X18217682Y-24536484D02*
X18236729Y-24546008D01*
X18236729Y-24546008D02*
X18246253Y-24555531D01*
X18246253Y-24555531D02*
X18255777Y-24574579D01*
X18255777Y-24574579D02*
X18265301Y-24612674D01*
X18265301Y-24612674D02*
X18265301Y-24660293D01*
X18265301Y-24660293D02*
X18255777Y-24698388D01*
X18255777Y-24698388D02*
X18246253Y-24717436D01*
X18246253Y-24717436D02*
X18236729Y-24726960D01*
X18236729Y-24726960D02*
X18217682Y-24736484D01*
X18217682Y-24736484D02*
X18198634Y-24736484D01*
X18198634Y-24736484D02*
X18179587Y-24726960D01*
X18179587Y-24726960D02*
X18170063Y-24717436D01*
X18170063Y-24717436D02*
X18160539Y-24698388D01*
X18160539Y-24698388D02*
X18151015Y-24660293D01*
X18151015Y-24660293D02*
X18151015Y-24612674D01*
X18151015Y-24612674D02*
X18160539Y-24574579D01*
X18160539Y-24574579D02*
X18170063Y-24555531D01*
X18170063Y-24555531D02*
X18179587Y-24546008D01*
X18179587Y-24546008D02*
X18198634Y-24536484D01*
X18351015Y-24717436D02*
X18360539Y-24726960D01*
X18360539Y-24726960D02*
X18351015Y-24736484D01*
X18351015Y-24736484D02*
X18341491Y-24726960D01*
X18341491Y-24726960D02*
X18351015Y-24717436D01*
X18351015Y-24717436D02*
X18351015Y-24736484D01*
X18484348Y-24536484D02*
X18503396Y-24536484D01*
X18503396Y-24536484D02*
X18522444Y-24546008D01*
X18522444Y-24546008D02*
X18531968Y-24555531D01*
X18531968Y-24555531D02*
X18541491Y-24574579D01*
X18541491Y-24574579D02*
X18551015Y-24612674D01*
X18551015Y-24612674D02*
X18551015Y-24660293D01*
X18551015Y-24660293D02*
X18541491Y-24698388D01*
X18541491Y-24698388D02*
X18531968Y-24717436D01*
X18531968Y-24717436D02*
X18522444Y-24726960D01*
X18522444Y-24726960D02*
X18503396Y-24736484D01*
X18503396Y-24736484D02*
X18484348Y-24736484D01*
X18484348Y-24736484D02*
X18465301Y-24726960D01*
X18465301Y-24726960D02*
X18455777Y-24717436D01*
X18455777Y-24717436D02*
X18446253Y-24698388D01*
X18446253Y-24698388D02*
X18436729Y-24660293D01*
X18436729Y-24660293D02*
X18436729Y-24612674D01*
X18436729Y-24612674D02*
X18446253Y-24574579D01*
X18446253Y-24574579D02*
X18455777Y-24555531D01*
X18455777Y-24555531D02*
X18465301Y-24546008D01*
X18465301Y-24546008D02*
X18484348Y-24536484D01*
X18741491Y-24736484D02*
X18627206Y-24736484D01*
X18684348Y-24736484D02*
X18684348Y-24536484D01*
X18684348Y-24536484D02*
X18665301Y-24565055D01*
X18665301Y-24565055D02*
X18646253Y-24584103D01*
X18646253Y-24584103D02*
X18627206Y-24593627D01*
X18931968Y-24736484D02*
X18817682Y-24736484D01*
X18874825Y-24736484D02*
X18874825Y-24536484D01*
X18874825Y-24536484D02*
X18855777Y-24565055D01*
X18855777Y-24565055D02*
X18836729Y-24584103D01*
X18836729Y-24584103D02*
X18817682Y-24593627D01*
X19046253Y-24622198D02*
X19027206Y-24612674D01*
X19027206Y-24612674D02*
X19017682Y-24603150D01*
X19017682Y-24603150D02*
X19008158Y-24584103D01*
X19008158Y-24584103D02*
X19008158Y-24574579D01*
X19008158Y-24574579D02*
X19017682Y-24555531D01*
X19017682Y-24555531D02*
X19027206Y-24546008D01*
X19027206Y-24546008D02*
X19046253Y-24536484D01*
X19046253Y-24536484D02*
X19084349Y-24536484D01*
X19084349Y-24536484D02*
X19103396Y-24546008D01*
X19103396Y-24546008D02*
X19112920Y-24555531D01*
X19112920Y-24555531D02*
X19122444Y-24574579D01*
X19122444Y-24574579D02*
X19122444Y-24584103D01*
X19122444Y-24584103D02*
X19112920Y-24603150D01*
X19112920Y-24603150D02*
X19103396Y-24612674D01*
X19103396Y-24612674D02*
X19084349Y-24622198D01*
X19084349Y-24622198D02*
X19046253Y-24622198D01*
X19046253Y-24622198D02*
X19027206Y-24631722D01*
X19027206Y-24631722D02*
X19017682Y-24641246D01*
X19017682Y-24641246D02*
X19008158Y-24660293D01*
X19008158Y-24660293D02*
X19008158Y-24698388D01*
X19008158Y-24698388D02*
X19017682Y-24717436D01*
X19017682Y-24717436D02*
X19027206Y-24726960D01*
X19027206Y-24726960D02*
X19046253Y-24736484D01*
X19046253Y-24736484D02*
X19084349Y-24736484D01*
X19084349Y-24736484D02*
X19103396Y-24726960D01*
X19103396Y-24726960D02*
X19112920Y-24717436D01*
X19112920Y-24717436D02*
X19122444Y-24698388D01*
X19122444Y-24698388D02*
X19122444Y-24660293D01*
X19122444Y-24660293D02*
X19112920Y-24641246D01*
X19112920Y-24641246D02*
X19103396Y-24631722D01*
X19103396Y-24631722D02*
X19084349Y-24622198D01*
X19198634Y-24536484D02*
X19198634Y-24574579D01*
X19274825Y-24536484D02*
X19274825Y-24574579D01*
X19570063Y-24812674D02*
X19560539Y-24803150D01*
X19560539Y-24803150D02*
X19541491Y-24774579D01*
X19541491Y-24774579D02*
X19531968Y-24755531D01*
X19531968Y-24755531D02*
X19522444Y-24726960D01*
X19522444Y-24726960D02*
X19512920Y-24679341D01*
X19512920Y-24679341D02*
X19512920Y-24641246D01*
X19512920Y-24641246D02*
X19522444Y-24593627D01*
X19522444Y-24593627D02*
X19531968Y-24565055D01*
X19531968Y-24565055D02*
X19541491Y-24546008D01*
X19541491Y-24546008D02*
X19560539Y-24517436D01*
X19560539Y-24517436D02*
X19570063Y-24507912D01*
X19741491Y-24536484D02*
X19646253Y-24536484D01*
X19646253Y-24536484D02*
X19636730Y-24631722D01*
X19636730Y-24631722D02*
X19646253Y-24622198D01*
X19646253Y-24622198D02*
X19665301Y-24612674D01*
X19665301Y-24612674D02*
X19712920Y-24612674D01*
X19712920Y-24612674D02*
X19731968Y-24622198D01*
X19731968Y-24622198D02*
X19741491Y-24631722D01*
X19741491Y-24631722D02*
X19751015Y-24650769D01*
X19751015Y-24650769D02*
X19751015Y-24698388D01*
X19751015Y-24698388D02*
X19741491Y-24717436D01*
X19741491Y-24717436D02*
X19731968Y-24726960D01*
X19731968Y-24726960D02*
X19712920Y-24736484D01*
X19712920Y-24736484D02*
X19665301Y-24736484D01*
X19665301Y-24736484D02*
X19646253Y-24726960D01*
X19646253Y-24726960D02*
X19636730Y-24717436D01*
X19874825Y-24536484D02*
X19893872Y-24536484D01*
X19893872Y-24536484D02*
X19912920Y-24546008D01*
X19912920Y-24546008D02*
X19922444Y-24555531D01*
X19922444Y-24555531D02*
X19931968Y-24574579D01*
X19931968Y-24574579D02*
X19941491Y-24612674D01*
X19941491Y-24612674D02*
X19941491Y-24660293D01*
X19941491Y-24660293D02*
X19931968Y-24698388D01*
X19931968Y-24698388D02*
X19922444Y-24717436D01*
X19922444Y-24717436D02*
X19912920Y-24726960D01*
X19912920Y-24726960D02*
X19893872Y-24736484D01*
X19893872Y-24736484D02*
X19874825Y-24736484D01*
X19874825Y-24736484D02*
X19855777Y-24726960D01*
X19855777Y-24726960D02*
X19846253Y-24717436D01*
X19846253Y-24717436D02*
X19836730Y-24698388D01*
X19836730Y-24698388D02*
X19827206Y-24660293D01*
X19827206Y-24660293D02*
X19827206Y-24612674D01*
X19827206Y-24612674D02*
X19836730Y-24574579D01*
X19836730Y-24574579D02*
X19846253Y-24555531D01*
X19846253Y-24555531D02*
X19855777Y-24546008D01*
X19855777Y-24546008D02*
X19874825Y-24536484D01*
X20179587Y-24736484D02*
X20179587Y-24536484D01*
X20265301Y-24736484D02*
X20265301Y-24631722D01*
X20265301Y-24631722D02*
X20255777Y-24612674D01*
X20255777Y-24612674D02*
X20236730Y-24603150D01*
X20236730Y-24603150D02*
X20208158Y-24603150D01*
X20208158Y-24603150D02*
X20189111Y-24612674D01*
X20189111Y-24612674D02*
X20179587Y-24622198D01*
X20389111Y-24736484D02*
X20370063Y-24726960D01*
X20370063Y-24726960D02*
X20360539Y-24717436D01*
X20360539Y-24717436D02*
X20351015Y-24698388D01*
X20351015Y-24698388D02*
X20351015Y-24641246D01*
X20351015Y-24641246D02*
X20360539Y-24622198D01*
X20360539Y-24622198D02*
X20370063Y-24612674D01*
X20370063Y-24612674D02*
X20389111Y-24603150D01*
X20389111Y-24603150D02*
X20417682Y-24603150D01*
X20417682Y-24603150D02*
X20436730Y-24612674D01*
X20436730Y-24612674D02*
X20446253Y-24622198D01*
X20446253Y-24622198D02*
X20455777Y-24641246D01*
X20455777Y-24641246D02*
X20455777Y-24698388D01*
X20455777Y-24698388D02*
X20446253Y-24717436D01*
X20446253Y-24717436D02*
X20436730Y-24726960D01*
X20436730Y-24726960D02*
X20417682Y-24736484D01*
X20417682Y-24736484D02*
X20389111Y-24736484D01*
X20570063Y-24736484D02*
X20551015Y-24726960D01*
X20551015Y-24726960D02*
X20541492Y-24707912D01*
X20541492Y-24707912D02*
X20541492Y-24536484D01*
X20722444Y-24726960D02*
X20703396Y-24736484D01*
X20703396Y-24736484D02*
X20665301Y-24736484D01*
X20665301Y-24736484D02*
X20646253Y-24726960D01*
X20646253Y-24726960D02*
X20636730Y-24707912D01*
X20636730Y-24707912D02*
X20636730Y-24631722D01*
X20636730Y-24631722D02*
X20646253Y-24612674D01*
X20646253Y-24612674D02*
X20665301Y-24603150D01*
X20665301Y-24603150D02*
X20703396Y-24603150D01*
X20703396Y-24603150D02*
X20722444Y-24612674D01*
X20722444Y-24612674D02*
X20731968Y-24631722D01*
X20731968Y-24631722D02*
X20731968Y-24650769D01*
X20731968Y-24650769D02*
X20636730Y-24669817D01*
X20808158Y-24726960D02*
X20827206Y-24736484D01*
X20827206Y-24736484D02*
X20865301Y-24736484D01*
X20865301Y-24736484D02*
X20884349Y-24726960D01*
X20884349Y-24726960D02*
X20893873Y-24707912D01*
X20893873Y-24707912D02*
X20893873Y-24698388D01*
X20893873Y-24698388D02*
X20884349Y-24679341D01*
X20884349Y-24679341D02*
X20865301Y-24669817D01*
X20865301Y-24669817D02*
X20836730Y-24669817D01*
X20836730Y-24669817D02*
X20817682Y-24660293D01*
X20817682Y-24660293D02*
X20808158Y-24641246D01*
X20808158Y-24641246D02*
X20808158Y-24631722D01*
X20808158Y-24631722D02*
X20817682Y-24612674D01*
X20817682Y-24612674D02*
X20836730Y-24603150D01*
X20836730Y-24603150D02*
X20865301Y-24603150D01*
X20865301Y-24603150D02*
X20884349Y-24612674D01*
X20960539Y-24812674D02*
X20970063Y-24803150D01*
X20970063Y-24803150D02*
X20989111Y-24774579D01*
X20989111Y-24774579D02*
X20998634Y-24755531D01*
X20998634Y-24755531D02*
X21008158Y-24726960D01*
X21008158Y-24726960D02*
X21017682Y-24679341D01*
X21017682Y-24679341D02*
X21017682Y-24641246D01*
X21017682Y-24641246D02*
X21008158Y-24593627D01*
X21008158Y-24593627D02*
X20998634Y-24565055D01*
X20998634Y-24565055D02*
X20989111Y-24546008D01*
X20989111Y-24546008D02*
X20970063Y-24517436D01*
X20970063Y-24517436D02*
X20960539Y-24507912D01*
D10*
X15995000Y-24909000D02*
G75*
G02*
X15895000Y-24909000I-50000J0D01*
G01*
X15895000Y-24909000D02*
G75*
G02*
X15995000Y-24909000I50000J0D01*
G01*
D11*
X16360539Y-25000484D02*
X16246253Y-25000484D01*
X16303396Y-25000484D02*
X16303396Y-24800484D01*
X16303396Y-24800484D02*
X16284348Y-24829055D01*
X16284348Y-24829055D02*
X16265301Y-24848103D01*
X16265301Y-24848103D02*
X16246253Y-24857627D01*
X16446253Y-24981436D02*
X16455777Y-24990960D01*
X16455777Y-24990960D02*
X16446253Y-25000484D01*
X16446253Y-25000484D02*
X16436729Y-24990960D01*
X16436729Y-24990960D02*
X16446253Y-24981436D01*
X16446253Y-24981436D02*
X16446253Y-25000484D01*
X16579586Y-24800484D02*
X16598634Y-24800484D01*
X16598634Y-24800484D02*
X16617682Y-24810008D01*
X16617682Y-24810008D02*
X16627205Y-24819531D01*
X16627205Y-24819531D02*
X16636729Y-24838579D01*
X16636729Y-24838579D02*
X16646253Y-24876674D01*
X16646253Y-24876674D02*
X16646253Y-24924293D01*
X16646253Y-24924293D02*
X16636729Y-24962388D01*
X16636729Y-24962388D02*
X16627205Y-24981436D01*
X16627205Y-24981436D02*
X16617682Y-24990960D01*
X16617682Y-24990960D02*
X16598634Y-25000484D01*
X16598634Y-25000484D02*
X16579586Y-25000484D01*
X16579586Y-25000484D02*
X16560539Y-24990960D01*
X16560539Y-24990960D02*
X16551015Y-24981436D01*
X16551015Y-24981436D02*
X16541491Y-24962388D01*
X16541491Y-24962388D02*
X16531967Y-24924293D01*
X16531967Y-24924293D02*
X16531967Y-24876674D01*
X16531967Y-24876674D02*
X16541491Y-24838579D01*
X16541491Y-24838579D02*
X16551015Y-24819531D01*
X16551015Y-24819531D02*
X16560539Y-24810008D01*
X16560539Y-24810008D02*
X16579586Y-24800484D01*
X16770062Y-24800484D02*
X16789110Y-24800484D01*
X16789110Y-24800484D02*
X16808158Y-24810008D01*
X16808158Y-24810008D02*
X16817682Y-24819531D01*
X16817682Y-24819531D02*
X16827205Y-24838579D01*
X16827205Y-24838579D02*
X16836729Y-24876674D01*
X16836729Y-24876674D02*
X16836729Y-24924293D01*
X16836729Y-24924293D02*
X16827205Y-24962388D01*
X16827205Y-24962388D02*
X16817682Y-24981436D01*
X16817682Y-24981436D02*
X16808158Y-24990960D01*
X16808158Y-24990960D02*
X16789110Y-25000484D01*
X16789110Y-25000484D02*
X16770062Y-25000484D01*
X16770062Y-25000484D02*
X16751015Y-24990960D01*
X16751015Y-24990960D02*
X16741491Y-24981436D01*
X16741491Y-24981436D02*
X16731967Y-24962388D01*
X16731967Y-24962388D02*
X16722443Y-24924293D01*
X16722443Y-24924293D02*
X16722443Y-24876674D01*
X16722443Y-24876674D02*
X16731967Y-24838579D01*
X16731967Y-24838579D02*
X16741491Y-24819531D01*
X16741491Y-24819531D02*
X16751015Y-24810008D01*
X16751015Y-24810008D02*
X16770062Y-24800484D01*
X16960539Y-24800484D02*
X16979586Y-24800484D01*
X16979586Y-24800484D02*
X16998634Y-24810008D01*
X16998634Y-24810008D02*
X17008158Y-24819531D01*
X17008158Y-24819531D02*
X17017682Y-24838579D01*
X17017682Y-24838579D02*
X17027205Y-24876674D01*
X17027205Y-24876674D02*
X17027205Y-24924293D01*
X17027205Y-24924293D02*
X17017682Y-24962388D01*
X17017682Y-24962388D02*
X17008158Y-24981436D01*
X17008158Y-24981436D02*
X16998634Y-24990960D01*
X16998634Y-24990960D02*
X16979586Y-25000484D01*
X16979586Y-25000484D02*
X16960539Y-25000484D01*
X16960539Y-25000484D02*
X16941491Y-24990960D01*
X16941491Y-24990960D02*
X16931967Y-24981436D01*
X16931967Y-24981436D02*
X16922444Y-24962388D01*
X16922444Y-24962388D02*
X16912920Y-24924293D01*
X16912920Y-24924293D02*
X16912920Y-24876674D01*
X16912920Y-24876674D02*
X16922444Y-24838579D01*
X16922444Y-24838579D02*
X16931967Y-24819531D01*
X16931967Y-24819531D02*
X16941491Y-24810008D01*
X16941491Y-24810008D02*
X16960539Y-24800484D01*
X17112920Y-25000484D02*
X17112920Y-24867150D01*
X17112920Y-24886198D02*
X17122444Y-24876674D01*
X17122444Y-24876674D02*
X17141491Y-24867150D01*
X17141491Y-24867150D02*
X17170063Y-24867150D01*
X17170063Y-24867150D02*
X17189110Y-24876674D01*
X17189110Y-24876674D02*
X17198634Y-24895722D01*
X17198634Y-24895722D02*
X17198634Y-25000484D01*
X17198634Y-24895722D02*
X17208158Y-24876674D01*
X17208158Y-24876674D02*
X17227205Y-24867150D01*
X17227205Y-24867150D02*
X17255777Y-24867150D01*
X17255777Y-24867150D02*
X17274825Y-24876674D01*
X17274825Y-24876674D02*
X17284348Y-24895722D01*
X17284348Y-24895722D02*
X17284348Y-25000484D01*
X17379586Y-25000484D02*
X17379586Y-24867150D01*
X17379586Y-24886198D02*
X17389110Y-24876674D01*
X17389110Y-24876674D02*
X17408158Y-24867150D01*
X17408158Y-24867150D02*
X17436729Y-24867150D01*
X17436729Y-24867150D02*
X17455777Y-24876674D01*
X17455777Y-24876674D02*
X17465301Y-24895722D01*
X17465301Y-24895722D02*
X17465301Y-25000484D01*
X17465301Y-24895722D02*
X17474825Y-24876674D01*
X17474825Y-24876674D02*
X17493872Y-24867150D01*
X17493872Y-24867150D02*
X17522444Y-24867150D01*
X17522444Y-24867150D02*
X17541491Y-24876674D01*
X17541491Y-24876674D02*
X17551015Y-24895722D01*
X17551015Y-24895722D02*
X17551015Y-25000484D01*
X17941491Y-24790960D02*
X17770063Y-25048103D01*
X18198634Y-24800484D02*
X18217682Y-24800484D01*
X18217682Y-24800484D02*
X18236729Y-24810008D01*
X18236729Y-24810008D02*
X18246253Y-24819531D01*
X18246253Y-24819531D02*
X18255777Y-24838579D01*
X18255777Y-24838579D02*
X18265301Y-24876674D01*
X18265301Y-24876674D02*
X18265301Y-24924293D01*
X18265301Y-24924293D02*
X18255777Y-24962388D01*
X18255777Y-24962388D02*
X18246253Y-24981436D01*
X18246253Y-24981436D02*
X18236729Y-24990960D01*
X18236729Y-24990960D02*
X18217682Y-25000484D01*
X18217682Y-25000484D02*
X18198634Y-25000484D01*
X18198634Y-25000484D02*
X18179587Y-24990960D01*
X18179587Y-24990960D02*
X18170063Y-24981436D01*
X18170063Y-24981436D02*
X18160539Y-24962388D01*
X18160539Y-24962388D02*
X18151015Y-24924293D01*
X18151015Y-24924293D02*
X18151015Y-24876674D01*
X18151015Y-24876674D02*
X18160539Y-24838579D01*
X18160539Y-24838579D02*
X18170063Y-24819531D01*
X18170063Y-24819531D02*
X18179587Y-24810008D01*
X18179587Y-24810008D02*
X18198634Y-24800484D01*
X18351015Y-24981436D02*
X18360539Y-24990960D01*
X18360539Y-24990960D02*
X18351015Y-25000484D01*
X18351015Y-25000484D02*
X18341491Y-24990960D01*
X18341491Y-24990960D02*
X18351015Y-24981436D01*
X18351015Y-24981436D02*
X18351015Y-25000484D01*
X18484348Y-24800484D02*
X18503396Y-24800484D01*
X18503396Y-24800484D02*
X18522444Y-24810008D01*
X18522444Y-24810008D02*
X18531968Y-24819531D01*
X18531968Y-24819531D02*
X18541491Y-24838579D01*
X18541491Y-24838579D02*
X18551015Y-24876674D01*
X18551015Y-24876674D02*
X18551015Y-24924293D01*
X18551015Y-24924293D02*
X18541491Y-24962388D01*
X18541491Y-24962388D02*
X18531968Y-24981436D01*
X18531968Y-24981436D02*
X18522444Y-24990960D01*
X18522444Y-24990960D02*
X18503396Y-25000484D01*
X18503396Y-25000484D02*
X18484348Y-25000484D01*
X18484348Y-25000484D02*
X18465301Y-24990960D01*
X18465301Y-24990960D02*
X18455777Y-24981436D01*
X18455777Y-24981436D02*
X18446253Y-24962388D01*
X18446253Y-24962388D02*
X18436729Y-24924293D01*
X18436729Y-24924293D02*
X18436729Y-24876674D01*
X18436729Y-24876674D02*
X18446253Y-24838579D01*
X18446253Y-24838579D02*
X18455777Y-24819531D01*
X18455777Y-24819531D02*
X18465301Y-24810008D01*
X18465301Y-24810008D02*
X18484348Y-24800484D01*
X18617682Y-24800484D02*
X18741491Y-24800484D01*
X18741491Y-24800484D02*
X18674825Y-24876674D01*
X18674825Y-24876674D02*
X18703396Y-24876674D01*
X18703396Y-24876674D02*
X18722444Y-24886198D01*
X18722444Y-24886198D02*
X18731968Y-24895722D01*
X18731968Y-24895722D02*
X18741491Y-24914769D01*
X18741491Y-24914769D02*
X18741491Y-24962388D01*
X18741491Y-24962388D02*
X18731968Y-24981436D01*
X18731968Y-24981436D02*
X18722444Y-24990960D01*
X18722444Y-24990960D02*
X18703396Y-25000484D01*
X18703396Y-25000484D02*
X18646253Y-25000484D01*
X18646253Y-25000484D02*
X18627206Y-24990960D01*
X18627206Y-24990960D02*
X18617682Y-24981436D01*
X18836729Y-25000484D02*
X18874825Y-25000484D01*
X18874825Y-25000484D02*
X18893872Y-24990960D01*
X18893872Y-24990960D02*
X18903396Y-24981436D01*
X18903396Y-24981436D02*
X18922444Y-24952865D01*
X18922444Y-24952865D02*
X18931968Y-24914769D01*
X18931968Y-24914769D02*
X18931968Y-24838579D01*
X18931968Y-24838579D02*
X18922444Y-24819531D01*
X18922444Y-24819531D02*
X18912920Y-24810008D01*
X18912920Y-24810008D02*
X18893872Y-24800484D01*
X18893872Y-24800484D02*
X18855777Y-24800484D01*
X18855777Y-24800484D02*
X18836729Y-24810008D01*
X18836729Y-24810008D02*
X18827206Y-24819531D01*
X18827206Y-24819531D02*
X18817682Y-24838579D01*
X18817682Y-24838579D02*
X18817682Y-24886198D01*
X18817682Y-24886198D02*
X18827206Y-24905246D01*
X18827206Y-24905246D02*
X18836729Y-24914769D01*
X18836729Y-24914769D02*
X18855777Y-24924293D01*
X18855777Y-24924293D02*
X18893872Y-24924293D01*
X18893872Y-24924293D02*
X18912920Y-24914769D01*
X18912920Y-24914769D02*
X18922444Y-24905246D01*
X18922444Y-24905246D02*
X18931968Y-24886198D01*
X19103396Y-24867150D02*
X19103396Y-25000484D01*
X19055777Y-24790960D02*
X19008158Y-24933817D01*
X19008158Y-24933817D02*
X19131968Y-24933817D01*
X19198634Y-24800484D02*
X19198634Y-24838579D01*
X19274825Y-24800484D02*
X19274825Y-24838579D01*
X19570063Y-25076674D02*
X19560539Y-25067150D01*
X19560539Y-25067150D02*
X19541491Y-25038579D01*
X19541491Y-25038579D02*
X19531968Y-25019531D01*
X19531968Y-25019531D02*
X19522444Y-24990960D01*
X19522444Y-24990960D02*
X19512920Y-24943341D01*
X19512920Y-24943341D02*
X19512920Y-24905246D01*
X19512920Y-24905246D02*
X19522444Y-24857627D01*
X19522444Y-24857627D02*
X19531968Y-24829055D01*
X19531968Y-24829055D02*
X19541491Y-24810008D01*
X19541491Y-24810008D02*
X19560539Y-24781436D01*
X19560539Y-24781436D02*
X19570063Y-24771912D01*
X19636730Y-24819531D02*
X19646253Y-24810008D01*
X19646253Y-24810008D02*
X19665301Y-24800484D01*
X19665301Y-24800484D02*
X19712920Y-24800484D01*
X19712920Y-24800484D02*
X19731968Y-24810008D01*
X19731968Y-24810008D02*
X19741491Y-24819531D01*
X19741491Y-24819531D02*
X19751015Y-24838579D01*
X19751015Y-24838579D02*
X19751015Y-24857627D01*
X19751015Y-24857627D02*
X19741491Y-24886198D01*
X19741491Y-24886198D02*
X19627206Y-25000484D01*
X19627206Y-25000484D02*
X19751015Y-25000484D01*
X19989111Y-25000484D02*
X19989111Y-24800484D01*
X20074825Y-25000484D02*
X20074825Y-24895722D01*
X20074825Y-24895722D02*
X20065301Y-24876674D01*
X20065301Y-24876674D02*
X20046253Y-24867150D01*
X20046253Y-24867150D02*
X20017682Y-24867150D01*
X20017682Y-24867150D02*
X19998634Y-24876674D01*
X19998634Y-24876674D02*
X19989111Y-24886198D01*
X20198634Y-25000484D02*
X20179587Y-24990960D01*
X20179587Y-24990960D02*
X20170063Y-24981436D01*
X20170063Y-24981436D02*
X20160539Y-24962388D01*
X20160539Y-24962388D02*
X20160539Y-24905246D01*
X20160539Y-24905246D02*
X20170063Y-24886198D01*
X20170063Y-24886198D02*
X20179587Y-24876674D01*
X20179587Y-24876674D02*
X20198634Y-24867150D01*
X20198634Y-24867150D02*
X20227206Y-24867150D01*
X20227206Y-24867150D02*
X20246253Y-24876674D01*
X20246253Y-24876674D02*
X20255777Y-24886198D01*
X20255777Y-24886198D02*
X20265301Y-24905246D01*
X20265301Y-24905246D02*
X20265301Y-24962388D01*
X20265301Y-24962388D02*
X20255777Y-24981436D01*
X20255777Y-24981436D02*
X20246253Y-24990960D01*
X20246253Y-24990960D02*
X20227206Y-25000484D01*
X20227206Y-25000484D02*
X20198634Y-25000484D01*
X20379587Y-25000484D02*
X20360539Y-24990960D01*
X20360539Y-24990960D02*
X20351015Y-24971912D01*
X20351015Y-24971912D02*
X20351015Y-24800484D01*
X20531968Y-24990960D02*
X20512920Y-25000484D01*
X20512920Y-25000484D02*
X20474825Y-25000484D01*
X20474825Y-25000484D02*
X20455777Y-24990960D01*
X20455777Y-24990960D02*
X20446253Y-24971912D01*
X20446253Y-24971912D02*
X20446253Y-24895722D01*
X20446253Y-24895722D02*
X20455777Y-24876674D01*
X20455777Y-24876674D02*
X20474825Y-24867150D01*
X20474825Y-24867150D02*
X20512920Y-24867150D01*
X20512920Y-24867150D02*
X20531968Y-24876674D01*
X20531968Y-24876674D02*
X20541492Y-24895722D01*
X20541492Y-24895722D02*
X20541492Y-24914769D01*
X20541492Y-24914769D02*
X20446253Y-24933817D01*
X20617682Y-24990960D02*
X20636730Y-25000484D01*
X20636730Y-25000484D02*
X20674825Y-25000484D01*
X20674825Y-25000484D02*
X20693873Y-24990960D01*
X20693873Y-24990960D02*
X20703396Y-24971912D01*
X20703396Y-24971912D02*
X20703396Y-24962388D01*
X20703396Y-24962388D02*
X20693873Y-24943341D01*
X20693873Y-24943341D02*
X20674825Y-24933817D01*
X20674825Y-24933817D02*
X20646253Y-24933817D01*
X20646253Y-24933817D02*
X20627206Y-24924293D01*
X20627206Y-24924293D02*
X20617682Y-24905246D01*
X20617682Y-24905246D02*
X20617682Y-24895722D01*
X20617682Y-24895722D02*
X20627206Y-24876674D01*
X20627206Y-24876674D02*
X20646253Y-24867150D01*
X20646253Y-24867150D02*
X20674825Y-24867150D01*
X20674825Y-24867150D02*
X20693873Y-24876674D01*
X20770063Y-25076674D02*
X20779587Y-25067150D01*
X20779587Y-25067150D02*
X20798634Y-25038579D01*
X20798634Y-25038579D02*
X20808158Y-25019531D01*
X20808158Y-25019531D02*
X20817682Y-24990960D01*
X20817682Y-24990960D02*
X20827206Y-24943341D01*
X20827206Y-24943341D02*
X20827206Y-24905246D01*
X20827206Y-24905246D02*
X20817682Y-24857627D01*
X20817682Y-24857627D02*
X20808158Y-24829055D01*
X20808158Y-24829055D02*
X20798634Y-24810008D01*
X20798634Y-24810008D02*
X20779587Y-24781436D01*
X20779587Y-24781436D02*
X20770063Y-24771912D01*
D12*
X15940000Y-25118000D02*
X15940000Y-25228000D01*
X15885000Y-25173000D02*
X15995000Y-25173000D01*
D11*
X16360539Y-25264484D02*
X16246253Y-25264484D01*
X16303396Y-25264484D02*
X16303396Y-25064484D01*
X16303396Y-25064484D02*
X16284348Y-25093055D01*
X16284348Y-25093055D02*
X16265301Y-25112103D01*
X16265301Y-25112103D02*
X16246253Y-25121627D01*
X16446253Y-25245436D02*
X16455777Y-25254960D01*
X16455777Y-25254960D02*
X16446253Y-25264484D01*
X16446253Y-25264484D02*
X16436729Y-25254960D01*
X16436729Y-25254960D02*
X16446253Y-25245436D01*
X16446253Y-25245436D02*
X16446253Y-25264484D01*
X16646253Y-25264484D02*
X16531967Y-25264484D01*
X16589110Y-25264484D02*
X16589110Y-25064484D01*
X16589110Y-25064484D02*
X16570062Y-25093055D01*
X16570062Y-25093055D02*
X16551015Y-25112103D01*
X16551015Y-25112103D02*
X16531967Y-25121627D01*
X16770062Y-25064484D02*
X16789110Y-25064484D01*
X16789110Y-25064484D02*
X16808158Y-25074008D01*
X16808158Y-25074008D02*
X16817682Y-25083531D01*
X16817682Y-25083531D02*
X16827205Y-25102579D01*
X16827205Y-25102579D02*
X16836729Y-25140674D01*
X16836729Y-25140674D02*
X16836729Y-25188293D01*
X16836729Y-25188293D02*
X16827205Y-25226388D01*
X16827205Y-25226388D02*
X16817682Y-25245436D01*
X16817682Y-25245436D02*
X16808158Y-25254960D01*
X16808158Y-25254960D02*
X16789110Y-25264484D01*
X16789110Y-25264484D02*
X16770062Y-25264484D01*
X16770062Y-25264484D02*
X16751015Y-25254960D01*
X16751015Y-25254960D02*
X16741491Y-25245436D01*
X16741491Y-25245436D02*
X16731967Y-25226388D01*
X16731967Y-25226388D02*
X16722443Y-25188293D01*
X16722443Y-25188293D02*
X16722443Y-25140674D01*
X16722443Y-25140674D02*
X16731967Y-25102579D01*
X16731967Y-25102579D02*
X16741491Y-25083531D01*
X16741491Y-25083531D02*
X16751015Y-25074008D01*
X16751015Y-25074008D02*
X16770062Y-25064484D01*
X16960539Y-25064484D02*
X16979586Y-25064484D01*
X16979586Y-25064484D02*
X16998634Y-25074008D01*
X16998634Y-25074008D02*
X17008158Y-25083531D01*
X17008158Y-25083531D02*
X17017682Y-25102579D01*
X17017682Y-25102579D02*
X17027205Y-25140674D01*
X17027205Y-25140674D02*
X17027205Y-25188293D01*
X17027205Y-25188293D02*
X17017682Y-25226388D01*
X17017682Y-25226388D02*
X17008158Y-25245436D01*
X17008158Y-25245436D02*
X16998634Y-25254960D01*
X16998634Y-25254960D02*
X16979586Y-25264484D01*
X16979586Y-25264484D02*
X16960539Y-25264484D01*
X16960539Y-25264484D02*
X16941491Y-25254960D01*
X16941491Y-25254960D02*
X16931967Y-25245436D01*
X16931967Y-25245436D02*
X16922444Y-25226388D01*
X16922444Y-25226388D02*
X16912920Y-25188293D01*
X16912920Y-25188293D02*
X16912920Y-25140674D01*
X16912920Y-25140674D02*
X16922444Y-25102579D01*
X16922444Y-25102579D02*
X16931967Y-25083531D01*
X16931967Y-25083531D02*
X16941491Y-25074008D01*
X16941491Y-25074008D02*
X16960539Y-25064484D01*
X17112920Y-25264484D02*
X17112920Y-25131150D01*
X17112920Y-25150198D02*
X17122444Y-25140674D01*
X17122444Y-25140674D02*
X17141491Y-25131150D01*
X17141491Y-25131150D02*
X17170063Y-25131150D01*
X17170063Y-25131150D02*
X17189110Y-25140674D01*
X17189110Y-25140674D02*
X17198634Y-25159722D01*
X17198634Y-25159722D02*
X17198634Y-25264484D01*
X17198634Y-25159722D02*
X17208158Y-25140674D01*
X17208158Y-25140674D02*
X17227205Y-25131150D01*
X17227205Y-25131150D02*
X17255777Y-25131150D01*
X17255777Y-25131150D02*
X17274825Y-25140674D01*
X17274825Y-25140674D02*
X17284348Y-25159722D01*
X17284348Y-25159722D02*
X17284348Y-25264484D01*
X17379586Y-25264484D02*
X17379586Y-25131150D01*
X17379586Y-25150198D02*
X17389110Y-25140674D01*
X17389110Y-25140674D02*
X17408158Y-25131150D01*
X17408158Y-25131150D02*
X17436729Y-25131150D01*
X17436729Y-25131150D02*
X17455777Y-25140674D01*
X17455777Y-25140674D02*
X17465301Y-25159722D01*
X17465301Y-25159722D02*
X17465301Y-25264484D01*
X17465301Y-25159722D02*
X17474825Y-25140674D01*
X17474825Y-25140674D02*
X17493872Y-25131150D01*
X17493872Y-25131150D02*
X17522444Y-25131150D01*
X17522444Y-25131150D02*
X17541491Y-25140674D01*
X17541491Y-25140674D02*
X17551015Y-25159722D01*
X17551015Y-25159722D02*
X17551015Y-25264484D01*
X17941491Y-25054960D02*
X17770063Y-25312103D01*
X18198634Y-25064484D02*
X18217682Y-25064484D01*
X18217682Y-25064484D02*
X18236729Y-25074008D01*
X18236729Y-25074008D02*
X18246253Y-25083531D01*
X18246253Y-25083531D02*
X18255777Y-25102579D01*
X18255777Y-25102579D02*
X18265301Y-25140674D01*
X18265301Y-25140674D02*
X18265301Y-25188293D01*
X18265301Y-25188293D02*
X18255777Y-25226388D01*
X18255777Y-25226388D02*
X18246253Y-25245436D01*
X18246253Y-25245436D02*
X18236729Y-25254960D01*
X18236729Y-25254960D02*
X18217682Y-25264484D01*
X18217682Y-25264484D02*
X18198634Y-25264484D01*
X18198634Y-25264484D02*
X18179587Y-25254960D01*
X18179587Y-25254960D02*
X18170063Y-25245436D01*
X18170063Y-25245436D02*
X18160539Y-25226388D01*
X18160539Y-25226388D02*
X18151015Y-25188293D01*
X18151015Y-25188293D02*
X18151015Y-25140674D01*
X18151015Y-25140674D02*
X18160539Y-25102579D01*
X18160539Y-25102579D02*
X18170063Y-25083531D01*
X18170063Y-25083531D02*
X18179587Y-25074008D01*
X18179587Y-25074008D02*
X18198634Y-25064484D01*
X18351015Y-25245436D02*
X18360539Y-25254960D01*
X18360539Y-25254960D02*
X18351015Y-25264484D01*
X18351015Y-25264484D02*
X18341491Y-25254960D01*
X18341491Y-25254960D02*
X18351015Y-25245436D01*
X18351015Y-25245436D02*
X18351015Y-25264484D01*
X18484348Y-25064484D02*
X18503396Y-25064484D01*
X18503396Y-25064484D02*
X18522444Y-25074008D01*
X18522444Y-25074008D02*
X18531968Y-25083531D01*
X18531968Y-25083531D02*
X18541491Y-25102579D01*
X18541491Y-25102579D02*
X18551015Y-25140674D01*
X18551015Y-25140674D02*
X18551015Y-25188293D01*
X18551015Y-25188293D02*
X18541491Y-25226388D01*
X18541491Y-25226388D02*
X18531968Y-25245436D01*
X18531968Y-25245436D02*
X18522444Y-25254960D01*
X18522444Y-25254960D02*
X18503396Y-25264484D01*
X18503396Y-25264484D02*
X18484348Y-25264484D01*
X18484348Y-25264484D02*
X18465301Y-25254960D01*
X18465301Y-25254960D02*
X18455777Y-25245436D01*
X18455777Y-25245436D02*
X18446253Y-25226388D01*
X18446253Y-25226388D02*
X18436729Y-25188293D01*
X18436729Y-25188293D02*
X18436729Y-25140674D01*
X18436729Y-25140674D02*
X18446253Y-25102579D01*
X18446253Y-25102579D02*
X18455777Y-25083531D01*
X18455777Y-25083531D02*
X18465301Y-25074008D01*
X18465301Y-25074008D02*
X18484348Y-25064484D01*
X18722444Y-25131150D02*
X18722444Y-25264484D01*
X18674825Y-25054960D02*
X18627206Y-25197817D01*
X18627206Y-25197817D02*
X18751015Y-25197817D01*
X18808158Y-25064484D02*
X18931968Y-25064484D01*
X18931968Y-25064484D02*
X18865301Y-25140674D01*
X18865301Y-25140674D02*
X18893872Y-25140674D01*
X18893872Y-25140674D02*
X18912920Y-25150198D01*
X18912920Y-25150198D02*
X18922444Y-25159722D01*
X18922444Y-25159722D02*
X18931968Y-25178769D01*
X18931968Y-25178769D02*
X18931968Y-25226388D01*
X18931968Y-25226388D02*
X18922444Y-25245436D01*
X18922444Y-25245436D02*
X18912920Y-25254960D01*
X18912920Y-25254960D02*
X18893872Y-25264484D01*
X18893872Y-25264484D02*
X18836729Y-25264484D01*
X18836729Y-25264484D02*
X18817682Y-25254960D01*
X18817682Y-25254960D02*
X18808158Y-25245436D01*
X18998634Y-25064484D02*
X19122444Y-25064484D01*
X19122444Y-25064484D02*
X19055777Y-25140674D01*
X19055777Y-25140674D02*
X19084349Y-25140674D01*
X19084349Y-25140674D02*
X19103396Y-25150198D01*
X19103396Y-25150198D02*
X19112920Y-25159722D01*
X19112920Y-25159722D02*
X19122444Y-25178769D01*
X19122444Y-25178769D02*
X19122444Y-25226388D01*
X19122444Y-25226388D02*
X19112920Y-25245436D01*
X19112920Y-25245436D02*
X19103396Y-25254960D01*
X19103396Y-25254960D02*
X19084349Y-25264484D01*
X19084349Y-25264484D02*
X19027206Y-25264484D01*
X19027206Y-25264484D02*
X19008158Y-25254960D01*
X19008158Y-25254960D02*
X18998634Y-25245436D01*
X19198634Y-25064484D02*
X19198634Y-25102579D01*
X19274825Y-25064484D02*
X19274825Y-25102579D01*
X19570063Y-25340674D02*
X19560539Y-25331150D01*
X19560539Y-25331150D02*
X19541491Y-25302579D01*
X19541491Y-25302579D02*
X19531968Y-25283531D01*
X19531968Y-25283531D02*
X19522444Y-25254960D01*
X19522444Y-25254960D02*
X19512920Y-25207341D01*
X19512920Y-25207341D02*
X19512920Y-25169246D01*
X19512920Y-25169246D02*
X19522444Y-25121627D01*
X19522444Y-25121627D02*
X19531968Y-25093055D01*
X19531968Y-25093055D02*
X19541491Y-25074008D01*
X19541491Y-25074008D02*
X19560539Y-25045436D01*
X19560539Y-25045436D02*
X19570063Y-25035912D01*
X19627206Y-25064484D02*
X19751015Y-25064484D01*
X19751015Y-25064484D02*
X19684349Y-25140674D01*
X19684349Y-25140674D02*
X19712920Y-25140674D01*
X19712920Y-25140674D02*
X19731968Y-25150198D01*
X19731968Y-25150198D02*
X19741491Y-25159722D01*
X19741491Y-25159722D02*
X19751015Y-25178769D01*
X19751015Y-25178769D02*
X19751015Y-25226388D01*
X19751015Y-25226388D02*
X19741491Y-25245436D01*
X19741491Y-25245436D02*
X19731968Y-25254960D01*
X19731968Y-25254960D02*
X19712920Y-25264484D01*
X19712920Y-25264484D02*
X19655777Y-25264484D01*
X19655777Y-25264484D02*
X19636730Y-25254960D01*
X19636730Y-25254960D02*
X19627206Y-25245436D01*
X19922444Y-25064484D02*
X19884349Y-25064484D01*
X19884349Y-25064484D02*
X19865301Y-25074008D01*
X19865301Y-25074008D02*
X19855777Y-25083531D01*
X19855777Y-25083531D02*
X19836730Y-25112103D01*
X19836730Y-25112103D02*
X19827206Y-25150198D01*
X19827206Y-25150198D02*
X19827206Y-25226388D01*
X19827206Y-25226388D02*
X19836730Y-25245436D01*
X19836730Y-25245436D02*
X19846253Y-25254960D01*
X19846253Y-25254960D02*
X19865301Y-25264484D01*
X19865301Y-25264484D02*
X19903396Y-25264484D01*
X19903396Y-25264484D02*
X19922444Y-25254960D01*
X19922444Y-25254960D02*
X19931968Y-25245436D01*
X19931968Y-25245436D02*
X19941491Y-25226388D01*
X19941491Y-25226388D02*
X19941491Y-25178769D01*
X19941491Y-25178769D02*
X19931968Y-25159722D01*
X19931968Y-25159722D02*
X19922444Y-25150198D01*
X19922444Y-25150198D02*
X19903396Y-25140674D01*
X19903396Y-25140674D02*
X19865301Y-25140674D01*
X19865301Y-25140674D02*
X19846253Y-25150198D01*
X19846253Y-25150198D02*
X19836730Y-25159722D01*
X19836730Y-25159722D02*
X19827206Y-25178769D01*
X20179587Y-25264484D02*
X20179587Y-25064484D01*
X20265301Y-25264484D02*
X20265301Y-25159722D01*
X20265301Y-25159722D02*
X20255777Y-25140674D01*
X20255777Y-25140674D02*
X20236730Y-25131150D01*
X20236730Y-25131150D02*
X20208158Y-25131150D01*
X20208158Y-25131150D02*
X20189111Y-25140674D01*
X20189111Y-25140674D02*
X20179587Y-25150198D01*
X20389111Y-25264484D02*
X20370063Y-25254960D01*
X20370063Y-25254960D02*
X20360539Y-25245436D01*
X20360539Y-25245436D02*
X20351015Y-25226388D01*
X20351015Y-25226388D02*
X20351015Y-25169246D01*
X20351015Y-25169246D02*
X20360539Y-25150198D01*
X20360539Y-25150198D02*
X20370063Y-25140674D01*
X20370063Y-25140674D02*
X20389111Y-25131150D01*
X20389111Y-25131150D02*
X20417682Y-25131150D01*
X20417682Y-25131150D02*
X20436730Y-25140674D01*
X20436730Y-25140674D02*
X20446253Y-25150198D01*
X20446253Y-25150198D02*
X20455777Y-25169246D01*
X20455777Y-25169246D02*
X20455777Y-25226388D01*
X20455777Y-25226388D02*
X20446253Y-25245436D01*
X20446253Y-25245436D02*
X20436730Y-25254960D01*
X20436730Y-25254960D02*
X20417682Y-25264484D01*
X20417682Y-25264484D02*
X20389111Y-25264484D01*
X20570063Y-25264484D02*
X20551015Y-25254960D01*
X20551015Y-25254960D02*
X20541492Y-25235912D01*
X20541492Y-25235912D02*
X20541492Y-25064484D01*
X20722444Y-25254960D02*
X20703396Y-25264484D01*
X20703396Y-25264484D02*
X20665301Y-25264484D01*
X20665301Y-25264484D02*
X20646253Y-25254960D01*
X20646253Y-25254960D02*
X20636730Y-25235912D01*
X20636730Y-25235912D02*
X20636730Y-25159722D01*
X20636730Y-25159722D02*
X20646253Y-25140674D01*
X20646253Y-25140674D02*
X20665301Y-25131150D01*
X20665301Y-25131150D02*
X20703396Y-25131150D01*
X20703396Y-25131150D02*
X20722444Y-25140674D01*
X20722444Y-25140674D02*
X20731968Y-25159722D01*
X20731968Y-25159722D02*
X20731968Y-25178769D01*
X20731968Y-25178769D02*
X20636730Y-25197817D01*
X20808158Y-25254960D02*
X20827206Y-25264484D01*
X20827206Y-25264484D02*
X20865301Y-25264484D01*
X20865301Y-25264484D02*
X20884349Y-25254960D01*
X20884349Y-25254960D02*
X20893873Y-25235912D01*
X20893873Y-25235912D02*
X20893873Y-25226388D01*
X20893873Y-25226388D02*
X20884349Y-25207341D01*
X20884349Y-25207341D02*
X20865301Y-25197817D01*
X20865301Y-25197817D02*
X20836730Y-25197817D01*
X20836730Y-25197817D02*
X20817682Y-25188293D01*
X20817682Y-25188293D02*
X20808158Y-25169246D01*
X20808158Y-25169246D02*
X20808158Y-25159722D01*
X20808158Y-25159722D02*
X20817682Y-25140674D01*
X20817682Y-25140674D02*
X20836730Y-25131150D01*
X20836730Y-25131150D02*
X20865301Y-25131150D01*
X20865301Y-25131150D02*
X20884349Y-25140674D01*
X20960539Y-25340674D02*
X20970063Y-25331150D01*
X20970063Y-25331150D02*
X20989111Y-25302579D01*
X20989111Y-25302579D02*
X20998634Y-25283531D01*
X20998634Y-25283531D02*
X21008158Y-25254960D01*
X21008158Y-25254960D02*
X21017682Y-25207341D01*
X21017682Y-25207341D02*
X21017682Y-25169246D01*
X21017682Y-25169246D02*
X21008158Y-25121627D01*
X21008158Y-25121627D02*
X20998634Y-25093055D01*
X20998634Y-25093055D02*
X20989111Y-25074008D01*
X20989111Y-25074008D02*
X20970063Y-25045436D01*
X20970063Y-25045436D02*
X20960539Y-25035912D01*
D13*
X15977427Y-25479427D02*
X15977427Y-25394573D01*
X15892573Y-25394573D01*
X15892573Y-25479427D01*
X15977427Y-25479427D01*
D11*
X16360539Y-25528484D02*
X16246253Y-25528484D01*
X16303396Y-25528484D02*
X16303396Y-25328484D01*
X16303396Y-25328484D02*
X16284348Y-25357055D01*
X16284348Y-25357055D02*
X16265301Y-25376103D01*
X16265301Y-25376103D02*
X16246253Y-25385627D01*
X16446253Y-25509436D02*
X16455777Y-25518960D01*
X16455777Y-25518960D02*
X16446253Y-25528484D01*
X16446253Y-25528484D02*
X16436729Y-25518960D01*
X16436729Y-25518960D02*
X16446253Y-25509436D01*
X16446253Y-25509436D02*
X16446253Y-25528484D01*
X16531967Y-25347531D02*
X16541491Y-25338008D01*
X16541491Y-25338008D02*
X16560539Y-25328484D01*
X16560539Y-25328484D02*
X16608158Y-25328484D01*
X16608158Y-25328484D02*
X16627205Y-25338008D01*
X16627205Y-25338008D02*
X16636729Y-25347531D01*
X16636729Y-25347531D02*
X16646253Y-25366579D01*
X16646253Y-25366579D02*
X16646253Y-25385627D01*
X16646253Y-25385627D02*
X16636729Y-25414198D01*
X16636729Y-25414198D02*
X16522443Y-25528484D01*
X16522443Y-25528484D02*
X16646253Y-25528484D01*
X16770062Y-25328484D02*
X16789110Y-25328484D01*
X16789110Y-25328484D02*
X16808158Y-25338008D01*
X16808158Y-25338008D02*
X16817682Y-25347531D01*
X16817682Y-25347531D02*
X16827205Y-25366579D01*
X16827205Y-25366579D02*
X16836729Y-25404674D01*
X16836729Y-25404674D02*
X16836729Y-25452293D01*
X16836729Y-25452293D02*
X16827205Y-25490388D01*
X16827205Y-25490388D02*
X16817682Y-25509436D01*
X16817682Y-25509436D02*
X16808158Y-25518960D01*
X16808158Y-25518960D02*
X16789110Y-25528484D01*
X16789110Y-25528484D02*
X16770062Y-25528484D01*
X16770062Y-25528484D02*
X16751015Y-25518960D01*
X16751015Y-25518960D02*
X16741491Y-25509436D01*
X16741491Y-25509436D02*
X16731967Y-25490388D01*
X16731967Y-25490388D02*
X16722443Y-25452293D01*
X16722443Y-25452293D02*
X16722443Y-25404674D01*
X16722443Y-25404674D02*
X16731967Y-25366579D01*
X16731967Y-25366579D02*
X16741491Y-25347531D01*
X16741491Y-25347531D02*
X16751015Y-25338008D01*
X16751015Y-25338008D02*
X16770062Y-25328484D01*
X16960539Y-25328484D02*
X16979586Y-25328484D01*
X16979586Y-25328484D02*
X16998634Y-25338008D01*
X16998634Y-25338008D02*
X17008158Y-25347531D01*
X17008158Y-25347531D02*
X17017682Y-25366579D01*
X17017682Y-25366579D02*
X17027205Y-25404674D01*
X17027205Y-25404674D02*
X17027205Y-25452293D01*
X17027205Y-25452293D02*
X17017682Y-25490388D01*
X17017682Y-25490388D02*
X17008158Y-25509436D01*
X17008158Y-25509436D02*
X16998634Y-25518960D01*
X16998634Y-25518960D02*
X16979586Y-25528484D01*
X16979586Y-25528484D02*
X16960539Y-25528484D01*
X16960539Y-25528484D02*
X16941491Y-25518960D01*
X16941491Y-25518960D02*
X16931967Y-25509436D01*
X16931967Y-25509436D02*
X16922444Y-25490388D01*
X16922444Y-25490388D02*
X16912920Y-25452293D01*
X16912920Y-25452293D02*
X16912920Y-25404674D01*
X16912920Y-25404674D02*
X16922444Y-25366579D01*
X16922444Y-25366579D02*
X16931967Y-25347531D01*
X16931967Y-25347531D02*
X16941491Y-25338008D01*
X16941491Y-25338008D02*
X16960539Y-25328484D01*
X17112920Y-25528484D02*
X17112920Y-25395150D01*
X17112920Y-25414198D02*
X17122444Y-25404674D01*
X17122444Y-25404674D02*
X17141491Y-25395150D01*
X17141491Y-25395150D02*
X17170063Y-25395150D01*
X17170063Y-25395150D02*
X17189110Y-25404674D01*
X17189110Y-25404674D02*
X17198634Y-25423722D01*
X17198634Y-25423722D02*
X17198634Y-25528484D01*
X17198634Y-25423722D02*
X17208158Y-25404674D01*
X17208158Y-25404674D02*
X17227205Y-25395150D01*
X17227205Y-25395150D02*
X17255777Y-25395150D01*
X17255777Y-25395150D02*
X17274825Y-25404674D01*
X17274825Y-25404674D02*
X17284348Y-25423722D01*
X17284348Y-25423722D02*
X17284348Y-25528484D01*
X17379586Y-25528484D02*
X17379586Y-25395150D01*
X17379586Y-25414198D02*
X17389110Y-25404674D01*
X17389110Y-25404674D02*
X17408158Y-25395150D01*
X17408158Y-25395150D02*
X17436729Y-25395150D01*
X17436729Y-25395150D02*
X17455777Y-25404674D01*
X17455777Y-25404674D02*
X17465301Y-25423722D01*
X17465301Y-25423722D02*
X17465301Y-25528484D01*
X17465301Y-25423722D02*
X17474825Y-25404674D01*
X17474825Y-25404674D02*
X17493872Y-25395150D01*
X17493872Y-25395150D02*
X17522444Y-25395150D01*
X17522444Y-25395150D02*
X17541491Y-25404674D01*
X17541491Y-25404674D02*
X17551015Y-25423722D01*
X17551015Y-25423722D02*
X17551015Y-25528484D01*
X17941491Y-25318960D02*
X17770063Y-25576103D01*
X18198634Y-25328484D02*
X18217682Y-25328484D01*
X18217682Y-25328484D02*
X18236729Y-25338008D01*
X18236729Y-25338008D02*
X18246253Y-25347531D01*
X18246253Y-25347531D02*
X18255777Y-25366579D01*
X18255777Y-25366579D02*
X18265301Y-25404674D01*
X18265301Y-25404674D02*
X18265301Y-25452293D01*
X18265301Y-25452293D02*
X18255777Y-25490388D01*
X18255777Y-25490388D02*
X18246253Y-25509436D01*
X18246253Y-25509436D02*
X18236729Y-25518960D01*
X18236729Y-25518960D02*
X18217682Y-25528484D01*
X18217682Y-25528484D02*
X18198634Y-25528484D01*
X18198634Y-25528484D02*
X18179587Y-25518960D01*
X18179587Y-25518960D02*
X18170063Y-25509436D01*
X18170063Y-25509436D02*
X18160539Y-25490388D01*
X18160539Y-25490388D02*
X18151015Y-25452293D01*
X18151015Y-25452293D02*
X18151015Y-25404674D01*
X18151015Y-25404674D02*
X18160539Y-25366579D01*
X18160539Y-25366579D02*
X18170063Y-25347531D01*
X18170063Y-25347531D02*
X18179587Y-25338008D01*
X18179587Y-25338008D02*
X18198634Y-25328484D01*
X18351015Y-25509436D02*
X18360539Y-25518960D01*
X18360539Y-25518960D02*
X18351015Y-25528484D01*
X18351015Y-25528484D02*
X18341491Y-25518960D01*
X18341491Y-25518960D02*
X18351015Y-25509436D01*
X18351015Y-25509436D02*
X18351015Y-25528484D01*
X18484348Y-25328484D02*
X18503396Y-25328484D01*
X18503396Y-25328484D02*
X18522444Y-25338008D01*
X18522444Y-25338008D02*
X18531968Y-25347531D01*
X18531968Y-25347531D02*
X18541491Y-25366579D01*
X18541491Y-25366579D02*
X18551015Y-25404674D01*
X18551015Y-25404674D02*
X18551015Y-25452293D01*
X18551015Y-25452293D02*
X18541491Y-25490388D01*
X18541491Y-25490388D02*
X18531968Y-25509436D01*
X18531968Y-25509436D02*
X18522444Y-25518960D01*
X18522444Y-25518960D02*
X18503396Y-25528484D01*
X18503396Y-25528484D02*
X18484348Y-25528484D01*
X18484348Y-25528484D02*
X18465301Y-25518960D01*
X18465301Y-25518960D02*
X18455777Y-25509436D01*
X18455777Y-25509436D02*
X18446253Y-25490388D01*
X18446253Y-25490388D02*
X18436729Y-25452293D01*
X18436729Y-25452293D02*
X18436729Y-25404674D01*
X18436729Y-25404674D02*
X18446253Y-25366579D01*
X18446253Y-25366579D02*
X18455777Y-25347531D01*
X18455777Y-25347531D02*
X18465301Y-25338008D01*
X18465301Y-25338008D02*
X18484348Y-25328484D01*
X18722444Y-25395150D02*
X18722444Y-25528484D01*
X18674825Y-25318960D02*
X18627206Y-25461817D01*
X18627206Y-25461817D02*
X18751015Y-25461817D01*
X18808158Y-25328484D02*
X18941491Y-25328484D01*
X18941491Y-25328484D02*
X18855777Y-25528484D01*
X19008158Y-25347531D02*
X19017682Y-25338008D01*
X19017682Y-25338008D02*
X19036729Y-25328484D01*
X19036729Y-25328484D02*
X19084349Y-25328484D01*
X19084349Y-25328484D02*
X19103396Y-25338008D01*
X19103396Y-25338008D02*
X19112920Y-25347531D01*
X19112920Y-25347531D02*
X19122444Y-25366579D01*
X19122444Y-25366579D02*
X19122444Y-25385627D01*
X19122444Y-25385627D02*
X19112920Y-25414198D01*
X19112920Y-25414198D02*
X18998634Y-25528484D01*
X18998634Y-25528484D02*
X19122444Y-25528484D01*
X19198634Y-25328484D02*
X19198634Y-25366579D01*
X19274825Y-25328484D02*
X19274825Y-25366579D01*
X19570063Y-25604674D02*
X19560539Y-25595150D01*
X19560539Y-25595150D02*
X19541491Y-25566579D01*
X19541491Y-25566579D02*
X19531968Y-25547531D01*
X19531968Y-25547531D02*
X19522444Y-25518960D01*
X19522444Y-25518960D02*
X19512920Y-25471341D01*
X19512920Y-25471341D02*
X19512920Y-25433246D01*
X19512920Y-25433246D02*
X19522444Y-25385627D01*
X19522444Y-25385627D02*
X19531968Y-25357055D01*
X19531968Y-25357055D02*
X19541491Y-25338008D01*
X19541491Y-25338008D02*
X19560539Y-25309436D01*
X19560539Y-25309436D02*
X19570063Y-25299912D01*
X19627206Y-25328484D02*
X19760539Y-25328484D01*
X19760539Y-25328484D02*
X19674825Y-25528484D01*
X19827206Y-25347531D02*
X19836730Y-25338008D01*
X19836730Y-25338008D02*
X19855777Y-25328484D01*
X19855777Y-25328484D02*
X19903396Y-25328484D01*
X19903396Y-25328484D02*
X19922444Y-25338008D01*
X19922444Y-25338008D02*
X19931968Y-25347531D01*
X19931968Y-25347531D02*
X19941491Y-25366579D01*
X19941491Y-25366579D02*
X19941491Y-25385627D01*
X19941491Y-25385627D02*
X19931968Y-25414198D01*
X19931968Y-25414198D02*
X19817682Y-25528484D01*
X19817682Y-25528484D02*
X19941491Y-25528484D01*
X20179587Y-25528484D02*
X20179587Y-25328484D01*
X20265301Y-25528484D02*
X20265301Y-25423722D01*
X20265301Y-25423722D02*
X20255777Y-25404674D01*
X20255777Y-25404674D02*
X20236730Y-25395150D01*
X20236730Y-25395150D02*
X20208158Y-25395150D01*
X20208158Y-25395150D02*
X20189111Y-25404674D01*
X20189111Y-25404674D02*
X20179587Y-25414198D01*
X20389111Y-25528484D02*
X20370063Y-25518960D01*
X20370063Y-25518960D02*
X20360539Y-25509436D01*
X20360539Y-25509436D02*
X20351015Y-25490388D01*
X20351015Y-25490388D02*
X20351015Y-25433246D01*
X20351015Y-25433246D02*
X20360539Y-25414198D01*
X20360539Y-25414198D02*
X20370063Y-25404674D01*
X20370063Y-25404674D02*
X20389111Y-25395150D01*
X20389111Y-25395150D02*
X20417682Y-25395150D01*
X20417682Y-25395150D02*
X20436730Y-25404674D01*
X20436730Y-25404674D02*
X20446253Y-25414198D01*
X20446253Y-25414198D02*
X20455777Y-25433246D01*
X20455777Y-25433246D02*
X20455777Y-25490388D01*
X20455777Y-25490388D02*
X20446253Y-25509436D01*
X20446253Y-25509436D02*
X20436730Y-25518960D01*
X20436730Y-25518960D02*
X20417682Y-25528484D01*
X20417682Y-25528484D02*
X20389111Y-25528484D01*
X20570063Y-25528484D02*
X20551015Y-25518960D01*
X20551015Y-25518960D02*
X20541492Y-25499912D01*
X20541492Y-25499912D02*
X20541492Y-25328484D01*
X20722444Y-25518960D02*
X20703396Y-25528484D01*
X20703396Y-25528484D02*
X20665301Y-25528484D01*
X20665301Y-25528484D02*
X20646253Y-25518960D01*
X20646253Y-25518960D02*
X20636730Y-25499912D01*
X20636730Y-25499912D02*
X20636730Y-25423722D01*
X20636730Y-25423722D02*
X20646253Y-25404674D01*
X20646253Y-25404674D02*
X20665301Y-25395150D01*
X20665301Y-25395150D02*
X20703396Y-25395150D01*
X20703396Y-25395150D02*
X20722444Y-25404674D01*
X20722444Y-25404674D02*
X20731968Y-25423722D01*
X20731968Y-25423722D02*
X20731968Y-25442769D01*
X20731968Y-25442769D02*
X20636730Y-25461817D01*
X20808158Y-25518960D02*
X20827206Y-25528484D01*
X20827206Y-25528484D02*
X20865301Y-25528484D01*
X20865301Y-25528484D02*
X20884349Y-25518960D01*
X20884349Y-25518960D02*
X20893873Y-25499912D01*
X20893873Y-25499912D02*
X20893873Y-25490388D01*
X20893873Y-25490388D02*
X20884349Y-25471341D01*
X20884349Y-25471341D02*
X20865301Y-25461817D01*
X20865301Y-25461817D02*
X20836730Y-25461817D01*
X20836730Y-25461817D02*
X20817682Y-25452293D01*
X20817682Y-25452293D02*
X20808158Y-25433246D01*
X20808158Y-25433246D02*
X20808158Y-25423722D01*
X20808158Y-25423722D02*
X20817682Y-25404674D01*
X20817682Y-25404674D02*
X20836730Y-25395150D01*
X20836730Y-25395150D02*
X20865301Y-25395150D01*
X20865301Y-25395150D02*
X20884349Y-25404674D01*
X20960539Y-25604674D02*
X20970063Y-25595150D01*
X20970063Y-25595150D02*
X20989111Y-25566579D01*
X20989111Y-25566579D02*
X20998634Y-25547531D01*
X20998634Y-25547531D02*
X21008158Y-25518960D01*
X21008158Y-25518960D02*
X21017682Y-25471341D01*
X21017682Y-25471341D02*
X21017682Y-25433246D01*
X21017682Y-25433246D02*
X21008158Y-25385627D01*
X21008158Y-25385627D02*
X20998634Y-25357055D01*
X20998634Y-25357055D02*
X20989111Y-25338008D01*
X20989111Y-25338008D02*
X20970063Y-25309436D01*
X20970063Y-25309436D02*
X20960539Y-25299912D01*
D14*
X15925000Y-25771000D02*
X15995000Y-25701000D01*
X15925000Y-25631000D01*
X15855000Y-25701000D01*
X15925000Y-25771000D01*
D11*
X16360539Y-25792484D02*
X16246253Y-25792484D01*
X16303396Y-25792484D02*
X16303396Y-25592484D01*
X16303396Y-25592484D02*
X16284348Y-25621055D01*
X16284348Y-25621055D02*
X16265301Y-25640103D01*
X16265301Y-25640103D02*
X16246253Y-25649627D01*
X16446253Y-25773436D02*
X16455777Y-25782960D01*
X16455777Y-25782960D02*
X16446253Y-25792484D01*
X16446253Y-25792484D02*
X16436729Y-25782960D01*
X16436729Y-25782960D02*
X16446253Y-25773436D01*
X16446253Y-25773436D02*
X16446253Y-25792484D01*
X16627205Y-25659150D02*
X16627205Y-25792484D01*
X16579586Y-25582960D02*
X16531967Y-25725817D01*
X16531967Y-25725817D02*
X16655777Y-25725817D01*
X16770062Y-25592484D02*
X16789110Y-25592484D01*
X16789110Y-25592484D02*
X16808158Y-25602008D01*
X16808158Y-25602008D02*
X16817682Y-25611531D01*
X16817682Y-25611531D02*
X16827205Y-25630579D01*
X16827205Y-25630579D02*
X16836729Y-25668674D01*
X16836729Y-25668674D02*
X16836729Y-25716293D01*
X16836729Y-25716293D02*
X16827205Y-25754388D01*
X16827205Y-25754388D02*
X16817682Y-25773436D01*
X16817682Y-25773436D02*
X16808158Y-25782960D01*
X16808158Y-25782960D02*
X16789110Y-25792484D01*
X16789110Y-25792484D02*
X16770062Y-25792484D01*
X16770062Y-25792484D02*
X16751015Y-25782960D01*
X16751015Y-25782960D02*
X16741491Y-25773436D01*
X16741491Y-25773436D02*
X16731967Y-25754388D01*
X16731967Y-25754388D02*
X16722443Y-25716293D01*
X16722443Y-25716293D02*
X16722443Y-25668674D01*
X16722443Y-25668674D02*
X16731967Y-25630579D01*
X16731967Y-25630579D02*
X16741491Y-25611531D01*
X16741491Y-25611531D02*
X16751015Y-25602008D01*
X16751015Y-25602008D02*
X16770062Y-25592484D01*
X16960539Y-25592484D02*
X16979586Y-25592484D01*
X16979586Y-25592484D02*
X16998634Y-25602008D01*
X16998634Y-25602008D02*
X17008158Y-25611531D01*
X17008158Y-25611531D02*
X17017682Y-25630579D01*
X17017682Y-25630579D02*
X17027205Y-25668674D01*
X17027205Y-25668674D02*
X17027205Y-25716293D01*
X17027205Y-25716293D02*
X17017682Y-25754388D01*
X17017682Y-25754388D02*
X17008158Y-25773436D01*
X17008158Y-25773436D02*
X16998634Y-25782960D01*
X16998634Y-25782960D02*
X16979586Y-25792484D01*
X16979586Y-25792484D02*
X16960539Y-25792484D01*
X16960539Y-25792484D02*
X16941491Y-25782960D01*
X16941491Y-25782960D02*
X16931967Y-25773436D01*
X16931967Y-25773436D02*
X16922444Y-25754388D01*
X16922444Y-25754388D02*
X16912920Y-25716293D01*
X16912920Y-25716293D02*
X16912920Y-25668674D01*
X16912920Y-25668674D02*
X16922444Y-25630579D01*
X16922444Y-25630579D02*
X16931967Y-25611531D01*
X16931967Y-25611531D02*
X16941491Y-25602008D01*
X16941491Y-25602008D02*
X16960539Y-25592484D01*
X17112920Y-25792484D02*
X17112920Y-25659150D01*
X17112920Y-25678198D02*
X17122444Y-25668674D01*
X17122444Y-25668674D02*
X17141491Y-25659150D01*
X17141491Y-25659150D02*
X17170063Y-25659150D01*
X17170063Y-25659150D02*
X17189110Y-25668674D01*
X17189110Y-25668674D02*
X17198634Y-25687722D01*
X17198634Y-25687722D02*
X17198634Y-25792484D01*
X17198634Y-25687722D02*
X17208158Y-25668674D01*
X17208158Y-25668674D02*
X17227205Y-25659150D01*
X17227205Y-25659150D02*
X17255777Y-25659150D01*
X17255777Y-25659150D02*
X17274825Y-25668674D01*
X17274825Y-25668674D02*
X17284348Y-25687722D01*
X17284348Y-25687722D02*
X17284348Y-25792484D01*
X17379586Y-25792484D02*
X17379586Y-25659150D01*
X17379586Y-25678198D02*
X17389110Y-25668674D01*
X17389110Y-25668674D02*
X17408158Y-25659150D01*
X17408158Y-25659150D02*
X17436729Y-25659150D01*
X17436729Y-25659150D02*
X17455777Y-25668674D01*
X17455777Y-25668674D02*
X17465301Y-25687722D01*
X17465301Y-25687722D02*
X17465301Y-25792484D01*
X17465301Y-25687722D02*
X17474825Y-25668674D01*
X17474825Y-25668674D02*
X17493872Y-25659150D01*
X17493872Y-25659150D02*
X17522444Y-25659150D01*
X17522444Y-25659150D02*
X17541491Y-25668674D01*
X17541491Y-25668674D02*
X17551015Y-25687722D01*
X17551015Y-25687722D02*
X17551015Y-25792484D01*
X17941491Y-25582960D02*
X17770063Y-25840103D01*
X18198634Y-25592484D02*
X18217682Y-25592484D01*
X18217682Y-25592484D02*
X18236729Y-25602008D01*
X18236729Y-25602008D02*
X18246253Y-25611531D01*
X18246253Y-25611531D02*
X18255777Y-25630579D01*
X18255777Y-25630579D02*
X18265301Y-25668674D01*
X18265301Y-25668674D02*
X18265301Y-25716293D01*
X18265301Y-25716293D02*
X18255777Y-25754388D01*
X18255777Y-25754388D02*
X18246253Y-25773436D01*
X18246253Y-25773436D02*
X18236729Y-25782960D01*
X18236729Y-25782960D02*
X18217682Y-25792484D01*
X18217682Y-25792484D02*
X18198634Y-25792484D01*
X18198634Y-25792484D02*
X18179587Y-25782960D01*
X18179587Y-25782960D02*
X18170063Y-25773436D01*
X18170063Y-25773436D02*
X18160539Y-25754388D01*
X18160539Y-25754388D02*
X18151015Y-25716293D01*
X18151015Y-25716293D02*
X18151015Y-25668674D01*
X18151015Y-25668674D02*
X18160539Y-25630579D01*
X18160539Y-25630579D02*
X18170063Y-25611531D01*
X18170063Y-25611531D02*
X18179587Y-25602008D01*
X18179587Y-25602008D02*
X18198634Y-25592484D01*
X18351015Y-25773436D02*
X18360539Y-25782960D01*
X18360539Y-25782960D02*
X18351015Y-25792484D01*
X18351015Y-25792484D02*
X18341491Y-25782960D01*
X18341491Y-25782960D02*
X18351015Y-25773436D01*
X18351015Y-25773436D02*
X18351015Y-25792484D01*
X18484348Y-25592484D02*
X18503396Y-25592484D01*
X18503396Y-25592484D02*
X18522444Y-25602008D01*
X18522444Y-25602008D02*
X18531968Y-25611531D01*
X18531968Y-25611531D02*
X18541491Y-25630579D01*
X18541491Y-25630579D02*
X18551015Y-25668674D01*
X18551015Y-25668674D02*
X18551015Y-25716293D01*
X18551015Y-25716293D02*
X18541491Y-25754388D01*
X18541491Y-25754388D02*
X18531968Y-25773436D01*
X18531968Y-25773436D02*
X18522444Y-25782960D01*
X18522444Y-25782960D02*
X18503396Y-25792484D01*
X18503396Y-25792484D02*
X18484348Y-25792484D01*
X18484348Y-25792484D02*
X18465301Y-25782960D01*
X18465301Y-25782960D02*
X18455777Y-25773436D01*
X18455777Y-25773436D02*
X18446253Y-25754388D01*
X18446253Y-25754388D02*
X18436729Y-25716293D01*
X18436729Y-25716293D02*
X18436729Y-25668674D01*
X18436729Y-25668674D02*
X18446253Y-25630579D01*
X18446253Y-25630579D02*
X18455777Y-25611531D01*
X18455777Y-25611531D02*
X18465301Y-25602008D01*
X18465301Y-25602008D02*
X18484348Y-25592484D01*
X18731968Y-25592484D02*
X18636729Y-25592484D01*
X18636729Y-25592484D02*
X18627206Y-25687722D01*
X18627206Y-25687722D02*
X18636729Y-25678198D01*
X18636729Y-25678198D02*
X18655777Y-25668674D01*
X18655777Y-25668674D02*
X18703396Y-25668674D01*
X18703396Y-25668674D02*
X18722444Y-25678198D01*
X18722444Y-25678198D02*
X18731968Y-25687722D01*
X18731968Y-25687722D02*
X18741491Y-25706769D01*
X18741491Y-25706769D02*
X18741491Y-25754388D01*
X18741491Y-25754388D02*
X18731968Y-25773436D01*
X18731968Y-25773436D02*
X18722444Y-25782960D01*
X18722444Y-25782960D02*
X18703396Y-25792484D01*
X18703396Y-25792484D02*
X18655777Y-25792484D01*
X18655777Y-25792484D02*
X18636729Y-25782960D01*
X18636729Y-25782960D02*
X18627206Y-25773436D01*
X18922444Y-25592484D02*
X18827206Y-25592484D01*
X18827206Y-25592484D02*
X18817682Y-25687722D01*
X18817682Y-25687722D02*
X18827206Y-25678198D01*
X18827206Y-25678198D02*
X18846253Y-25668674D01*
X18846253Y-25668674D02*
X18893872Y-25668674D01*
X18893872Y-25668674D02*
X18912920Y-25678198D01*
X18912920Y-25678198D02*
X18922444Y-25687722D01*
X18922444Y-25687722D02*
X18931968Y-25706769D01*
X18931968Y-25706769D02*
X18931968Y-25754388D01*
X18931968Y-25754388D02*
X18922444Y-25773436D01*
X18922444Y-25773436D02*
X18912920Y-25782960D01*
X18912920Y-25782960D02*
X18893872Y-25792484D01*
X18893872Y-25792484D02*
X18846253Y-25792484D01*
X18846253Y-25792484D02*
X18827206Y-25782960D01*
X18827206Y-25782960D02*
X18817682Y-25773436D01*
X19122444Y-25792484D02*
X19008158Y-25792484D01*
X19065301Y-25792484D02*
X19065301Y-25592484D01*
X19065301Y-25592484D02*
X19046253Y-25621055D01*
X19046253Y-25621055D02*
X19027206Y-25640103D01*
X19027206Y-25640103D02*
X19008158Y-25649627D01*
X19198634Y-25592484D02*
X19198634Y-25630579D01*
X19274825Y-25592484D02*
X19274825Y-25630579D01*
X19570063Y-25868674D02*
X19560539Y-25859150D01*
X19560539Y-25859150D02*
X19541491Y-25830579D01*
X19541491Y-25830579D02*
X19531968Y-25811531D01*
X19531968Y-25811531D02*
X19522444Y-25782960D01*
X19522444Y-25782960D02*
X19512920Y-25735341D01*
X19512920Y-25735341D02*
X19512920Y-25697246D01*
X19512920Y-25697246D02*
X19522444Y-25649627D01*
X19522444Y-25649627D02*
X19531968Y-25621055D01*
X19531968Y-25621055D02*
X19541491Y-25602008D01*
X19541491Y-25602008D02*
X19560539Y-25573436D01*
X19560539Y-25573436D02*
X19570063Y-25563912D01*
X19751015Y-25792484D02*
X19636730Y-25792484D01*
X19693872Y-25792484D02*
X19693872Y-25592484D01*
X19693872Y-25592484D02*
X19674825Y-25621055D01*
X19674825Y-25621055D02*
X19655777Y-25640103D01*
X19655777Y-25640103D02*
X19636730Y-25649627D01*
X19827206Y-25611531D02*
X19836730Y-25602008D01*
X19836730Y-25602008D02*
X19855777Y-25592484D01*
X19855777Y-25592484D02*
X19903396Y-25592484D01*
X19903396Y-25592484D02*
X19922444Y-25602008D01*
X19922444Y-25602008D02*
X19931968Y-25611531D01*
X19931968Y-25611531D02*
X19941491Y-25630579D01*
X19941491Y-25630579D02*
X19941491Y-25649627D01*
X19941491Y-25649627D02*
X19931968Y-25678198D01*
X19931968Y-25678198D02*
X19817682Y-25792484D01*
X19817682Y-25792484D02*
X19941491Y-25792484D01*
X20179587Y-25792484D02*
X20179587Y-25592484D01*
X20265301Y-25792484D02*
X20265301Y-25687722D01*
X20265301Y-25687722D02*
X20255777Y-25668674D01*
X20255777Y-25668674D02*
X20236730Y-25659150D01*
X20236730Y-25659150D02*
X20208158Y-25659150D01*
X20208158Y-25659150D02*
X20189111Y-25668674D01*
X20189111Y-25668674D02*
X20179587Y-25678198D01*
X20389111Y-25792484D02*
X20370063Y-25782960D01*
X20370063Y-25782960D02*
X20360539Y-25773436D01*
X20360539Y-25773436D02*
X20351015Y-25754388D01*
X20351015Y-25754388D02*
X20351015Y-25697246D01*
X20351015Y-25697246D02*
X20360539Y-25678198D01*
X20360539Y-25678198D02*
X20370063Y-25668674D01*
X20370063Y-25668674D02*
X20389111Y-25659150D01*
X20389111Y-25659150D02*
X20417682Y-25659150D01*
X20417682Y-25659150D02*
X20436730Y-25668674D01*
X20436730Y-25668674D02*
X20446253Y-25678198D01*
X20446253Y-25678198D02*
X20455777Y-25697246D01*
X20455777Y-25697246D02*
X20455777Y-25754388D01*
X20455777Y-25754388D02*
X20446253Y-25773436D01*
X20446253Y-25773436D02*
X20436730Y-25782960D01*
X20436730Y-25782960D02*
X20417682Y-25792484D01*
X20417682Y-25792484D02*
X20389111Y-25792484D01*
X20570063Y-25792484D02*
X20551015Y-25782960D01*
X20551015Y-25782960D02*
X20541492Y-25763912D01*
X20541492Y-25763912D02*
X20541492Y-25592484D01*
X20722444Y-25782960D02*
X20703396Y-25792484D01*
X20703396Y-25792484D02*
X20665301Y-25792484D01*
X20665301Y-25792484D02*
X20646253Y-25782960D01*
X20646253Y-25782960D02*
X20636730Y-25763912D01*
X20636730Y-25763912D02*
X20636730Y-25687722D01*
X20636730Y-25687722D02*
X20646253Y-25668674D01*
X20646253Y-25668674D02*
X20665301Y-25659150D01*
X20665301Y-25659150D02*
X20703396Y-25659150D01*
X20703396Y-25659150D02*
X20722444Y-25668674D01*
X20722444Y-25668674D02*
X20731968Y-25687722D01*
X20731968Y-25687722D02*
X20731968Y-25706769D01*
X20731968Y-25706769D02*
X20636730Y-25725817D01*
X20808158Y-25782960D02*
X20827206Y-25792484D01*
X20827206Y-25792484D02*
X20865301Y-25792484D01*
X20865301Y-25792484D02*
X20884349Y-25782960D01*
X20884349Y-25782960D02*
X20893873Y-25763912D01*
X20893873Y-25763912D02*
X20893873Y-25754388D01*
X20893873Y-25754388D02*
X20884349Y-25735341D01*
X20884349Y-25735341D02*
X20865301Y-25725817D01*
X20865301Y-25725817D02*
X20836730Y-25725817D01*
X20836730Y-25725817D02*
X20817682Y-25716293D01*
X20817682Y-25716293D02*
X20808158Y-25697246D01*
X20808158Y-25697246D02*
X20808158Y-25687722D01*
X20808158Y-25687722D02*
X20817682Y-25668674D01*
X20817682Y-25668674D02*
X20836730Y-25659150D01*
X20836730Y-25659150D02*
X20865301Y-25659150D01*
X20865301Y-25659150D02*
X20884349Y-25668674D01*
X20960539Y-25868674D02*
X20970063Y-25859150D01*
X20970063Y-25859150D02*
X20989111Y-25830579D01*
X20989111Y-25830579D02*
X20998634Y-25811531D01*
X20998634Y-25811531D02*
X21008158Y-25782960D01*
X21008158Y-25782960D02*
X21017682Y-25735341D01*
X21017682Y-25735341D02*
X21017682Y-25697246D01*
X21017682Y-25697246D02*
X21008158Y-25649627D01*
X21008158Y-25649627D02*
X20998634Y-25621055D01*
X20998634Y-25621055D02*
X20989111Y-25602008D01*
X20989111Y-25602008D02*
X20970063Y-25573436D01*
X20970063Y-25573436D02*
X20960539Y-25563912D01*
M02*
