M48
; DRILL file {KiCad 8.0.2} date 2024-12-14T16:27:32+0100
; FORMAT={-:-/ absolute / metric / decimal}
; #@! TF.CreationDate,2024-12-14T16:27:32+01:00
; #@! TF.GenerationSoftware,Kicad,Pcbnew,8.0.2
; #@! TF.FileFunction,Plated,1,2,PTH
FMAT,2
METRIC
; #@! TA.AperFunction,Plated,PTH,ViaDrill
T1C0.300
; #@! TA.AperFunction,Plated,PTH,ComponentDrill
T2C1.000
; #@! TA.AperFunction,Plated,PTH,ComponentDrill
T3C1.100
; #@! TA.AperFunction,Plated,PTH,ComponentDrill
T4C1.200
; #@! TA.AperFunction,Plated,PTH,ComponentDrill
T5C1.400
%
G90
G05
T1
X185.222Y-98.65
X185.222Y-118.65
X185.222Y-138.65
X185.222Y-158.65
X185.222Y-178.65
X185.222Y-198.65
X206.19Y-28.89
X206.19Y-30.16
X206.19Y-31.43
X206.19Y-32.7
X207.46Y-28.89
X207.46Y-30.16
X207.46Y-31.43
X208.73Y-28.89
X208.73Y-30.16
X208.73Y-31.43
X208.73Y-32.7
X209.492Y-51.242
X209.746Y-46.162
X210.265Y-51.237
X211.27Y-28.89
X211.27Y-30.16
X211.27Y-31.43
X211.27Y-32.7
X212.54Y-28.89
X212.54Y-30.16
X212.54Y-31.43
X213.81Y-28.89
X213.81Y-30.16
X213.81Y-31.43
X213.81Y-32.7
X216.35Y-46.67
X216.35Y-47.94
X217.62Y-46.67
X217.62Y-47.94
X217.62Y-49.21
X218.89Y-46.67
X218.89Y-47.94
X218.89Y-49.21
X220.16Y-46.67
X220.16Y-47.94
X220.16Y-49.21
X227.78Y-30.16
X234.778Y-111.35
X234.778Y-131.35
X234.778Y-151.35
X234.778Y-171.35
X234.778Y-191.35
X234.778Y-211.35
X254.0Y-227.5
T2
X237.0Y-230.0
X237.0Y-233.0
T3
X184.0Y-102.46
X184.0Y-105.0
X184.0Y-107.54
X184.0Y-122.46
X184.0Y-125.0
X184.0Y-127.54
X184.0Y-142.46
X184.0Y-145.0
X184.0Y-147.54
X184.0Y-162.46
X184.0Y-165.0
X184.0Y-167.54
X184.0Y-182.46
X184.0Y-185.0
X184.0Y-187.54
X184.0Y-202.46
X184.0Y-205.0
X184.0Y-207.54
X236.0Y-102.46
X236.0Y-105.0
X236.0Y-107.54
X236.0Y-122.46
X236.0Y-125.0
X236.0Y-127.54
X236.0Y-142.46
X236.0Y-145.0
X236.0Y-147.54
X236.0Y-162.46
X236.0Y-165.0
X236.0Y-167.54
X236.0Y-182.46
X236.0Y-185.0
X236.0Y-187.54
X236.0Y-202.46
X236.0Y-205.0
X236.0Y-207.54
T4
X170.72Y-98.65
X170.72Y-111.35
X170.72Y-118.65
X170.72Y-131.35
X170.72Y-138.65
X170.72Y-151.35
X170.72Y-158.65
X170.72Y-171.35
X170.72Y-178.65
X170.72Y-191.35
X170.72Y-198.65
X170.72Y-211.35
X176.308Y-98.65
X176.308Y-111.35
X176.308Y-118.65
X176.308Y-131.35
X176.308Y-138.65
X176.308Y-151.35
X176.308Y-158.65
X176.308Y-171.35
X176.308Y-178.65
X176.308Y-191.35
X176.308Y-198.65
X176.308Y-211.35
X187.34Y-52.5
X187.34Y-60.0
X187.34Y-67.5
X187.34Y-75.0
X187.34Y-82.5
X187.34Y-90.0
X207.66Y-52.5
X207.66Y-60.0
X207.66Y-67.5
X207.66Y-75.0
X207.66Y-82.5
X207.66Y-90.0
X212.34Y-52.5
X212.34Y-60.0
X212.34Y-67.5
X212.34Y-75.0
X212.34Y-82.5
X212.34Y-90.0
X232.66Y-52.5
X232.66Y-60.0
X232.66Y-67.5
X232.66Y-75.0
X232.66Y-82.5
X232.66Y-90.0
X243.692Y-98.65
X243.692Y-111.35
X243.692Y-118.65
X243.692Y-131.35
X243.692Y-138.65
X243.692Y-151.35
X243.692Y-158.65
X243.692Y-171.35
X243.692Y-178.65
X243.692Y-191.35
X243.692Y-198.65
X243.692Y-211.35
X249.28Y-98.65
X249.28Y-111.35
X249.28Y-118.65
X249.28Y-131.35
X249.28Y-138.65
X249.28Y-151.35
X249.28Y-158.65
X249.28Y-171.35
X249.28Y-178.65
X249.28Y-191.35
X249.28Y-198.65
X249.28Y-211.35
T5
X197.3Y-35.24
X197.3Y-43.94
X202.38Y-35.24
X202.38Y-43.94
X207.46Y-35.24
X207.46Y-43.94
X212.54Y-35.24
X212.54Y-43.94
X217.62Y-35.24
X217.62Y-43.94
X222.7Y-35.24
X222.7Y-43.94
M30
