%TF.GenerationSoftware,KiCad,Pcbnew,8.0.2*%
%TF.CreationDate,2024-12-14T16:27:18+01:00*%
%TF.ProjectId,pss_outstageboard,7073735f-6f75-4747-9374-616765626f61,1.0.0*%
%TF.SameCoordinates,Original*%
%TF.FileFunction,Soldermask,Top*%
%TF.FilePolarity,Negative*%
%FSLAX46Y46*%
G04 Gerber Fmt 4.6, Leading zero omitted, Abs format (unit mm)*
G04 Created by KiCad (PCBNEW 8.0.2) date 2024-12-14 16:27:18*
%MOMM*%
%LPD*%
G01*
G04 APERTURE LIST*
G04 Aperture macros list*
%AMRoundRect*
0 Rectangle with rounded corners*
0 $1 Rounding radius*
0 $2 $3 $4 $5 $6 $7 $8 $9 X,Y pos of 4 corners*
0 Add a 4 corners polygon primitive as box body*
4,1,4,$2,$3,$4,$5,$6,$7,$8,$9,$2,$3,0*
0 Add four circle primitives for the rounded corners*
1,1,$1+$1,$2,$3*
1,1,$1+$1,$4,$5*
1,1,$1+$1,$6,$7*
1,1,$1+$1,$8,$9*
0 Add four rect primitives between the rounded corners*
20,1,$1+$1,$2,$3,$4,$5,0*
20,1,$1+$1,$4,$5,$6,$7,0*
20,1,$1+$1,$6,$7,$8,$9,0*
20,1,$1+$1,$8,$9,$2,$3,0*%
%AMFreePoly0*
4,1,19,0.500000,-0.750000,0.000000,-0.750000,0.000000,-0.744911,-0.071157,-0.744911,-0.207708,-0.704816,-0.327430,-0.627875,-0.420627,-0.520320,-0.479746,-0.390866,-0.500000,-0.250000,-0.500000,0.250000,-0.479746,0.390866,-0.420627,0.520320,-0.327430,0.627875,-0.207708,0.704816,-0.071157,0.744911,0.000000,0.744911,0.000000,0.750000,0.500000,0.750000,0.500000,-0.750000,0.500000,-0.750000,
$1*%
%AMFreePoly1*
4,1,19,0.000000,0.744911,0.071157,0.744911,0.207708,0.704816,0.327430,0.627875,0.420627,0.520320,0.479746,0.390866,0.500000,0.250000,0.500000,-0.250000,0.479746,-0.390866,0.420627,-0.520320,0.327430,-0.627875,0.207708,-0.704816,0.071157,-0.744911,0.000000,-0.744911,0.000000,-0.750000,-0.500000,-0.750000,-0.500000,0.750000,0.000000,0.750000,0.000000,0.744911,0.000000,0.744911,
$1*%
G04 Aperture macros list end*
%ADD10C,0.000000*%
%ADD11C,2.400000*%
%ADD12O,2.400000X2.400000*%
%ADD13R,2.000000X1.905000*%
%ADD14O,2.000000X1.905000*%
%ADD15RoundRect,0.426829X-0.823171X-0.448171X0.823171X-0.448171X0.823171X0.448171X-0.823171X0.448171X0*%
%ADD16C,3.200000*%
%ADD17O,7.000000X4.000000*%
%ADD18C,2.000000*%
%ADD19R,2.000000X2.000000*%
%ADD20C,2.162000*%
%ADD21FreePoly0,180.000000*%
%ADD22FreePoly1,180.000000*%
%ADD23C,2.800000*%
G04 APERTURE END LIST*
D10*
%TO.C,JP2101*%
G36*
X253000000Y-228250000D02*
G01*
X251700000Y-228250000D01*
X251700000Y-226750000D01*
X253000000Y-226750000D01*
X253000000Y-228250000D01*
G37*
%TD*%
D11*
%TO.C,R2503*%
X249280000Y-158650000D03*
D12*
X249280000Y-171350000D03*
%TD*%
D11*
%TO.C,R2602*%
X187340000Y-90000000D03*
D12*
X207660000Y-90000000D03*
%TD*%
D13*
%TO.C,Q2204*%
X184000000Y-122460000D03*
D14*
X184000000Y-125000000D03*
X184000000Y-127540000D03*
%TD*%
D11*
%TO.C,R2704*%
X249280000Y-191350000D03*
D12*
X249280000Y-178650000D03*
%TD*%
D13*
%TO.C,Q2404*%
X184000000Y-162460000D03*
D14*
X184000000Y-165000000D03*
X184000000Y-167540000D03*
%TD*%
D15*
%TO.C,TP2104*%
X189680000Y-30160000D03*
%TD*%
D16*
%TO.C,REF\u002A\u002A*%
X180000000Y-220000000D03*
%TD*%
D17*
%TO.C,M2101*%
X230000000Y-237500000D03*
X230000000Y-217500000D03*
X190000000Y-237500000D03*
X190000000Y-217500000D03*
D18*
X237000000Y-233000000D03*
D19*
X237000000Y-230000000D03*
%TD*%
D11*
%TO.C,R2706*%
X243692000Y-191350000D03*
D12*
X243692000Y-178650000D03*
%TD*%
D13*
%TO.C,Q2604*%
X184000000Y-202460000D03*
D14*
X184000000Y-205000000D03*
X184000000Y-207540000D03*
%TD*%
D11*
%TO.C,R2301*%
X232660000Y-60000000D03*
D12*
X212340000Y-60000000D03*
%TD*%
D16*
%TO.C,HS2101*%
X192200000Y-115000000D03*
X192200000Y-155000000D03*
X192200000Y-195000000D03*
X227800000Y-115000000D03*
X227800000Y-155000000D03*
X227800000Y-195000000D03*
%TD*%
D11*
%TO.C,R2701*%
X232660000Y-90000000D03*
D12*
X212340000Y-90000000D03*
%TD*%
D11*
%TO.C,R2204*%
X170720000Y-118650000D03*
D12*
X170720000Y-131350000D03*
%TD*%
D11*
%TO.C,R2202*%
X187340000Y-60000000D03*
D12*
X207660000Y-60000000D03*
%TD*%
D15*
%TO.C,TP2103*%
X230320000Y-30160000D03*
%TD*%
D11*
%TO.C,R2306*%
X243692000Y-111350000D03*
D12*
X243692000Y-98650000D03*
%TD*%
D11*
%TO.C,R2402*%
X187340000Y-75000000D03*
D12*
X207660000Y-75000000D03*
%TD*%
D11*
%TO.C,R2205*%
X176308000Y-111350000D03*
D12*
X176308000Y-98650000D03*
%TD*%
D20*
%TO.C,J2101*%
X222700000Y-43940000D03*
X222700000Y-35240000D03*
X217620000Y-43940000D03*
X217620000Y-35240000D03*
X212540000Y-43940000D03*
X212540000Y-35240000D03*
X207460000Y-43940000D03*
X207460000Y-35240000D03*
X202380000Y-43940000D03*
X202380000Y-35240000D03*
X197300000Y-43940000D03*
X197300000Y-35240000D03*
%TD*%
D11*
%TO.C,R2506*%
X243692000Y-151350000D03*
D12*
X243692000Y-138650000D03*
%TD*%
D13*
%TO.C,Q2703*%
X236000000Y-207540000D03*
D14*
X236000000Y-205000000D03*
X236000000Y-202460000D03*
%TD*%
D11*
%TO.C,R2206*%
X176308000Y-118650000D03*
D12*
X176308000Y-131350000D03*
%TD*%
D11*
%TO.C,R2605*%
X176308000Y-191350000D03*
D12*
X176308000Y-178650000D03*
%TD*%
D13*
%TO.C,Q2303*%
X236000000Y-127540000D03*
D14*
X236000000Y-125000000D03*
X236000000Y-122460000D03*
%TD*%
D11*
%TO.C,R2601*%
X187340000Y-82500000D03*
D12*
X207660000Y-82500000D03*
%TD*%
D13*
%TO.C,Q2304*%
X236000000Y-107540000D03*
D14*
X236000000Y-105000000D03*
X236000000Y-102460000D03*
%TD*%
D11*
%TO.C,R2501*%
X232660000Y-75000000D03*
D12*
X212340000Y-75000000D03*
%TD*%
D13*
%TO.C,Q2203*%
X184000000Y-102460000D03*
D14*
X184000000Y-105000000D03*
X184000000Y-107540000D03*
%TD*%
D15*
%TO.C,TP2105*%
X189680000Y-35240000D03*
%TD*%
D11*
%TO.C,R2401*%
X187340000Y-67500000D03*
D12*
X207660000Y-67500000D03*
%TD*%
D11*
%TO.C,R2203*%
X170720000Y-111350000D03*
D12*
X170720000Y-98650000D03*
%TD*%
D11*
%TO.C,R2603*%
X170720000Y-191350000D03*
D12*
X170720000Y-178650000D03*
%TD*%
D11*
%TO.C,R2404*%
X170720000Y-158650000D03*
D12*
X170720000Y-171350000D03*
%TD*%
D21*
%TO.C,JP2101*%
X253000000Y-227500000D03*
D22*
X251700000Y-227500000D03*
%TD*%
D11*
%TO.C,R2304*%
X249280000Y-111350000D03*
D12*
X249280000Y-98650000D03*
%TD*%
D11*
%TO.C,R2406*%
X176308000Y-158650000D03*
D12*
X176308000Y-171350000D03*
%TD*%
D13*
%TO.C,Q2503*%
X236000000Y-167540000D03*
D14*
X236000000Y-165000000D03*
X236000000Y-162460000D03*
%TD*%
D23*
%TO.C,REF\u002A\u002A*%
X254450000Y-236430000D03*
%TD*%
D11*
%TO.C,R2504*%
X249280000Y-151350000D03*
D12*
X249280000Y-138650000D03*
%TD*%
D13*
%TO.C,Q2403*%
X184000000Y-142460000D03*
D14*
X184000000Y-145000000D03*
X184000000Y-147540000D03*
%TD*%
D11*
%TO.C,R2705*%
X243692000Y-198650000D03*
D12*
X243692000Y-211350000D03*
%TD*%
D11*
%TO.C,R2305*%
X243692000Y-118650000D03*
D12*
X243692000Y-131350000D03*
%TD*%
D11*
%TO.C,R2502*%
X232660000Y-67500000D03*
D12*
X212340000Y-67500000D03*
%TD*%
D16*
%TO.C,REF\u002A\u002A*%
X240000000Y-90000000D03*
%TD*%
D11*
%TO.C,R2604*%
X170720000Y-198650000D03*
D12*
X170720000Y-211350000D03*
%TD*%
D15*
%TO.C,TP2102*%
X230320000Y-35240000D03*
%TD*%
%TO.C,TP2101*%
X230320000Y-40320000D03*
%TD*%
D11*
%TO.C,R2703*%
X249280000Y-198650000D03*
D12*
X249280000Y-211350000D03*
%TD*%
D16*
%TO.C,REF\u002A\u002A*%
X240000000Y-220000000D03*
%TD*%
D11*
%TO.C,R2303*%
X249280000Y-118650000D03*
D12*
X249280000Y-131350000D03*
%TD*%
D13*
%TO.C,Q2704*%
X236000000Y-187540000D03*
D14*
X236000000Y-185000000D03*
X236000000Y-182460000D03*
%TD*%
D11*
%TO.C,R2405*%
X176308000Y-151350000D03*
D12*
X176308000Y-138650000D03*
%TD*%
D13*
%TO.C,Q2504*%
X236000000Y-147540000D03*
D14*
X236000000Y-145000000D03*
X236000000Y-142460000D03*
%TD*%
D11*
%TO.C,R2403*%
X170720000Y-151350000D03*
D12*
X170720000Y-138650000D03*
%TD*%
D11*
%TO.C,R2702*%
X232660000Y-82500000D03*
D12*
X212340000Y-82500000D03*
%TD*%
D11*
%TO.C,R2606*%
X176308000Y-198650000D03*
D12*
X176308000Y-211350000D03*
%TD*%
D11*
%TO.C,R2505*%
X243692000Y-158650000D03*
D12*
X243692000Y-171350000D03*
%TD*%
D13*
%TO.C,Q2603*%
X184000000Y-182460000D03*
D14*
X184000000Y-185000000D03*
X184000000Y-187540000D03*
%TD*%
D15*
%TO.C,TP2106*%
X189680000Y-40320000D03*
%TD*%
D16*
%TO.C,REF\u002A\u002A*%
X180000000Y-90000000D03*
%TD*%
D11*
%TO.C,R2302*%
X232660000Y-52500000D03*
D12*
X212340000Y-52500000D03*
%TD*%
D23*
%TO.C,REF\u002A\u002A*%
X165550000Y-236430000D03*
%TD*%
D11*
%TO.C,R2201*%
X187340000Y-52500000D03*
D12*
X207660000Y-52500000D03*
%TD*%
M02*
