%TF.GenerationSoftware,KiCad,Pcbnew,8.0.2*%
%TF.CreationDate,2024-12-14T16:27:18+01:00*%
%TF.ProjectId,pss_outstageboard,7073735f-6f75-4747-9374-616765626f61,1.0.0*%
%TF.SameCoordinates,Original*%
%TF.FileFunction,Paste,Bot*%
%TF.FilePolarity,Positive*%
%FSLAX46Y46*%
G04 Gerber Fmt 4.6, Leading zero omitted, Abs format (unit mm)*
G04 Created by KiCad (PCBNEW 8.0.2) date 2024-12-14 16:27:18*
%MOMM*%
%LPD*%
G01*
G04 APERTURE LIST*
G04 Aperture macros list*
%AMRoundRect*
0 Rectangle with rounded corners*
0 $1 Rounding radius*
0 $2 $3 $4 $5 $6 $7 $8 $9 X,Y pos of 4 corners*
0 Add a 4 corners polygon primitive as box body*
4,1,4,$2,$3,$4,$5,$6,$7,$8,$9,$2,$3,0*
0 Add four circle primitives for the rounded corners*
1,1,$1+$1,$2,$3*
1,1,$1+$1,$4,$5*
1,1,$1+$1,$6,$7*
1,1,$1+$1,$8,$9*
0 Add four rect primitives between the rounded corners*
20,1,$1+$1,$2,$3,$4,$5,0*
20,1,$1+$1,$4,$5,$6,$7,0*
20,1,$1+$1,$6,$7,$8,$9,0*
20,1,$1+$1,$8,$9,$2,$3,0*%
G04 Aperture macros list end*
%ADD10RoundRect,0.375000X-0.625000X-0.375000X0.625000X-0.375000X0.625000X0.375000X-0.625000X0.375000X0*%
%ADD11RoundRect,0.500000X-0.500000X-1.400000X0.500000X-1.400000X0.500000X1.400000X-0.500000X1.400000X0*%
%ADD12RoundRect,0.375000X0.625000X0.375000X-0.625000X0.375000X-0.625000X-0.375000X0.625000X-0.375000X0*%
%ADD13RoundRect,0.500000X0.500000X1.400000X-0.500000X1.400000X-0.500000X-1.400000X0.500000X-1.400000X0*%
G04 APERTURE END LIST*
D10*
%TO.C,Q2202*%
X191470000Y-127460000D03*
X191470000Y-125160000D03*
D11*
X197770000Y-125160000D03*
D10*
X191470000Y-122860000D03*
%TD*%
D12*
%TO.C,Q2502*%
X228530000Y-142540000D03*
X228530000Y-144840000D03*
D13*
X222230000Y-144840000D03*
D12*
X228530000Y-147140000D03*
%TD*%
D10*
%TO.C,Q2401*%
X191470000Y-147380000D03*
X191470000Y-145080000D03*
D11*
X197770000Y-145080000D03*
D10*
X191470000Y-142780000D03*
%TD*%
D12*
%TO.C,Q2301*%
X228530000Y-122620000D03*
X228530000Y-124920000D03*
D13*
X222230000Y-124920000D03*
D12*
X228530000Y-127220000D03*
%TD*%
D10*
%TO.C,Q2601*%
X191470000Y-187380000D03*
X191470000Y-185080000D03*
D11*
X197770000Y-185080000D03*
D10*
X191470000Y-182780000D03*
%TD*%
D12*
%TO.C,Q2302*%
X228530000Y-102540000D03*
X228530000Y-104840000D03*
D13*
X222230000Y-104840000D03*
D12*
X228530000Y-107140000D03*
%TD*%
D10*
%TO.C,Q2602*%
X191470000Y-207460000D03*
X191470000Y-205160000D03*
D11*
X197770000Y-205160000D03*
D10*
X191470000Y-202860000D03*
%TD*%
%TO.C,Q2402*%
X191470000Y-167460000D03*
X191470000Y-165160000D03*
D11*
X197770000Y-165160000D03*
D10*
X191470000Y-162860000D03*
%TD*%
D12*
%TO.C,Q2501*%
X228530000Y-162620000D03*
X228530000Y-164920000D03*
D13*
X222230000Y-164920000D03*
D12*
X228530000Y-167220000D03*
%TD*%
D10*
%TO.C,Q2201*%
X191470000Y-107380000D03*
X191470000Y-105080000D03*
D11*
X197770000Y-105080000D03*
D10*
X191470000Y-102780000D03*
%TD*%
D12*
%TO.C,Q2701*%
X228530000Y-202620000D03*
X228530000Y-204920000D03*
D13*
X222230000Y-204920000D03*
D12*
X228530000Y-207220000D03*
%TD*%
%TO.C,Q2702*%
X228530000Y-182540000D03*
X228530000Y-184840000D03*
D13*
X222230000Y-184840000D03*
D12*
X228530000Y-187140000D03*
%TD*%
M02*
