%TF.GenerationSoftware,KiCad,Pcbnew,8.0.2*%
%TF.CreationDate,2024-12-14T16:16:48+01:00*%
%TF.ProjectId,pss_baseboard,7073735f-6261-4736-9562-6f6172642e6b,1.0.0*%
%TF.SameCoordinates,Original*%
%TF.FileFunction,Drillmap*%
%TF.FilePolarity,Positive*%
%FSLAX45Y45*%
G04 Gerber Fmt 4.5, Leading zero omitted, Abs format (unit mm)*
G04 Created by KiCad (PCBNEW 8.0.2) date 2024-12-14 16:16:48*
%MOMM*%
%LPD*%
G01*
G04 APERTURE LIST*
%ADD10C,0.100000*%
%ADD11C,0.200000*%
%ADD12C,0.240000*%
%ADD13C,0.280000*%
%ADD14C,0.320000*%
G04 APERTURE END LIST*
D10*
X16000000Y-24000000D02*
X16000000Y-2000000D01*
X26000000Y-2000000D02*
X26000000Y-24000000D01*
X16000000Y-2000000D02*
X26000000Y-2000000D01*
X26000000Y-24000000D02*
X16000000Y-24000000D01*
D11*
D12*
X19880000Y-3280000D02*
X20120000Y-3520000D01*
X20120000Y-3280000D02*
X19880000Y-3520000D01*
X21980000Y-3280000D02*
X22220000Y-3520000D01*
X22220000Y-3280000D02*
X21980000Y-3520000D01*
X23980000Y-3280000D02*
X24220000Y-3520000D01*
X24220000Y-3280000D02*
X23980000Y-3520000D01*
D13*
X16695000Y-23643000D02*
G75*
G02*
X16415000Y-23643000I-140000J0D01*
G01*
X16415000Y-23643000D02*
G75*
G02*
X16695000Y-23643000I140000J0D01*
G01*
X25585000Y-23643000D02*
G75*
G02*
X25305000Y-23643000I-140000J0D01*
G01*
X25305000Y-23643000D02*
G75*
G02*
X25585000Y-23643000I140000J0D01*
G01*
D14*
X18000000Y-8840000D02*
X18000000Y-9160000D01*
X17840000Y-9000000D02*
X18160000Y-9000000D01*
X18000000Y-21840000D02*
X18000000Y-22160000D01*
X17840000Y-22000000D02*
X18160000Y-22000000D01*
X24000000Y-8840000D02*
X24000000Y-9160000D01*
X23840000Y-9000000D02*
X24160000Y-9000000D01*
X24000000Y-21840000D02*
X24000000Y-22160000D01*
X23840000Y-22000000D02*
X24160000Y-22000000D01*
D11*
X16255777Y-24316484D02*
X16255777Y-24116484D01*
X16255777Y-24116484D02*
X16303396Y-24116484D01*
X16303396Y-24116484D02*
X16331967Y-24126008D01*
X16331967Y-24126008D02*
X16351015Y-24145055D01*
X16351015Y-24145055D02*
X16360539Y-24164103D01*
X16360539Y-24164103D02*
X16370062Y-24202198D01*
X16370062Y-24202198D02*
X16370062Y-24230769D01*
X16370062Y-24230769D02*
X16360539Y-24268865D01*
X16360539Y-24268865D02*
X16351015Y-24287912D01*
X16351015Y-24287912D02*
X16331967Y-24306960D01*
X16331967Y-24306960D02*
X16303396Y-24316484D01*
X16303396Y-24316484D02*
X16255777Y-24316484D01*
X16455777Y-24316484D02*
X16455777Y-24183150D01*
X16455777Y-24221246D02*
X16465301Y-24202198D01*
X16465301Y-24202198D02*
X16474824Y-24192674D01*
X16474824Y-24192674D02*
X16493872Y-24183150D01*
X16493872Y-24183150D02*
X16512920Y-24183150D01*
X16579586Y-24316484D02*
X16579586Y-24183150D01*
X16579586Y-24116484D02*
X16570062Y-24126008D01*
X16570062Y-24126008D02*
X16579586Y-24135531D01*
X16579586Y-24135531D02*
X16589110Y-24126008D01*
X16589110Y-24126008D02*
X16579586Y-24116484D01*
X16579586Y-24116484D02*
X16579586Y-24135531D01*
X16703396Y-24316484D02*
X16684348Y-24306960D01*
X16684348Y-24306960D02*
X16674824Y-24287912D01*
X16674824Y-24287912D02*
X16674824Y-24116484D01*
X16808158Y-24316484D02*
X16789110Y-24306960D01*
X16789110Y-24306960D02*
X16779586Y-24287912D01*
X16779586Y-24287912D02*
X16779586Y-24116484D01*
X17036729Y-24316484D02*
X17036729Y-24116484D01*
X17036729Y-24116484D02*
X17103396Y-24259341D01*
X17103396Y-24259341D02*
X17170063Y-24116484D01*
X17170063Y-24116484D02*
X17170063Y-24316484D01*
X17351015Y-24316484D02*
X17351015Y-24211722D01*
X17351015Y-24211722D02*
X17341491Y-24192674D01*
X17341491Y-24192674D02*
X17322444Y-24183150D01*
X17322444Y-24183150D02*
X17284348Y-24183150D01*
X17284348Y-24183150D02*
X17265301Y-24192674D01*
X17351015Y-24306960D02*
X17331967Y-24316484D01*
X17331967Y-24316484D02*
X17284348Y-24316484D01*
X17284348Y-24316484D02*
X17265301Y-24306960D01*
X17265301Y-24306960D02*
X17255777Y-24287912D01*
X17255777Y-24287912D02*
X17255777Y-24268865D01*
X17255777Y-24268865D02*
X17265301Y-24249817D01*
X17265301Y-24249817D02*
X17284348Y-24240293D01*
X17284348Y-24240293D02*
X17331967Y-24240293D01*
X17331967Y-24240293D02*
X17351015Y-24230769D01*
X17446253Y-24183150D02*
X17446253Y-24383150D01*
X17446253Y-24192674D02*
X17465301Y-24183150D01*
X17465301Y-24183150D02*
X17503396Y-24183150D01*
X17503396Y-24183150D02*
X17522444Y-24192674D01*
X17522444Y-24192674D02*
X17531967Y-24202198D01*
X17531967Y-24202198D02*
X17541491Y-24221246D01*
X17541491Y-24221246D02*
X17541491Y-24278388D01*
X17541491Y-24278388D02*
X17531967Y-24297436D01*
X17531967Y-24297436D02*
X17522444Y-24306960D01*
X17522444Y-24306960D02*
X17503396Y-24316484D01*
X17503396Y-24316484D02*
X17465301Y-24316484D01*
X17465301Y-24316484D02*
X17446253Y-24306960D01*
X17627205Y-24297436D02*
X17636729Y-24306960D01*
X17636729Y-24306960D02*
X17627205Y-24316484D01*
X17627205Y-24316484D02*
X17617682Y-24306960D01*
X17617682Y-24306960D02*
X17627205Y-24297436D01*
X17627205Y-24297436D02*
X17627205Y-24316484D01*
X17627205Y-24192674D02*
X17636729Y-24202198D01*
X17636729Y-24202198D02*
X17627205Y-24211722D01*
X17627205Y-24211722D02*
X17617682Y-24202198D01*
X17617682Y-24202198D02*
X17627205Y-24192674D01*
X17627205Y-24192674D02*
X17627205Y-24211722D01*
X15795000Y-24545000D02*
X15995000Y-24745000D01*
X15995000Y-24545000D02*
X15795000Y-24745000D01*
X16246253Y-24555531D02*
X16255777Y-24546008D01*
X16255777Y-24546008D02*
X16274824Y-24536484D01*
X16274824Y-24536484D02*
X16322443Y-24536484D01*
X16322443Y-24536484D02*
X16341491Y-24546008D01*
X16341491Y-24546008D02*
X16351015Y-24555531D01*
X16351015Y-24555531D02*
X16360539Y-24574579D01*
X16360539Y-24574579D02*
X16360539Y-24593627D01*
X16360539Y-24593627D02*
X16351015Y-24622198D01*
X16351015Y-24622198D02*
X16236729Y-24736484D01*
X16236729Y-24736484D02*
X16360539Y-24736484D01*
X16446253Y-24717436D02*
X16455777Y-24726960D01*
X16455777Y-24726960D02*
X16446253Y-24736484D01*
X16446253Y-24736484D02*
X16436729Y-24726960D01*
X16436729Y-24726960D02*
X16446253Y-24717436D01*
X16446253Y-24717436D02*
X16446253Y-24736484D01*
X16627205Y-24603150D02*
X16627205Y-24736484D01*
X16579586Y-24526960D02*
X16531967Y-24669817D01*
X16531967Y-24669817D02*
X16655777Y-24669817D01*
X16770062Y-24536484D02*
X16789110Y-24536484D01*
X16789110Y-24536484D02*
X16808158Y-24546008D01*
X16808158Y-24546008D02*
X16817682Y-24555531D01*
X16817682Y-24555531D02*
X16827205Y-24574579D01*
X16827205Y-24574579D02*
X16836729Y-24612674D01*
X16836729Y-24612674D02*
X16836729Y-24660293D01*
X16836729Y-24660293D02*
X16827205Y-24698388D01*
X16827205Y-24698388D02*
X16817682Y-24717436D01*
X16817682Y-24717436D02*
X16808158Y-24726960D01*
X16808158Y-24726960D02*
X16789110Y-24736484D01*
X16789110Y-24736484D02*
X16770062Y-24736484D01*
X16770062Y-24736484D02*
X16751015Y-24726960D01*
X16751015Y-24726960D02*
X16741491Y-24717436D01*
X16741491Y-24717436D02*
X16731967Y-24698388D01*
X16731967Y-24698388D02*
X16722443Y-24660293D01*
X16722443Y-24660293D02*
X16722443Y-24612674D01*
X16722443Y-24612674D02*
X16731967Y-24574579D01*
X16731967Y-24574579D02*
X16741491Y-24555531D01*
X16741491Y-24555531D02*
X16751015Y-24546008D01*
X16751015Y-24546008D02*
X16770062Y-24536484D01*
X16960539Y-24536484D02*
X16979586Y-24536484D01*
X16979586Y-24536484D02*
X16998634Y-24546008D01*
X16998634Y-24546008D02*
X17008158Y-24555531D01*
X17008158Y-24555531D02*
X17017682Y-24574579D01*
X17017682Y-24574579D02*
X17027205Y-24612674D01*
X17027205Y-24612674D02*
X17027205Y-24660293D01*
X17027205Y-24660293D02*
X17017682Y-24698388D01*
X17017682Y-24698388D02*
X17008158Y-24717436D01*
X17008158Y-24717436D02*
X16998634Y-24726960D01*
X16998634Y-24726960D02*
X16979586Y-24736484D01*
X16979586Y-24736484D02*
X16960539Y-24736484D01*
X16960539Y-24736484D02*
X16941491Y-24726960D01*
X16941491Y-24726960D02*
X16931967Y-24717436D01*
X16931967Y-24717436D02*
X16922444Y-24698388D01*
X16922444Y-24698388D02*
X16912920Y-24660293D01*
X16912920Y-24660293D02*
X16912920Y-24612674D01*
X16912920Y-24612674D02*
X16922444Y-24574579D01*
X16922444Y-24574579D02*
X16931967Y-24555531D01*
X16931967Y-24555531D02*
X16941491Y-24546008D01*
X16941491Y-24546008D02*
X16960539Y-24536484D01*
X17112920Y-24736484D02*
X17112920Y-24603150D01*
X17112920Y-24622198D02*
X17122444Y-24612674D01*
X17122444Y-24612674D02*
X17141491Y-24603150D01*
X17141491Y-24603150D02*
X17170063Y-24603150D01*
X17170063Y-24603150D02*
X17189110Y-24612674D01*
X17189110Y-24612674D02*
X17198634Y-24631722D01*
X17198634Y-24631722D02*
X17198634Y-24736484D01*
X17198634Y-24631722D02*
X17208158Y-24612674D01*
X17208158Y-24612674D02*
X17227205Y-24603150D01*
X17227205Y-24603150D02*
X17255777Y-24603150D01*
X17255777Y-24603150D02*
X17274825Y-24612674D01*
X17274825Y-24612674D02*
X17284348Y-24631722D01*
X17284348Y-24631722D02*
X17284348Y-24736484D01*
X17379586Y-24736484D02*
X17379586Y-24603150D01*
X17379586Y-24622198D02*
X17389110Y-24612674D01*
X17389110Y-24612674D02*
X17408158Y-24603150D01*
X17408158Y-24603150D02*
X17436729Y-24603150D01*
X17436729Y-24603150D02*
X17455777Y-24612674D01*
X17455777Y-24612674D02*
X17465301Y-24631722D01*
X17465301Y-24631722D02*
X17465301Y-24736484D01*
X17465301Y-24631722D02*
X17474825Y-24612674D01*
X17474825Y-24612674D02*
X17493872Y-24603150D01*
X17493872Y-24603150D02*
X17522444Y-24603150D01*
X17522444Y-24603150D02*
X17541491Y-24612674D01*
X17541491Y-24612674D02*
X17551015Y-24631722D01*
X17551015Y-24631722D02*
X17551015Y-24736484D01*
X17941491Y-24526960D02*
X17770063Y-24784103D01*
X18198634Y-24536484D02*
X18217682Y-24536484D01*
X18217682Y-24536484D02*
X18236729Y-24546008D01*
X18236729Y-24546008D02*
X18246253Y-24555531D01*
X18246253Y-24555531D02*
X18255777Y-24574579D01*
X18255777Y-24574579D02*
X18265301Y-24612674D01*
X18265301Y-24612674D02*
X18265301Y-24660293D01*
X18265301Y-24660293D02*
X18255777Y-24698388D01*
X18255777Y-24698388D02*
X18246253Y-24717436D01*
X18246253Y-24717436D02*
X18236729Y-24726960D01*
X18236729Y-24726960D02*
X18217682Y-24736484D01*
X18217682Y-24736484D02*
X18198634Y-24736484D01*
X18198634Y-24736484D02*
X18179587Y-24726960D01*
X18179587Y-24726960D02*
X18170063Y-24717436D01*
X18170063Y-24717436D02*
X18160539Y-24698388D01*
X18160539Y-24698388D02*
X18151015Y-24660293D01*
X18151015Y-24660293D02*
X18151015Y-24612674D01*
X18151015Y-24612674D02*
X18160539Y-24574579D01*
X18160539Y-24574579D02*
X18170063Y-24555531D01*
X18170063Y-24555531D02*
X18179587Y-24546008D01*
X18179587Y-24546008D02*
X18198634Y-24536484D01*
X18351015Y-24717436D02*
X18360539Y-24726960D01*
X18360539Y-24726960D02*
X18351015Y-24736484D01*
X18351015Y-24736484D02*
X18341491Y-24726960D01*
X18341491Y-24726960D02*
X18351015Y-24717436D01*
X18351015Y-24717436D02*
X18351015Y-24736484D01*
X18484348Y-24536484D02*
X18503396Y-24536484D01*
X18503396Y-24536484D02*
X18522444Y-24546008D01*
X18522444Y-24546008D02*
X18531968Y-24555531D01*
X18531968Y-24555531D02*
X18541491Y-24574579D01*
X18541491Y-24574579D02*
X18551015Y-24612674D01*
X18551015Y-24612674D02*
X18551015Y-24660293D01*
X18551015Y-24660293D02*
X18541491Y-24698388D01*
X18541491Y-24698388D02*
X18531968Y-24717436D01*
X18531968Y-24717436D02*
X18522444Y-24726960D01*
X18522444Y-24726960D02*
X18503396Y-24736484D01*
X18503396Y-24736484D02*
X18484348Y-24736484D01*
X18484348Y-24736484D02*
X18465301Y-24726960D01*
X18465301Y-24726960D02*
X18455777Y-24717436D01*
X18455777Y-24717436D02*
X18446253Y-24698388D01*
X18446253Y-24698388D02*
X18436729Y-24660293D01*
X18436729Y-24660293D02*
X18436729Y-24612674D01*
X18436729Y-24612674D02*
X18446253Y-24574579D01*
X18446253Y-24574579D02*
X18455777Y-24555531D01*
X18455777Y-24555531D02*
X18465301Y-24546008D01*
X18465301Y-24546008D02*
X18484348Y-24536484D01*
X18646253Y-24736484D02*
X18684348Y-24736484D01*
X18684348Y-24736484D02*
X18703396Y-24726960D01*
X18703396Y-24726960D02*
X18712920Y-24717436D01*
X18712920Y-24717436D02*
X18731968Y-24688865D01*
X18731968Y-24688865D02*
X18741491Y-24650769D01*
X18741491Y-24650769D02*
X18741491Y-24574579D01*
X18741491Y-24574579D02*
X18731968Y-24555531D01*
X18731968Y-24555531D02*
X18722444Y-24546008D01*
X18722444Y-24546008D02*
X18703396Y-24536484D01*
X18703396Y-24536484D02*
X18665301Y-24536484D01*
X18665301Y-24536484D02*
X18646253Y-24546008D01*
X18646253Y-24546008D02*
X18636729Y-24555531D01*
X18636729Y-24555531D02*
X18627206Y-24574579D01*
X18627206Y-24574579D02*
X18627206Y-24622198D01*
X18627206Y-24622198D02*
X18636729Y-24641246D01*
X18636729Y-24641246D02*
X18646253Y-24650769D01*
X18646253Y-24650769D02*
X18665301Y-24660293D01*
X18665301Y-24660293D02*
X18703396Y-24660293D01*
X18703396Y-24660293D02*
X18722444Y-24650769D01*
X18722444Y-24650769D02*
X18731968Y-24641246D01*
X18731968Y-24641246D02*
X18741491Y-24622198D01*
X18912920Y-24603150D02*
X18912920Y-24736484D01*
X18865301Y-24526960D02*
X18817682Y-24669817D01*
X18817682Y-24669817D02*
X18941491Y-24669817D01*
X19112920Y-24536484D02*
X19017682Y-24536484D01*
X19017682Y-24536484D02*
X19008158Y-24631722D01*
X19008158Y-24631722D02*
X19017682Y-24622198D01*
X19017682Y-24622198D02*
X19036729Y-24612674D01*
X19036729Y-24612674D02*
X19084349Y-24612674D01*
X19084349Y-24612674D02*
X19103396Y-24622198D01*
X19103396Y-24622198D02*
X19112920Y-24631722D01*
X19112920Y-24631722D02*
X19122444Y-24650769D01*
X19122444Y-24650769D02*
X19122444Y-24698388D01*
X19122444Y-24698388D02*
X19112920Y-24717436D01*
X19112920Y-24717436D02*
X19103396Y-24726960D01*
X19103396Y-24726960D02*
X19084349Y-24736484D01*
X19084349Y-24736484D02*
X19036729Y-24736484D01*
X19036729Y-24736484D02*
X19017682Y-24726960D01*
X19017682Y-24726960D02*
X19008158Y-24717436D01*
X19198634Y-24536484D02*
X19198634Y-24574579D01*
X19274825Y-24536484D02*
X19274825Y-24574579D01*
X19570063Y-24812674D02*
X19560539Y-24803150D01*
X19560539Y-24803150D02*
X19541491Y-24774579D01*
X19541491Y-24774579D02*
X19531968Y-24755531D01*
X19531968Y-24755531D02*
X19522444Y-24726960D01*
X19522444Y-24726960D02*
X19512920Y-24679341D01*
X19512920Y-24679341D02*
X19512920Y-24641246D01*
X19512920Y-24641246D02*
X19522444Y-24593627D01*
X19522444Y-24593627D02*
X19531968Y-24565055D01*
X19531968Y-24565055D02*
X19541491Y-24546008D01*
X19541491Y-24546008D02*
X19560539Y-24517436D01*
X19560539Y-24517436D02*
X19570063Y-24507912D01*
X19627206Y-24536484D02*
X19751015Y-24536484D01*
X19751015Y-24536484D02*
X19684349Y-24612674D01*
X19684349Y-24612674D02*
X19712920Y-24612674D01*
X19712920Y-24612674D02*
X19731968Y-24622198D01*
X19731968Y-24622198D02*
X19741491Y-24631722D01*
X19741491Y-24631722D02*
X19751015Y-24650769D01*
X19751015Y-24650769D02*
X19751015Y-24698388D01*
X19751015Y-24698388D02*
X19741491Y-24717436D01*
X19741491Y-24717436D02*
X19731968Y-24726960D01*
X19731968Y-24726960D02*
X19712920Y-24736484D01*
X19712920Y-24736484D02*
X19655777Y-24736484D01*
X19655777Y-24736484D02*
X19636730Y-24726960D01*
X19636730Y-24726960D02*
X19627206Y-24717436D01*
X19989111Y-24736484D02*
X19989111Y-24536484D01*
X20074825Y-24736484D02*
X20074825Y-24631722D01*
X20074825Y-24631722D02*
X20065301Y-24612674D01*
X20065301Y-24612674D02*
X20046253Y-24603150D01*
X20046253Y-24603150D02*
X20017682Y-24603150D01*
X20017682Y-24603150D02*
X19998634Y-24612674D01*
X19998634Y-24612674D02*
X19989111Y-24622198D01*
X20198634Y-24736484D02*
X20179587Y-24726960D01*
X20179587Y-24726960D02*
X20170063Y-24717436D01*
X20170063Y-24717436D02*
X20160539Y-24698388D01*
X20160539Y-24698388D02*
X20160539Y-24641246D01*
X20160539Y-24641246D02*
X20170063Y-24622198D01*
X20170063Y-24622198D02*
X20179587Y-24612674D01*
X20179587Y-24612674D02*
X20198634Y-24603150D01*
X20198634Y-24603150D02*
X20227206Y-24603150D01*
X20227206Y-24603150D02*
X20246253Y-24612674D01*
X20246253Y-24612674D02*
X20255777Y-24622198D01*
X20255777Y-24622198D02*
X20265301Y-24641246D01*
X20265301Y-24641246D02*
X20265301Y-24698388D01*
X20265301Y-24698388D02*
X20255777Y-24717436D01*
X20255777Y-24717436D02*
X20246253Y-24726960D01*
X20246253Y-24726960D02*
X20227206Y-24736484D01*
X20227206Y-24736484D02*
X20198634Y-24736484D01*
X20379587Y-24736484D02*
X20360539Y-24726960D01*
X20360539Y-24726960D02*
X20351015Y-24707912D01*
X20351015Y-24707912D02*
X20351015Y-24536484D01*
X20531968Y-24726960D02*
X20512920Y-24736484D01*
X20512920Y-24736484D02*
X20474825Y-24736484D01*
X20474825Y-24736484D02*
X20455777Y-24726960D01*
X20455777Y-24726960D02*
X20446253Y-24707912D01*
X20446253Y-24707912D02*
X20446253Y-24631722D01*
X20446253Y-24631722D02*
X20455777Y-24612674D01*
X20455777Y-24612674D02*
X20474825Y-24603150D01*
X20474825Y-24603150D02*
X20512920Y-24603150D01*
X20512920Y-24603150D02*
X20531968Y-24612674D01*
X20531968Y-24612674D02*
X20541492Y-24631722D01*
X20541492Y-24631722D02*
X20541492Y-24650769D01*
X20541492Y-24650769D02*
X20446253Y-24669817D01*
X20617682Y-24726960D02*
X20636730Y-24736484D01*
X20636730Y-24736484D02*
X20674825Y-24736484D01*
X20674825Y-24736484D02*
X20693873Y-24726960D01*
X20693873Y-24726960D02*
X20703396Y-24707912D01*
X20703396Y-24707912D02*
X20703396Y-24698388D01*
X20703396Y-24698388D02*
X20693873Y-24679341D01*
X20693873Y-24679341D02*
X20674825Y-24669817D01*
X20674825Y-24669817D02*
X20646253Y-24669817D01*
X20646253Y-24669817D02*
X20627206Y-24660293D01*
X20627206Y-24660293D02*
X20617682Y-24641246D01*
X20617682Y-24641246D02*
X20617682Y-24631722D01*
X20617682Y-24631722D02*
X20627206Y-24612674D01*
X20627206Y-24612674D02*
X20646253Y-24603150D01*
X20646253Y-24603150D02*
X20674825Y-24603150D01*
X20674825Y-24603150D02*
X20693873Y-24612674D01*
X20770063Y-24812674D02*
X20779587Y-24803150D01*
X20779587Y-24803150D02*
X20798634Y-24774579D01*
X20798634Y-24774579D02*
X20808158Y-24755531D01*
X20808158Y-24755531D02*
X20817682Y-24726960D01*
X20817682Y-24726960D02*
X20827206Y-24679341D01*
X20827206Y-24679341D02*
X20827206Y-24641246D01*
X20827206Y-24641246D02*
X20817682Y-24593627D01*
X20817682Y-24593627D02*
X20808158Y-24565055D01*
X20808158Y-24565055D02*
X20798634Y-24546008D01*
X20798634Y-24546008D02*
X20779587Y-24517436D01*
X20779587Y-24517436D02*
X20770063Y-24507912D01*
X21131968Y-24812674D02*
X21122444Y-24803150D01*
X21122444Y-24803150D02*
X21103396Y-24774579D01*
X21103396Y-24774579D02*
X21093873Y-24755531D01*
X21093873Y-24755531D02*
X21084349Y-24726960D01*
X21084349Y-24726960D02*
X21074825Y-24679341D01*
X21074825Y-24679341D02*
X21074825Y-24641246D01*
X21074825Y-24641246D02*
X21084349Y-24593627D01*
X21084349Y-24593627D02*
X21093873Y-24565055D01*
X21093873Y-24565055D02*
X21103396Y-24546008D01*
X21103396Y-24546008D02*
X21122444Y-24517436D01*
X21122444Y-24517436D02*
X21131968Y-24507912D01*
X21208158Y-24603150D02*
X21208158Y-24736484D01*
X21208158Y-24622198D02*
X21217682Y-24612674D01*
X21217682Y-24612674D02*
X21236730Y-24603150D01*
X21236730Y-24603150D02*
X21265301Y-24603150D01*
X21265301Y-24603150D02*
X21284349Y-24612674D01*
X21284349Y-24612674D02*
X21293873Y-24631722D01*
X21293873Y-24631722D02*
X21293873Y-24736484D01*
X21417682Y-24736484D02*
X21398634Y-24726960D01*
X21398634Y-24726960D02*
X21389111Y-24717436D01*
X21389111Y-24717436D02*
X21379587Y-24698388D01*
X21379587Y-24698388D02*
X21379587Y-24641246D01*
X21379587Y-24641246D02*
X21389111Y-24622198D01*
X21389111Y-24622198D02*
X21398634Y-24612674D01*
X21398634Y-24612674D02*
X21417682Y-24603150D01*
X21417682Y-24603150D02*
X21446254Y-24603150D01*
X21446254Y-24603150D02*
X21465301Y-24612674D01*
X21465301Y-24612674D02*
X21474825Y-24622198D01*
X21474825Y-24622198D02*
X21484349Y-24641246D01*
X21484349Y-24641246D02*
X21484349Y-24698388D01*
X21484349Y-24698388D02*
X21474825Y-24717436D01*
X21474825Y-24717436D02*
X21465301Y-24726960D01*
X21465301Y-24726960D02*
X21446254Y-24736484D01*
X21446254Y-24736484D02*
X21417682Y-24736484D01*
X21541492Y-24603150D02*
X21617682Y-24603150D01*
X21570063Y-24536484D02*
X21570063Y-24707912D01*
X21570063Y-24707912D02*
X21579587Y-24726960D01*
X21579587Y-24726960D02*
X21598634Y-24736484D01*
X21598634Y-24736484D02*
X21617682Y-24736484D01*
X21836730Y-24603150D02*
X21836730Y-24803150D01*
X21836730Y-24612674D02*
X21855777Y-24603150D01*
X21855777Y-24603150D02*
X21893873Y-24603150D01*
X21893873Y-24603150D02*
X21912920Y-24612674D01*
X21912920Y-24612674D02*
X21922444Y-24622198D01*
X21922444Y-24622198D02*
X21931968Y-24641246D01*
X21931968Y-24641246D02*
X21931968Y-24698388D01*
X21931968Y-24698388D02*
X21922444Y-24717436D01*
X21922444Y-24717436D02*
X21912920Y-24726960D01*
X21912920Y-24726960D02*
X21893873Y-24736484D01*
X21893873Y-24736484D02*
X21855777Y-24736484D01*
X21855777Y-24736484D02*
X21836730Y-24726960D01*
X22046254Y-24736484D02*
X22027206Y-24726960D01*
X22027206Y-24726960D02*
X22017682Y-24707912D01*
X22017682Y-24707912D02*
X22017682Y-24536484D01*
X22208158Y-24736484D02*
X22208158Y-24631722D01*
X22208158Y-24631722D02*
X22198635Y-24612674D01*
X22198635Y-24612674D02*
X22179587Y-24603150D01*
X22179587Y-24603150D02*
X22141492Y-24603150D01*
X22141492Y-24603150D02*
X22122444Y-24612674D01*
X22208158Y-24726960D02*
X22189111Y-24736484D01*
X22189111Y-24736484D02*
X22141492Y-24736484D01*
X22141492Y-24736484D02*
X22122444Y-24726960D01*
X22122444Y-24726960D02*
X22112920Y-24707912D01*
X22112920Y-24707912D02*
X22112920Y-24688865D01*
X22112920Y-24688865D02*
X22122444Y-24669817D01*
X22122444Y-24669817D02*
X22141492Y-24660293D01*
X22141492Y-24660293D02*
X22189111Y-24660293D01*
X22189111Y-24660293D02*
X22208158Y-24650769D01*
X22274825Y-24603150D02*
X22351015Y-24603150D01*
X22303396Y-24536484D02*
X22303396Y-24707912D01*
X22303396Y-24707912D02*
X22312920Y-24726960D01*
X22312920Y-24726960D02*
X22331968Y-24736484D01*
X22331968Y-24736484D02*
X22351015Y-24736484D01*
X22493873Y-24726960D02*
X22474825Y-24736484D01*
X22474825Y-24736484D02*
X22436730Y-24736484D01*
X22436730Y-24736484D02*
X22417682Y-24726960D01*
X22417682Y-24726960D02*
X22408158Y-24707912D01*
X22408158Y-24707912D02*
X22408158Y-24631722D01*
X22408158Y-24631722D02*
X22417682Y-24612674D01*
X22417682Y-24612674D02*
X22436730Y-24603150D01*
X22436730Y-24603150D02*
X22474825Y-24603150D01*
X22474825Y-24603150D02*
X22493873Y-24612674D01*
X22493873Y-24612674D02*
X22503396Y-24631722D01*
X22503396Y-24631722D02*
X22503396Y-24650769D01*
X22503396Y-24650769D02*
X22408158Y-24669817D01*
X22674825Y-24736484D02*
X22674825Y-24536484D01*
X22674825Y-24726960D02*
X22655777Y-24736484D01*
X22655777Y-24736484D02*
X22617682Y-24736484D01*
X22617682Y-24736484D02*
X22598634Y-24726960D01*
X22598634Y-24726960D02*
X22589111Y-24717436D01*
X22589111Y-24717436D02*
X22579587Y-24698388D01*
X22579587Y-24698388D02*
X22579587Y-24641246D01*
X22579587Y-24641246D02*
X22589111Y-24622198D01*
X22589111Y-24622198D02*
X22598634Y-24612674D01*
X22598634Y-24612674D02*
X22617682Y-24603150D01*
X22617682Y-24603150D02*
X22655777Y-24603150D01*
X22655777Y-24603150D02*
X22674825Y-24612674D01*
X22751015Y-24812674D02*
X22760539Y-24803150D01*
X22760539Y-24803150D02*
X22779587Y-24774579D01*
X22779587Y-24774579D02*
X22789111Y-24755531D01*
X22789111Y-24755531D02*
X22798634Y-24726960D01*
X22798634Y-24726960D02*
X22808158Y-24679341D01*
X22808158Y-24679341D02*
X22808158Y-24641246D01*
X22808158Y-24641246D02*
X22798634Y-24593627D01*
X22798634Y-24593627D02*
X22789111Y-24565055D01*
X22789111Y-24565055D02*
X22779587Y-24546008D01*
X22779587Y-24546008D02*
X22760539Y-24517436D01*
X22760539Y-24517436D02*
X22751015Y-24507912D01*
X15995000Y-24965000D02*
G75*
G02*
X15795000Y-24965000I-100000J0D01*
G01*
X15795000Y-24965000D02*
G75*
G02*
X15995000Y-24965000I100000J0D01*
G01*
X16246253Y-24875531D02*
X16255777Y-24866008D01*
X16255777Y-24866008D02*
X16274824Y-24856484D01*
X16274824Y-24856484D02*
X16322443Y-24856484D01*
X16322443Y-24856484D02*
X16341491Y-24866008D01*
X16341491Y-24866008D02*
X16351015Y-24875531D01*
X16351015Y-24875531D02*
X16360539Y-24894579D01*
X16360539Y-24894579D02*
X16360539Y-24913627D01*
X16360539Y-24913627D02*
X16351015Y-24942198D01*
X16351015Y-24942198D02*
X16236729Y-25056484D01*
X16236729Y-25056484D02*
X16360539Y-25056484D01*
X16446253Y-25037436D02*
X16455777Y-25046960D01*
X16455777Y-25046960D02*
X16446253Y-25056484D01*
X16446253Y-25056484D02*
X16436729Y-25046960D01*
X16436729Y-25046960D02*
X16446253Y-25037436D01*
X16446253Y-25037436D02*
X16446253Y-25056484D01*
X16570062Y-24942198D02*
X16551015Y-24932674D01*
X16551015Y-24932674D02*
X16541491Y-24923150D01*
X16541491Y-24923150D02*
X16531967Y-24904103D01*
X16531967Y-24904103D02*
X16531967Y-24894579D01*
X16531967Y-24894579D02*
X16541491Y-24875531D01*
X16541491Y-24875531D02*
X16551015Y-24866008D01*
X16551015Y-24866008D02*
X16570062Y-24856484D01*
X16570062Y-24856484D02*
X16608158Y-24856484D01*
X16608158Y-24856484D02*
X16627205Y-24866008D01*
X16627205Y-24866008D02*
X16636729Y-24875531D01*
X16636729Y-24875531D02*
X16646253Y-24894579D01*
X16646253Y-24894579D02*
X16646253Y-24904103D01*
X16646253Y-24904103D02*
X16636729Y-24923150D01*
X16636729Y-24923150D02*
X16627205Y-24932674D01*
X16627205Y-24932674D02*
X16608158Y-24942198D01*
X16608158Y-24942198D02*
X16570062Y-24942198D01*
X16570062Y-24942198D02*
X16551015Y-24951722D01*
X16551015Y-24951722D02*
X16541491Y-24961246D01*
X16541491Y-24961246D02*
X16531967Y-24980293D01*
X16531967Y-24980293D02*
X16531967Y-25018388D01*
X16531967Y-25018388D02*
X16541491Y-25037436D01*
X16541491Y-25037436D02*
X16551015Y-25046960D01*
X16551015Y-25046960D02*
X16570062Y-25056484D01*
X16570062Y-25056484D02*
X16608158Y-25056484D01*
X16608158Y-25056484D02*
X16627205Y-25046960D01*
X16627205Y-25046960D02*
X16636729Y-25037436D01*
X16636729Y-25037436D02*
X16646253Y-25018388D01*
X16646253Y-25018388D02*
X16646253Y-24980293D01*
X16646253Y-24980293D02*
X16636729Y-24961246D01*
X16636729Y-24961246D02*
X16627205Y-24951722D01*
X16627205Y-24951722D02*
X16608158Y-24942198D01*
X16770062Y-24856484D02*
X16789110Y-24856484D01*
X16789110Y-24856484D02*
X16808158Y-24866008D01*
X16808158Y-24866008D02*
X16817682Y-24875531D01*
X16817682Y-24875531D02*
X16827205Y-24894579D01*
X16827205Y-24894579D02*
X16836729Y-24932674D01*
X16836729Y-24932674D02*
X16836729Y-24980293D01*
X16836729Y-24980293D02*
X16827205Y-25018388D01*
X16827205Y-25018388D02*
X16817682Y-25037436D01*
X16817682Y-25037436D02*
X16808158Y-25046960D01*
X16808158Y-25046960D02*
X16789110Y-25056484D01*
X16789110Y-25056484D02*
X16770062Y-25056484D01*
X16770062Y-25056484D02*
X16751015Y-25046960D01*
X16751015Y-25046960D02*
X16741491Y-25037436D01*
X16741491Y-25037436D02*
X16731967Y-25018388D01*
X16731967Y-25018388D02*
X16722443Y-24980293D01*
X16722443Y-24980293D02*
X16722443Y-24932674D01*
X16722443Y-24932674D02*
X16731967Y-24894579D01*
X16731967Y-24894579D02*
X16741491Y-24875531D01*
X16741491Y-24875531D02*
X16751015Y-24866008D01*
X16751015Y-24866008D02*
X16770062Y-24856484D01*
X16960539Y-24856484D02*
X16979586Y-24856484D01*
X16979586Y-24856484D02*
X16998634Y-24866008D01*
X16998634Y-24866008D02*
X17008158Y-24875531D01*
X17008158Y-24875531D02*
X17017682Y-24894579D01*
X17017682Y-24894579D02*
X17027205Y-24932674D01*
X17027205Y-24932674D02*
X17027205Y-24980293D01*
X17027205Y-24980293D02*
X17017682Y-25018388D01*
X17017682Y-25018388D02*
X17008158Y-25037436D01*
X17008158Y-25037436D02*
X16998634Y-25046960D01*
X16998634Y-25046960D02*
X16979586Y-25056484D01*
X16979586Y-25056484D02*
X16960539Y-25056484D01*
X16960539Y-25056484D02*
X16941491Y-25046960D01*
X16941491Y-25046960D02*
X16931967Y-25037436D01*
X16931967Y-25037436D02*
X16922444Y-25018388D01*
X16922444Y-25018388D02*
X16912920Y-24980293D01*
X16912920Y-24980293D02*
X16912920Y-24932674D01*
X16912920Y-24932674D02*
X16922444Y-24894579D01*
X16922444Y-24894579D02*
X16931967Y-24875531D01*
X16931967Y-24875531D02*
X16941491Y-24866008D01*
X16941491Y-24866008D02*
X16960539Y-24856484D01*
X17112920Y-25056484D02*
X17112920Y-24923150D01*
X17112920Y-24942198D02*
X17122444Y-24932674D01*
X17122444Y-24932674D02*
X17141491Y-24923150D01*
X17141491Y-24923150D02*
X17170063Y-24923150D01*
X17170063Y-24923150D02*
X17189110Y-24932674D01*
X17189110Y-24932674D02*
X17198634Y-24951722D01*
X17198634Y-24951722D02*
X17198634Y-25056484D01*
X17198634Y-24951722D02*
X17208158Y-24932674D01*
X17208158Y-24932674D02*
X17227205Y-24923150D01*
X17227205Y-24923150D02*
X17255777Y-24923150D01*
X17255777Y-24923150D02*
X17274825Y-24932674D01*
X17274825Y-24932674D02*
X17284348Y-24951722D01*
X17284348Y-24951722D02*
X17284348Y-25056484D01*
X17379586Y-25056484D02*
X17379586Y-24923150D01*
X17379586Y-24942198D02*
X17389110Y-24932674D01*
X17389110Y-24932674D02*
X17408158Y-24923150D01*
X17408158Y-24923150D02*
X17436729Y-24923150D01*
X17436729Y-24923150D02*
X17455777Y-24932674D01*
X17455777Y-24932674D02*
X17465301Y-24951722D01*
X17465301Y-24951722D02*
X17465301Y-25056484D01*
X17465301Y-24951722D02*
X17474825Y-24932674D01*
X17474825Y-24932674D02*
X17493872Y-24923150D01*
X17493872Y-24923150D02*
X17522444Y-24923150D01*
X17522444Y-24923150D02*
X17541491Y-24932674D01*
X17541491Y-24932674D02*
X17551015Y-24951722D01*
X17551015Y-24951722D02*
X17551015Y-25056484D01*
X17941491Y-24846960D02*
X17770063Y-25104103D01*
X18198634Y-24856484D02*
X18217682Y-24856484D01*
X18217682Y-24856484D02*
X18236729Y-24866008D01*
X18236729Y-24866008D02*
X18246253Y-24875531D01*
X18246253Y-24875531D02*
X18255777Y-24894579D01*
X18255777Y-24894579D02*
X18265301Y-24932674D01*
X18265301Y-24932674D02*
X18265301Y-24980293D01*
X18265301Y-24980293D02*
X18255777Y-25018388D01*
X18255777Y-25018388D02*
X18246253Y-25037436D01*
X18246253Y-25037436D02*
X18236729Y-25046960D01*
X18236729Y-25046960D02*
X18217682Y-25056484D01*
X18217682Y-25056484D02*
X18198634Y-25056484D01*
X18198634Y-25056484D02*
X18179587Y-25046960D01*
X18179587Y-25046960D02*
X18170063Y-25037436D01*
X18170063Y-25037436D02*
X18160539Y-25018388D01*
X18160539Y-25018388D02*
X18151015Y-24980293D01*
X18151015Y-24980293D02*
X18151015Y-24932674D01*
X18151015Y-24932674D02*
X18160539Y-24894579D01*
X18160539Y-24894579D02*
X18170063Y-24875531D01*
X18170063Y-24875531D02*
X18179587Y-24866008D01*
X18179587Y-24866008D02*
X18198634Y-24856484D01*
X18351015Y-25037436D02*
X18360539Y-25046960D01*
X18360539Y-25046960D02*
X18351015Y-25056484D01*
X18351015Y-25056484D02*
X18341491Y-25046960D01*
X18341491Y-25046960D02*
X18351015Y-25037436D01*
X18351015Y-25037436D02*
X18351015Y-25056484D01*
X18551015Y-25056484D02*
X18436729Y-25056484D01*
X18493872Y-25056484D02*
X18493872Y-24856484D01*
X18493872Y-24856484D02*
X18474825Y-24885055D01*
X18474825Y-24885055D02*
X18455777Y-24904103D01*
X18455777Y-24904103D02*
X18436729Y-24913627D01*
X18741491Y-25056484D02*
X18627206Y-25056484D01*
X18684348Y-25056484D02*
X18684348Y-24856484D01*
X18684348Y-24856484D02*
X18665301Y-24885055D01*
X18665301Y-24885055D02*
X18646253Y-24904103D01*
X18646253Y-24904103D02*
X18627206Y-24913627D01*
X18865301Y-24856484D02*
X18884349Y-24856484D01*
X18884349Y-24856484D02*
X18903396Y-24866008D01*
X18903396Y-24866008D02*
X18912920Y-24875531D01*
X18912920Y-24875531D02*
X18922444Y-24894579D01*
X18922444Y-24894579D02*
X18931968Y-24932674D01*
X18931968Y-24932674D02*
X18931968Y-24980293D01*
X18931968Y-24980293D02*
X18922444Y-25018388D01*
X18922444Y-25018388D02*
X18912920Y-25037436D01*
X18912920Y-25037436D02*
X18903396Y-25046960D01*
X18903396Y-25046960D02*
X18884349Y-25056484D01*
X18884349Y-25056484D02*
X18865301Y-25056484D01*
X18865301Y-25056484D02*
X18846253Y-25046960D01*
X18846253Y-25046960D02*
X18836729Y-25037436D01*
X18836729Y-25037436D02*
X18827206Y-25018388D01*
X18827206Y-25018388D02*
X18817682Y-24980293D01*
X18817682Y-24980293D02*
X18817682Y-24932674D01*
X18817682Y-24932674D02*
X18827206Y-24894579D01*
X18827206Y-24894579D02*
X18836729Y-24875531D01*
X18836729Y-24875531D02*
X18846253Y-24866008D01*
X18846253Y-24866008D02*
X18865301Y-24856484D01*
X19008158Y-24875531D02*
X19017682Y-24866008D01*
X19017682Y-24866008D02*
X19036729Y-24856484D01*
X19036729Y-24856484D02*
X19084349Y-24856484D01*
X19084349Y-24856484D02*
X19103396Y-24866008D01*
X19103396Y-24866008D02*
X19112920Y-24875531D01*
X19112920Y-24875531D02*
X19122444Y-24894579D01*
X19122444Y-24894579D02*
X19122444Y-24913627D01*
X19122444Y-24913627D02*
X19112920Y-24942198D01*
X19112920Y-24942198D02*
X18998634Y-25056484D01*
X18998634Y-25056484D02*
X19122444Y-25056484D01*
X19198634Y-24856484D02*
X19198634Y-24894579D01*
X19274825Y-24856484D02*
X19274825Y-24894579D01*
X19570063Y-25132674D02*
X19560539Y-25123150D01*
X19560539Y-25123150D02*
X19541491Y-25094579D01*
X19541491Y-25094579D02*
X19531968Y-25075531D01*
X19531968Y-25075531D02*
X19522444Y-25046960D01*
X19522444Y-25046960D02*
X19512920Y-24999341D01*
X19512920Y-24999341D02*
X19512920Y-24961246D01*
X19512920Y-24961246D02*
X19522444Y-24913627D01*
X19522444Y-24913627D02*
X19531968Y-24885055D01*
X19531968Y-24885055D02*
X19541491Y-24866008D01*
X19541491Y-24866008D02*
X19560539Y-24837436D01*
X19560539Y-24837436D02*
X19570063Y-24827912D01*
X19636730Y-24875531D02*
X19646253Y-24866008D01*
X19646253Y-24866008D02*
X19665301Y-24856484D01*
X19665301Y-24856484D02*
X19712920Y-24856484D01*
X19712920Y-24856484D02*
X19731968Y-24866008D01*
X19731968Y-24866008D02*
X19741491Y-24875531D01*
X19741491Y-24875531D02*
X19751015Y-24894579D01*
X19751015Y-24894579D02*
X19751015Y-24913627D01*
X19751015Y-24913627D02*
X19741491Y-24942198D01*
X19741491Y-24942198D02*
X19627206Y-25056484D01*
X19627206Y-25056484D02*
X19751015Y-25056484D01*
X19989111Y-25056484D02*
X19989111Y-24856484D01*
X20074825Y-25056484D02*
X20074825Y-24951722D01*
X20074825Y-24951722D02*
X20065301Y-24932674D01*
X20065301Y-24932674D02*
X20046253Y-24923150D01*
X20046253Y-24923150D02*
X20017682Y-24923150D01*
X20017682Y-24923150D02*
X19998634Y-24932674D01*
X19998634Y-24932674D02*
X19989111Y-24942198D01*
X20198634Y-25056484D02*
X20179587Y-25046960D01*
X20179587Y-25046960D02*
X20170063Y-25037436D01*
X20170063Y-25037436D02*
X20160539Y-25018388D01*
X20160539Y-25018388D02*
X20160539Y-24961246D01*
X20160539Y-24961246D02*
X20170063Y-24942198D01*
X20170063Y-24942198D02*
X20179587Y-24932674D01*
X20179587Y-24932674D02*
X20198634Y-24923150D01*
X20198634Y-24923150D02*
X20227206Y-24923150D01*
X20227206Y-24923150D02*
X20246253Y-24932674D01*
X20246253Y-24932674D02*
X20255777Y-24942198D01*
X20255777Y-24942198D02*
X20265301Y-24961246D01*
X20265301Y-24961246D02*
X20265301Y-25018388D01*
X20265301Y-25018388D02*
X20255777Y-25037436D01*
X20255777Y-25037436D02*
X20246253Y-25046960D01*
X20246253Y-25046960D02*
X20227206Y-25056484D01*
X20227206Y-25056484D02*
X20198634Y-25056484D01*
X20379587Y-25056484D02*
X20360539Y-25046960D01*
X20360539Y-25046960D02*
X20351015Y-25027912D01*
X20351015Y-25027912D02*
X20351015Y-24856484D01*
X20531968Y-25046960D02*
X20512920Y-25056484D01*
X20512920Y-25056484D02*
X20474825Y-25056484D01*
X20474825Y-25056484D02*
X20455777Y-25046960D01*
X20455777Y-25046960D02*
X20446253Y-25027912D01*
X20446253Y-25027912D02*
X20446253Y-24951722D01*
X20446253Y-24951722D02*
X20455777Y-24932674D01*
X20455777Y-24932674D02*
X20474825Y-24923150D01*
X20474825Y-24923150D02*
X20512920Y-24923150D01*
X20512920Y-24923150D02*
X20531968Y-24932674D01*
X20531968Y-24932674D02*
X20541492Y-24951722D01*
X20541492Y-24951722D02*
X20541492Y-24970769D01*
X20541492Y-24970769D02*
X20446253Y-24989817D01*
X20617682Y-25046960D02*
X20636730Y-25056484D01*
X20636730Y-25056484D02*
X20674825Y-25056484D01*
X20674825Y-25056484D02*
X20693873Y-25046960D01*
X20693873Y-25046960D02*
X20703396Y-25027912D01*
X20703396Y-25027912D02*
X20703396Y-25018388D01*
X20703396Y-25018388D02*
X20693873Y-24999341D01*
X20693873Y-24999341D02*
X20674825Y-24989817D01*
X20674825Y-24989817D02*
X20646253Y-24989817D01*
X20646253Y-24989817D02*
X20627206Y-24980293D01*
X20627206Y-24980293D02*
X20617682Y-24961246D01*
X20617682Y-24961246D02*
X20617682Y-24951722D01*
X20617682Y-24951722D02*
X20627206Y-24932674D01*
X20627206Y-24932674D02*
X20646253Y-24923150D01*
X20646253Y-24923150D02*
X20674825Y-24923150D01*
X20674825Y-24923150D02*
X20693873Y-24932674D01*
X20770063Y-25132674D02*
X20779587Y-25123150D01*
X20779587Y-25123150D02*
X20798634Y-25094579D01*
X20798634Y-25094579D02*
X20808158Y-25075531D01*
X20808158Y-25075531D02*
X20817682Y-25046960D01*
X20817682Y-25046960D02*
X20827206Y-24999341D01*
X20827206Y-24999341D02*
X20827206Y-24961246D01*
X20827206Y-24961246D02*
X20817682Y-24913627D01*
X20817682Y-24913627D02*
X20808158Y-24885055D01*
X20808158Y-24885055D02*
X20798634Y-24866008D01*
X20798634Y-24866008D02*
X20779587Y-24837436D01*
X20779587Y-24837436D02*
X20770063Y-24827912D01*
X21131968Y-25132674D02*
X21122444Y-25123150D01*
X21122444Y-25123150D02*
X21103396Y-25094579D01*
X21103396Y-25094579D02*
X21093873Y-25075531D01*
X21093873Y-25075531D02*
X21084349Y-25046960D01*
X21084349Y-25046960D02*
X21074825Y-24999341D01*
X21074825Y-24999341D02*
X21074825Y-24961246D01*
X21074825Y-24961246D02*
X21084349Y-24913627D01*
X21084349Y-24913627D02*
X21093873Y-24885055D01*
X21093873Y-24885055D02*
X21103396Y-24866008D01*
X21103396Y-24866008D02*
X21122444Y-24837436D01*
X21122444Y-24837436D02*
X21131968Y-24827912D01*
X21208158Y-24923150D02*
X21208158Y-25056484D01*
X21208158Y-24942198D02*
X21217682Y-24932674D01*
X21217682Y-24932674D02*
X21236730Y-24923150D01*
X21236730Y-24923150D02*
X21265301Y-24923150D01*
X21265301Y-24923150D02*
X21284349Y-24932674D01*
X21284349Y-24932674D02*
X21293873Y-24951722D01*
X21293873Y-24951722D02*
X21293873Y-25056484D01*
X21417682Y-25056484D02*
X21398634Y-25046960D01*
X21398634Y-25046960D02*
X21389111Y-25037436D01*
X21389111Y-25037436D02*
X21379587Y-25018388D01*
X21379587Y-25018388D02*
X21379587Y-24961246D01*
X21379587Y-24961246D02*
X21389111Y-24942198D01*
X21389111Y-24942198D02*
X21398634Y-24932674D01*
X21398634Y-24932674D02*
X21417682Y-24923150D01*
X21417682Y-24923150D02*
X21446254Y-24923150D01*
X21446254Y-24923150D02*
X21465301Y-24932674D01*
X21465301Y-24932674D02*
X21474825Y-24942198D01*
X21474825Y-24942198D02*
X21484349Y-24961246D01*
X21484349Y-24961246D02*
X21484349Y-25018388D01*
X21484349Y-25018388D02*
X21474825Y-25037436D01*
X21474825Y-25037436D02*
X21465301Y-25046960D01*
X21465301Y-25046960D02*
X21446254Y-25056484D01*
X21446254Y-25056484D02*
X21417682Y-25056484D01*
X21541492Y-24923150D02*
X21617682Y-24923150D01*
X21570063Y-24856484D02*
X21570063Y-25027912D01*
X21570063Y-25027912D02*
X21579587Y-25046960D01*
X21579587Y-25046960D02*
X21598634Y-25056484D01*
X21598634Y-25056484D02*
X21617682Y-25056484D01*
X21836730Y-24923150D02*
X21836730Y-25123150D01*
X21836730Y-24932674D02*
X21855777Y-24923150D01*
X21855777Y-24923150D02*
X21893873Y-24923150D01*
X21893873Y-24923150D02*
X21912920Y-24932674D01*
X21912920Y-24932674D02*
X21922444Y-24942198D01*
X21922444Y-24942198D02*
X21931968Y-24961246D01*
X21931968Y-24961246D02*
X21931968Y-25018388D01*
X21931968Y-25018388D02*
X21922444Y-25037436D01*
X21922444Y-25037436D02*
X21912920Y-25046960D01*
X21912920Y-25046960D02*
X21893873Y-25056484D01*
X21893873Y-25056484D02*
X21855777Y-25056484D01*
X21855777Y-25056484D02*
X21836730Y-25046960D01*
X22046254Y-25056484D02*
X22027206Y-25046960D01*
X22027206Y-25046960D02*
X22017682Y-25027912D01*
X22017682Y-25027912D02*
X22017682Y-24856484D01*
X22208158Y-25056484D02*
X22208158Y-24951722D01*
X22208158Y-24951722D02*
X22198635Y-24932674D01*
X22198635Y-24932674D02*
X22179587Y-24923150D01*
X22179587Y-24923150D02*
X22141492Y-24923150D01*
X22141492Y-24923150D02*
X22122444Y-24932674D01*
X22208158Y-25046960D02*
X22189111Y-25056484D01*
X22189111Y-25056484D02*
X22141492Y-25056484D01*
X22141492Y-25056484D02*
X22122444Y-25046960D01*
X22122444Y-25046960D02*
X22112920Y-25027912D01*
X22112920Y-25027912D02*
X22112920Y-25008865D01*
X22112920Y-25008865D02*
X22122444Y-24989817D01*
X22122444Y-24989817D02*
X22141492Y-24980293D01*
X22141492Y-24980293D02*
X22189111Y-24980293D01*
X22189111Y-24980293D02*
X22208158Y-24970769D01*
X22274825Y-24923150D02*
X22351015Y-24923150D01*
X22303396Y-24856484D02*
X22303396Y-25027912D01*
X22303396Y-25027912D02*
X22312920Y-25046960D01*
X22312920Y-25046960D02*
X22331968Y-25056484D01*
X22331968Y-25056484D02*
X22351015Y-25056484D01*
X22493873Y-25046960D02*
X22474825Y-25056484D01*
X22474825Y-25056484D02*
X22436730Y-25056484D01*
X22436730Y-25056484D02*
X22417682Y-25046960D01*
X22417682Y-25046960D02*
X22408158Y-25027912D01*
X22408158Y-25027912D02*
X22408158Y-24951722D01*
X22408158Y-24951722D02*
X22417682Y-24932674D01*
X22417682Y-24932674D02*
X22436730Y-24923150D01*
X22436730Y-24923150D02*
X22474825Y-24923150D01*
X22474825Y-24923150D02*
X22493873Y-24932674D01*
X22493873Y-24932674D02*
X22503396Y-24951722D01*
X22503396Y-24951722D02*
X22503396Y-24970769D01*
X22503396Y-24970769D02*
X22408158Y-24989817D01*
X22674825Y-25056484D02*
X22674825Y-24856484D01*
X22674825Y-25046960D02*
X22655777Y-25056484D01*
X22655777Y-25056484D02*
X22617682Y-25056484D01*
X22617682Y-25056484D02*
X22598634Y-25046960D01*
X22598634Y-25046960D02*
X22589111Y-25037436D01*
X22589111Y-25037436D02*
X22579587Y-25018388D01*
X22579587Y-25018388D02*
X22579587Y-24961246D01*
X22579587Y-24961246D02*
X22589111Y-24942198D01*
X22589111Y-24942198D02*
X22598634Y-24932674D01*
X22598634Y-24932674D02*
X22617682Y-24923150D01*
X22617682Y-24923150D02*
X22655777Y-24923150D01*
X22655777Y-24923150D02*
X22674825Y-24932674D01*
X22751015Y-25132674D02*
X22760539Y-25123150D01*
X22760539Y-25123150D02*
X22779587Y-25094579D01*
X22779587Y-25094579D02*
X22789111Y-25075531D01*
X22789111Y-25075531D02*
X22798634Y-25046960D01*
X22798634Y-25046960D02*
X22808158Y-24999341D01*
X22808158Y-24999341D02*
X22808158Y-24961246D01*
X22808158Y-24961246D02*
X22798634Y-24913627D01*
X22798634Y-24913627D02*
X22789111Y-24885055D01*
X22789111Y-24885055D02*
X22779587Y-24866008D01*
X22779587Y-24866008D02*
X22760539Y-24837436D01*
X22760539Y-24837436D02*
X22751015Y-24827912D01*
X15895000Y-25185000D02*
X15895000Y-25385000D01*
X15795000Y-25285000D02*
X15995000Y-25285000D01*
X16236729Y-25176484D02*
X16360539Y-25176484D01*
X16360539Y-25176484D02*
X16293872Y-25252674D01*
X16293872Y-25252674D02*
X16322443Y-25252674D01*
X16322443Y-25252674D02*
X16341491Y-25262198D01*
X16341491Y-25262198D02*
X16351015Y-25271722D01*
X16351015Y-25271722D02*
X16360539Y-25290769D01*
X16360539Y-25290769D02*
X16360539Y-25338388D01*
X16360539Y-25338388D02*
X16351015Y-25357436D01*
X16351015Y-25357436D02*
X16341491Y-25366960D01*
X16341491Y-25366960D02*
X16322443Y-25376484D01*
X16322443Y-25376484D02*
X16265301Y-25376484D01*
X16265301Y-25376484D02*
X16246253Y-25366960D01*
X16246253Y-25366960D02*
X16236729Y-25357436D01*
X16446253Y-25357436D02*
X16455777Y-25366960D01*
X16455777Y-25366960D02*
X16446253Y-25376484D01*
X16446253Y-25376484D02*
X16436729Y-25366960D01*
X16436729Y-25366960D02*
X16446253Y-25357436D01*
X16446253Y-25357436D02*
X16446253Y-25376484D01*
X16531967Y-25195531D02*
X16541491Y-25186008D01*
X16541491Y-25186008D02*
X16560539Y-25176484D01*
X16560539Y-25176484D02*
X16608158Y-25176484D01*
X16608158Y-25176484D02*
X16627205Y-25186008D01*
X16627205Y-25186008D02*
X16636729Y-25195531D01*
X16636729Y-25195531D02*
X16646253Y-25214579D01*
X16646253Y-25214579D02*
X16646253Y-25233627D01*
X16646253Y-25233627D02*
X16636729Y-25262198D01*
X16636729Y-25262198D02*
X16522443Y-25376484D01*
X16522443Y-25376484D02*
X16646253Y-25376484D01*
X16770062Y-25176484D02*
X16789110Y-25176484D01*
X16789110Y-25176484D02*
X16808158Y-25186008D01*
X16808158Y-25186008D02*
X16817682Y-25195531D01*
X16817682Y-25195531D02*
X16827205Y-25214579D01*
X16827205Y-25214579D02*
X16836729Y-25252674D01*
X16836729Y-25252674D02*
X16836729Y-25300293D01*
X16836729Y-25300293D02*
X16827205Y-25338388D01*
X16827205Y-25338388D02*
X16817682Y-25357436D01*
X16817682Y-25357436D02*
X16808158Y-25366960D01*
X16808158Y-25366960D02*
X16789110Y-25376484D01*
X16789110Y-25376484D02*
X16770062Y-25376484D01*
X16770062Y-25376484D02*
X16751015Y-25366960D01*
X16751015Y-25366960D02*
X16741491Y-25357436D01*
X16741491Y-25357436D02*
X16731967Y-25338388D01*
X16731967Y-25338388D02*
X16722443Y-25300293D01*
X16722443Y-25300293D02*
X16722443Y-25252674D01*
X16722443Y-25252674D02*
X16731967Y-25214579D01*
X16731967Y-25214579D02*
X16741491Y-25195531D01*
X16741491Y-25195531D02*
X16751015Y-25186008D01*
X16751015Y-25186008D02*
X16770062Y-25176484D01*
X16960539Y-25176484D02*
X16979586Y-25176484D01*
X16979586Y-25176484D02*
X16998634Y-25186008D01*
X16998634Y-25186008D02*
X17008158Y-25195531D01*
X17008158Y-25195531D02*
X17017682Y-25214579D01*
X17017682Y-25214579D02*
X17027205Y-25252674D01*
X17027205Y-25252674D02*
X17027205Y-25300293D01*
X17027205Y-25300293D02*
X17017682Y-25338388D01*
X17017682Y-25338388D02*
X17008158Y-25357436D01*
X17008158Y-25357436D02*
X16998634Y-25366960D01*
X16998634Y-25366960D02*
X16979586Y-25376484D01*
X16979586Y-25376484D02*
X16960539Y-25376484D01*
X16960539Y-25376484D02*
X16941491Y-25366960D01*
X16941491Y-25366960D02*
X16931967Y-25357436D01*
X16931967Y-25357436D02*
X16922444Y-25338388D01*
X16922444Y-25338388D02*
X16912920Y-25300293D01*
X16912920Y-25300293D02*
X16912920Y-25252674D01*
X16912920Y-25252674D02*
X16922444Y-25214579D01*
X16922444Y-25214579D02*
X16931967Y-25195531D01*
X16931967Y-25195531D02*
X16941491Y-25186008D01*
X16941491Y-25186008D02*
X16960539Y-25176484D01*
X17112920Y-25376484D02*
X17112920Y-25243150D01*
X17112920Y-25262198D02*
X17122444Y-25252674D01*
X17122444Y-25252674D02*
X17141491Y-25243150D01*
X17141491Y-25243150D02*
X17170063Y-25243150D01*
X17170063Y-25243150D02*
X17189110Y-25252674D01*
X17189110Y-25252674D02*
X17198634Y-25271722D01*
X17198634Y-25271722D02*
X17198634Y-25376484D01*
X17198634Y-25271722D02*
X17208158Y-25252674D01*
X17208158Y-25252674D02*
X17227205Y-25243150D01*
X17227205Y-25243150D02*
X17255777Y-25243150D01*
X17255777Y-25243150D02*
X17274825Y-25252674D01*
X17274825Y-25252674D02*
X17284348Y-25271722D01*
X17284348Y-25271722D02*
X17284348Y-25376484D01*
X17379586Y-25376484D02*
X17379586Y-25243150D01*
X17379586Y-25262198D02*
X17389110Y-25252674D01*
X17389110Y-25252674D02*
X17408158Y-25243150D01*
X17408158Y-25243150D02*
X17436729Y-25243150D01*
X17436729Y-25243150D02*
X17455777Y-25252674D01*
X17455777Y-25252674D02*
X17465301Y-25271722D01*
X17465301Y-25271722D02*
X17465301Y-25376484D01*
X17465301Y-25271722D02*
X17474825Y-25252674D01*
X17474825Y-25252674D02*
X17493872Y-25243150D01*
X17493872Y-25243150D02*
X17522444Y-25243150D01*
X17522444Y-25243150D02*
X17541491Y-25252674D01*
X17541491Y-25252674D02*
X17551015Y-25271722D01*
X17551015Y-25271722D02*
X17551015Y-25376484D01*
X17941491Y-25166960D02*
X17770063Y-25424103D01*
X18198634Y-25176484D02*
X18217682Y-25176484D01*
X18217682Y-25176484D02*
X18236729Y-25186008D01*
X18236729Y-25186008D02*
X18246253Y-25195531D01*
X18246253Y-25195531D02*
X18255777Y-25214579D01*
X18255777Y-25214579D02*
X18265301Y-25252674D01*
X18265301Y-25252674D02*
X18265301Y-25300293D01*
X18265301Y-25300293D02*
X18255777Y-25338388D01*
X18255777Y-25338388D02*
X18246253Y-25357436D01*
X18246253Y-25357436D02*
X18236729Y-25366960D01*
X18236729Y-25366960D02*
X18217682Y-25376484D01*
X18217682Y-25376484D02*
X18198634Y-25376484D01*
X18198634Y-25376484D02*
X18179587Y-25366960D01*
X18179587Y-25366960D02*
X18170063Y-25357436D01*
X18170063Y-25357436D02*
X18160539Y-25338388D01*
X18160539Y-25338388D02*
X18151015Y-25300293D01*
X18151015Y-25300293D02*
X18151015Y-25252674D01*
X18151015Y-25252674D02*
X18160539Y-25214579D01*
X18160539Y-25214579D02*
X18170063Y-25195531D01*
X18170063Y-25195531D02*
X18179587Y-25186008D01*
X18179587Y-25186008D02*
X18198634Y-25176484D01*
X18351015Y-25357436D02*
X18360539Y-25366960D01*
X18360539Y-25366960D02*
X18351015Y-25376484D01*
X18351015Y-25376484D02*
X18341491Y-25366960D01*
X18341491Y-25366960D02*
X18351015Y-25357436D01*
X18351015Y-25357436D02*
X18351015Y-25376484D01*
X18551015Y-25376484D02*
X18436729Y-25376484D01*
X18493872Y-25376484D02*
X18493872Y-25176484D01*
X18493872Y-25176484D02*
X18474825Y-25205055D01*
X18474825Y-25205055D02*
X18455777Y-25224103D01*
X18455777Y-25224103D02*
X18436729Y-25233627D01*
X18627206Y-25195531D02*
X18636729Y-25186008D01*
X18636729Y-25186008D02*
X18655777Y-25176484D01*
X18655777Y-25176484D02*
X18703396Y-25176484D01*
X18703396Y-25176484D02*
X18722444Y-25186008D01*
X18722444Y-25186008D02*
X18731968Y-25195531D01*
X18731968Y-25195531D02*
X18741491Y-25214579D01*
X18741491Y-25214579D02*
X18741491Y-25233627D01*
X18741491Y-25233627D02*
X18731968Y-25262198D01*
X18731968Y-25262198D02*
X18617682Y-25376484D01*
X18617682Y-25376484D02*
X18741491Y-25376484D01*
X18912920Y-25176484D02*
X18874825Y-25176484D01*
X18874825Y-25176484D02*
X18855777Y-25186008D01*
X18855777Y-25186008D02*
X18846253Y-25195531D01*
X18846253Y-25195531D02*
X18827206Y-25224103D01*
X18827206Y-25224103D02*
X18817682Y-25262198D01*
X18817682Y-25262198D02*
X18817682Y-25338388D01*
X18817682Y-25338388D02*
X18827206Y-25357436D01*
X18827206Y-25357436D02*
X18836729Y-25366960D01*
X18836729Y-25366960D02*
X18855777Y-25376484D01*
X18855777Y-25376484D02*
X18893872Y-25376484D01*
X18893872Y-25376484D02*
X18912920Y-25366960D01*
X18912920Y-25366960D02*
X18922444Y-25357436D01*
X18922444Y-25357436D02*
X18931968Y-25338388D01*
X18931968Y-25338388D02*
X18931968Y-25290769D01*
X18931968Y-25290769D02*
X18922444Y-25271722D01*
X18922444Y-25271722D02*
X18912920Y-25262198D01*
X18912920Y-25262198D02*
X18893872Y-25252674D01*
X18893872Y-25252674D02*
X18855777Y-25252674D01*
X18855777Y-25252674D02*
X18836729Y-25262198D01*
X18836729Y-25262198D02*
X18827206Y-25271722D01*
X18827206Y-25271722D02*
X18817682Y-25290769D01*
X19055777Y-25176484D02*
X19074825Y-25176484D01*
X19074825Y-25176484D02*
X19093872Y-25186008D01*
X19093872Y-25186008D02*
X19103396Y-25195531D01*
X19103396Y-25195531D02*
X19112920Y-25214579D01*
X19112920Y-25214579D02*
X19122444Y-25252674D01*
X19122444Y-25252674D02*
X19122444Y-25300293D01*
X19122444Y-25300293D02*
X19112920Y-25338388D01*
X19112920Y-25338388D02*
X19103396Y-25357436D01*
X19103396Y-25357436D02*
X19093872Y-25366960D01*
X19093872Y-25366960D02*
X19074825Y-25376484D01*
X19074825Y-25376484D02*
X19055777Y-25376484D01*
X19055777Y-25376484D02*
X19036729Y-25366960D01*
X19036729Y-25366960D02*
X19027206Y-25357436D01*
X19027206Y-25357436D02*
X19017682Y-25338388D01*
X19017682Y-25338388D02*
X19008158Y-25300293D01*
X19008158Y-25300293D02*
X19008158Y-25252674D01*
X19008158Y-25252674D02*
X19017682Y-25214579D01*
X19017682Y-25214579D02*
X19027206Y-25195531D01*
X19027206Y-25195531D02*
X19036729Y-25186008D01*
X19036729Y-25186008D02*
X19055777Y-25176484D01*
X19198634Y-25176484D02*
X19198634Y-25214579D01*
X19274825Y-25176484D02*
X19274825Y-25214579D01*
X19570063Y-25452674D02*
X19560539Y-25443150D01*
X19560539Y-25443150D02*
X19541491Y-25414579D01*
X19541491Y-25414579D02*
X19531968Y-25395531D01*
X19531968Y-25395531D02*
X19522444Y-25366960D01*
X19522444Y-25366960D02*
X19512920Y-25319341D01*
X19512920Y-25319341D02*
X19512920Y-25281246D01*
X19512920Y-25281246D02*
X19522444Y-25233627D01*
X19522444Y-25233627D02*
X19531968Y-25205055D01*
X19531968Y-25205055D02*
X19541491Y-25186008D01*
X19541491Y-25186008D02*
X19560539Y-25157436D01*
X19560539Y-25157436D02*
X19570063Y-25147912D01*
X19731968Y-25243150D02*
X19731968Y-25376484D01*
X19684349Y-25166960D02*
X19636730Y-25309817D01*
X19636730Y-25309817D02*
X19760539Y-25309817D01*
X19989111Y-25376484D02*
X19989111Y-25176484D01*
X20074825Y-25376484D02*
X20074825Y-25271722D01*
X20074825Y-25271722D02*
X20065301Y-25252674D01*
X20065301Y-25252674D02*
X20046253Y-25243150D01*
X20046253Y-25243150D02*
X20017682Y-25243150D01*
X20017682Y-25243150D02*
X19998634Y-25252674D01*
X19998634Y-25252674D02*
X19989111Y-25262198D01*
X20198634Y-25376484D02*
X20179587Y-25366960D01*
X20179587Y-25366960D02*
X20170063Y-25357436D01*
X20170063Y-25357436D02*
X20160539Y-25338388D01*
X20160539Y-25338388D02*
X20160539Y-25281246D01*
X20160539Y-25281246D02*
X20170063Y-25262198D01*
X20170063Y-25262198D02*
X20179587Y-25252674D01*
X20179587Y-25252674D02*
X20198634Y-25243150D01*
X20198634Y-25243150D02*
X20227206Y-25243150D01*
X20227206Y-25243150D02*
X20246253Y-25252674D01*
X20246253Y-25252674D02*
X20255777Y-25262198D01*
X20255777Y-25262198D02*
X20265301Y-25281246D01*
X20265301Y-25281246D02*
X20265301Y-25338388D01*
X20265301Y-25338388D02*
X20255777Y-25357436D01*
X20255777Y-25357436D02*
X20246253Y-25366960D01*
X20246253Y-25366960D02*
X20227206Y-25376484D01*
X20227206Y-25376484D02*
X20198634Y-25376484D01*
X20379587Y-25376484D02*
X20360539Y-25366960D01*
X20360539Y-25366960D02*
X20351015Y-25347912D01*
X20351015Y-25347912D02*
X20351015Y-25176484D01*
X20531968Y-25366960D02*
X20512920Y-25376484D01*
X20512920Y-25376484D02*
X20474825Y-25376484D01*
X20474825Y-25376484D02*
X20455777Y-25366960D01*
X20455777Y-25366960D02*
X20446253Y-25347912D01*
X20446253Y-25347912D02*
X20446253Y-25271722D01*
X20446253Y-25271722D02*
X20455777Y-25252674D01*
X20455777Y-25252674D02*
X20474825Y-25243150D01*
X20474825Y-25243150D02*
X20512920Y-25243150D01*
X20512920Y-25243150D02*
X20531968Y-25252674D01*
X20531968Y-25252674D02*
X20541492Y-25271722D01*
X20541492Y-25271722D02*
X20541492Y-25290769D01*
X20541492Y-25290769D02*
X20446253Y-25309817D01*
X20617682Y-25366960D02*
X20636730Y-25376484D01*
X20636730Y-25376484D02*
X20674825Y-25376484D01*
X20674825Y-25376484D02*
X20693873Y-25366960D01*
X20693873Y-25366960D02*
X20703396Y-25347912D01*
X20703396Y-25347912D02*
X20703396Y-25338388D01*
X20703396Y-25338388D02*
X20693873Y-25319341D01*
X20693873Y-25319341D02*
X20674825Y-25309817D01*
X20674825Y-25309817D02*
X20646253Y-25309817D01*
X20646253Y-25309817D02*
X20627206Y-25300293D01*
X20627206Y-25300293D02*
X20617682Y-25281246D01*
X20617682Y-25281246D02*
X20617682Y-25271722D01*
X20617682Y-25271722D02*
X20627206Y-25252674D01*
X20627206Y-25252674D02*
X20646253Y-25243150D01*
X20646253Y-25243150D02*
X20674825Y-25243150D01*
X20674825Y-25243150D02*
X20693873Y-25252674D01*
X20770063Y-25452674D02*
X20779587Y-25443150D01*
X20779587Y-25443150D02*
X20798634Y-25414579D01*
X20798634Y-25414579D02*
X20808158Y-25395531D01*
X20808158Y-25395531D02*
X20817682Y-25366960D01*
X20817682Y-25366960D02*
X20827206Y-25319341D01*
X20827206Y-25319341D02*
X20827206Y-25281246D01*
X20827206Y-25281246D02*
X20817682Y-25233627D01*
X20817682Y-25233627D02*
X20808158Y-25205055D01*
X20808158Y-25205055D02*
X20798634Y-25186008D01*
X20798634Y-25186008D02*
X20779587Y-25157436D01*
X20779587Y-25157436D02*
X20770063Y-25147912D01*
X21131968Y-25452674D02*
X21122444Y-25443150D01*
X21122444Y-25443150D02*
X21103396Y-25414579D01*
X21103396Y-25414579D02*
X21093873Y-25395531D01*
X21093873Y-25395531D02*
X21084349Y-25366960D01*
X21084349Y-25366960D02*
X21074825Y-25319341D01*
X21074825Y-25319341D02*
X21074825Y-25281246D01*
X21074825Y-25281246D02*
X21084349Y-25233627D01*
X21084349Y-25233627D02*
X21093873Y-25205055D01*
X21093873Y-25205055D02*
X21103396Y-25186008D01*
X21103396Y-25186008D02*
X21122444Y-25157436D01*
X21122444Y-25157436D02*
X21131968Y-25147912D01*
X21208158Y-25243150D02*
X21208158Y-25376484D01*
X21208158Y-25262198D02*
X21217682Y-25252674D01*
X21217682Y-25252674D02*
X21236730Y-25243150D01*
X21236730Y-25243150D02*
X21265301Y-25243150D01*
X21265301Y-25243150D02*
X21284349Y-25252674D01*
X21284349Y-25252674D02*
X21293873Y-25271722D01*
X21293873Y-25271722D02*
X21293873Y-25376484D01*
X21417682Y-25376484D02*
X21398634Y-25366960D01*
X21398634Y-25366960D02*
X21389111Y-25357436D01*
X21389111Y-25357436D02*
X21379587Y-25338388D01*
X21379587Y-25338388D02*
X21379587Y-25281246D01*
X21379587Y-25281246D02*
X21389111Y-25262198D01*
X21389111Y-25262198D02*
X21398634Y-25252674D01*
X21398634Y-25252674D02*
X21417682Y-25243150D01*
X21417682Y-25243150D02*
X21446254Y-25243150D01*
X21446254Y-25243150D02*
X21465301Y-25252674D01*
X21465301Y-25252674D02*
X21474825Y-25262198D01*
X21474825Y-25262198D02*
X21484349Y-25281246D01*
X21484349Y-25281246D02*
X21484349Y-25338388D01*
X21484349Y-25338388D02*
X21474825Y-25357436D01*
X21474825Y-25357436D02*
X21465301Y-25366960D01*
X21465301Y-25366960D02*
X21446254Y-25376484D01*
X21446254Y-25376484D02*
X21417682Y-25376484D01*
X21541492Y-25243150D02*
X21617682Y-25243150D01*
X21570063Y-25176484D02*
X21570063Y-25347912D01*
X21570063Y-25347912D02*
X21579587Y-25366960D01*
X21579587Y-25366960D02*
X21598634Y-25376484D01*
X21598634Y-25376484D02*
X21617682Y-25376484D01*
X21836730Y-25243150D02*
X21836730Y-25443150D01*
X21836730Y-25252674D02*
X21855777Y-25243150D01*
X21855777Y-25243150D02*
X21893873Y-25243150D01*
X21893873Y-25243150D02*
X21912920Y-25252674D01*
X21912920Y-25252674D02*
X21922444Y-25262198D01*
X21922444Y-25262198D02*
X21931968Y-25281246D01*
X21931968Y-25281246D02*
X21931968Y-25338388D01*
X21931968Y-25338388D02*
X21922444Y-25357436D01*
X21922444Y-25357436D02*
X21912920Y-25366960D01*
X21912920Y-25366960D02*
X21893873Y-25376484D01*
X21893873Y-25376484D02*
X21855777Y-25376484D01*
X21855777Y-25376484D02*
X21836730Y-25366960D01*
X22046254Y-25376484D02*
X22027206Y-25366960D01*
X22027206Y-25366960D02*
X22017682Y-25347912D01*
X22017682Y-25347912D02*
X22017682Y-25176484D01*
X22208158Y-25376484D02*
X22208158Y-25271722D01*
X22208158Y-25271722D02*
X22198635Y-25252674D01*
X22198635Y-25252674D02*
X22179587Y-25243150D01*
X22179587Y-25243150D02*
X22141492Y-25243150D01*
X22141492Y-25243150D02*
X22122444Y-25252674D01*
X22208158Y-25366960D02*
X22189111Y-25376484D01*
X22189111Y-25376484D02*
X22141492Y-25376484D01*
X22141492Y-25376484D02*
X22122444Y-25366960D01*
X22122444Y-25366960D02*
X22112920Y-25347912D01*
X22112920Y-25347912D02*
X22112920Y-25328865D01*
X22112920Y-25328865D02*
X22122444Y-25309817D01*
X22122444Y-25309817D02*
X22141492Y-25300293D01*
X22141492Y-25300293D02*
X22189111Y-25300293D01*
X22189111Y-25300293D02*
X22208158Y-25290769D01*
X22274825Y-25243150D02*
X22351015Y-25243150D01*
X22303396Y-25176484D02*
X22303396Y-25347912D01*
X22303396Y-25347912D02*
X22312920Y-25366960D01*
X22312920Y-25366960D02*
X22331968Y-25376484D01*
X22331968Y-25376484D02*
X22351015Y-25376484D01*
X22493873Y-25366960D02*
X22474825Y-25376484D01*
X22474825Y-25376484D02*
X22436730Y-25376484D01*
X22436730Y-25376484D02*
X22417682Y-25366960D01*
X22417682Y-25366960D02*
X22408158Y-25347912D01*
X22408158Y-25347912D02*
X22408158Y-25271722D01*
X22408158Y-25271722D02*
X22417682Y-25252674D01*
X22417682Y-25252674D02*
X22436730Y-25243150D01*
X22436730Y-25243150D02*
X22474825Y-25243150D01*
X22474825Y-25243150D02*
X22493873Y-25252674D01*
X22493873Y-25252674D02*
X22503396Y-25271722D01*
X22503396Y-25271722D02*
X22503396Y-25290769D01*
X22503396Y-25290769D02*
X22408158Y-25309817D01*
X22674825Y-25376484D02*
X22674825Y-25176484D01*
X22674825Y-25366960D02*
X22655777Y-25376484D01*
X22655777Y-25376484D02*
X22617682Y-25376484D01*
X22617682Y-25376484D02*
X22598634Y-25366960D01*
X22598634Y-25366960D02*
X22589111Y-25357436D01*
X22589111Y-25357436D02*
X22579587Y-25338388D01*
X22579587Y-25338388D02*
X22579587Y-25281246D01*
X22579587Y-25281246D02*
X22589111Y-25262198D01*
X22589111Y-25262198D02*
X22598634Y-25252674D01*
X22598634Y-25252674D02*
X22617682Y-25243150D01*
X22617682Y-25243150D02*
X22655777Y-25243150D01*
X22655777Y-25243150D02*
X22674825Y-25252674D01*
X22751015Y-25452674D02*
X22760539Y-25443150D01*
X22760539Y-25443150D02*
X22779587Y-25414579D01*
X22779587Y-25414579D02*
X22789111Y-25395531D01*
X22789111Y-25395531D02*
X22798634Y-25366960D01*
X22798634Y-25366960D02*
X22808158Y-25319341D01*
X22808158Y-25319341D02*
X22808158Y-25281246D01*
X22808158Y-25281246D02*
X22798634Y-25233627D01*
X22798634Y-25233627D02*
X22789111Y-25205055D01*
X22789111Y-25205055D02*
X22779587Y-25186008D01*
X22779587Y-25186008D02*
X22760539Y-25157436D01*
X22760539Y-25157436D02*
X22751015Y-25147912D01*
M02*
