M48
; DRILL file {KiCad 8.0.2} date 2024-12-14T16:16:43+0100
; FORMAT={-:-/ absolute / metric / decimal}
; #@! TF.CreationDate,2024-12-14T16:16:43+01:00
; #@! TF.GenerationSoftware,Kicad,Pcbnew,8.0.2
; #@! TF.FileFunction,Plated,1,2,PTH
FMAT,2
METRIC
; #@! TA.AperFunction,Plated,PTH,ViaDrill
T1C0.300
; #@! TA.AperFunction,Plated,PTH,ComponentDrill
T2C1.100
; #@! TA.AperFunction,Plated,PTH,ComponentDrill
T3C1.400
; #@! TA.AperFunction,Plated,PTH,ComponentDrill
T4C1.500
; #@! TA.AperFunction,Plated,PTH,ComponentDrill
T5C1.800
; #@! TA.AperFunction,Plated,PTH,ComponentDrill
T6C2.000
%
G90
G05
T1
X166.25Y-61.5
X166.25Y-62.25
X166.25Y-63.0
X166.25Y-63.75
X166.25Y-64.5
X166.25Y-65.25
X166.25Y-66.0
X166.82Y-71.816
X166.82Y-72.578
X167.582Y-71.816
X167.582Y-72.578
X168.0Y-59.75
X168.0Y-67.5
X168.598Y-79.69
X168.598Y-146.746
X168.598Y-151.699
X168.75Y-59.75
X168.75Y-67.5
X168.852Y-83.754
X169.106Y-136.078
X169.106Y-163.51
X169.5Y-59.75
X169.5Y-67.5
X170.0Y-45.0
X170.0Y-50.0
X170.0Y-55.0
X170.122Y-35.24
X170.25Y-59.75
X170.25Y-67.5
X170.376Y-166.685
X170.376Y-170.876
X170.376Y-171.776
X170.376Y-175.026
X170.63Y-122.87
X170.884Y-163.002
X171.0Y-59.75
X171.0Y-67.5
X171.646Y-71.816
X171.646Y-72.578
X171.646Y-146.746
X171.646Y-158.43
X171.75Y-59.75
X171.75Y-67.5
X172.408Y-71.816
X172.408Y-72.578
X172.662Y-35.24
X173.424Y-203.388
X173.424Y-204.658
X173.5Y-61.5
X173.5Y-62.25
X173.5Y-63.0
X173.5Y-63.75
X173.5Y-64.5
X173.5Y-65.25
X173.5Y-66.0
X173.932Y-145.476
X174.694Y-148.27
X174.694Y-161.478
X174.948Y-166.685
X175.0Y-50.0
X175.0Y-55.0
X175.0Y-60.0
X175.0Y-65.0
X175.0Y-70.0
X175.0Y-75.0
X175.0Y-80.0
X175.0Y-215.0
X175.0Y-225.0
X175.0Y-230.0
X175.0Y-235.0
X175.202Y-35.24
X175.456Y-143.952
X175.837Y-186.751
X175.837Y-194.117
X176.218Y-170.876
X176.218Y-171.776
X177.0Y-105.0
X177.0Y-109.0
X177.361Y-178.115
X177.742Y-35.24
X178.377Y-181.671
X178.631Y-167.701
X178.758Y-177.099
X179.012Y-163.002
X179.012Y-175.026
X179.012Y-239.202
X179.139Y-186.751
X179.139Y-194.117
X180.028Y-171.13
X180.282Y-35.24
X180.282Y-163.002
X180.447Y-151.699
X180.447Y-166.431
X180.663Y-232.979
X180.79Y-229.423
X181.044Y-237.678
X181.171Y-178.115
X181.552Y-202.118
X181.552Y-203.388
X181.552Y-208.468
X181.552Y-209.738
X182.06Y-148.27
X182.06Y-171.892
X182.822Y-35.24
X182.822Y-122.87
X182.822Y-136.078
X184.511Y-143.698
X184.511Y-158.43
X185.0Y-215.0
X185.362Y-35.24
X185.362Y-76.388
X186.416Y-151.699
X186.416Y-166.431
X186.505Y-229.296
X186.505Y-238.44
X186.632Y-228.026
X186.759Y-122.87
X186.759Y-136.078
X186.886Y-182.179
X186.948Y-180.782
X187.648Y-222.565
X187.648Y-223.835
X187.648Y-225.105
X187.648Y-229.296
X187.648Y-232.471
X187.902Y-35.24
X188.156Y-138.872
X188.363Y-213.04
X188.537Y-239.202
X188.791Y-227.264
X188.918Y-212.405
X189.426Y-186.751
X189.426Y-216.469
X189.553Y-194.117
X189.68Y-82.23
X189.68Y-83.754
X190.188Y-101.28
X190.442Y-35.24
X190.696Y-211.69
X191.015Y-143.698
X191.015Y-158.43
X191.204Y-98.232
X191.204Y-101.28
X191.204Y-183.83
X191.204Y-202.118
X191.204Y-203.388
X191.204Y-205.928
X191.204Y-209.738
X192.22Y-101.28
X192.855Y-186.751
X192.855Y-194.117
X193.236Y-172.146
X193.49Y-204.658
X193.642Y-116.622
X193.744Y-122.87
X193.744Y-136.078
X194.193Y-82.166
X194.379Y-226.502
X195.014Y-200.086
X195.268Y-172.146
X195.522Y-218.12
X195.522Y-219.39
X195.522Y-220.66
X195.522Y-223.2
X195.522Y-224.47
X195.522Y-230.53
X195.522Y-231.183
X195.522Y-231.836
X195.522Y-234.376
X195.587Y-206.136
X196.03Y-222.584
X196.077Y-214.945
X196.077Y-221.93
X196.34Y-206.139
X196.34Y-210.076
X196.34Y-211.346
X196.665Y-218.755
X196.665Y-229.931
X196.794Y-222.563
X197.25Y-129.5
X197.3Y-220.025
X197.3Y-221.295
X197.3Y-230.53
X197.3Y-232.471
X197.3Y-234.249
X197.808Y-96.708
X197.935Y-215.961
X197.935Y-225.74
X198.316Y-180.782
X198.57Y-214.898
X198.57Y-225.105
X198.951Y-145.095
X198.951Y-158.684
X199.078Y-218.737
X199.078Y-219.39
X199.078Y-221.295
X199.078Y-223.2
X199.078Y-225.74
X199.078Y-230.53
X199.078Y-231.836
X199.078Y-233.614
X199.078Y-235.011
X199.332Y-201.872
X199.713Y-145.857
X199.713Y-159.446
X200.221Y-227.264
X200.348Y-98.232
X200.537Y-96.708
X201.491Y-239.075
X201.745Y-147.635
X201.745Y-152.969
X201.745Y-173.67
X202.5Y-117.5
X202.5Y-125.0
X202.5Y-132.5
X202.5Y-140.0
X202.507Y-174.432
X202.944Y-203.472
X203.523Y-238.495
X203.636Y-116.622
X203.65Y-114.488
X203.904Y-102.55
X204.45Y-206.266
X204.45Y-207.536
X204.45Y-208.806
X204.45Y-210.076
X204.793Y-212.024
X205.174Y-153.477
X205.174Y-167.193
X205.174Y-180.909
X205.174Y-194.625
X205.428Y-213.802
X205.809Y-226.502
X206.19Y-136.84
X206.317Y-213.802
X206.913Y-148.397
X206.913Y-162.113
X206.913Y-175.829
X206.913Y-189.545
X206.951Y-232.477
X206.952Y-218.12
X206.952Y-220.025
X206.952Y-221.93
X206.952Y-222.583
X206.952Y-223.853
X206.952Y-229.913
X206.952Y-230.566
X206.952Y-234.231
X206.952Y-234.884
X206.952Y-231.823
X207.714Y-220.66
X207.714Y-234.249
X208.222Y-110.17
X208.222Y-136.84
X208.222Y-138.872
X208.349Y-216.977
X208.349Y-220.025
X208.349Y-231.836
X208.984Y-218.12
X208.984Y-228.643
X208.984Y-229.931
X208.984Y-239.075
X209.111Y-159.446
X209.111Y-173.162
X209.111Y-186.878
X209.111Y-200.594
X209.238Y-76.388
X209.238Y-119.568
X209.619Y-220.58
X209.619Y-223.2
X209.619Y-232.471
X209.746Y-82.484
X210.165Y-201.864
X210.174Y-231.836
X210.207Y-219.39
X211.016Y-238.038
X211.223Y-229.931
X211.27Y-124.648
X211.27Y-140.396
X211.453Y-203.472
X212.159Y-159.446
X212.159Y-173.162
X212.159Y-186.878
X212.159Y-200.594
X212.286Y-214.945
X212.413Y-219.39
X212.413Y-220.58
X212.413Y-221.295
X212.413Y-223.182
X212.413Y-225.105
X212.413Y-229.913
X212.413Y-230.566
X212.413Y-231.836
X212.413Y-234.296
X213.302Y-211.516
X213.34Y-206.266
X213.556Y-227.264
X214.102Y-208.044
X214.445Y-148.397
X214.445Y-162.113
X214.445Y-175.829
X214.445Y-189.545
X214.572Y-124.648
X214.623Y-208.806
X214.623Y-210.094
X215.0Y-90.0
X215.461Y-229.931
X216.096Y-99.756
X216.096Y-153.477
X216.096Y-167.193
X216.096Y-180.909
X216.096Y-194.625
X216.477Y-239.075
X217.239Y-211.389
X218.0Y-213.0
X218.509Y-237.58
X218.89Y-152.334
X218.89Y-160.208
X218.89Y-192.466
X218.89Y-200.594
X219.144Y-226.502
X219.652Y-98.232
X219.652Y-160.208
X219.652Y-178.75
X219.652Y-186.878
X219.69Y-193.936
X220.0Y-90.0
X220.287Y-216.85
X220.287Y-219.39
X220.287Y-220.66
X220.287Y-221.93
X220.287Y-228.661
X220.287Y-229.931
X220.287Y-231.201
X220.287Y-233.723
X220.414Y-162.621
X220.512Y-194.828
X220.67Y-234.252
X220.922Y-128.204
X221.121Y-181.087
X221.176Y-132.522
X221.176Y-161.986
X221.176Y-173.162
X221.43Y-180.147
X221.43Y-204.658
X221.477Y-221.295
X221.477Y-231.201
X221.883Y-167.193
X221.976Y-156.906
X222.0Y-210.0
X222.032Y-223.2
X222.047Y-229.296
X222.065Y-218.12
X222.065Y-222.529
X222.204Y-204.67
X222.497Y-157.617
X222.573Y-233.741
X222.7Y-229.296
X222.798Y-168.336
X222.954Y-151.572
X222.966Y-204.67
X223.19Y-230.566
X223.208Y-153.096
X223.462Y-149.032
X223.589Y-205.311
X223.716Y-116.012
X223.716Y-220.025
X223.716Y-220.678
X223.84Y-192.704
X223.843Y-218.12
X223.843Y-230.566
X223.843Y-233.106
X223.843Y-234.296
X223.97Y-136.84
X223.97Y-144.968
X223.97Y-238.038
X224.169Y-176.591
X224.224Y-189.291
X224.228Y-204.658
X224.986Y-227.264
X225.0Y-90.0
X226.002Y-237.123
X226.51Y-148.778
X226.51Y-150.048
X227.0Y-210.0
X227.272Y-79.436
X227.907Y-162.748
X227.907Y-164.018
X227.907Y-165.288
X227.907Y-166.558
X227.907Y-179.131
X227.907Y-180.401
X228.012Y-155.106
X228.415Y-147.0
X228.415Y-150.81
X228.796Y-220.025
X229.812Y-134.173
X229.812Y-135.316
X230.0Y-90.0
X230.0Y-210.0
X230.574Y-226.502
X230.828Y-201.864
X230.955Y-191.831
X230.955Y-193.101
X231.59Y-147.0
X231.59Y-150.81
X231.59Y-153.096
X231.59Y-155.128
X231.59Y-224.47
X231.717Y-219.39
X231.717Y-222.565
X231.717Y-223.218
X231.717Y-228.026
X231.717Y-229.931
X231.717Y-233.741
X232.225Y-225.74
X232.305Y-230.566
X232.352Y-147.762
X232.352Y-151.572
X232.352Y-232.453
X232.352Y-233.106
X232.86Y-139.888
X232.86Y-144.968
X232.86Y-164.272
X233.241Y-193.99
X233.368Y-203.515
X233.368Y-234.249
X234.236Y-99.756
X234.384Y-237.123
X234.787Y-231.836
X235.146Y-236.666
X235.244Y-225.359
X235.4Y-132.014
X235.4Y-232.471
X235.654Y-149.286
X235.701Y-230.947
X235.896Y-214.044
X235.908Y-134.046
X235.908Y-214.818
X235.92Y-215.592
X235.94Y-216.437
X236.035Y-172.781
X236.035Y-176.591
X236.035Y-185.481
X236.035Y-189.291
X236.162Y-165.034
X236.162Y-166.41
X236.162Y-225.359
X236.924Y-165.034
X237.178Y-147.0
X237.178Y-151.572
X237.178Y-153.858
X237.623Y-236.666
X237.94Y-136.586
X238.321Y-204.658
X238.321Y-205.311
X238.848Y-156.398
X239.21Y-161.986
X239.21Y-167.828
X239.972Y-206.182
X240.0Y-230.0
X240.468Y-114.488
X240.48Y-147.0
X240.48Y-150.81
X241.242Y-148.524
X241.242Y-150.048
X241.242Y-151.572
X241.242Y-155.128
X241.75Y-144.968
X241.75Y-165.034
X242.258Y-120.584
X242.512Y-101.28
X242.512Y-236.209
X243.528Y-101.28
X244.29Y-162.748
X244.29Y-166.05
X244.544Y-101.28
X244.544Y-153.858
X245.0Y-215.0
X245.0Y-230.0
X245.052Y-119.314
X245.814Y-194.752
X245.814Y-224.47
X246.068Y-126.172
X246.195Y-147.762
X246.83Y-165.034
X246.83Y-193.99
X247.084Y-137.094
X247.592Y-191.831
X247.738Y-156.398
X248.354Y-193.101
X249.116Y-96.708
X249.116Y-101.28
X249.116Y-172.781
X249.243Y-149.286
X249.243Y-185.481
X249.37Y-123.505
X249.37Y-163.51
X249.37Y-166.939
X250.0Y-85.0
X250.0Y-90.0
X250.0Y-105.0
X250.0Y-109.0
X250.0Y-140.0
X250.0Y-235.0
X250.132Y-96.708
X250.132Y-101.28
X250.64Y-180.401
X250.894Y-111.948
X250.894Y-116.012
X250.894Y-123.505
X250.894Y-144.968
X250.894Y-153.35
X251.148Y-96.708
X251.148Y-101.28
X251.186Y-183.83
X251.186Y-203.515
X251.402Y-165.034
X251.402Y-179.131
T2
X183.254Y-103.45
X185.794Y-103.45
X188.334Y-103.45
X231.696Y-103.445
X234.236Y-103.445
X236.776Y-103.445
T3
X166.3Y-30.967
X166.3Y-39.667
X171.38Y-30.967
X171.38Y-39.667
X176.46Y-30.967
X176.46Y-39.667
X181.54Y-30.967
X181.54Y-39.667
X186.62Y-30.967
X186.62Y-39.667
X187.647Y-48.3
X187.647Y-53.38
X187.647Y-58.46
X187.647Y-63.54
X187.647Y-68.62
X187.647Y-73.7
X191.7Y-30.967
X191.7Y-39.667
X196.347Y-48.3
X196.347Y-53.38
X196.347Y-58.46
X196.347Y-63.54
X196.347Y-68.62
X196.347Y-73.7
X198.75Y-27.6
X198.75Y-31.1
X198.75Y-36.9
X198.75Y-40.4
X201.25Y-27.6
X201.25Y-31.1
X201.25Y-36.9
X201.25Y-40.4
X207.46Y-30.967
X207.46Y-39.667
X212.54Y-30.967
X212.54Y-39.667
X219.75Y-27.6
X219.75Y-31.1
X219.75Y-36.9
X219.75Y-40.4
X222.25Y-27.6
X222.25Y-31.1
X222.25Y-36.9
X222.25Y-40.4
X223.653Y-48.3
X223.653Y-53.38
X223.653Y-58.46
X223.653Y-63.54
X223.653Y-68.62
X223.653Y-73.7
X228.46Y-30.967
X228.46Y-39.667
X232.352Y-48.3
X232.352Y-53.38
X232.352Y-58.46
X232.352Y-63.54
X232.352Y-68.62
X232.352Y-73.7
X233.54Y-30.967
X233.54Y-39.667
X239.75Y-27.6
X239.75Y-31.1
X239.75Y-36.9
X239.75Y-40.4
X242.25Y-27.6
X242.25Y-31.1
X242.25Y-36.9
X242.25Y-40.4
X248.46Y-30.967
X248.46Y-39.667
X253.54Y-30.967
X253.54Y-39.667
T5
X218.447Y-48.5
X218.447Y-70.5
T6
X206.447Y-46.7
X206.447Y-74.3
T4
G00X173.754Y-108.58
M15
G01X173.754Y-110.63
M16
G05
G00X197.834Y-108.58
M15
G01X197.834Y-110.63
M16
G05
G00X222.196Y-108.58
M15
G01X222.196Y-110.63
M16
G05
G00X246.276Y-108.58
M15
G01X246.276Y-110.63
M16
G05
M30
