%TF.GenerationSoftware,KiCad,Pcbnew,8.0.2*%
%TF.CreationDate,2024-12-14T16:16:48+01:00*%
%TF.ProjectId,pss_baseboard,7073735f-6261-4736-9562-6f6172642e6b,1.0.0*%
%TF.SameCoordinates,Original*%
%TF.FileFunction,Drillmap*%
%TF.FilePolarity,Positive*%
%FSLAX45Y45*%
G04 Gerber Fmt 4.5, Leading zero omitted, Abs format (unit mm)*
G04 Created by KiCad (PCBNEW 8.0.2) date 2024-12-14 16:16:48*
%MOMM*%
%LPD*%
G01*
G04 APERTURE LIST*
%ADD10C,0.100000*%
%ADD11C,0.200000*%
%ADD12C,0.110000*%
%ADD13C,0.140000*%
%ADD14C,0.150000*%
%ADD15C,0.180000*%
G04 APERTURE END LIST*
D10*
X16000000Y-24000000D02*
X16000000Y-2000000D01*
X26000000Y-2000000D02*
X26000000Y-24000000D01*
X16000000Y-2000000D02*
X26000000Y-2000000D01*
X26000000Y-24000000D02*
X16000000Y-24000000D01*
D11*
D10*
X16610000Y-6135000D02*
X16640000Y-6165000D01*
X16640000Y-6135000D02*
X16610000Y-6165000D01*
X16610000Y-6210000D02*
X16640000Y-6240000D01*
X16640000Y-6210000D02*
X16610000Y-6240000D01*
X16610000Y-6285000D02*
X16640000Y-6315000D01*
X16640000Y-6285000D02*
X16610000Y-6315000D01*
X16610000Y-6360000D02*
X16640000Y-6390000D01*
X16640000Y-6360000D02*
X16610000Y-6390000D01*
X16610000Y-6435000D02*
X16640000Y-6465000D01*
X16640000Y-6435000D02*
X16610000Y-6465000D01*
X16610000Y-6510000D02*
X16640000Y-6540000D01*
X16640000Y-6510000D02*
X16610000Y-6540000D01*
X16610000Y-6585000D02*
X16640000Y-6615000D01*
X16640000Y-6585000D02*
X16610000Y-6615000D01*
X16667000Y-7166600D02*
X16697000Y-7196600D01*
X16697000Y-7166600D02*
X16667000Y-7196600D01*
X16667000Y-7242800D02*
X16697000Y-7272800D01*
X16697000Y-7242800D02*
X16667000Y-7272800D01*
X16743200Y-7166600D02*
X16773200Y-7196600D01*
X16773200Y-7166600D02*
X16743200Y-7196600D01*
X16743200Y-7242800D02*
X16773200Y-7272800D01*
X16773200Y-7242800D02*
X16743200Y-7272800D01*
X16785000Y-5960000D02*
X16815000Y-5990000D01*
X16815000Y-5960000D02*
X16785000Y-5990000D01*
X16785000Y-6735000D02*
X16815000Y-6765000D01*
X16815000Y-6735000D02*
X16785000Y-6765000D01*
X16844800Y-7954000D02*
X16874800Y-7984000D01*
X16874800Y-7954000D02*
X16844800Y-7984000D01*
X16844800Y-14659600D02*
X16874800Y-14689600D01*
X16874800Y-14659600D02*
X16844800Y-14689600D01*
X16844800Y-15154900D02*
X16874800Y-15184900D01*
X16874800Y-15154900D02*
X16844800Y-15184900D01*
X16860000Y-5960000D02*
X16890000Y-5990000D01*
X16890000Y-5960000D02*
X16860000Y-5990000D01*
X16860000Y-6735000D02*
X16890000Y-6765000D01*
X16890000Y-6735000D02*
X16860000Y-6765000D01*
X16870200Y-8360400D02*
X16900200Y-8390400D01*
X16900200Y-8360400D02*
X16870200Y-8390400D01*
X16895600Y-13592800D02*
X16925600Y-13622800D01*
X16925600Y-13592800D02*
X16895600Y-13622800D01*
X16895600Y-16336000D02*
X16925600Y-16366000D01*
X16925600Y-16336000D02*
X16895600Y-16366000D01*
X16935000Y-5960000D02*
X16965000Y-5990000D01*
X16965000Y-5960000D02*
X16935000Y-5990000D01*
X16935000Y-6735000D02*
X16965000Y-6765000D01*
X16965000Y-6735000D02*
X16935000Y-6765000D01*
X16985000Y-4485000D02*
X17015000Y-4515000D01*
X17015000Y-4485000D02*
X16985000Y-4515000D01*
X16985000Y-4985000D02*
X17015000Y-5015000D01*
X17015000Y-4985000D02*
X16985000Y-5015000D01*
X16985000Y-5485000D02*
X17015000Y-5515000D01*
X17015000Y-5485000D02*
X16985000Y-5515000D01*
X16997200Y-3509000D02*
X17027200Y-3539000D01*
X17027200Y-3509000D02*
X16997200Y-3539000D01*
X17010000Y-5960000D02*
X17040000Y-5990000D01*
X17040000Y-5960000D02*
X17010000Y-5990000D01*
X17010000Y-6735000D02*
X17040000Y-6765000D01*
X17040000Y-6735000D02*
X17010000Y-6765000D01*
X17022600Y-16653500D02*
X17052600Y-16683500D01*
X17052600Y-16653500D02*
X17022600Y-16683500D01*
X17022600Y-17072600D02*
X17052600Y-17102600D01*
X17052600Y-17072600D02*
X17022600Y-17102600D01*
X17022600Y-17162600D02*
X17052600Y-17192600D01*
X17052600Y-17162600D02*
X17022600Y-17192600D01*
X17022600Y-17487600D02*
X17052600Y-17517600D01*
X17052600Y-17487600D02*
X17022600Y-17517600D01*
X17048000Y-12272000D02*
X17078000Y-12302000D01*
X17078000Y-12272000D02*
X17048000Y-12302000D01*
X17073400Y-16285200D02*
X17103400Y-16315200D01*
X17103400Y-16285200D02*
X17073400Y-16315200D01*
X17085000Y-5960000D02*
X17115000Y-5990000D01*
X17115000Y-5960000D02*
X17085000Y-5990000D01*
X17085000Y-6735000D02*
X17115000Y-6765000D01*
X17115000Y-6735000D02*
X17085000Y-6765000D01*
X17149600Y-7166600D02*
X17179600Y-7196600D01*
X17179600Y-7166600D02*
X17149600Y-7196600D01*
X17149600Y-7242800D02*
X17179600Y-7272800D01*
X17179600Y-7242800D02*
X17149600Y-7272800D01*
X17149600Y-14659600D02*
X17179600Y-14689600D01*
X17179600Y-14659600D02*
X17149600Y-14689600D01*
X17149600Y-15828000D02*
X17179600Y-15858000D01*
X17179600Y-15828000D02*
X17149600Y-15858000D01*
X17160000Y-5960000D02*
X17190000Y-5990000D01*
X17190000Y-5960000D02*
X17160000Y-5990000D01*
X17160000Y-6735000D02*
X17190000Y-6765000D01*
X17190000Y-6735000D02*
X17160000Y-6765000D01*
X17225800Y-7166600D02*
X17255800Y-7196600D01*
X17255800Y-7166600D02*
X17225800Y-7196600D01*
X17225800Y-7242800D02*
X17255800Y-7272800D01*
X17255800Y-7242800D02*
X17225800Y-7272800D01*
X17251200Y-3509000D02*
X17281200Y-3539000D01*
X17281200Y-3509000D02*
X17251200Y-3539000D01*
X17327400Y-20323800D02*
X17357400Y-20353800D01*
X17357400Y-20323800D02*
X17327400Y-20353800D01*
X17327400Y-20450800D02*
X17357400Y-20480800D01*
X17357400Y-20450800D02*
X17327400Y-20480800D01*
X17335000Y-6135000D02*
X17365000Y-6165000D01*
X17365000Y-6135000D02*
X17335000Y-6165000D01*
X17335000Y-6210000D02*
X17365000Y-6240000D01*
X17365000Y-6210000D02*
X17335000Y-6240000D01*
X17335000Y-6285000D02*
X17365000Y-6315000D01*
X17365000Y-6285000D02*
X17335000Y-6315000D01*
X17335000Y-6360000D02*
X17365000Y-6390000D01*
X17365000Y-6360000D02*
X17335000Y-6390000D01*
X17335000Y-6435000D02*
X17365000Y-6465000D01*
X17365000Y-6435000D02*
X17335000Y-6465000D01*
X17335000Y-6510000D02*
X17365000Y-6540000D01*
X17365000Y-6510000D02*
X17335000Y-6540000D01*
X17335000Y-6585000D02*
X17365000Y-6615000D01*
X17365000Y-6585000D02*
X17335000Y-6615000D01*
X17378200Y-14532600D02*
X17408200Y-14562600D01*
X17408200Y-14532600D02*
X17378200Y-14562600D01*
X17454400Y-14812000D02*
X17484400Y-14842000D01*
X17484400Y-14812000D02*
X17454400Y-14842000D01*
X17454400Y-16132800D02*
X17484400Y-16162800D01*
X17484400Y-16132800D02*
X17454400Y-16162800D01*
X17479800Y-16653500D02*
X17509800Y-16683500D01*
X17509800Y-16653500D02*
X17479800Y-16683500D01*
X17485000Y-4985000D02*
X17515000Y-5015000D01*
X17515000Y-4985000D02*
X17485000Y-5015000D01*
X17485000Y-5485000D02*
X17515000Y-5515000D01*
X17515000Y-5485000D02*
X17485000Y-5515000D01*
X17485000Y-5985000D02*
X17515000Y-6015000D01*
X17515000Y-5985000D02*
X17485000Y-6015000D01*
X17485000Y-6485000D02*
X17515000Y-6515000D01*
X17515000Y-6485000D02*
X17485000Y-6515000D01*
X17485000Y-6985000D02*
X17515000Y-7015000D01*
X17515000Y-6985000D02*
X17485000Y-7015000D01*
X17485000Y-7485000D02*
X17515000Y-7515000D01*
X17515000Y-7485000D02*
X17485000Y-7515000D01*
X17485000Y-7985000D02*
X17515000Y-8015000D01*
X17515000Y-7985000D02*
X17485000Y-8015000D01*
X17485000Y-21485000D02*
X17515000Y-21515000D01*
X17515000Y-21485000D02*
X17485000Y-21515000D01*
X17485000Y-22485000D02*
X17515000Y-22515000D01*
X17515000Y-22485000D02*
X17485000Y-22515000D01*
X17485000Y-22985000D02*
X17515000Y-23015000D01*
X17515000Y-22985000D02*
X17485000Y-23015000D01*
X17485000Y-23485000D02*
X17515000Y-23515000D01*
X17515000Y-23485000D02*
X17485000Y-23515000D01*
X17505200Y-3509000D02*
X17535200Y-3539000D01*
X17535200Y-3509000D02*
X17505200Y-3539000D01*
X17530600Y-14380200D02*
X17560600Y-14410200D01*
X17560600Y-14380200D02*
X17530600Y-14410200D01*
X17568700Y-18660100D02*
X17598700Y-18690100D01*
X17598700Y-18660100D02*
X17568700Y-18690100D01*
X17568700Y-19396700D02*
X17598700Y-19426700D01*
X17598700Y-19396700D02*
X17568700Y-19426700D01*
X17606800Y-17072600D02*
X17636800Y-17102600D01*
X17636800Y-17072600D02*
X17606800Y-17102600D01*
X17606800Y-17162600D02*
X17636800Y-17192600D01*
X17636800Y-17162600D02*
X17606800Y-17192600D01*
X17685000Y-10485000D02*
X17715000Y-10515000D01*
X17715000Y-10485000D02*
X17685000Y-10515000D01*
X17685000Y-10885000D02*
X17715000Y-10915000D01*
X17715000Y-10885000D02*
X17685000Y-10915000D01*
X17721100Y-17796500D02*
X17751100Y-17826500D01*
X17751100Y-17796500D02*
X17721100Y-17826500D01*
X17759200Y-3509000D02*
X17789200Y-3539000D01*
X17789200Y-3509000D02*
X17759200Y-3539000D01*
X17822700Y-18152100D02*
X17852700Y-18182100D01*
X17852700Y-18152100D02*
X17822700Y-18182100D01*
X17848100Y-16755100D02*
X17878100Y-16785100D01*
X17878100Y-16755100D02*
X17848100Y-16785100D01*
X17860800Y-17694900D02*
X17890800Y-17724900D01*
X17890800Y-17694900D02*
X17860800Y-17724900D01*
X17886200Y-16285200D02*
X17916200Y-16315200D01*
X17916200Y-16285200D02*
X17886200Y-16315200D01*
X17886200Y-17487600D02*
X17916200Y-17517600D01*
X17916200Y-17487600D02*
X17886200Y-17517600D01*
X17886200Y-23905200D02*
X17916200Y-23935200D01*
X17916200Y-23905200D02*
X17886200Y-23935200D01*
X17898900Y-18660100D02*
X17928900Y-18690100D01*
X17928900Y-18660100D02*
X17898900Y-18690100D01*
X17898900Y-19396700D02*
X17928900Y-19426700D01*
X17928900Y-19396700D02*
X17898900Y-19426700D01*
X17987800Y-17098000D02*
X18017800Y-17128000D01*
X18017800Y-17098000D02*
X17987800Y-17128000D01*
X18013200Y-3509000D02*
X18043200Y-3539000D01*
X18043200Y-3509000D02*
X18013200Y-3539000D01*
X18013200Y-16285200D02*
X18043200Y-16315200D01*
X18043200Y-16285200D02*
X18013200Y-16315200D01*
X18029747Y-15154900D02*
X18059747Y-15184900D01*
X18059747Y-15154900D02*
X18029747Y-15184900D01*
X18029747Y-16628100D02*
X18059747Y-16658100D01*
X18059747Y-16628100D02*
X18029747Y-16658100D01*
X18051300Y-23282900D02*
X18081300Y-23312900D01*
X18081300Y-23282900D02*
X18051300Y-23312900D01*
X18064000Y-22927300D02*
X18094000Y-22957300D01*
X18094000Y-22927300D02*
X18064000Y-22957300D01*
X18089400Y-23752800D02*
X18119400Y-23782800D01*
X18119400Y-23752800D02*
X18089400Y-23782800D01*
X18102100Y-17796500D02*
X18132100Y-17826500D01*
X18132100Y-17796500D02*
X18102100Y-17826500D01*
X18140200Y-20196800D02*
X18170200Y-20226800D01*
X18170200Y-20196800D02*
X18140200Y-20226800D01*
X18140200Y-20323800D02*
X18170200Y-20353800D01*
X18170200Y-20323800D02*
X18140200Y-20353800D01*
X18140200Y-20831800D02*
X18170200Y-20861800D01*
X18170200Y-20831800D02*
X18140200Y-20861800D01*
X18140200Y-20958800D02*
X18170200Y-20988800D01*
X18170200Y-20958800D02*
X18140200Y-20988800D01*
X18191000Y-14812000D02*
X18221000Y-14842000D01*
X18221000Y-14812000D02*
X18191000Y-14842000D01*
X18191000Y-17174200D02*
X18221000Y-17204200D01*
X18221000Y-17174200D02*
X18191000Y-17204200D01*
X18267200Y-3509000D02*
X18297200Y-3539000D01*
X18297200Y-3509000D02*
X18267200Y-3539000D01*
X18267200Y-12272000D02*
X18297200Y-12302000D01*
X18297200Y-12272000D02*
X18267200Y-12302000D01*
X18267200Y-13592800D02*
X18297200Y-13622800D01*
X18297200Y-13592800D02*
X18267200Y-13622800D01*
X18436147Y-14354800D02*
X18466147Y-14384800D01*
X18466147Y-14354800D02*
X18436147Y-14384800D01*
X18436147Y-15828000D02*
X18466147Y-15858000D01*
X18466147Y-15828000D02*
X18436147Y-15858000D01*
X18485000Y-21485000D02*
X18515000Y-21515000D01*
X18515000Y-21485000D02*
X18485000Y-21515000D01*
X18521200Y-3509000D02*
X18551200Y-3539000D01*
X18551200Y-3509000D02*
X18521200Y-3539000D01*
X18521200Y-7623800D02*
X18551200Y-7653800D01*
X18551200Y-7623800D02*
X18521200Y-7653800D01*
X18626647Y-15154900D02*
X18656647Y-15184900D01*
X18656647Y-15154900D02*
X18626647Y-15184900D01*
X18626647Y-16628100D02*
X18656647Y-16658100D01*
X18656647Y-16628100D02*
X18626647Y-16658100D01*
X18635500Y-22914600D02*
X18665500Y-22944600D01*
X18665500Y-22914600D02*
X18635500Y-22944600D01*
X18635500Y-23829000D02*
X18665500Y-23859000D01*
X18665500Y-23829000D02*
X18635500Y-23859000D01*
X18648200Y-22787600D02*
X18678200Y-22817600D01*
X18678200Y-22787600D02*
X18648200Y-22817600D01*
X18660900Y-12272000D02*
X18690900Y-12302000D01*
X18690900Y-12272000D02*
X18660900Y-12302000D01*
X18660900Y-13592800D02*
X18690900Y-13622800D01*
X18690900Y-13592800D02*
X18660900Y-13622800D01*
X18673600Y-18202900D02*
X18703600Y-18232900D01*
X18703600Y-18202900D02*
X18673600Y-18232900D01*
X18679800Y-18063200D02*
X18709800Y-18093200D01*
X18709800Y-18063200D02*
X18679800Y-18093200D01*
X18749800Y-22241500D02*
X18779800Y-22271500D01*
X18779800Y-22241500D02*
X18749800Y-22271500D01*
X18749800Y-22368500D02*
X18779800Y-22398500D01*
X18779800Y-22368500D02*
X18749800Y-22398500D01*
X18749800Y-22495500D02*
X18779800Y-22525500D01*
X18779800Y-22495500D02*
X18749800Y-22525500D01*
X18749800Y-22914600D02*
X18779800Y-22944600D01*
X18779800Y-22914600D02*
X18749800Y-22944600D01*
X18749800Y-23232100D02*
X18779800Y-23262100D01*
X18779800Y-23232100D02*
X18749800Y-23262100D01*
X18775200Y-3509000D02*
X18805200Y-3539000D01*
X18805200Y-3509000D02*
X18775200Y-3539000D01*
X18800600Y-13872200D02*
X18830600Y-13902200D01*
X18830600Y-13872200D02*
X18800600Y-13902200D01*
X18821280Y-21289000D02*
X18851280Y-21319000D01*
X18851280Y-21289000D02*
X18821280Y-21319000D01*
X18838700Y-23905200D02*
X18868700Y-23935200D01*
X18868700Y-23905200D02*
X18838700Y-23935200D01*
X18864100Y-22711400D02*
X18894100Y-22741400D01*
X18894100Y-22711400D02*
X18864100Y-22741400D01*
X18876800Y-21225500D02*
X18906800Y-21255500D01*
X18906800Y-21225500D02*
X18876800Y-21255500D01*
X18927600Y-18660100D02*
X18957600Y-18690100D01*
X18957600Y-18660100D02*
X18927600Y-18690100D01*
X18927600Y-21631900D02*
X18957600Y-21661900D01*
X18957600Y-21631900D02*
X18927600Y-21661900D01*
X18940300Y-19396700D02*
X18970300Y-19426700D01*
X18970300Y-19396700D02*
X18940300Y-19426700D01*
X18953000Y-8208000D02*
X18983000Y-8238000D01*
X18983000Y-8208000D02*
X18953000Y-8238000D01*
X18953000Y-8360400D02*
X18983000Y-8390400D01*
X18983000Y-8360400D02*
X18953000Y-8390400D01*
X19003800Y-10113000D02*
X19033800Y-10143000D01*
X19033800Y-10113000D02*
X19003800Y-10143000D01*
X19029200Y-3509000D02*
X19059200Y-3539000D01*
X19059200Y-3509000D02*
X19029200Y-3539000D01*
X19054600Y-21154020D02*
X19084600Y-21184020D01*
X19084600Y-21154020D02*
X19054600Y-21184020D01*
X19086497Y-14354800D02*
X19116497Y-14384800D01*
X19116497Y-14354800D02*
X19086497Y-14384800D01*
X19086497Y-15828000D02*
X19116497Y-15858000D01*
X19116497Y-15828000D02*
X19086497Y-15858000D01*
X19105400Y-9808200D02*
X19135400Y-9838200D01*
X19135400Y-9808200D02*
X19105400Y-9838200D01*
X19105400Y-10113000D02*
X19135400Y-10143000D01*
X19135400Y-10113000D02*
X19105400Y-10143000D01*
X19105400Y-18368000D02*
X19135400Y-18398000D01*
X19135400Y-18368000D02*
X19105400Y-18398000D01*
X19105400Y-20196800D02*
X19135400Y-20226800D01*
X19135400Y-20196800D02*
X19105400Y-20226800D01*
X19105400Y-20323800D02*
X19135400Y-20353800D01*
X19135400Y-20323800D02*
X19105400Y-20353800D01*
X19105400Y-20577800D02*
X19135400Y-20607800D01*
X19135400Y-20577800D02*
X19105400Y-20607800D01*
X19105400Y-20958800D02*
X19135400Y-20988800D01*
X19135400Y-20958800D02*
X19105400Y-20988800D01*
X19207000Y-10113000D02*
X19237000Y-10143000D01*
X19237000Y-10113000D02*
X19207000Y-10143000D01*
X19270500Y-18660100D02*
X19300500Y-18690100D01*
X19300500Y-18660100D02*
X19270500Y-18690100D01*
X19270500Y-19396700D02*
X19300500Y-19426700D01*
X19300500Y-19396700D02*
X19270500Y-19426700D01*
X19308600Y-17199600D02*
X19338600Y-17229600D01*
X19338600Y-17199600D02*
X19308600Y-17229600D01*
X19334000Y-20450800D02*
X19364000Y-20480800D01*
X19364000Y-20450800D02*
X19334000Y-20480800D01*
X19349200Y-11647200D02*
X19379200Y-11677200D01*
X19379200Y-11647200D02*
X19349200Y-11677200D01*
X19359400Y-12272000D02*
X19389400Y-12302000D01*
X19389400Y-12272000D02*
X19359400Y-12302000D01*
X19359400Y-13592800D02*
X19389400Y-13622800D01*
X19389400Y-13592800D02*
X19359400Y-13622800D01*
X19404343Y-8201623D02*
X19434343Y-8231623D01*
X19434343Y-8201623D02*
X19404343Y-8231623D01*
X19422900Y-22635200D02*
X19452900Y-22665200D01*
X19452900Y-22635200D02*
X19422900Y-22665200D01*
X19486400Y-19993600D02*
X19516400Y-20023600D01*
X19516400Y-19993600D02*
X19486400Y-20023600D01*
X19511800Y-17199600D02*
X19541800Y-17229600D01*
X19541800Y-17199600D02*
X19511800Y-17229600D01*
X19537200Y-21797000D02*
X19567200Y-21827000D01*
X19567200Y-21797000D02*
X19537200Y-21827000D01*
X19537200Y-21924000D02*
X19567200Y-21954000D01*
X19567200Y-21924000D02*
X19537200Y-21954000D01*
X19537200Y-22051000D02*
X19567200Y-22081000D01*
X19567200Y-22051000D02*
X19537200Y-22081000D01*
X19537200Y-22305000D02*
X19567200Y-22335000D01*
X19567200Y-22305000D02*
X19537200Y-22335000D01*
X19537200Y-22432000D02*
X19567200Y-22462000D01*
X19567200Y-22432000D02*
X19537200Y-22462000D01*
X19537200Y-23037959D02*
X19567200Y-23067959D01*
X19567200Y-23037959D02*
X19537200Y-23067959D01*
X19537200Y-23103280D02*
X19567200Y-23133280D01*
X19567200Y-23103280D02*
X19537200Y-23133280D01*
X19537200Y-23168600D02*
X19567200Y-23198600D01*
X19567200Y-23168600D02*
X19537200Y-23198600D01*
X19537200Y-23422600D02*
X19567200Y-23452600D01*
X19567200Y-23422600D02*
X19537200Y-23452600D01*
X19543696Y-20598604D02*
X19573696Y-20628604D01*
X19573696Y-20598604D02*
X19543696Y-20628604D01*
X19588000Y-22243372D02*
X19618000Y-22273372D01*
X19618000Y-22243372D02*
X19588000Y-22273372D01*
X19592720Y-21479500D02*
X19622720Y-21509500D01*
X19622720Y-21479500D02*
X19592720Y-21509500D01*
X19592720Y-22178000D02*
X19622720Y-22208000D01*
X19622720Y-22178000D02*
X19592720Y-22208000D01*
X19619049Y-20598900D02*
X19649049Y-20628900D01*
X19649049Y-20598900D02*
X19619049Y-20628900D01*
X19619049Y-20992600D02*
X19649049Y-21022600D01*
X19649049Y-20992600D02*
X19619049Y-21022600D01*
X19619049Y-21119600D02*
X19649049Y-21149600D01*
X19649049Y-21119600D02*
X19619049Y-21149600D01*
X19651500Y-21860500D02*
X19681500Y-21890500D01*
X19681500Y-21860500D02*
X19651500Y-21890500D01*
X19651500Y-22978100D02*
X19681500Y-23008100D01*
X19681500Y-22978100D02*
X19651500Y-23008100D01*
X19664423Y-22241277D02*
X19694423Y-22271277D01*
X19694423Y-22241277D02*
X19664423Y-22271277D01*
X19710000Y-12935000D02*
X19740000Y-12965000D01*
X19740000Y-12935000D02*
X19710000Y-12965000D01*
X19715000Y-21987500D02*
X19745000Y-22017500D01*
X19745000Y-21987500D02*
X19715000Y-22017500D01*
X19715000Y-22114500D02*
X19745000Y-22144500D01*
X19745000Y-22114500D02*
X19715000Y-22144500D01*
X19715000Y-23037959D02*
X19745000Y-23067959D01*
X19745000Y-23037959D02*
X19715000Y-23067959D01*
X19715000Y-23232100D02*
X19745000Y-23262100D01*
X19745000Y-23232100D02*
X19715000Y-23262100D01*
X19715000Y-23409900D02*
X19745000Y-23439900D01*
X19745000Y-23409900D02*
X19715000Y-23439900D01*
X19765800Y-9655800D02*
X19795800Y-9685800D01*
X19795800Y-9655800D02*
X19765800Y-9685800D01*
X19778500Y-21581100D02*
X19808500Y-21611100D01*
X19808500Y-21581100D02*
X19778500Y-21611100D01*
X19778500Y-22559000D02*
X19808500Y-22589000D01*
X19808500Y-22559000D02*
X19778500Y-22589000D01*
X19816600Y-18063200D02*
X19846600Y-18093200D01*
X19846600Y-18063200D02*
X19816600Y-18093200D01*
X19842000Y-21474780D02*
X19872000Y-21504780D01*
X19872000Y-21474780D02*
X19842000Y-21504780D01*
X19842000Y-22495500D02*
X19872000Y-22525500D01*
X19872000Y-22495500D02*
X19842000Y-22525500D01*
X19880100Y-14494500D02*
X19910100Y-14524500D01*
X19910100Y-14494500D02*
X19880100Y-14524500D01*
X19880100Y-15853400D02*
X19910100Y-15883400D01*
X19910100Y-15853400D02*
X19880100Y-15883400D01*
X19892800Y-21858680D02*
X19922800Y-21888680D01*
X19922800Y-21858680D02*
X19892800Y-21888680D01*
X19892800Y-21924000D02*
X19922800Y-21954000D01*
X19922800Y-21924000D02*
X19892800Y-21954000D01*
X19892800Y-22114500D02*
X19922800Y-22144500D01*
X19922800Y-22114500D02*
X19892800Y-22144500D01*
X19892800Y-22305000D02*
X19922800Y-22335000D01*
X19922800Y-22305000D02*
X19892800Y-22335000D01*
X19892800Y-22559000D02*
X19922800Y-22589000D01*
X19922800Y-22559000D02*
X19892800Y-22589000D01*
X19892800Y-23037959D02*
X19922800Y-23067959D01*
X19922800Y-23037959D02*
X19892800Y-23067959D01*
X19892800Y-23168600D02*
X19922800Y-23198600D01*
X19922800Y-23168600D02*
X19892800Y-23198600D01*
X19892800Y-23346400D02*
X19922800Y-23376400D01*
X19922800Y-23346400D02*
X19892800Y-23376400D01*
X19892800Y-23486100D02*
X19922800Y-23516100D01*
X19922800Y-23486100D02*
X19892800Y-23516100D01*
X19918200Y-20172180D02*
X19948200Y-20202180D01*
X19948200Y-20172180D02*
X19918200Y-20202180D01*
X19956300Y-14570700D02*
X19986300Y-14600700D01*
X19986300Y-14570700D02*
X19956300Y-14600700D01*
X19956300Y-15929600D02*
X19986300Y-15959600D01*
X19986300Y-15929600D02*
X19956300Y-15959600D01*
X20007100Y-22711400D02*
X20037100Y-22741400D01*
X20037100Y-22711400D02*
X20007100Y-22741400D01*
X20019800Y-9808200D02*
X20049800Y-9838200D01*
X20049800Y-9808200D02*
X20019800Y-9838200D01*
X20038700Y-9655800D02*
X20068700Y-9685800D01*
X20068700Y-9655800D02*
X20038700Y-9685800D01*
X20134100Y-23892500D02*
X20164100Y-23922500D01*
X20164100Y-23892500D02*
X20134100Y-23922500D01*
X20159500Y-14748500D02*
X20189500Y-14778500D01*
X20189500Y-14748500D02*
X20159500Y-14778500D01*
X20159500Y-15281900D02*
X20189500Y-15311900D01*
X20189500Y-15281900D02*
X20159500Y-15311900D01*
X20159500Y-17352000D02*
X20189500Y-17382000D01*
X20189500Y-17352000D02*
X20159500Y-17382000D01*
X20235000Y-11735000D02*
X20265000Y-11765000D01*
X20265000Y-11735000D02*
X20235000Y-11765000D01*
X20235000Y-12485000D02*
X20265000Y-12515000D01*
X20265000Y-12485000D02*
X20235000Y-12515000D01*
X20235000Y-13235000D02*
X20265000Y-13265000D01*
X20265000Y-13235000D02*
X20235000Y-13265000D01*
X20235000Y-13985000D02*
X20265000Y-14015000D01*
X20265000Y-13985000D02*
X20235000Y-14015000D01*
X20235700Y-17428200D02*
X20265700Y-17458200D01*
X20265700Y-17428200D02*
X20235700Y-17458200D01*
X20279449Y-20332200D02*
X20309449Y-20362200D01*
X20309449Y-20332200D02*
X20279449Y-20362200D01*
X20337300Y-23834480D02*
X20367300Y-23864480D01*
X20367300Y-23834480D02*
X20337300Y-23864480D01*
X20348600Y-11647200D02*
X20378600Y-11677200D01*
X20378600Y-11647200D02*
X20348600Y-11677200D01*
X20350000Y-11433800D02*
X20380000Y-11463800D01*
X20380000Y-11433800D02*
X20350000Y-11463800D01*
X20375400Y-10240000D02*
X20405400Y-10270000D01*
X20405400Y-10240000D02*
X20375400Y-10270000D01*
X20430000Y-20611600D02*
X20460000Y-20641600D01*
X20460000Y-20611600D02*
X20430000Y-20641600D01*
X20430000Y-20738600D02*
X20460000Y-20768600D01*
X20460000Y-20738600D02*
X20430000Y-20768600D01*
X20430000Y-20865600D02*
X20460000Y-20895600D01*
X20460000Y-20865600D02*
X20430000Y-20895600D01*
X20430000Y-20992600D02*
X20460000Y-21022600D01*
X20460000Y-20992600D02*
X20430000Y-21022600D01*
X20464300Y-21187400D02*
X20494300Y-21217400D01*
X20494300Y-21187400D02*
X20464300Y-21217400D01*
X20502400Y-15332700D02*
X20532400Y-15362700D01*
X20532400Y-15332700D02*
X20502400Y-15362700D01*
X20502400Y-16704300D02*
X20532400Y-16734300D01*
X20532400Y-16704300D02*
X20502400Y-16734300D01*
X20502400Y-18075900D02*
X20532400Y-18105900D01*
X20532400Y-18075900D02*
X20502400Y-18105900D01*
X20502400Y-19447500D02*
X20532400Y-19477500D01*
X20532400Y-19447500D02*
X20502400Y-19477500D01*
X20527800Y-21365200D02*
X20557800Y-21395200D01*
X20557800Y-21365200D02*
X20527800Y-21395200D01*
X20565900Y-22635200D02*
X20595900Y-22665200D01*
X20595900Y-22635200D02*
X20565900Y-22665200D01*
X20604000Y-13669000D02*
X20634000Y-13699000D01*
X20634000Y-13669000D02*
X20604000Y-13699000D01*
X20616700Y-21365200D02*
X20646700Y-21395200D01*
X20646700Y-21365200D02*
X20616700Y-21395200D01*
X20676300Y-14824700D02*
X20706300Y-14854700D01*
X20706300Y-14824700D02*
X20676300Y-14854700D01*
X20676300Y-16196300D02*
X20706300Y-16226300D01*
X20706300Y-16196300D02*
X20676300Y-16226300D01*
X20676300Y-17567900D02*
X20706300Y-17597900D01*
X20706300Y-17567900D02*
X20676300Y-17597900D01*
X20676300Y-18939500D02*
X20706300Y-18969500D01*
X20706300Y-18939500D02*
X20676300Y-18969500D01*
X20680090Y-23232652D02*
X20710090Y-23262652D01*
X20710090Y-23232652D02*
X20680090Y-23262652D01*
X20680200Y-21797000D02*
X20710200Y-21827000D01*
X20710200Y-21797000D02*
X20680200Y-21827000D01*
X20680200Y-21987500D02*
X20710200Y-22017500D01*
X20710200Y-21987500D02*
X20680200Y-22017500D01*
X20680200Y-22178000D02*
X20710200Y-22208000D01*
X20710200Y-22178000D02*
X20680200Y-22208000D01*
X20680200Y-22243320D02*
X20710200Y-22273320D01*
X20710200Y-22243320D02*
X20680200Y-22273320D01*
X20680200Y-22370320D02*
X20710200Y-22400320D01*
X20710200Y-22370320D02*
X20680200Y-22400320D01*
X20680200Y-22976280D02*
X20710200Y-23006280D01*
X20710200Y-22976280D02*
X20680200Y-23006280D01*
X20680200Y-23041600D02*
X20710200Y-23071600D01*
X20710200Y-23041600D02*
X20680200Y-23071600D01*
X20680200Y-23408080D02*
X20710200Y-23438080D01*
X20710200Y-23408080D02*
X20680200Y-23438080D01*
X20680200Y-23473400D02*
X20710200Y-23503400D01*
X20710200Y-23473400D02*
X20680200Y-23503400D01*
X20680202Y-23167332D02*
X20710202Y-23197332D01*
X20710202Y-23167332D02*
X20680202Y-23197332D01*
X20756400Y-22051000D02*
X20786400Y-22081000D01*
X20786400Y-22051000D02*
X20756400Y-22081000D01*
X20756400Y-23409900D02*
X20786400Y-23439900D01*
X20786400Y-23409900D02*
X20756400Y-23439900D01*
X20807200Y-11002000D02*
X20837200Y-11032000D01*
X20837200Y-11002000D02*
X20807200Y-11032000D01*
X20807200Y-13669000D02*
X20837200Y-13699000D01*
X20837200Y-13669000D02*
X20807200Y-13699000D01*
X20807200Y-13872200D02*
X20837200Y-13902200D01*
X20837200Y-13872200D02*
X20807200Y-13902200D01*
X20819900Y-21682700D02*
X20849900Y-21712700D01*
X20849900Y-21682700D02*
X20819900Y-21712700D01*
X20819900Y-21987500D02*
X20849900Y-22017500D01*
X20849900Y-21987500D02*
X20819900Y-22017500D01*
X20819900Y-23168600D02*
X20849900Y-23198600D01*
X20849900Y-23168600D02*
X20819900Y-23198600D01*
X20883400Y-21797000D02*
X20913400Y-21827000D01*
X20913400Y-21797000D02*
X20883400Y-21827000D01*
X20883400Y-22849280D02*
X20913400Y-22879280D01*
X20913400Y-22849280D02*
X20883400Y-22879280D01*
X20883400Y-22978100D02*
X20913400Y-23008100D01*
X20913400Y-22978100D02*
X20883400Y-23008100D01*
X20883400Y-23892500D02*
X20913400Y-23922500D01*
X20913400Y-23892500D02*
X20883400Y-23922500D01*
X20896100Y-15929600D02*
X20926100Y-15959600D01*
X20926100Y-15929600D02*
X20896100Y-15959600D01*
X20896100Y-17301200D02*
X20926100Y-17331200D01*
X20926100Y-17301200D02*
X20896100Y-17331200D01*
X20896100Y-18672800D02*
X20926100Y-18702800D01*
X20926100Y-18672800D02*
X20896100Y-18702800D01*
X20896100Y-20044400D02*
X20926100Y-20074400D01*
X20926100Y-20044400D02*
X20896100Y-20074400D01*
X20908800Y-7623800D02*
X20938800Y-7653800D01*
X20938800Y-7623800D02*
X20908800Y-7653800D01*
X20908800Y-11941800D02*
X20938800Y-11971800D01*
X20938800Y-11941800D02*
X20908800Y-11971800D01*
X20946900Y-22043020D02*
X20976900Y-22073020D01*
X20976900Y-22043020D02*
X20946900Y-22073020D01*
X20946900Y-22305000D02*
X20976900Y-22335000D01*
X20976900Y-22305000D02*
X20946900Y-22335000D01*
X20946900Y-23232100D02*
X20976900Y-23262100D01*
X20976900Y-23232100D02*
X20946900Y-23262100D01*
X20959600Y-8233400D02*
X20989600Y-8263400D01*
X20989600Y-8233400D02*
X20959600Y-8263400D01*
X21001500Y-20171400D02*
X21031500Y-20201400D01*
X21031500Y-20171400D02*
X21001500Y-20201400D01*
X21002420Y-23168600D02*
X21032420Y-23198600D01*
X21032420Y-23168600D02*
X21002420Y-23198600D01*
X21005680Y-21924000D02*
X21035680Y-21954000D01*
X21035680Y-21924000D02*
X21005680Y-21954000D01*
X21086600Y-23788760D02*
X21116600Y-23818760D01*
X21116600Y-23788760D02*
X21086600Y-23818760D01*
X21107280Y-22978100D02*
X21137280Y-23008100D01*
X21137280Y-22978100D02*
X21107280Y-23008100D01*
X21112000Y-12449800D02*
X21142000Y-12479800D01*
X21142000Y-12449800D02*
X21112000Y-12479800D01*
X21112000Y-14024600D02*
X21142000Y-14054600D01*
X21142000Y-14024600D02*
X21112000Y-14054600D01*
X21130349Y-20332200D02*
X21160349Y-20362200D01*
X21160349Y-20332200D02*
X21130349Y-20362200D01*
X21200900Y-15929600D02*
X21230900Y-15959600D01*
X21230900Y-15929600D02*
X21200900Y-15959600D01*
X21200900Y-17301200D02*
X21230900Y-17331200D01*
X21230900Y-17301200D02*
X21200900Y-17331200D01*
X21200900Y-18672800D02*
X21230900Y-18702800D01*
X21230900Y-18672800D02*
X21200900Y-18702800D01*
X21200900Y-20044400D02*
X21230900Y-20074400D01*
X21230900Y-20044400D02*
X21200900Y-20074400D01*
X21213600Y-21479500D02*
X21243600Y-21509500D01*
X21243600Y-21479500D02*
X21213600Y-21509500D01*
X21226300Y-21924000D02*
X21256300Y-21954000D01*
X21256300Y-21924000D02*
X21226300Y-21954000D01*
X21226300Y-22043020D02*
X21256300Y-22073020D01*
X21256300Y-22043020D02*
X21226300Y-22073020D01*
X21226300Y-22114500D02*
X21256300Y-22144500D01*
X21256300Y-22114500D02*
X21226300Y-22144500D01*
X21226300Y-22303180D02*
X21256300Y-22333180D01*
X21256300Y-22303180D02*
X21226300Y-22333180D01*
X21226300Y-22495500D02*
X21256300Y-22525500D01*
X21256300Y-22495500D02*
X21226300Y-22525500D01*
X21226300Y-22976280D02*
X21256300Y-23006280D01*
X21256300Y-22976280D02*
X21226300Y-23006280D01*
X21226300Y-23041600D02*
X21256300Y-23071600D01*
X21256300Y-23041600D02*
X21226300Y-23071600D01*
X21226300Y-23168600D02*
X21256300Y-23198600D01*
X21256300Y-23168600D02*
X21226300Y-23198600D01*
X21226300Y-23414620D02*
X21256300Y-23444620D01*
X21256300Y-23414620D02*
X21226300Y-23444620D01*
X21315200Y-21136600D02*
X21345200Y-21166600D01*
X21345200Y-21136600D02*
X21315200Y-21166600D01*
X21319000Y-20611600D02*
X21349000Y-20641600D01*
X21349000Y-20611600D02*
X21319000Y-20641600D01*
X21340600Y-22711400D02*
X21370600Y-22741400D01*
X21370600Y-22711400D02*
X21340600Y-22741400D01*
X21395200Y-20789400D02*
X21425200Y-20819400D01*
X21425200Y-20789400D02*
X21395200Y-20819400D01*
X21429500Y-14824700D02*
X21459500Y-14854700D01*
X21459500Y-14824700D02*
X21429500Y-14854700D01*
X21429500Y-16196300D02*
X21459500Y-16226300D01*
X21459500Y-16196300D02*
X21429500Y-16226300D01*
X21429500Y-17567900D02*
X21459500Y-17597900D01*
X21459500Y-17567900D02*
X21429500Y-17597900D01*
X21429500Y-18939500D02*
X21459500Y-18969500D01*
X21459500Y-18939500D02*
X21429500Y-18969500D01*
X21442200Y-12449800D02*
X21472200Y-12479800D01*
X21472200Y-12449800D02*
X21442200Y-12479800D01*
X21447280Y-20865600D02*
X21477280Y-20895600D01*
X21477280Y-20865600D02*
X21447280Y-20895600D01*
X21447280Y-20994360D02*
X21477280Y-21024360D01*
X21477280Y-20994360D02*
X21447280Y-21024360D01*
X21485000Y-8985000D02*
X21515000Y-9015000D01*
X21515000Y-8985000D02*
X21485000Y-9015000D01*
X21531100Y-22978100D02*
X21561100Y-23008100D01*
X21561100Y-22978100D02*
X21531100Y-23008100D01*
X21594600Y-9960600D02*
X21624600Y-9990600D01*
X21624600Y-9960600D02*
X21594600Y-9990600D01*
X21594600Y-15332700D02*
X21624600Y-15362700D01*
X21624600Y-15332700D02*
X21594600Y-15362700D01*
X21594600Y-16704300D02*
X21624600Y-16734300D01*
X21624600Y-16704300D02*
X21594600Y-16734300D01*
X21594600Y-18075900D02*
X21624600Y-18105900D01*
X21624600Y-18075900D02*
X21594600Y-18105900D01*
X21594600Y-19447500D02*
X21624600Y-19477500D01*
X21624600Y-19447500D02*
X21594600Y-19477500D01*
X21632700Y-23892500D02*
X21662700Y-23922500D01*
X21662700Y-23892500D02*
X21632700Y-23922500D01*
X21708900Y-21123900D02*
X21738900Y-21153900D01*
X21738900Y-21123900D02*
X21708900Y-21153900D01*
X21785000Y-21285000D02*
X21815000Y-21315000D01*
X21815000Y-21285000D02*
X21785000Y-21315000D01*
X21835900Y-23743040D02*
X21865900Y-23773040D01*
X21865900Y-23743040D02*
X21835900Y-23773040D01*
X21874000Y-15218400D02*
X21904000Y-15248400D01*
X21904000Y-15218400D02*
X21874000Y-15248400D01*
X21874000Y-16005800D02*
X21904000Y-16035800D01*
X21904000Y-16005800D02*
X21874000Y-16035800D01*
X21874000Y-19231600D02*
X21904000Y-19261600D01*
X21904000Y-19231600D02*
X21874000Y-19261600D01*
X21874000Y-20044400D02*
X21904000Y-20074400D01*
X21904000Y-20044400D02*
X21874000Y-20074400D01*
X21899400Y-22635200D02*
X21929400Y-22665200D01*
X21929400Y-22635200D02*
X21899400Y-22665200D01*
X21950200Y-9808200D02*
X21980200Y-9838200D01*
X21980200Y-9808200D02*
X21950200Y-9838200D01*
X21950200Y-16005800D02*
X21980200Y-16035800D01*
X21980200Y-16005800D02*
X21950200Y-16035800D01*
X21950200Y-17860000D02*
X21980200Y-17890000D01*
X21980200Y-17860000D02*
X21950200Y-17890000D01*
X21950200Y-18672800D02*
X21980200Y-18702800D01*
X21980200Y-18672800D02*
X21950200Y-18702800D01*
X21954000Y-19378613D02*
X21984000Y-19408613D01*
X21984000Y-19378613D02*
X21954000Y-19408613D01*
X21985000Y-8985000D02*
X22015000Y-9015000D01*
X22015000Y-8985000D02*
X21985000Y-9015000D01*
X22013700Y-21670000D02*
X22043700Y-21700000D01*
X22043700Y-21670000D02*
X22013700Y-21700000D01*
X22013700Y-21924000D02*
X22043700Y-21954000D01*
X22043700Y-21924000D02*
X22013700Y-21954000D01*
X22013700Y-22051000D02*
X22043700Y-22081000D01*
X22043700Y-22051000D02*
X22013700Y-22081000D01*
X22013700Y-22178000D02*
X22043700Y-22208000D01*
X22043700Y-22178000D02*
X22013700Y-22208000D01*
X22013700Y-22851100D02*
X22043700Y-22881100D01*
X22043700Y-22851100D02*
X22013700Y-22881100D01*
X22013700Y-22978100D02*
X22043700Y-23008100D01*
X22043700Y-22978100D02*
X22013700Y-23008100D01*
X22013700Y-23105100D02*
X22043700Y-23135100D01*
X22043700Y-23105100D02*
X22013700Y-23135100D01*
X22013700Y-23357280D02*
X22043700Y-23387280D01*
X22043700Y-23357280D02*
X22013700Y-23387280D01*
X22026400Y-16247100D02*
X22056400Y-16277100D01*
X22056400Y-16247100D02*
X22026400Y-16277100D01*
X22036160Y-19467799D02*
X22066160Y-19497799D01*
X22066160Y-19467799D02*
X22036160Y-19497799D01*
X22052008Y-23410187D02*
X22082008Y-23440187D01*
X22082008Y-23410187D02*
X22052008Y-23440187D01*
X22077200Y-12805400D02*
X22107200Y-12835400D01*
X22107200Y-12805400D02*
X22077200Y-12835400D01*
X22097120Y-18093680D02*
X22127120Y-18123680D01*
X22127120Y-18093680D02*
X22097120Y-18123680D01*
X22102600Y-13237200D02*
X22132600Y-13267200D01*
X22132600Y-13237200D02*
X22102600Y-13267200D01*
X22102600Y-16183600D02*
X22132600Y-16213600D01*
X22132600Y-16183600D02*
X22102600Y-16213600D01*
X22102600Y-17301200D02*
X22132600Y-17331200D01*
X22132600Y-17301200D02*
X22102600Y-17331200D01*
X22128000Y-17999700D02*
X22158000Y-18029700D01*
X22158000Y-17999700D02*
X22128000Y-18029700D01*
X22128000Y-20450800D02*
X22158000Y-20480800D01*
X22158000Y-20450800D02*
X22128000Y-20480800D01*
X22132720Y-22114500D02*
X22162720Y-22144500D01*
X22162720Y-22114500D02*
X22132720Y-22144500D01*
X22132720Y-23105100D02*
X22162720Y-23135100D01*
X22162720Y-23105100D02*
X22132720Y-23135100D01*
X22173320Y-16704300D02*
X22203320Y-16734300D01*
X22203320Y-16704300D02*
X22173320Y-16734300D01*
X22182600Y-15675600D02*
X22212600Y-15705600D01*
X22212600Y-15675600D02*
X22182600Y-15705600D01*
X22185000Y-20985000D02*
X22215000Y-21015000D01*
X22215000Y-20985000D02*
X22185000Y-21015000D01*
X22188240Y-22305000D02*
X22218240Y-22335000D01*
X22218240Y-22305000D02*
X22188240Y-22335000D01*
X22189680Y-22914600D02*
X22219680Y-22944600D01*
X22219680Y-22914600D02*
X22189680Y-22944600D01*
X22191500Y-21797000D02*
X22221500Y-21827000D01*
X22221500Y-21797000D02*
X22191500Y-21827000D01*
X22191500Y-22237859D02*
X22221500Y-22267859D01*
X22221500Y-22237859D02*
X22191500Y-22267859D01*
X22205359Y-20451959D02*
X22235359Y-20481959D01*
X22235359Y-20451959D02*
X22205359Y-20481959D01*
X22234680Y-15746720D02*
X22264680Y-15776720D01*
X22264680Y-15746720D02*
X22234680Y-15776720D01*
X22242300Y-23359100D02*
X22272300Y-23389100D01*
X22272300Y-23359100D02*
X22242300Y-23389100D01*
X22255000Y-22914600D02*
X22285000Y-22944600D01*
X22285000Y-22914600D02*
X22255000Y-22944600D01*
X22264760Y-16818600D02*
X22294760Y-16848600D01*
X22294760Y-16818600D02*
X22264760Y-16848600D01*
X22280400Y-15142200D02*
X22310400Y-15172200D01*
X22310400Y-15142200D02*
X22280400Y-15172200D01*
X22281559Y-20451959D02*
X22311559Y-20481959D01*
X22311559Y-20451959D02*
X22281559Y-20481959D01*
X22303980Y-23041600D02*
X22333980Y-23071600D01*
X22333980Y-23041600D02*
X22303980Y-23071600D01*
X22305800Y-15294600D02*
X22335800Y-15324600D01*
X22335800Y-15294600D02*
X22305800Y-15324600D01*
X22331200Y-14888200D02*
X22361200Y-14918200D01*
X22361200Y-14888200D02*
X22331200Y-14918200D01*
X22343900Y-20516120D02*
X22373900Y-20546120D01*
X22373900Y-20516120D02*
X22343900Y-20546120D01*
X22356600Y-11586200D02*
X22386600Y-11616200D01*
X22386600Y-11586200D02*
X22356600Y-11616200D01*
X22356600Y-21987500D02*
X22386600Y-22017500D01*
X22386600Y-21987500D02*
X22356600Y-22017500D01*
X22356600Y-22052820D02*
X22386600Y-22082820D01*
X22386600Y-22052820D02*
X22356600Y-22082820D01*
X22369027Y-19255437D02*
X22399027Y-19285437D01*
X22399027Y-19255437D02*
X22369027Y-19285437D01*
X22369300Y-21797000D02*
X22399300Y-21827000D01*
X22399300Y-21797000D02*
X22369300Y-21827000D01*
X22369300Y-23041600D02*
X22399300Y-23071600D01*
X22399300Y-23041600D02*
X22369300Y-23071600D01*
X22369300Y-23295600D02*
X22399300Y-23325600D01*
X22399300Y-23295600D02*
X22369300Y-23325600D01*
X22369300Y-23414620D02*
X22399300Y-23444620D01*
X22399300Y-23414620D02*
X22369300Y-23444620D01*
X22382000Y-13669000D02*
X22412000Y-13699000D01*
X22412000Y-13669000D02*
X22382000Y-13699000D01*
X22382000Y-14481800D02*
X22412000Y-14511800D01*
X22412000Y-14481800D02*
X22382000Y-14511800D01*
X22382000Y-23788760D02*
X22412000Y-23818760D01*
X22412000Y-23788760D02*
X22382000Y-23818760D01*
X22401920Y-17644100D02*
X22431920Y-17674100D01*
X22431920Y-17644100D02*
X22401920Y-17674100D01*
X22407400Y-18914100D02*
X22437400Y-18944100D01*
X22437400Y-18914100D02*
X22407400Y-18944100D01*
X22407760Y-20450800D02*
X22437760Y-20480800D01*
X22437760Y-20450800D02*
X22407760Y-20480800D01*
X22483600Y-22711400D02*
X22513600Y-22741400D01*
X22513600Y-22711400D02*
X22483600Y-22741400D01*
X22485000Y-8985000D02*
X22515000Y-9015000D01*
X22515000Y-8985000D02*
X22485000Y-9015000D01*
X22585200Y-23697320D02*
X22615200Y-23727320D01*
X22615200Y-23697320D02*
X22585200Y-23727320D01*
X22636000Y-14862800D02*
X22666000Y-14892800D01*
X22666000Y-14862800D02*
X22636000Y-14892800D01*
X22636000Y-14989800D02*
X22666000Y-15019800D01*
X22666000Y-14989800D02*
X22636000Y-15019800D01*
X22685000Y-20985000D02*
X22715000Y-21015000D01*
X22715000Y-20985000D02*
X22685000Y-21015000D01*
X22712200Y-7928600D02*
X22742200Y-7958600D01*
X22742200Y-7928600D02*
X22712200Y-7958600D01*
X22775700Y-16259800D02*
X22805700Y-16289800D01*
X22805700Y-16259800D02*
X22775700Y-16289800D01*
X22775700Y-16386800D02*
X22805700Y-16416800D01*
X22805700Y-16386800D02*
X22775700Y-16416800D01*
X22775700Y-16513800D02*
X22805700Y-16543800D01*
X22805700Y-16513800D02*
X22775700Y-16543800D01*
X22775700Y-16640800D02*
X22805700Y-16670800D01*
X22805700Y-16640800D02*
X22775700Y-16670800D01*
X22775700Y-17898100D02*
X22805700Y-17928100D01*
X22805700Y-17898100D02*
X22775700Y-17928100D01*
X22775700Y-18025100D02*
X22805700Y-18055100D01*
X22805700Y-18025100D02*
X22775700Y-18055100D01*
X22786250Y-15495650D02*
X22816250Y-15525650D01*
X22816250Y-15495650D02*
X22786250Y-15525650D01*
X22826500Y-14685000D02*
X22856500Y-14715000D01*
X22856500Y-14685000D02*
X22826500Y-14715000D01*
X22826500Y-15066000D02*
X22856500Y-15096000D01*
X22856500Y-15066000D02*
X22826500Y-15096000D01*
X22864600Y-21987500D02*
X22894600Y-22017500D01*
X22894600Y-21987500D02*
X22864600Y-22017500D01*
X22966200Y-13402300D02*
X22996200Y-13432300D01*
X22996200Y-13402300D02*
X22966200Y-13432300D01*
X22966200Y-13516600D02*
X22996200Y-13546600D01*
X22996200Y-13516600D02*
X22966200Y-13546600D01*
X22985000Y-8985000D02*
X23015000Y-9015000D01*
X23015000Y-8985000D02*
X22985000Y-9015000D01*
X22985000Y-20985000D02*
X23015000Y-21015000D01*
X23015000Y-20985000D02*
X22985000Y-21015000D01*
X23042400Y-22635200D02*
X23072400Y-22665200D01*
X23072400Y-22635200D02*
X23042400Y-22665200D01*
X23067800Y-20171400D02*
X23097800Y-20201400D01*
X23097800Y-20171400D02*
X23067800Y-20201400D01*
X23080500Y-19168100D02*
X23110500Y-19198100D01*
X23110500Y-19168100D02*
X23080500Y-19198100D01*
X23080500Y-19295100D02*
X23110500Y-19325100D01*
X23110500Y-19295100D02*
X23080500Y-19325100D01*
X23144000Y-14685000D02*
X23174000Y-14715000D01*
X23174000Y-14685000D02*
X23144000Y-14715000D01*
X23144000Y-15066000D02*
X23174000Y-15096000D01*
X23174000Y-15066000D02*
X23144000Y-15096000D01*
X23144000Y-15294600D02*
X23174000Y-15324600D01*
X23174000Y-15294600D02*
X23144000Y-15324600D01*
X23144000Y-15497800D02*
X23174000Y-15527800D01*
X23174000Y-15497800D02*
X23144000Y-15527800D01*
X23144000Y-22432000D02*
X23174000Y-22462000D01*
X23174000Y-22432000D02*
X23144000Y-22462000D01*
X23156700Y-21924000D02*
X23186700Y-21954000D01*
X23186700Y-21924000D02*
X23156700Y-21954000D01*
X23156700Y-22241500D02*
X23186700Y-22271500D01*
X23186700Y-22241500D02*
X23156700Y-22271500D01*
X23156700Y-22306820D02*
X23186700Y-22336820D01*
X23186700Y-22306820D02*
X23156700Y-22336820D01*
X23156700Y-22787600D02*
X23186700Y-22817600D01*
X23186700Y-22787600D02*
X23156700Y-22817600D01*
X23156700Y-22978100D02*
X23186700Y-23008100D01*
X23186700Y-22978100D02*
X23156700Y-23008100D01*
X23156700Y-23359100D02*
X23186700Y-23389100D01*
X23186700Y-23359100D02*
X23156700Y-23389100D01*
X23207500Y-22559000D02*
X23237500Y-22589000D01*
X23237500Y-22559000D02*
X23207500Y-22589000D01*
X23215480Y-23041600D02*
X23245480Y-23071600D01*
X23245480Y-23041600D02*
X23215480Y-23071600D01*
X23220200Y-14761200D02*
X23250200Y-14791200D01*
X23250200Y-14761200D02*
X23220200Y-14791200D01*
X23220200Y-15142200D02*
X23250200Y-15172200D01*
X23250200Y-15142200D02*
X23220200Y-15172200D01*
X23220200Y-23230280D02*
X23250200Y-23260280D01*
X23250200Y-23230280D02*
X23220200Y-23260280D01*
X23220200Y-23295600D02*
X23250200Y-23325600D01*
X23250200Y-23295600D02*
X23220200Y-23325600D01*
X23271000Y-13973800D02*
X23301000Y-14003800D01*
X23301000Y-13973800D02*
X23271000Y-14003800D01*
X23271000Y-14481800D02*
X23301000Y-14511800D01*
X23301000Y-14481800D02*
X23271000Y-14511800D01*
X23271000Y-16412200D02*
X23301000Y-16442200D01*
X23301000Y-16412200D02*
X23271000Y-16442200D01*
X23309100Y-19384000D02*
X23339100Y-19414000D01*
X23339100Y-19384000D02*
X23309100Y-19414000D01*
X23321800Y-20336500D02*
X23351800Y-20366500D01*
X23351800Y-20336500D02*
X23321800Y-20366500D01*
X23321800Y-23409900D02*
X23351800Y-23439900D01*
X23351800Y-23409900D02*
X23321800Y-23439900D01*
X23408600Y-9960600D02*
X23438600Y-9990600D01*
X23438600Y-9960600D02*
X23408600Y-9990600D01*
X23423400Y-23697320D02*
X23453400Y-23727320D01*
X23453400Y-23697320D02*
X23423400Y-23727320D01*
X23463680Y-23168600D02*
X23493680Y-23198600D01*
X23493680Y-23168600D02*
X23463680Y-23198600D01*
X23499600Y-23651600D02*
X23529600Y-23681600D01*
X23529600Y-23651600D02*
X23499600Y-23681600D01*
X23509400Y-22520900D02*
X23539400Y-22550900D01*
X23539400Y-22520900D02*
X23509400Y-22550900D01*
X23525000Y-13186400D02*
X23555000Y-13216400D01*
X23555000Y-13186400D02*
X23525000Y-13216400D01*
X23525000Y-23232100D02*
X23555000Y-23262100D01*
X23555000Y-23232100D02*
X23525000Y-23262100D01*
X23550400Y-14913600D02*
X23580400Y-14943600D01*
X23580400Y-14913600D02*
X23550400Y-14943600D01*
X23555120Y-23079700D02*
X23585120Y-23109700D01*
X23585120Y-23079700D02*
X23555120Y-23109700D01*
X23574641Y-21389441D02*
X23604641Y-21419441D01*
X23604641Y-21389441D02*
X23574641Y-21419441D01*
X23575800Y-13389600D02*
X23605800Y-13419600D01*
X23605800Y-13389600D02*
X23575800Y-13419600D01*
X23575800Y-21466800D02*
X23605800Y-21496800D01*
X23605800Y-21466800D02*
X23575800Y-21496800D01*
X23576959Y-21544159D02*
X23606959Y-21574159D01*
X23606959Y-21544159D02*
X23576959Y-21574159D01*
X23578975Y-21628725D02*
X23608975Y-21658725D01*
X23608975Y-21628725D02*
X23578975Y-21658725D01*
X23588500Y-17263100D02*
X23618500Y-17293100D01*
X23618500Y-17263100D02*
X23588500Y-17293100D01*
X23588500Y-17644100D02*
X23618500Y-17674100D01*
X23618500Y-17644100D02*
X23588500Y-17674100D01*
X23588500Y-18533100D02*
X23618500Y-18563100D01*
X23618500Y-18533100D02*
X23588500Y-18563100D01*
X23588500Y-18914100D02*
X23618500Y-18944100D01*
X23618500Y-18914100D02*
X23588500Y-18944100D01*
X23601200Y-16488400D02*
X23631200Y-16518400D01*
X23631200Y-16488400D02*
X23601200Y-16518400D01*
X23601200Y-16626000D02*
X23631200Y-16656000D01*
X23631200Y-16626000D02*
X23601200Y-16656000D01*
X23601200Y-22520900D02*
X23631200Y-22550900D01*
X23631200Y-22520900D02*
X23601200Y-22550900D01*
X23677400Y-16488400D02*
X23707400Y-16518400D01*
X23707400Y-16488400D02*
X23677400Y-16518400D01*
X23702800Y-14685000D02*
X23732800Y-14715000D01*
X23732800Y-14685000D02*
X23702800Y-14715000D01*
X23702800Y-15142200D02*
X23732800Y-15172200D01*
X23732800Y-15142200D02*
X23702800Y-15172200D01*
X23702800Y-15370800D02*
X23732800Y-15400800D01*
X23732800Y-15370800D02*
X23702800Y-15400800D01*
X23747250Y-23651600D02*
X23777250Y-23681600D01*
X23777250Y-23651600D02*
X23747250Y-23681600D01*
X23779000Y-13643600D02*
X23809000Y-13673600D01*
X23809000Y-13643600D02*
X23779000Y-13673600D01*
X23817100Y-20450800D02*
X23847100Y-20480800D01*
X23847100Y-20450800D02*
X23817100Y-20480800D01*
X23817100Y-20516120D02*
X23847100Y-20546120D01*
X23847100Y-20516120D02*
X23817100Y-20546120D01*
X23869775Y-15624800D02*
X23899775Y-15654800D01*
X23899775Y-15624800D02*
X23869775Y-15654800D01*
X23906000Y-16183600D02*
X23936000Y-16213600D01*
X23936000Y-16183600D02*
X23906000Y-16213600D01*
X23906000Y-16767800D02*
X23936000Y-16797800D01*
X23936000Y-16767800D02*
X23906000Y-16797800D01*
X23982200Y-20603200D02*
X24012200Y-20633200D01*
X24012200Y-20603200D02*
X23982200Y-20633200D01*
X23985000Y-22985000D02*
X24015000Y-23015000D01*
X24015000Y-22985000D02*
X23985000Y-23015000D01*
X24031800Y-11433800D02*
X24061800Y-11463800D01*
X24061800Y-11433800D02*
X24031800Y-11463800D01*
X24033000Y-14685000D02*
X24063000Y-14715000D01*
X24063000Y-14685000D02*
X24033000Y-14715000D01*
X24033000Y-15066000D02*
X24063000Y-15096000D01*
X24063000Y-15066000D02*
X24033000Y-15096000D01*
X24109200Y-14837400D02*
X24139200Y-14867400D01*
X24139200Y-14837400D02*
X24109200Y-14867400D01*
X24109200Y-14989800D02*
X24139200Y-15019800D01*
X24139200Y-14989800D02*
X24109200Y-15019800D01*
X24109200Y-15142200D02*
X24139200Y-15172200D01*
X24139200Y-15142200D02*
X24109200Y-15172200D01*
X24109200Y-15497800D02*
X24139200Y-15527800D01*
X24139200Y-15497800D02*
X24109200Y-15527800D01*
X24160000Y-14481800D02*
X24190000Y-14511800D01*
X24190000Y-14481800D02*
X24160000Y-14511800D01*
X24160000Y-16488400D02*
X24190000Y-16518400D01*
X24190000Y-16488400D02*
X24160000Y-16518400D01*
X24210800Y-12043400D02*
X24240800Y-12073400D01*
X24240800Y-12043400D02*
X24210800Y-12073400D01*
X24236200Y-10113000D02*
X24266200Y-10143000D01*
X24266200Y-10113000D02*
X24236200Y-10143000D01*
X24236200Y-23605880D02*
X24266200Y-23635880D01*
X24266200Y-23605880D02*
X24236200Y-23635880D01*
X24337800Y-10113000D02*
X24367800Y-10143000D01*
X24367800Y-10113000D02*
X24337800Y-10143000D01*
X24414000Y-16259800D02*
X24444000Y-16289800D01*
X24444000Y-16259800D02*
X24414000Y-16289800D01*
X24414000Y-16590000D02*
X24444000Y-16620000D01*
X24444000Y-16590000D02*
X24414000Y-16620000D01*
X24439400Y-10113000D02*
X24469400Y-10143000D01*
X24469400Y-10113000D02*
X24439400Y-10143000D01*
X24439400Y-15370800D02*
X24469400Y-15400800D01*
X24469400Y-15370800D02*
X24439400Y-15400800D01*
X24485000Y-21485000D02*
X24515000Y-21515000D01*
X24515000Y-21485000D02*
X24485000Y-21515000D01*
X24485000Y-22985000D02*
X24515000Y-23015000D01*
X24515000Y-22985000D02*
X24485000Y-23015000D01*
X24490200Y-11916400D02*
X24520200Y-11946400D01*
X24520200Y-11916400D02*
X24490200Y-11946400D01*
X24566400Y-19460200D02*
X24596400Y-19490200D01*
X24596400Y-19460200D02*
X24566400Y-19490200D01*
X24566400Y-22432000D02*
X24596400Y-22462000D01*
X24596400Y-22432000D02*
X24566400Y-22462000D01*
X24591800Y-12602200D02*
X24621800Y-12632200D01*
X24621800Y-12602200D02*
X24591800Y-12632200D01*
X24604500Y-14761200D02*
X24634500Y-14791200D01*
X24634500Y-14761200D02*
X24604500Y-14791200D01*
X24668000Y-16488400D02*
X24698000Y-16518400D01*
X24698000Y-16488400D02*
X24668000Y-16518400D01*
X24668000Y-19384000D02*
X24698000Y-19414000D01*
X24698000Y-19384000D02*
X24668000Y-19414000D01*
X24693400Y-13694400D02*
X24723400Y-13724400D01*
X24723400Y-13694400D02*
X24693400Y-13724400D01*
X24744200Y-19168100D02*
X24774200Y-19198100D01*
X24774200Y-19168100D02*
X24744200Y-19198100D01*
X24758775Y-15624800D02*
X24788775Y-15654800D01*
X24788775Y-15624800D02*
X24758775Y-15654800D01*
X24820400Y-19295100D02*
X24850400Y-19325100D01*
X24850400Y-19295100D02*
X24820400Y-19325100D01*
X24896600Y-9655800D02*
X24926600Y-9685800D01*
X24926600Y-9655800D02*
X24896600Y-9685800D01*
X24896600Y-10113000D02*
X24926600Y-10143000D01*
X24926600Y-10113000D02*
X24896600Y-10143000D01*
X24896600Y-17263100D02*
X24926600Y-17293100D01*
X24926600Y-17263100D02*
X24896600Y-17293100D01*
X24909300Y-14913600D02*
X24939300Y-14943600D01*
X24939300Y-14913600D02*
X24909300Y-14943600D01*
X24909300Y-18533100D02*
X24939300Y-18563100D01*
X24939300Y-18533100D02*
X24909300Y-18563100D01*
X24922000Y-12335500D02*
X24952000Y-12365500D01*
X24952000Y-12335500D02*
X24922000Y-12365500D01*
X24922000Y-16336000D02*
X24952000Y-16366000D01*
X24952000Y-16336000D02*
X24922000Y-16366000D01*
X24922000Y-16678900D02*
X24952000Y-16708900D01*
X24952000Y-16678900D02*
X24922000Y-16708900D01*
X24985000Y-8485000D02*
X25015000Y-8515000D01*
X25015000Y-8485000D02*
X24985000Y-8515000D01*
X24985000Y-8985000D02*
X25015000Y-9015000D01*
X25015000Y-8985000D02*
X24985000Y-9015000D01*
X24985000Y-10485000D02*
X25015000Y-10515000D01*
X25015000Y-10485000D02*
X24985000Y-10515000D01*
X24985000Y-10885000D02*
X25015000Y-10915000D01*
X25015000Y-10885000D02*
X24985000Y-10915000D01*
X24985000Y-13985000D02*
X25015000Y-14015000D01*
X25015000Y-13985000D02*
X24985000Y-14015000D01*
X24985000Y-23485000D02*
X25015000Y-23515000D01*
X25015000Y-23485000D02*
X24985000Y-23515000D01*
X24998200Y-9655800D02*
X25028200Y-9685800D01*
X25028200Y-9655800D02*
X24998200Y-9685800D01*
X24998200Y-10113000D02*
X25028200Y-10143000D01*
X25028200Y-10113000D02*
X24998200Y-10143000D01*
X25049000Y-18025100D02*
X25079000Y-18055100D01*
X25079000Y-18025100D02*
X25049000Y-18055100D01*
X25074400Y-11179800D02*
X25104400Y-11209800D01*
X25104400Y-11179800D02*
X25074400Y-11209800D01*
X25074400Y-11586200D02*
X25104400Y-11616200D01*
X25104400Y-11586200D02*
X25074400Y-11616200D01*
X25074400Y-12335500D02*
X25104400Y-12365500D01*
X25104400Y-12335500D02*
X25074400Y-12365500D01*
X25074400Y-14481800D02*
X25104400Y-14511800D01*
X25104400Y-14481800D02*
X25074400Y-14511800D01*
X25074400Y-15320000D02*
X25104400Y-15350000D01*
X25104400Y-15320000D02*
X25074400Y-15350000D01*
X25099800Y-9655800D02*
X25129800Y-9685800D01*
X25129800Y-9655800D02*
X25099800Y-9685800D01*
X25099800Y-10113000D02*
X25129800Y-10143000D01*
X25129800Y-10113000D02*
X25099800Y-10143000D01*
X25103600Y-18368000D02*
X25133600Y-18398000D01*
X25133600Y-18368000D02*
X25103600Y-18398000D01*
X25103600Y-20336500D02*
X25133600Y-20366500D01*
X25133600Y-20336500D02*
X25103600Y-20366500D01*
X25125200Y-16488400D02*
X25155200Y-16518400D01*
X25155200Y-16488400D02*
X25125200Y-16518400D01*
X25125200Y-17898100D02*
X25155200Y-17928100D01*
X25155200Y-17898100D02*
X25125200Y-17928100D01*
D12*
X18380413Y-10345000D02*
G75*
G02*
X18270413Y-10345000I-55000J0D01*
G01*
X18270413Y-10345000D02*
G75*
G02*
X18380413Y-10345000I55000J0D01*
G01*
X18634413Y-10345000D02*
G75*
G02*
X18524413Y-10345000I-55000J0D01*
G01*
X18524413Y-10345000D02*
G75*
G02*
X18634413Y-10345000I55000J0D01*
G01*
X18888413Y-10345000D02*
G75*
G02*
X18778413Y-10345000I-55000J0D01*
G01*
X18778413Y-10345000D02*
G75*
G02*
X18888413Y-10345000I55000J0D01*
G01*
X23224600Y-10344500D02*
G75*
G02*
X23114600Y-10344500I-55000J0D01*
G01*
X23114600Y-10344500D02*
G75*
G02*
X23224600Y-10344500I55000J0D01*
G01*
X23478600Y-10344500D02*
G75*
G02*
X23368600Y-10344500I-55000J0D01*
G01*
X23368600Y-10344500D02*
G75*
G02*
X23478600Y-10344500I55000J0D01*
G01*
X23732600Y-10344500D02*
G75*
G02*
X23622600Y-10344500I-55000J0D01*
G01*
X23622600Y-10344500D02*
G75*
G02*
X23732600Y-10344500I55000J0D01*
G01*
D13*
X16630000Y-3026750D02*
X16630000Y-3166750D01*
X16560000Y-3096750D02*
X16700000Y-3096750D01*
X16630000Y-3896750D02*
X16630000Y-4036750D01*
X16560000Y-3966750D02*
X16700000Y-3966750D01*
X17138000Y-3026750D02*
X17138000Y-3166750D01*
X17068000Y-3096750D02*
X17208000Y-3096750D01*
X17138000Y-3896750D02*
X17138000Y-4036750D01*
X17068000Y-3966750D02*
X17208000Y-3966750D01*
X17646000Y-3026750D02*
X17646000Y-3166750D01*
X17576000Y-3096750D02*
X17716000Y-3096750D01*
X17646000Y-3896750D02*
X17646000Y-4036750D01*
X17576000Y-3966750D02*
X17716000Y-3966750D01*
X18154000Y-3026750D02*
X18154000Y-3166750D01*
X18084000Y-3096750D02*
X18224000Y-3096750D01*
X18154000Y-3896750D02*
X18154000Y-4036750D01*
X18084000Y-3966750D02*
X18224000Y-3966750D01*
X18662000Y-3026750D02*
X18662000Y-3166750D01*
X18592000Y-3096750D02*
X18732000Y-3096750D01*
X18662000Y-3896750D02*
X18662000Y-4036750D01*
X18592000Y-3966750D02*
X18732000Y-3966750D01*
X18764750Y-4760000D02*
X18764750Y-4900000D01*
X18694750Y-4830000D02*
X18834750Y-4830000D01*
X18764750Y-5268000D02*
X18764750Y-5408000D01*
X18694750Y-5338000D02*
X18834750Y-5338000D01*
X18764750Y-5776000D02*
X18764750Y-5916000D01*
X18694750Y-5846000D02*
X18834750Y-5846000D01*
X18764750Y-6284000D02*
X18764750Y-6424000D01*
X18694750Y-6354000D02*
X18834750Y-6354000D01*
X18764750Y-6792000D02*
X18764750Y-6932000D01*
X18694750Y-6862000D02*
X18834750Y-6862000D01*
X18764750Y-7300000D02*
X18764750Y-7440000D01*
X18694750Y-7370000D02*
X18834750Y-7370000D01*
X19170000Y-3026750D02*
X19170000Y-3166750D01*
X19100000Y-3096750D02*
X19240000Y-3096750D01*
X19170000Y-3896750D02*
X19170000Y-4036750D01*
X19100000Y-3966750D02*
X19240000Y-3966750D01*
X19634750Y-4760000D02*
X19634750Y-4900000D01*
X19564750Y-4830000D02*
X19704750Y-4830000D01*
X19634750Y-5268000D02*
X19634750Y-5408000D01*
X19564750Y-5338000D02*
X19704750Y-5338000D01*
X19634750Y-5776000D02*
X19634750Y-5916000D01*
X19564750Y-5846000D02*
X19704750Y-5846000D01*
X19634750Y-6284000D02*
X19634750Y-6424000D01*
X19564750Y-6354000D02*
X19704750Y-6354000D01*
X19634750Y-6792000D02*
X19634750Y-6932000D01*
X19564750Y-6862000D02*
X19704750Y-6862000D01*
X19634750Y-7300000D02*
X19634750Y-7440000D01*
X19564750Y-7370000D02*
X19704750Y-7370000D01*
X19875000Y-2690000D02*
X19875000Y-2830000D01*
X19805000Y-2760000D02*
X19945000Y-2760000D01*
X19875000Y-3040000D02*
X19875000Y-3180000D01*
X19805000Y-3110000D02*
X19945000Y-3110000D01*
X19875000Y-3620000D02*
X19875000Y-3760000D01*
X19805000Y-3690000D02*
X19945000Y-3690000D01*
X19875000Y-3970000D02*
X19875000Y-4110000D01*
X19805000Y-4040000D02*
X19945000Y-4040000D01*
X20125000Y-2690000D02*
X20125000Y-2830000D01*
X20055000Y-2760000D02*
X20195000Y-2760000D01*
X20125000Y-3040000D02*
X20125000Y-3180000D01*
X20055000Y-3110000D02*
X20195000Y-3110000D01*
X20125000Y-3620000D02*
X20125000Y-3760000D01*
X20055000Y-3690000D02*
X20195000Y-3690000D01*
X20125000Y-3970000D02*
X20125000Y-4110000D01*
X20055000Y-4040000D02*
X20195000Y-4040000D01*
X20746000Y-3026750D02*
X20746000Y-3166750D01*
X20676000Y-3096750D02*
X20816000Y-3096750D01*
X20746000Y-3896750D02*
X20746000Y-4036750D01*
X20676000Y-3966750D02*
X20816000Y-3966750D01*
X21254000Y-3026750D02*
X21254000Y-3166750D01*
X21184000Y-3096750D02*
X21324000Y-3096750D01*
X21254000Y-3896750D02*
X21254000Y-4036750D01*
X21184000Y-3966750D02*
X21324000Y-3966750D01*
X21975000Y-2690000D02*
X21975000Y-2830000D01*
X21905000Y-2760000D02*
X22045000Y-2760000D01*
X21975000Y-3040000D02*
X21975000Y-3180000D01*
X21905000Y-3110000D02*
X22045000Y-3110000D01*
X21975000Y-3620000D02*
X21975000Y-3760000D01*
X21905000Y-3690000D02*
X22045000Y-3690000D01*
X21975000Y-3970000D02*
X21975000Y-4110000D01*
X21905000Y-4040000D02*
X22045000Y-4040000D01*
X22225000Y-2690000D02*
X22225000Y-2830000D01*
X22155000Y-2760000D02*
X22295000Y-2760000D01*
X22225000Y-3040000D02*
X22225000Y-3180000D01*
X22155000Y-3110000D02*
X22295000Y-3110000D01*
X22225000Y-3620000D02*
X22225000Y-3760000D01*
X22155000Y-3690000D02*
X22295000Y-3690000D01*
X22225000Y-3970000D02*
X22225000Y-4110000D01*
X22155000Y-4040000D02*
X22295000Y-4040000D01*
X22365250Y-4760000D02*
X22365250Y-4900000D01*
X22295250Y-4830000D02*
X22435250Y-4830000D01*
X22365250Y-5268000D02*
X22365250Y-5408000D01*
X22295250Y-5338000D02*
X22435250Y-5338000D01*
X22365250Y-5776000D02*
X22365250Y-5916000D01*
X22295250Y-5846000D02*
X22435250Y-5846000D01*
X22365250Y-6284000D02*
X22365250Y-6424000D01*
X22295250Y-6354000D02*
X22435250Y-6354000D01*
X22365250Y-6792000D02*
X22365250Y-6932000D01*
X22295250Y-6862000D02*
X22435250Y-6862000D01*
X22365250Y-7300000D02*
X22365250Y-7440000D01*
X22295250Y-7370000D02*
X22435250Y-7370000D01*
X22846000Y-3026750D02*
X22846000Y-3166750D01*
X22776000Y-3096750D02*
X22916000Y-3096750D01*
X22846000Y-3896750D02*
X22846000Y-4036750D01*
X22776000Y-3966750D02*
X22916000Y-3966750D01*
X23235250Y-4760000D02*
X23235250Y-4900000D01*
X23165250Y-4830000D02*
X23305250Y-4830000D01*
X23235250Y-5268000D02*
X23235250Y-5408000D01*
X23165250Y-5338000D02*
X23305250Y-5338000D01*
X23235250Y-5776000D02*
X23235250Y-5916000D01*
X23165250Y-5846000D02*
X23305250Y-5846000D01*
X23235250Y-6284000D02*
X23235250Y-6424000D01*
X23165250Y-6354000D02*
X23305250Y-6354000D01*
X23235250Y-6792000D02*
X23235250Y-6932000D01*
X23165250Y-6862000D02*
X23305250Y-6862000D01*
X23235250Y-7300000D02*
X23235250Y-7440000D01*
X23165250Y-7370000D02*
X23305250Y-7370000D01*
X23354000Y-3026750D02*
X23354000Y-3166750D01*
X23284000Y-3096750D02*
X23424000Y-3096750D01*
X23354000Y-3896750D02*
X23354000Y-4036750D01*
X23284000Y-3966750D02*
X23424000Y-3966750D01*
X23975000Y-2690000D02*
X23975000Y-2830000D01*
X23905000Y-2760000D02*
X24045000Y-2760000D01*
X23975000Y-3040000D02*
X23975000Y-3180000D01*
X23905000Y-3110000D02*
X24045000Y-3110000D01*
X23975000Y-3620000D02*
X23975000Y-3760000D01*
X23905000Y-3690000D02*
X24045000Y-3690000D01*
X23975000Y-3970000D02*
X23975000Y-4110000D01*
X23905000Y-4040000D02*
X24045000Y-4040000D01*
X24225000Y-2690000D02*
X24225000Y-2830000D01*
X24155000Y-2760000D02*
X24295000Y-2760000D01*
X24225000Y-3040000D02*
X24225000Y-3180000D01*
X24155000Y-3110000D02*
X24295000Y-3110000D01*
X24225000Y-3620000D02*
X24225000Y-3760000D01*
X24155000Y-3690000D02*
X24295000Y-3690000D01*
X24225000Y-3970000D02*
X24225000Y-4110000D01*
X24155000Y-4040000D02*
X24295000Y-4040000D01*
X24846000Y-3026750D02*
X24846000Y-3166750D01*
X24776000Y-3096750D02*
X24916000Y-3096750D01*
X24846000Y-3896750D02*
X24846000Y-4036750D01*
X24776000Y-3966750D02*
X24916000Y-3966750D01*
X25354000Y-3026750D02*
X25354000Y-3166750D01*
X25284000Y-3096750D02*
X25424000Y-3096750D01*
X25354000Y-3896750D02*
X25354000Y-4036750D01*
X25284000Y-3966750D02*
X25424000Y-3966750D01*
D14*
X17428447Y-11013534D02*
X17428447Y-10907467D01*
X17322380Y-10907467D01*
X17322380Y-11013534D01*
X17428447Y-11013534D01*
D10*
X17300413Y-10858000D02*
X17300413Y-11063000D01*
X17450413Y-11063000D02*
G75*
G02*
X17300413Y-11063000I-75000J0D01*
G01*
X17450413Y-11063000D02*
X17450413Y-10858000D01*
X17450413Y-10858000D02*
G75*
G03*
X17300413Y-10858000I-75000J0D01*
G01*
D14*
X19836447Y-11013534D02*
X19836447Y-10907467D01*
X19730380Y-10907467D01*
X19730380Y-11013534D01*
X19836447Y-11013534D01*
D10*
X19708413Y-10858000D02*
X19708413Y-11063000D01*
X19858413Y-11063000D02*
G75*
G02*
X19708413Y-11063000I-75000J0D01*
G01*
X19858413Y-11063000D02*
X19858413Y-10858000D01*
X19858413Y-10858000D02*
G75*
G03*
X19708413Y-10858000I-75000J0D01*
G01*
D14*
X22272634Y-11013534D02*
X22272634Y-10907467D01*
X22166567Y-10907467D01*
X22166567Y-11013534D01*
X22272634Y-11013534D01*
D10*
X22144600Y-10858000D02*
X22144600Y-11063000D01*
X22294600Y-11063000D02*
G75*
G02*
X22144600Y-11063000I-75000J0D01*
G01*
X22294600Y-11063000D02*
X22294600Y-10858000D01*
X22294600Y-10858000D02*
G75*
G03*
X22144600Y-10858000I-75000J0D01*
G01*
D14*
X24680633Y-11013534D02*
X24680633Y-10907467D01*
X24574566Y-10907467D01*
X24574566Y-11013534D01*
X24680633Y-11013534D01*
D10*
X24552600Y-10858000D02*
X24552600Y-11063000D01*
X24702600Y-11063000D02*
G75*
G02*
X24552600Y-11063000I-75000J0D01*
G01*
X24702600Y-11063000D02*
X24702600Y-10858000D01*
X24702600Y-10858000D02*
G75*
G03*
X24552600Y-10858000I-75000J0D01*
G01*
D15*
X21844750Y-4940000D02*
X21934750Y-4850000D01*
X21844750Y-4760000D01*
X21754750Y-4850000D01*
X21844750Y-4940000D01*
X21844750Y-7140000D02*
X21934750Y-7050000D01*
X21844750Y-6960000D01*
X21754750Y-7050000D01*
X21844750Y-7140000D01*
D11*
X20544750Y-4570000D02*
X20744750Y-4770000D01*
X20744750Y-4570000D02*
X20544750Y-4770000D01*
X20744750Y-4670000D02*
G75*
G02*
X20544750Y-4670000I-100000J0D01*
G01*
X20544750Y-4670000D02*
G75*
G02*
X20744750Y-4670000I100000J0D01*
G01*
X20544750Y-7330000D02*
X20744750Y-7530000D01*
X20744750Y-7330000D02*
X20544750Y-7530000D01*
X20744750Y-7430000D02*
G75*
G02*
X20544750Y-7430000I-100000J0D01*
G01*
X20544750Y-7430000D02*
G75*
G02*
X20744750Y-7430000I100000J0D01*
G01*
X16255777Y-24316484D02*
X16255777Y-24116484D01*
X16255777Y-24116484D02*
X16303396Y-24116484D01*
X16303396Y-24116484D02*
X16331967Y-24126008D01*
X16331967Y-24126008D02*
X16351015Y-24145055D01*
X16351015Y-24145055D02*
X16360539Y-24164103D01*
X16360539Y-24164103D02*
X16370062Y-24202198D01*
X16370062Y-24202198D02*
X16370062Y-24230769D01*
X16370062Y-24230769D02*
X16360539Y-24268865D01*
X16360539Y-24268865D02*
X16351015Y-24287912D01*
X16351015Y-24287912D02*
X16331967Y-24306960D01*
X16331967Y-24306960D02*
X16303396Y-24316484D01*
X16303396Y-24316484D02*
X16255777Y-24316484D01*
X16455777Y-24316484D02*
X16455777Y-24183150D01*
X16455777Y-24221246D02*
X16465301Y-24202198D01*
X16465301Y-24202198D02*
X16474824Y-24192674D01*
X16474824Y-24192674D02*
X16493872Y-24183150D01*
X16493872Y-24183150D02*
X16512920Y-24183150D01*
X16579586Y-24316484D02*
X16579586Y-24183150D01*
X16579586Y-24116484D02*
X16570062Y-24126008D01*
X16570062Y-24126008D02*
X16579586Y-24135531D01*
X16579586Y-24135531D02*
X16589110Y-24126008D01*
X16589110Y-24126008D02*
X16579586Y-24116484D01*
X16579586Y-24116484D02*
X16579586Y-24135531D01*
X16703396Y-24316484D02*
X16684348Y-24306960D01*
X16684348Y-24306960D02*
X16674824Y-24287912D01*
X16674824Y-24287912D02*
X16674824Y-24116484D01*
X16808158Y-24316484D02*
X16789110Y-24306960D01*
X16789110Y-24306960D02*
X16779586Y-24287912D01*
X16779586Y-24287912D02*
X16779586Y-24116484D01*
X17036729Y-24316484D02*
X17036729Y-24116484D01*
X17036729Y-24116484D02*
X17103396Y-24259341D01*
X17103396Y-24259341D02*
X17170063Y-24116484D01*
X17170063Y-24116484D02*
X17170063Y-24316484D01*
X17351015Y-24316484D02*
X17351015Y-24211722D01*
X17351015Y-24211722D02*
X17341491Y-24192674D01*
X17341491Y-24192674D02*
X17322444Y-24183150D01*
X17322444Y-24183150D02*
X17284348Y-24183150D01*
X17284348Y-24183150D02*
X17265301Y-24192674D01*
X17351015Y-24306960D02*
X17331967Y-24316484D01*
X17331967Y-24316484D02*
X17284348Y-24316484D01*
X17284348Y-24316484D02*
X17265301Y-24306960D01*
X17265301Y-24306960D02*
X17255777Y-24287912D01*
X17255777Y-24287912D02*
X17255777Y-24268865D01*
X17255777Y-24268865D02*
X17265301Y-24249817D01*
X17265301Y-24249817D02*
X17284348Y-24240293D01*
X17284348Y-24240293D02*
X17331967Y-24240293D01*
X17331967Y-24240293D02*
X17351015Y-24230769D01*
X17446253Y-24183150D02*
X17446253Y-24383150D01*
X17446253Y-24192674D02*
X17465301Y-24183150D01*
X17465301Y-24183150D02*
X17503396Y-24183150D01*
X17503396Y-24183150D02*
X17522444Y-24192674D01*
X17522444Y-24192674D02*
X17531967Y-24202198D01*
X17531967Y-24202198D02*
X17541491Y-24221246D01*
X17541491Y-24221246D02*
X17541491Y-24278388D01*
X17541491Y-24278388D02*
X17531967Y-24297436D01*
X17531967Y-24297436D02*
X17522444Y-24306960D01*
X17522444Y-24306960D02*
X17503396Y-24316484D01*
X17503396Y-24316484D02*
X17465301Y-24316484D01*
X17465301Y-24316484D02*
X17446253Y-24306960D01*
X17627205Y-24297436D02*
X17636729Y-24306960D01*
X17636729Y-24306960D02*
X17627205Y-24316484D01*
X17627205Y-24316484D02*
X17617682Y-24306960D01*
X17617682Y-24306960D02*
X17627205Y-24297436D01*
X17627205Y-24297436D02*
X17627205Y-24316484D01*
X17627205Y-24192674D02*
X17636729Y-24202198D01*
X17636729Y-24202198D02*
X17627205Y-24211722D01*
X17627205Y-24211722D02*
X17617682Y-24202198D01*
X17617682Y-24202198D02*
X17627205Y-24192674D01*
X17627205Y-24192674D02*
X17627205Y-24211722D01*
D10*
X15965000Y-24630000D02*
X15995000Y-24660000D01*
X15995000Y-24630000D02*
X15965000Y-24660000D01*
D11*
X16293872Y-24536484D02*
X16312920Y-24536484D01*
X16312920Y-24536484D02*
X16331967Y-24546008D01*
X16331967Y-24546008D02*
X16341491Y-24555531D01*
X16341491Y-24555531D02*
X16351015Y-24574579D01*
X16351015Y-24574579D02*
X16360539Y-24612674D01*
X16360539Y-24612674D02*
X16360539Y-24660293D01*
X16360539Y-24660293D02*
X16351015Y-24698388D01*
X16351015Y-24698388D02*
X16341491Y-24717436D01*
X16341491Y-24717436D02*
X16331967Y-24726960D01*
X16331967Y-24726960D02*
X16312920Y-24736484D01*
X16312920Y-24736484D02*
X16293872Y-24736484D01*
X16293872Y-24736484D02*
X16274824Y-24726960D01*
X16274824Y-24726960D02*
X16265301Y-24717436D01*
X16265301Y-24717436D02*
X16255777Y-24698388D01*
X16255777Y-24698388D02*
X16246253Y-24660293D01*
X16246253Y-24660293D02*
X16246253Y-24612674D01*
X16246253Y-24612674D02*
X16255777Y-24574579D01*
X16255777Y-24574579D02*
X16265301Y-24555531D01*
X16265301Y-24555531D02*
X16274824Y-24546008D01*
X16274824Y-24546008D02*
X16293872Y-24536484D01*
X16446253Y-24717436D02*
X16455777Y-24726960D01*
X16455777Y-24726960D02*
X16446253Y-24736484D01*
X16446253Y-24736484D02*
X16436729Y-24726960D01*
X16436729Y-24726960D02*
X16446253Y-24717436D01*
X16446253Y-24717436D02*
X16446253Y-24736484D01*
X16522443Y-24536484D02*
X16646253Y-24536484D01*
X16646253Y-24536484D02*
X16579586Y-24612674D01*
X16579586Y-24612674D02*
X16608158Y-24612674D01*
X16608158Y-24612674D02*
X16627205Y-24622198D01*
X16627205Y-24622198D02*
X16636729Y-24631722D01*
X16636729Y-24631722D02*
X16646253Y-24650769D01*
X16646253Y-24650769D02*
X16646253Y-24698388D01*
X16646253Y-24698388D02*
X16636729Y-24717436D01*
X16636729Y-24717436D02*
X16627205Y-24726960D01*
X16627205Y-24726960D02*
X16608158Y-24736484D01*
X16608158Y-24736484D02*
X16551015Y-24736484D01*
X16551015Y-24736484D02*
X16531967Y-24726960D01*
X16531967Y-24726960D02*
X16522443Y-24717436D01*
X16770062Y-24536484D02*
X16789110Y-24536484D01*
X16789110Y-24536484D02*
X16808158Y-24546008D01*
X16808158Y-24546008D02*
X16817682Y-24555531D01*
X16817682Y-24555531D02*
X16827205Y-24574579D01*
X16827205Y-24574579D02*
X16836729Y-24612674D01*
X16836729Y-24612674D02*
X16836729Y-24660293D01*
X16836729Y-24660293D02*
X16827205Y-24698388D01*
X16827205Y-24698388D02*
X16817682Y-24717436D01*
X16817682Y-24717436D02*
X16808158Y-24726960D01*
X16808158Y-24726960D02*
X16789110Y-24736484D01*
X16789110Y-24736484D02*
X16770062Y-24736484D01*
X16770062Y-24736484D02*
X16751015Y-24726960D01*
X16751015Y-24726960D02*
X16741491Y-24717436D01*
X16741491Y-24717436D02*
X16731967Y-24698388D01*
X16731967Y-24698388D02*
X16722443Y-24660293D01*
X16722443Y-24660293D02*
X16722443Y-24612674D01*
X16722443Y-24612674D02*
X16731967Y-24574579D01*
X16731967Y-24574579D02*
X16741491Y-24555531D01*
X16741491Y-24555531D02*
X16751015Y-24546008D01*
X16751015Y-24546008D02*
X16770062Y-24536484D01*
X16960539Y-24536484D02*
X16979586Y-24536484D01*
X16979586Y-24536484D02*
X16998634Y-24546008D01*
X16998634Y-24546008D02*
X17008158Y-24555531D01*
X17008158Y-24555531D02*
X17017682Y-24574579D01*
X17017682Y-24574579D02*
X17027205Y-24612674D01*
X17027205Y-24612674D02*
X17027205Y-24660293D01*
X17027205Y-24660293D02*
X17017682Y-24698388D01*
X17017682Y-24698388D02*
X17008158Y-24717436D01*
X17008158Y-24717436D02*
X16998634Y-24726960D01*
X16998634Y-24726960D02*
X16979586Y-24736484D01*
X16979586Y-24736484D02*
X16960539Y-24736484D01*
X16960539Y-24736484D02*
X16941491Y-24726960D01*
X16941491Y-24726960D02*
X16931967Y-24717436D01*
X16931967Y-24717436D02*
X16922444Y-24698388D01*
X16922444Y-24698388D02*
X16912920Y-24660293D01*
X16912920Y-24660293D02*
X16912920Y-24612674D01*
X16912920Y-24612674D02*
X16922444Y-24574579D01*
X16922444Y-24574579D02*
X16931967Y-24555531D01*
X16931967Y-24555531D02*
X16941491Y-24546008D01*
X16941491Y-24546008D02*
X16960539Y-24536484D01*
X17112920Y-24736484D02*
X17112920Y-24603150D01*
X17112920Y-24622198D02*
X17122444Y-24612674D01*
X17122444Y-24612674D02*
X17141491Y-24603150D01*
X17141491Y-24603150D02*
X17170063Y-24603150D01*
X17170063Y-24603150D02*
X17189110Y-24612674D01*
X17189110Y-24612674D02*
X17198634Y-24631722D01*
X17198634Y-24631722D02*
X17198634Y-24736484D01*
X17198634Y-24631722D02*
X17208158Y-24612674D01*
X17208158Y-24612674D02*
X17227205Y-24603150D01*
X17227205Y-24603150D02*
X17255777Y-24603150D01*
X17255777Y-24603150D02*
X17274825Y-24612674D01*
X17274825Y-24612674D02*
X17284348Y-24631722D01*
X17284348Y-24631722D02*
X17284348Y-24736484D01*
X17379586Y-24736484D02*
X17379586Y-24603150D01*
X17379586Y-24622198D02*
X17389110Y-24612674D01*
X17389110Y-24612674D02*
X17408158Y-24603150D01*
X17408158Y-24603150D02*
X17436729Y-24603150D01*
X17436729Y-24603150D02*
X17455777Y-24612674D01*
X17455777Y-24612674D02*
X17465301Y-24631722D01*
X17465301Y-24631722D02*
X17465301Y-24736484D01*
X17465301Y-24631722D02*
X17474825Y-24612674D01*
X17474825Y-24612674D02*
X17493872Y-24603150D01*
X17493872Y-24603150D02*
X17522444Y-24603150D01*
X17522444Y-24603150D02*
X17541491Y-24612674D01*
X17541491Y-24612674D02*
X17551015Y-24631722D01*
X17551015Y-24631722D02*
X17551015Y-24736484D01*
X17941491Y-24526960D02*
X17770063Y-24784103D01*
X18198634Y-24536484D02*
X18217682Y-24536484D01*
X18217682Y-24536484D02*
X18236729Y-24546008D01*
X18236729Y-24546008D02*
X18246253Y-24555531D01*
X18246253Y-24555531D02*
X18255777Y-24574579D01*
X18255777Y-24574579D02*
X18265301Y-24612674D01*
X18265301Y-24612674D02*
X18265301Y-24660293D01*
X18265301Y-24660293D02*
X18255777Y-24698388D01*
X18255777Y-24698388D02*
X18246253Y-24717436D01*
X18246253Y-24717436D02*
X18236729Y-24726960D01*
X18236729Y-24726960D02*
X18217682Y-24736484D01*
X18217682Y-24736484D02*
X18198634Y-24736484D01*
X18198634Y-24736484D02*
X18179587Y-24726960D01*
X18179587Y-24726960D02*
X18170063Y-24717436D01*
X18170063Y-24717436D02*
X18160539Y-24698388D01*
X18160539Y-24698388D02*
X18151015Y-24660293D01*
X18151015Y-24660293D02*
X18151015Y-24612674D01*
X18151015Y-24612674D02*
X18160539Y-24574579D01*
X18160539Y-24574579D02*
X18170063Y-24555531D01*
X18170063Y-24555531D02*
X18179587Y-24546008D01*
X18179587Y-24546008D02*
X18198634Y-24536484D01*
X18351015Y-24717436D02*
X18360539Y-24726960D01*
X18360539Y-24726960D02*
X18351015Y-24736484D01*
X18351015Y-24736484D02*
X18341491Y-24726960D01*
X18341491Y-24726960D02*
X18351015Y-24717436D01*
X18351015Y-24717436D02*
X18351015Y-24736484D01*
X18484348Y-24536484D02*
X18503396Y-24536484D01*
X18503396Y-24536484D02*
X18522444Y-24546008D01*
X18522444Y-24546008D02*
X18531968Y-24555531D01*
X18531968Y-24555531D02*
X18541491Y-24574579D01*
X18541491Y-24574579D02*
X18551015Y-24612674D01*
X18551015Y-24612674D02*
X18551015Y-24660293D01*
X18551015Y-24660293D02*
X18541491Y-24698388D01*
X18541491Y-24698388D02*
X18531968Y-24717436D01*
X18531968Y-24717436D02*
X18522444Y-24726960D01*
X18522444Y-24726960D02*
X18503396Y-24736484D01*
X18503396Y-24736484D02*
X18484348Y-24736484D01*
X18484348Y-24736484D02*
X18465301Y-24726960D01*
X18465301Y-24726960D02*
X18455777Y-24717436D01*
X18455777Y-24717436D02*
X18446253Y-24698388D01*
X18446253Y-24698388D02*
X18436729Y-24660293D01*
X18436729Y-24660293D02*
X18436729Y-24612674D01*
X18436729Y-24612674D02*
X18446253Y-24574579D01*
X18446253Y-24574579D02*
X18455777Y-24555531D01*
X18455777Y-24555531D02*
X18465301Y-24546008D01*
X18465301Y-24546008D02*
X18484348Y-24536484D01*
X18741491Y-24736484D02*
X18627206Y-24736484D01*
X18684348Y-24736484D02*
X18684348Y-24536484D01*
X18684348Y-24536484D02*
X18665301Y-24565055D01*
X18665301Y-24565055D02*
X18646253Y-24584103D01*
X18646253Y-24584103D02*
X18627206Y-24593627D01*
X18931968Y-24736484D02*
X18817682Y-24736484D01*
X18874825Y-24736484D02*
X18874825Y-24536484D01*
X18874825Y-24536484D02*
X18855777Y-24565055D01*
X18855777Y-24565055D02*
X18836729Y-24584103D01*
X18836729Y-24584103D02*
X18817682Y-24593627D01*
X19046253Y-24622198D02*
X19027206Y-24612674D01*
X19027206Y-24612674D02*
X19017682Y-24603150D01*
X19017682Y-24603150D02*
X19008158Y-24584103D01*
X19008158Y-24584103D02*
X19008158Y-24574579D01*
X19008158Y-24574579D02*
X19017682Y-24555531D01*
X19017682Y-24555531D02*
X19027206Y-24546008D01*
X19027206Y-24546008D02*
X19046253Y-24536484D01*
X19046253Y-24536484D02*
X19084349Y-24536484D01*
X19084349Y-24536484D02*
X19103396Y-24546008D01*
X19103396Y-24546008D02*
X19112920Y-24555531D01*
X19112920Y-24555531D02*
X19122444Y-24574579D01*
X19122444Y-24574579D02*
X19122444Y-24584103D01*
X19122444Y-24584103D02*
X19112920Y-24603150D01*
X19112920Y-24603150D02*
X19103396Y-24612674D01*
X19103396Y-24612674D02*
X19084349Y-24622198D01*
X19084349Y-24622198D02*
X19046253Y-24622198D01*
X19046253Y-24622198D02*
X19027206Y-24631722D01*
X19027206Y-24631722D02*
X19017682Y-24641246D01*
X19017682Y-24641246D02*
X19008158Y-24660293D01*
X19008158Y-24660293D02*
X19008158Y-24698388D01*
X19008158Y-24698388D02*
X19017682Y-24717436D01*
X19017682Y-24717436D02*
X19027206Y-24726960D01*
X19027206Y-24726960D02*
X19046253Y-24736484D01*
X19046253Y-24736484D02*
X19084349Y-24736484D01*
X19084349Y-24736484D02*
X19103396Y-24726960D01*
X19103396Y-24726960D02*
X19112920Y-24717436D01*
X19112920Y-24717436D02*
X19122444Y-24698388D01*
X19122444Y-24698388D02*
X19122444Y-24660293D01*
X19122444Y-24660293D02*
X19112920Y-24641246D01*
X19112920Y-24641246D02*
X19103396Y-24631722D01*
X19103396Y-24631722D02*
X19084349Y-24622198D01*
X19198634Y-24536484D02*
X19198634Y-24574579D01*
X19274825Y-24536484D02*
X19274825Y-24574579D01*
X19570063Y-24812674D02*
X19560539Y-24803150D01*
X19560539Y-24803150D02*
X19541491Y-24774579D01*
X19541491Y-24774579D02*
X19531968Y-24755531D01*
X19531968Y-24755531D02*
X19522444Y-24726960D01*
X19522444Y-24726960D02*
X19512920Y-24679341D01*
X19512920Y-24679341D02*
X19512920Y-24641246D01*
X19512920Y-24641246D02*
X19522444Y-24593627D01*
X19522444Y-24593627D02*
X19531968Y-24565055D01*
X19531968Y-24565055D02*
X19541491Y-24546008D01*
X19541491Y-24546008D02*
X19560539Y-24517436D01*
X19560539Y-24517436D02*
X19570063Y-24507912D01*
X19741491Y-24536484D02*
X19646253Y-24536484D01*
X19646253Y-24536484D02*
X19636730Y-24631722D01*
X19636730Y-24631722D02*
X19646253Y-24622198D01*
X19646253Y-24622198D02*
X19665301Y-24612674D01*
X19665301Y-24612674D02*
X19712920Y-24612674D01*
X19712920Y-24612674D02*
X19731968Y-24622198D01*
X19731968Y-24622198D02*
X19741491Y-24631722D01*
X19741491Y-24631722D02*
X19751015Y-24650769D01*
X19751015Y-24650769D02*
X19751015Y-24698388D01*
X19751015Y-24698388D02*
X19741491Y-24717436D01*
X19741491Y-24717436D02*
X19731968Y-24726960D01*
X19731968Y-24726960D02*
X19712920Y-24736484D01*
X19712920Y-24736484D02*
X19665301Y-24736484D01*
X19665301Y-24736484D02*
X19646253Y-24726960D01*
X19646253Y-24726960D02*
X19636730Y-24717436D01*
X19941491Y-24736484D02*
X19827206Y-24736484D01*
X19884349Y-24736484D02*
X19884349Y-24536484D01*
X19884349Y-24536484D02*
X19865301Y-24565055D01*
X19865301Y-24565055D02*
X19846253Y-24584103D01*
X19846253Y-24584103D02*
X19827206Y-24593627D01*
X20036730Y-24736484D02*
X20074825Y-24736484D01*
X20074825Y-24736484D02*
X20093872Y-24726960D01*
X20093872Y-24726960D02*
X20103396Y-24717436D01*
X20103396Y-24717436D02*
X20122444Y-24688865D01*
X20122444Y-24688865D02*
X20131968Y-24650769D01*
X20131968Y-24650769D02*
X20131968Y-24574579D01*
X20131968Y-24574579D02*
X20122444Y-24555531D01*
X20122444Y-24555531D02*
X20112920Y-24546008D01*
X20112920Y-24546008D02*
X20093872Y-24536484D01*
X20093872Y-24536484D02*
X20055777Y-24536484D01*
X20055777Y-24536484D02*
X20036730Y-24546008D01*
X20036730Y-24546008D02*
X20027206Y-24555531D01*
X20027206Y-24555531D02*
X20017682Y-24574579D01*
X20017682Y-24574579D02*
X20017682Y-24622198D01*
X20017682Y-24622198D02*
X20027206Y-24641246D01*
X20027206Y-24641246D02*
X20036730Y-24650769D01*
X20036730Y-24650769D02*
X20055777Y-24660293D01*
X20055777Y-24660293D02*
X20093872Y-24660293D01*
X20093872Y-24660293D02*
X20112920Y-24650769D01*
X20112920Y-24650769D02*
X20122444Y-24641246D01*
X20122444Y-24641246D02*
X20131968Y-24622198D01*
X20370063Y-24736484D02*
X20370063Y-24536484D01*
X20455777Y-24736484D02*
X20455777Y-24631722D01*
X20455777Y-24631722D02*
X20446253Y-24612674D01*
X20446253Y-24612674D02*
X20427206Y-24603150D01*
X20427206Y-24603150D02*
X20398634Y-24603150D01*
X20398634Y-24603150D02*
X20379587Y-24612674D01*
X20379587Y-24612674D02*
X20370063Y-24622198D01*
X20579587Y-24736484D02*
X20560539Y-24726960D01*
X20560539Y-24726960D02*
X20551015Y-24717436D01*
X20551015Y-24717436D02*
X20541492Y-24698388D01*
X20541492Y-24698388D02*
X20541492Y-24641246D01*
X20541492Y-24641246D02*
X20551015Y-24622198D01*
X20551015Y-24622198D02*
X20560539Y-24612674D01*
X20560539Y-24612674D02*
X20579587Y-24603150D01*
X20579587Y-24603150D02*
X20608158Y-24603150D01*
X20608158Y-24603150D02*
X20627206Y-24612674D01*
X20627206Y-24612674D02*
X20636730Y-24622198D01*
X20636730Y-24622198D02*
X20646253Y-24641246D01*
X20646253Y-24641246D02*
X20646253Y-24698388D01*
X20646253Y-24698388D02*
X20636730Y-24717436D01*
X20636730Y-24717436D02*
X20627206Y-24726960D01*
X20627206Y-24726960D02*
X20608158Y-24736484D01*
X20608158Y-24736484D02*
X20579587Y-24736484D01*
X20760539Y-24736484D02*
X20741492Y-24726960D01*
X20741492Y-24726960D02*
X20731968Y-24707912D01*
X20731968Y-24707912D02*
X20731968Y-24536484D01*
X20912920Y-24726960D02*
X20893873Y-24736484D01*
X20893873Y-24736484D02*
X20855777Y-24736484D01*
X20855777Y-24736484D02*
X20836730Y-24726960D01*
X20836730Y-24726960D02*
X20827206Y-24707912D01*
X20827206Y-24707912D02*
X20827206Y-24631722D01*
X20827206Y-24631722D02*
X20836730Y-24612674D01*
X20836730Y-24612674D02*
X20855777Y-24603150D01*
X20855777Y-24603150D02*
X20893873Y-24603150D01*
X20893873Y-24603150D02*
X20912920Y-24612674D01*
X20912920Y-24612674D02*
X20922444Y-24631722D01*
X20922444Y-24631722D02*
X20922444Y-24650769D01*
X20922444Y-24650769D02*
X20827206Y-24669817D01*
X20998634Y-24726960D02*
X21017682Y-24736484D01*
X21017682Y-24736484D02*
X21055777Y-24736484D01*
X21055777Y-24736484D02*
X21074825Y-24726960D01*
X21074825Y-24726960D02*
X21084349Y-24707912D01*
X21084349Y-24707912D02*
X21084349Y-24698388D01*
X21084349Y-24698388D02*
X21074825Y-24679341D01*
X21074825Y-24679341D02*
X21055777Y-24669817D01*
X21055777Y-24669817D02*
X21027206Y-24669817D01*
X21027206Y-24669817D02*
X21008158Y-24660293D01*
X21008158Y-24660293D02*
X20998634Y-24641246D01*
X20998634Y-24641246D02*
X20998634Y-24631722D01*
X20998634Y-24631722D02*
X21008158Y-24612674D01*
X21008158Y-24612674D02*
X21027206Y-24603150D01*
X21027206Y-24603150D02*
X21055777Y-24603150D01*
X21055777Y-24603150D02*
X21074825Y-24612674D01*
X21151015Y-24812674D02*
X21160539Y-24803150D01*
X21160539Y-24803150D02*
X21179587Y-24774579D01*
X21179587Y-24774579D02*
X21189111Y-24755531D01*
X21189111Y-24755531D02*
X21198634Y-24726960D01*
X21198634Y-24726960D02*
X21208158Y-24679341D01*
X21208158Y-24679341D02*
X21208158Y-24641246D01*
X21208158Y-24641246D02*
X21198634Y-24593627D01*
X21198634Y-24593627D02*
X21189111Y-24565055D01*
X21189111Y-24565055D02*
X21179587Y-24546008D01*
X21179587Y-24546008D02*
X21160539Y-24517436D01*
X21160539Y-24517436D02*
X21151015Y-24507912D01*
D12*
X15995000Y-24909000D02*
G75*
G02*
X15885000Y-24909000I-55000J0D01*
G01*
X15885000Y-24909000D02*
G75*
G02*
X15995000Y-24909000I55000J0D01*
G01*
D11*
X16360539Y-25000484D02*
X16246253Y-25000484D01*
X16303396Y-25000484D02*
X16303396Y-24800484D01*
X16303396Y-24800484D02*
X16284348Y-24829055D01*
X16284348Y-24829055D02*
X16265301Y-24848103D01*
X16265301Y-24848103D02*
X16246253Y-24857627D01*
X16446253Y-24981436D02*
X16455777Y-24990960D01*
X16455777Y-24990960D02*
X16446253Y-25000484D01*
X16446253Y-25000484D02*
X16436729Y-24990960D01*
X16436729Y-24990960D02*
X16446253Y-24981436D01*
X16446253Y-24981436D02*
X16446253Y-25000484D01*
X16646253Y-25000484D02*
X16531967Y-25000484D01*
X16589110Y-25000484D02*
X16589110Y-24800484D01*
X16589110Y-24800484D02*
X16570062Y-24829055D01*
X16570062Y-24829055D02*
X16551015Y-24848103D01*
X16551015Y-24848103D02*
X16531967Y-24857627D01*
X16770062Y-24800484D02*
X16789110Y-24800484D01*
X16789110Y-24800484D02*
X16808158Y-24810008D01*
X16808158Y-24810008D02*
X16817682Y-24819531D01*
X16817682Y-24819531D02*
X16827205Y-24838579D01*
X16827205Y-24838579D02*
X16836729Y-24876674D01*
X16836729Y-24876674D02*
X16836729Y-24924293D01*
X16836729Y-24924293D02*
X16827205Y-24962388D01*
X16827205Y-24962388D02*
X16817682Y-24981436D01*
X16817682Y-24981436D02*
X16808158Y-24990960D01*
X16808158Y-24990960D02*
X16789110Y-25000484D01*
X16789110Y-25000484D02*
X16770062Y-25000484D01*
X16770062Y-25000484D02*
X16751015Y-24990960D01*
X16751015Y-24990960D02*
X16741491Y-24981436D01*
X16741491Y-24981436D02*
X16731967Y-24962388D01*
X16731967Y-24962388D02*
X16722443Y-24924293D01*
X16722443Y-24924293D02*
X16722443Y-24876674D01*
X16722443Y-24876674D02*
X16731967Y-24838579D01*
X16731967Y-24838579D02*
X16741491Y-24819531D01*
X16741491Y-24819531D02*
X16751015Y-24810008D01*
X16751015Y-24810008D02*
X16770062Y-24800484D01*
X16960539Y-24800484D02*
X16979586Y-24800484D01*
X16979586Y-24800484D02*
X16998634Y-24810008D01*
X16998634Y-24810008D02*
X17008158Y-24819531D01*
X17008158Y-24819531D02*
X17017682Y-24838579D01*
X17017682Y-24838579D02*
X17027205Y-24876674D01*
X17027205Y-24876674D02*
X17027205Y-24924293D01*
X17027205Y-24924293D02*
X17017682Y-24962388D01*
X17017682Y-24962388D02*
X17008158Y-24981436D01*
X17008158Y-24981436D02*
X16998634Y-24990960D01*
X16998634Y-24990960D02*
X16979586Y-25000484D01*
X16979586Y-25000484D02*
X16960539Y-25000484D01*
X16960539Y-25000484D02*
X16941491Y-24990960D01*
X16941491Y-24990960D02*
X16931967Y-24981436D01*
X16931967Y-24981436D02*
X16922444Y-24962388D01*
X16922444Y-24962388D02*
X16912920Y-24924293D01*
X16912920Y-24924293D02*
X16912920Y-24876674D01*
X16912920Y-24876674D02*
X16922444Y-24838579D01*
X16922444Y-24838579D02*
X16931967Y-24819531D01*
X16931967Y-24819531D02*
X16941491Y-24810008D01*
X16941491Y-24810008D02*
X16960539Y-24800484D01*
X17112920Y-25000484D02*
X17112920Y-24867150D01*
X17112920Y-24886198D02*
X17122444Y-24876674D01*
X17122444Y-24876674D02*
X17141491Y-24867150D01*
X17141491Y-24867150D02*
X17170063Y-24867150D01*
X17170063Y-24867150D02*
X17189110Y-24876674D01*
X17189110Y-24876674D02*
X17198634Y-24895722D01*
X17198634Y-24895722D02*
X17198634Y-25000484D01*
X17198634Y-24895722D02*
X17208158Y-24876674D01*
X17208158Y-24876674D02*
X17227205Y-24867150D01*
X17227205Y-24867150D02*
X17255777Y-24867150D01*
X17255777Y-24867150D02*
X17274825Y-24876674D01*
X17274825Y-24876674D02*
X17284348Y-24895722D01*
X17284348Y-24895722D02*
X17284348Y-25000484D01*
X17379586Y-25000484D02*
X17379586Y-24867150D01*
X17379586Y-24886198D02*
X17389110Y-24876674D01*
X17389110Y-24876674D02*
X17408158Y-24867150D01*
X17408158Y-24867150D02*
X17436729Y-24867150D01*
X17436729Y-24867150D02*
X17455777Y-24876674D01*
X17455777Y-24876674D02*
X17465301Y-24895722D01*
X17465301Y-24895722D02*
X17465301Y-25000484D01*
X17465301Y-24895722D02*
X17474825Y-24876674D01*
X17474825Y-24876674D02*
X17493872Y-24867150D01*
X17493872Y-24867150D02*
X17522444Y-24867150D01*
X17522444Y-24867150D02*
X17541491Y-24876674D01*
X17541491Y-24876674D02*
X17551015Y-24895722D01*
X17551015Y-24895722D02*
X17551015Y-25000484D01*
X17941491Y-24790960D02*
X17770063Y-25048103D01*
X18198634Y-24800484D02*
X18217682Y-24800484D01*
X18217682Y-24800484D02*
X18236729Y-24810008D01*
X18236729Y-24810008D02*
X18246253Y-24819531D01*
X18246253Y-24819531D02*
X18255777Y-24838579D01*
X18255777Y-24838579D02*
X18265301Y-24876674D01*
X18265301Y-24876674D02*
X18265301Y-24924293D01*
X18265301Y-24924293D02*
X18255777Y-24962388D01*
X18255777Y-24962388D02*
X18246253Y-24981436D01*
X18246253Y-24981436D02*
X18236729Y-24990960D01*
X18236729Y-24990960D02*
X18217682Y-25000484D01*
X18217682Y-25000484D02*
X18198634Y-25000484D01*
X18198634Y-25000484D02*
X18179587Y-24990960D01*
X18179587Y-24990960D02*
X18170063Y-24981436D01*
X18170063Y-24981436D02*
X18160539Y-24962388D01*
X18160539Y-24962388D02*
X18151015Y-24924293D01*
X18151015Y-24924293D02*
X18151015Y-24876674D01*
X18151015Y-24876674D02*
X18160539Y-24838579D01*
X18160539Y-24838579D02*
X18170063Y-24819531D01*
X18170063Y-24819531D02*
X18179587Y-24810008D01*
X18179587Y-24810008D02*
X18198634Y-24800484D01*
X18351015Y-24981436D02*
X18360539Y-24990960D01*
X18360539Y-24990960D02*
X18351015Y-25000484D01*
X18351015Y-25000484D02*
X18341491Y-24990960D01*
X18341491Y-24990960D02*
X18351015Y-24981436D01*
X18351015Y-24981436D02*
X18351015Y-25000484D01*
X18484348Y-24800484D02*
X18503396Y-24800484D01*
X18503396Y-24800484D02*
X18522444Y-24810008D01*
X18522444Y-24810008D02*
X18531968Y-24819531D01*
X18531968Y-24819531D02*
X18541491Y-24838579D01*
X18541491Y-24838579D02*
X18551015Y-24876674D01*
X18551015Y-24876674D02*
X18551015Y-24924293D01*
X18551015Y-24924293D02*
X18541491Y-24962388D01*
X18541491Y-24962388D02*
X18531968Y-24981436D01*
X18531968Y-24981436D02*
X18522444Y-24990960D01*
X18522444Y-24990960D02*
X18503396Y-25000484D01*
X18503396Y-25000484D02*
X18484348Y-25000484D01*
X18484348Y-25000484D02*
X18465301Y-24990960D01*
X18465301Y-24990960D02*
X18455777Y-24981436D01*
X18455777Y-24981436D02*
X18446253Y-24962388D01*
X18446253Y-24962388D02*
X18436729Y-24924293D01*
X18436729Y-24924293D02*
X18436729Y-24876674D01*
X18436729Y-24876674D02*
X18446253Y-24838579D01*
X18446253Y-24838579D02*
X18455777Y-24819531D01*
X18455777Y-24819531D02*
X18465301Y-24810008D01*
X18465301Y-24810008D02*
X18484348Y-24800484D01*
X18722444Y-24867150D02*
X18722444Y-25000484D01*
X18674825Y-24790960D02*
X18627206Y-24933817D01*
X18627206Y-24933817D02*
X18751015Y-24933817D01*
X18808158Y-24800484D02*
X18931968Y-24800484D01*
X18931968Y-24800484D02*
X18865301Y-24876674D01*
X18865301Y-24876674D02*
X18893872Y-24876674D01*
X18893872Y-24876674D02*
X18912920Y-24886198D01*
X18912920Y-24886198D02*
X18922444Y-24895722D01*
X18922444Y-24895722D02*
X18931968Y-24914769D01*
X18931968Y-24914769D02*
X18931968Y-24962388D01*
X18931968Y-24962388D02*
X18922444Y-24981436D01*
X18922444Y-24981436D02*
X18912920Y-24990960D01*
X18912920Y-24990960D02*
X18893872Y-25000484D01*
X18893872Y-25000484D02*
X18836729Y-25000484D01*
X18836729Y-25000484D02*
X18817682Y-24990960D01*
X18817682Y-24990960D02*
X18808158Y-24981436D01*
X18998634Y-24800484D02*
X19122444Y-24800484D01*
X19122444Y-24800484D02*
X19055777Y-24876674D01*
X19055777Y-24876674D02*
X19084349Y-24876674D01*
X19084349Y-24876674D02*
X19103396Y-24886198D01*
X19103396Y-24886198D02*
X19112920Y-24895722D01*
X19112920Y-24895722D02*
X19122444Y-24914769D01*
X19122444Y-24914769D02*
X19122444Y-24962388D01*
X19122444Y-24962388D02*
X19112920Y-24981436D01*
X19112920Y-24981436D02*
X19103396Y-24990960D01*
X19103396Y-24990960D02*
X19084349Y-25000484D01*
X19084349Y-25000484D02*
X19027206Y-25000484D01*
X19027206Y-25000484D02*
X19008158Y-24990960D01*
X19008158Y-24990960D02*
X18998634Y-24981436D01*
X19198634Y-24800484D02*
X19198634Y-24838579D01*
X19274825Y-24800484D02*
X19274825Y-24838579D01*
X19570063Y-25076674D02*
X19560539Y-25067150D01*
X19560539Y-25067150D02*
X19541491Y-25038579D01*
X19541491Y-25038579D02*
X19531968Y-25019531D01*
X19531968Y-25019531D02*
X19522444Y-24990960D01*
X19522444Y-24990960D02*
X19512920Y-24943341D01*
X19512920Y-24943341D02*
X19512920Y-24905246D01*
X19512920Y-24905246D02*
X19522444Y-24857627D01*
X19522444Y-24857627D02*
X19531968Y-24829055D01*
X19531968Y-24829055D02*
X19541491Y-24810008D01*
X19541491Y-24810008D02*
X19560539Y-24781436D01*
X19560539Y-24781436D02*
X19570063Y-24771912D01*
X19731968Y-24800484D02*
X19693872Y-24800484D01*
X19693872Y-24800484D02*
X19674825Y-24810008D01*
X19674825Y-24810008D02*
X19665301Y-24819531D01*
X19665301Y-24819531D02*
X19646253Y-24848103D01*
X19646253Y-24848103D02*
X19636730Y-24886198D01*
X19636730Y-24886198D02*
X19636730Y-24962388D01*
X19636730Y-24962388D02*
X19646253Y-24981436D01*
X19646253Y-24981436D02*
X19655777Y-24990960D01*
X19655777Y-24990960D02*
X19674825Y-25000484D01*
X19674825Y-25000484D02*
X19712920Y-25000484D01*
X19712920Y-25000484D02*
X19731968Y-24990960D01*
X19731968Y-24990960D02*
X19741491Y-24981436D01*
X19741491Y-24981436D02*
X19751015Y-24962388D01*
X19751015Y-24962388D02*
X19751015Y-24914769D01*
X19751015Y-24914769D02*
X19741491Y-24895722D01*
X19741491Y-24895722D02*
X19731968Y-24886198D01*
X19731968Y-24886198D02*
X19712920Y-24876674D01*
X19712920Y-24876674D02*
X19674825Y-24876674D01*
X19674825Y-24876674D02*
X19655777Y-24886198D01*
X19655777Y-24886198D02*
X19646253Y-24895722D01*
X19646253Y-24895722D02*
X19636730Y-24914769D01*
X19989111Y-25000484D02*
X19989111Y-24800484D01*
X20074825Y-25000484D02*
X20074825Y-24895722D01*
X20074825Y-24895722D02*
X20065301Y-24876674D01*
X20065301Y-24876674D02*
X20046253Y-24867150D01*
X20046253Y-24867150D02*
X20017682Y-24867150D01*
X20017682Y-24867150D02*
X19998634Y-24876674D01*
X19998634Y-24876674D02*
X19989111Y-24886198D01*
X20198634Y-25000484D02*
X20179587Y-24990960D01*
X20179587Y-24990960D02*
X20170063Y-24981436D01*
X20170063Y-24981436D02*
X20160539Y-24962388D01*
X20160539Y-24962388D02*
X20160539Y-24905246D01*
X20160539Y-24905246D02*
X20170063Y-24886198D01*
X20170063Y-24886198D02*
X20179587Y-24876674D01*
X20179587Y-24876674D02*
X20198634Y-24867150D01*
X20198634Y-24867150D02*
X20227206Y-24867150D01*
X20227206Y-24867150D02*
X20246253Y-24876674D01*
X20246253Y-24876674D02*
X20255777Y-24886198D01*
X20255777Y-24886198D02*
X20265301Y-24905246D01*
X20265301Y-24905246D02*
X20265301Y-24962388D01*
X20265301Y-24962388D02*
X20255777Y-24981436D01*
X20255777Y-24981436D02*
X20246253Y-24990960D01*
X20246253Y-24990960D02*
X20227206Y-25000484D01*
X20227206Y-25000484D02*
X20198634Y-25000484D01*
X20379587Y-25000484D02*
X20360539Y-24990960D01*
X20360539Y-24990960D02*
X20351015Y-24971912D01*
X20351015Y-24971912D02*
X20351015Y-24800484D01*
X20531968Y-24990960D02*
X20512920Y-25000484D01*
X20512920Y-25000484D02*
X20474825Y-25000484D01*
X20474825Y-25000484D02*
X20455777Y-24990960D01*
X20455777Y-24990960D02*
X20446253Y-24971912D01*
X20446253Y-24971912D02*
X20446253Y-24895722D01*
X20446253Y-24895722D02*
X20455777Y-24876674D01*
X20455777Y-24876674D02*
X20474825Y-24867150D01*
X20474825Y-24867150D02*
X20512920Y-24867150D01*
X20512920Y-24867150D02*
X20531968Y-24876674D01*
X20531968Y-24876674D02*
X20541492Y-24895722D01*
X20541492Y-24895722D02*
X20541492Y-24914769D01*
X20541492Y-24914769D02*
X20446253Y-24933817D01*
X20617682Y-24990960D02*
X20636730Y-25000484D01*
X20636730Y-25000484D02*
X20674825Y-25000484D01*
X20674825Y-25000484D02*
X20693873Y-24990960D01*
X20693873Y-24990960D02*
X20703396Y-24971912D01*
X20703396Y-24971912D02*
X20703396Y-24962388D01*
X20703396Y-24962388D02*
X20693873Y-24943341D01*
X20693873Y-24943341D02*
X20674825Y-24933817D01*
X20674825Y-24933817D02*
X20646253Y-24933817D01*
X20646253Y-24933817D02*
X20627206Y-24924293D01*
X20627206Y-24924293D02*
X20617682Y-24905246D01*
X20617682Y-24905246D02*
X20617682Y-24895722D01*
X20617682Y-24895722D02*
X20627206Y-24876674D01*
X20627206Y-24876674D02*
X20646253Y-24867150D01*
X20646253Y-24867150D02*
X20674825Y-24867150D01*
X20674825Y-24867150D02*
X20693873Y-24876674D01*
X20770063Y-25076674D02*
X20779587Y-25067150D01*
X20779587Y-25067150D02*
X20798634Y-25038579D01*
X20798634Y-25038579D02*
X20808158Y-25019531D01*
X20808158Y-25019531D02*
X20817682Y-24990960D01*
X20817682Y-24990960D02*
X20827206Y-24943341D01*
X20827206Y-24943341D02*
X20827206Y-24905246D01*
X20827206Y-24905246D02*
X20817682Y-24857627D01*
X20817682Y-24857627D02*
X20808158Y-24829055D01*
X20808158Y-24829055D02*
X20798634Y-24810008D01*
X20798634Y-24810008D02*
X20779587Y-24781436D01*
X20779587Y-24781436D02*
X20770063Y-24771912D01*
D13*
X15925000Y-25103000D02*
X15925000Y-25243000D01*
X15855000Y-25173000D02*
X15995000Y-25173000D01*
D11*
X16360539Y-25264484D02*
X16246253Y-25264484D01*
X16303396Y-25264484D02*
X16303396Y-25064484D01*
X16303396Y-25064484D02*
X16284348Y-25093055D01*
X16284348Y-25093055D02*
X16265301Y-25112103D01*
X16265301Y-25112103D02*
X16246253Y-25121627D01*
X16446253Y-25245436D02*
X16455777Y-25254960D01*
X16455777Y-25254960D02*
X16446253Y-25264484D01*
X16446253Y-25264484D02*
X16436729Y-25254960D01*
X16436729Y-25254960D02*
X16446253Y-25245436D01*
X16446253Y-25245436D02*
X16446253Y-25264484D01*
X16627205Y-25131150D02*
X16627205Y-25264484D01*
X16579586Y-25054960D02*
X16531967Y-25197817D01*
X16531967Y-25197817D02*
X16655777Y-25197817D01*
X16770062Y-25064484D02*
X16789110Y-25064484D01*
X16789110Y-25064484D02*
X16808158Y-25074008D01*
X16808158Y-25074008D02*
X16817682Y-25083531D01*
X16817682Y-25083531D02*
X16827205Y-25102579D01*
X16827205Y-25102579D02*
X16836729Y-25140674D01*
X16836729Y-25140674D02*
X16836729Y-25188293D01*
X16836729Y-25188293D02*
X16827205Y-25226388D01*
X16827205Y-25226388D02*
X16817682Y-25245436D01*
X16817682Y-25245436D02*
X16808158Y-25254960D01*
X16808158Y-25254960D02*
X16789110Y-25264484D01*
X16789110Y-25264484D02*
X16770062Y-25264484D01*
X16770062Y-25264484D02*
X16751015Y-25254960D01*
X16751015Y-25254960D02*
X16741491Y-25245436D01*
X16741491Y-25245436D02*
X16731967Y-25226388D01*
X16731967Y-25226388D02*
X16722443Y-25188293D01*
X16722443Y-25188293D02*
X16722443Y-25140674D01*
X16722443Y-25140674D02*
X16731967Y-25102579D01*
X16731967Y-25102579D02*
X16741491Y-25083531D01*
X16741491Y-25083531D02*
X16751015Y-25074008D01*
X16751015Y-25074008D02*
X16770062Y-25064484D01*
X16960539Y-25064484D02*
X16979586Y-25064484D01*
X16979586Y-25064484D02*
X16998634Y-25074008D01*
X16998634Y-25074008D02*
X17008158Y-25083531D01*
X17008158Y-25083531D02*
X17017682Y-25102579D01*
X17017682Y-25102579D02*
X17027205Y-25140674D01*
X17027205Y-25140674D02*
X17027205Y-25188293D01*
X17027205Y-25188293D02*
X17017682Y-25226388D01*
X17017682Y-25226388D02*
X17008158Y-25245436D01*
X17008158Y-25245436D02*
X16998634Y-25254960D01*
X16998634Y-25254960D02*
X16979586Y-25264484D01*
X16979586Y-25264484D02*
X16960539Y-25264484D01*
X16960539Y-25264484D02*
X16941491Y-25254960D01*
X16941491Y-25254960D02*
X16931967Y-25245436D01*
X16931967Y-25245436D02*
X16922444Y-25226388D01*
X16922444Y-25226388D02*
X16912920Y-25188293D01*
X16912920Y-25188293D02*
X16912920Y-25140674D01*
X16912920Y-25140674D02*
X16922444Y-25102579D01*
X16922444Y-25102579D02*
X16931967Y-25083531D01*
X16931967Y-25083531D02*
X16941491Y-25074008D01*
X16941491Y-25074008D02*
X16960539Y-25064484D01*
X17112920Y-25264484D02*
X17112920Y-25131150D01*
X17112920Y-25150198D02*
X17122444Y-25140674D01*
X17122444Y-25140674D02*
X17141491Y-25131150D01*
X17141491Y-25131150D02*
X17170063Y-25131150D01*
X17170063Y-25131150D02*
X17189110Y-25140674D01*
X17189110Y-25140674D02*
X17198634Y-25159722D01*
X17198634Y-25159722D02*
X17198634Y-25264484D01*
X17198634Y-25159722D02*
X17208158Y-25140674D01*
X17208158Y-25140674D02*
X17227205Y-25131150D01*
X17227205Y-25131150D02*
X17255777Y-25131150D01*
X17255777Y-25131150D02*
X17274825Y-25140674D01*
X17274825Y-25140674D02*
X17284348Y-25159722D01*
X17284348Y-25159722D02*
X17284348Y-25264484D01*
X17379586Y-25264484D02*
X17379586Y-25131150D01*
X17379586Y-25150198D02*
X17389110Y-25140674D01*
X17389110Y-25140674D02*
X17408158Y-25131150D01*
X17408158Y-25131150D02*
X17436729Y-25131150D01*
X17436729Y-25131150D02*
X17455777Y-25140674D01*
X17455777Y-25140674D02*
X17465301Y-25159722D01*
X17465301Y-25159722D02*
X17465301Y-25264484D01*
X17465301Y-25159722D02*
X17474825Y-25140674D01*
X17474825Y-25140674D02*
X17493872Y-25131150D01*
X17493872Y-25131150D02*
X17522444Y-25131150D01*
X17522444Y-25131150D02*
X17541491Y-25140674D01*
X17541491Y-25140674D02*
X17551015Y-25159722D01*
X17551015Y-25159722D02*
X17551015Y-25264484D01*
X17941491Y-25054960D02*
X17770063Y-25312103D01*
X18198634Y-25064484D02*
X18217682Y-25064484D01*
X18217682Y-25064484D02*
X18236729Y-25074008D01*
X18236729Y-25074008D02*
X18246253Y-25083531D01*
X18246253Y-25083531D02*
X18255777Y-25102579D01*
X18255777Y-25102579D02*
X18265301Y-25140674D01*
X18265301Y-25140674D02*
X18265301Y-25188293D01*
X18265301Y-25188293D02*
X18255777Y-25226388D01*
X18255777Y-25226388D02*
X18246253Y-25245436D01*
X18246253Y-25245436D02*
X18236729Y-25254960D01*
X18236729Y-25254960D02*
X18217682Y-25264484D01*
X18217682Y-25264484D02*
X18198634Y-25264484D01*
X18198634Y-25264484D02*
X18179587Y-25254960D01*
X18179587Y-25254960D02*
X18170063Y-25245436D01*
X18170063Y-25245436D02*
X18160539Y-25226388D01*
X18160539Y-25226388D02*
X18151015Y-25188293D01*
X18151015Y-25188293D02*
X18151015Y-25140674D01*
X18151015Y-25140674D02*
X18160539Y-25102579D01*
X18160539Y-25102579D02*
X18170063Y-25083531D01*
X18170063Y-25083531D02*
X18179587Y-25074008D01*
X18179587Y-25074008D02*
X18198634Y-25064484D01*
X18351015Y-25245436D02*
X18360539Y-25254960D01*
X18360539Y-25254960D02*
X18351015Y-25264484D01*
X18351015Y-25264484D02*
X18341491Y-25254960D01*
X18341491Y-25254960D02*
X18351015Y-25245436D01*
X18351015Y-25245436D02*
X18351015Y-25264484D01*
X18484348Y-25064484D02*
X18503396Y-25064484D01*
X18503396Y-25064484D02*
X18522444Y-25074008D01*
X18522444Y-25074008D02*
X18531968Y-25083531D01*
X18531968Y-25083531D02*
X18541491Y-25102579D01*
X18541491Y-25102579D02*
X18551015Y-25140674D01*
X18551015Y-25140674D02*
X18551015Y-25188293D01*
X18551015Y-25188293D02*
X18541491Y-25226388D01*
X18541491Y-25226388D02*
X18531968Y-25245436D01*
X18531968Y-25245436D02*
X18522444Y-25254960D01*
X18522444Y-25254960D02*
X18503396Y-25264484D01*
X18503396Y-25264484D02*
X18484348Y-25264484D01*
X18484348Y-25264484D02*
X18465301Y-25254960D01*
X18465301Y-25254960D02*
X18455777Y-25245436D01*
X18455777Y-25245436D02*
X18446253Y-25226388D01*
X18446253Y-25226388D02*
X18436729Y-25188293D01*
X18436729Y-25188293D02*
X18436729Y-25140674D01*
X18436729Y-25140674D02*
X18446253Y-25102579D01*
X18446253Y-25102579D02*
X18455777Y-25083531D01*
X18455777Y-25083531D02*
X18465301Y-25074008D01*
X18465301Y-25074008D02*
X18484348Y-25064484D01*
X18731968Y-25064484D02*
X18636729Y-25064484D01*
X18636729Y-25064484D02*
X18627206Y-25159722D01*
X18627206Y-25159722D02*
X18636729Y-25150198D01*
X18636729Y-25150198D02*
X18655777Y-25140674D01*
X18655777Y-25140674D02*
X18703396Y-25140674D01*
X18703396Y-25140674D02*
X18722444Y-25150198D01*
X18722444Y-25150198D02*
X18731968Y-25159722D01*
X18731968Y-25159722D02*
X18741491Y-25178769D01*
X18741491Y-25178769D02*
X18741491Y-25226388D01*
X18741491Y-25226388D02*
X18731968Y-25245436D01*
X18731968Y-25245436D02*
X18722444Y-25254960D01*
X18722444Y-25254960D02*
X18703396Y-25264484D01*
X18703396Y-25264484D02*
X18655777Y-25264484D01*
X18655777Y-25264484D02*
X18636729Y-25254960D01*
X18636729Y-25254960D02*
X18627206Y-25245436D01*
X18922444Y-25064484D02*
X18827206Y-25064484D01*
X18827206Y-25064484D02*
X18817682Y-25159722D01*
X18817682Y-25159722D02*
X18827206Y-25150198D01*
X18827206Y-25150198D02*
X18846253Y-25140674D01*
X18846253Y-25140674D02*
X18893872Y-25140674D01*
X18893872Y-25140674D02*
X18912920Y-25150198D01*
X18912920Y-25150198D02*
X18922444Y-25159722D01*
X18922444Y-25159722D02*
X18931968Y-25178769D01*
X18931968Y-25178769D02*
X18931968Y-25226388D01*
X18931968Y-25226388D02*
X18922444Y-25245436D01*
X18922444Y-25245436D02*
X18912920Y-25254960D01*
X18912920Y-25254960D02*
X18893872Y-25264484D01*
X18893872Y-25264484D02*
X18846253Y-25264484D01*
X18846253Y-25264484D02*
X18827206Y-25254960D01*
X18827206Y-25254960D02*
X18817682Y-25245436D01*
X19122444Y-25264484D02*
X19008158Y-25264484D01*
X19065301Y-25264484D02*
X19065301Y-25064484D01*
X19065301Y-25064484D02*
X19046253Y-25093055D01*
X19046253Y-25093055D02*
X19027206Y-25112103D01*
X19027206Y-25112103D02*
X19008158Y-25121627D01*
X19198634Y-25064484D02*
X19198634Y-25102579D01*
X19274825Y-25064484D02*
X19274825Y-25102579D01*
X19570063Y-25340674D02*
X19560539Y-25331150D01*
X19560539Y-25331150D02*
X19541491Y-25302579D01*
X19541491Y-25302579D02*
X19531968Y-25283531D01*
X19531968Y-25283531D02*
X19522444Y-25254960D01*
X19522444Y-25254960D02*
X19512920Y-25207341D01*
X19512920Y-25207341D02*
X19512920Y-25169246D01*
X19512920Y-25169246D02*
X19522444Y-25121627D01*
X19522444Y-25121627D02*
X19531968Y-25093055D01*
X19531968Y-25093055D02*
X19541491Y-25074008D01*
X19541491Y-25074008D02*
X19560539Y-25045436D01*
X19560539Y-25045436D02*
X19570063Y-25035912D01*
X19627206Y-25064484D02*
X19760539Y-25064484D01*
X19760539Y-25064484D02*
X19674825Y-25264484D01*
X19827206Y-25083531D02*
X19836730Y-25074008D01*
X19836730Y-25074008D02*
X19855777Y-25064484D01*
X19855777Y-25064484D02*
X19903396Y-25064484D01*
X19903396Y-25064484D02*
X19922444Y-25074008D01*
X19922444Y-25074008D02*
X19931968Y-25083531D01*
X19931968Y-25083531D02*
X19941491Y-25102579D01*
X19941491Y-25102579D02*
X19941491Y-25121627D01*
X19941491Y-25121627D02*
X19931968Y-25150198D01*
X19931968Y-25150198D02*
X19817682Y-25264484D01*
X19817682Y-25264484D02*
X19941491Y-25264484D01*
X20179587Y-25264484D02*
X20179587Y-25064484D01*
X20265301Y-25264484D02*
X20265301Y-25159722D01*
X20265301Y-25159722D02*
X20255777Y-25140674D01*
X20255777Y-25140674D02*
X20236730Y-25131150D01*
X20236730Y-25131150D02*
X20208158Y-25131150D01*
X20208158Y-25131150D02*
X20189111Y-25140674D01*
X20189111Y-25140674D02*
X20179587Y-25150198D01*
X20389111Y-25264484D02*
X20370063Y-25254960D01*
X20370063Y-25254960D02*
X20360539Y-25245436D01*
X20360539Y-25245436D02*
X20351015Y-25226388D01*
X20351015Y-25226388D02*
X20351015Y-25169246D01*
X20351015Y-25169246D02*
X20360539Y-25150198D01*
X20360539Y-25150198D02*
X20370063Y-25140674D01*
X20370063Y-25140674D02*
X20389111Y-25131150D01*
X20389111Y-25131150D02*
X20417682Y-25131150D01*
X20417682Y-25131150D02*
X20436730Y-25140674D01*
X20436730Y-25140674D02*
X20446253Y-25150198D01*
X20446253Y-25150198D02*
X20455777Y-25169246D01*
X20455777Y-25169246D02*
X20455777Y-25226388D01*
X20455777Y-25226388D02*
X20446253Y-25245436D01*
X20446253Y-25245436D02*
X20436730Y-25254960D01*
X20436730Y-25254960D02*
X20417682Y-25264484D01*
X20417682Y-25264484D02*
X20389111Y-25264484D01*
X20570063Y-25264484D02*
X20551015Y-25254960D01*
X20551015Y-25254960D02*
X20541492Y-25235912D01*
X20541492Y-25235912D02*
X20541492Y-25064484D01*
X20722444Y-25254960D02*
X20703396Y-25264484D01*
X20703396Y-25264484D02*
X20665301Y-25264484D01*
X20665301Y-25264484D02*
X20646253Y-25254960D01*
X20646253Y-25254960D02*
X20636730Y-25235912D01*
X20636730Y-25235912D02*
X20636730Y-25159722D01*
X20636730Y-25159722D02*
X20646253Y-25140674D01*
X20646253Y-25140674D02*
X20665301Y-25131150D01*
X20665301Y-25131150D02*
X20703396Y-25131150D01*
X20703396Y-25131150D02*
X20722444Y-25140674D01*
X20722444Y-25140674D02*
X20731968Y-25159722D01*
X20731968Y-25159722D02*
X20731968Y-25178769D01*
X20731968Y-25178769D02*
X20636730Y-25197817D01*
X20808158Y-25254960D02*
X20827206Y-25264484D01*
X20827206Y-25264484D02*
X20865301Y-25264484D01*
X20865301Y-25264484D02*
X20884349Y-25254960D01*
X20884349Y-25254960D02*
X20893873Y-25235912D01*
X20893873Y-25235912D02*
X20893873Y-25226388D01*
X20893873Y-25226388D02*
X20884349Y-25207341D01*
X20884349Y-25207341D02*
X20865301Y-25197817D01*
X20865301Y-25197817D02*
X20836730Y-25197817D01*
X20836730Y-25197817D02*
X20817682Y-25188293D01*
X20817682Y-25188293D02*
X20808158Y-25169246D01*
X20808158Y-25169246D02*
X20808158Y-25159722D01*
X20808158Y-25159722D02*
X20817682Y-25140674D01*
X20817682Y-25140674D02*
X20836730Y-25131150D01*
X20836730Y-25131150D02*
X20865301Y-25131150D01*
X20865301Y-25131150D02*
X20884349Y-25140674D01*
X20960539Y-25340674D02*
X20970063Y-25331150D01*
X20970063Y-25331150D02*
X20989111Y-25302579D01*
X20989111Y-25302579D02*
X20998634Y-25283531D01*
X20998634Y-25283531D02*
X21008158Y-25254960D01*
X21008158Y-25254960D02*
X21017682Y-25207341D01*
X21017682Y-25207341D02*
X21017682Y-25169246D01*
X21017682Y-25169246D02*
X21008158Y-25121627D01*
X21008158Y-25121627D02*
X20998634Y-25093055D01*
X20998634Y-25093055D02*
X20989111Y-25074008D01*
X20989111Y-25074008D02*
X20970063Y-25045436D01*
X20970063Y-25045436D02*
X20960539Y-25035912D01*
D14*
X15973033Y-25490033D02*
X15973033Y-25383966D01*
X15866966Y-25383966D01*
X15866966Y-25490033D01*
X15973033Y-25490033D01*
D11*
X16360539Y-25528484D02*
X16246253Y-25528484D01*
X16303396Y-25528484D02*
X16303396Y-25328484D01*
X16303396Y-25328484D02*
X16284348Y-25357055D01*
X16284348Y-25357055D02*
X16265301Y-25376103D01*
X16265301Y-25376103D02*
X16246253Y-25385627D01*
X16446253Y-25509436D02*
X16455777Y-25518960D01*
X16455777Y-25518960D02*
X16446253Y-25528484D01*
X16446253Y-25528484D02*
X16436729Y-25518960D01*
X16436729Y-25518960D02*
X16446253Y-25509436D01*
X16446253Y-25509436D02*
X16446253Y-25528484D01*
X16636729Y-25328484D02*
X16541491Y-25328484D01*
X16541491Y-25328484D02*
X16531967Y-25423722D01*
X16531967Y-25423722D02*
X16541491Y-25414198D01*
X16541491Y-25414198D02*
X16560539Y-25404674D01*
X16560539Y-25404674D02*
X16608158Y-25404674D01*
X16608158Y-25404674D02*
X16627205Y-25414198D01*
X16627205Y-25414198D02*
X16636729Y-25423722D01*
X16636729Y-25423722D02*
X16646253Y-25442769D01*
X16646253Y-25442769D02*
X16646253Y-25490388D01*
X16646253Y-25490388D02*
X16636729Y-25509436D01*
X16636729Y-25509436D02*
X16627205Y-25518960D01*
X16627205Y-25518960D02*
X16608158Y-25528484D01*
X16608158Y-25528484D02*
X16560539Y-25528484D01*
X16560539Y-25528484D02*
X16541491Y-25518960D01*
X16541491Y-25518960D02*
X16531967Y-25509436D01*
X16770062Y-25328484D02*
X16789110Y-25328484D01*
X16789110Y-25328484D02*
X16808158Y-25338008D01*
X16808158Y-25338008D02*
X16817682Y-25347531D01*
X16817682Y-25347531D02*
X16827205Y-25366579D01*
X16827205Y-25366579D02*
X16836729Y-25404674D01*
X16836729Y-25404674D02*
X16836729Y-25452293D01*
X16836729Y-25452293D02*
X16827205Y-25490388D01*
X16827205Y-25490388D02*
X16817682Y-25509436D01*
X16817682Y-25509436D02*
X16808158Y-25518960D01*
X16808158Y-25518960D02*
X16789110Y-25528484D01*
X16789110Y-25528484D02*
X16770062Y-25528484D01*
X16770062Y-25528484D02*
X16751015Y-25518960D01*
X16751015Y-25518960D02*
X16741491Y-25509436D01*
X16741491Y-25509436D02*
X16731967Y-25490388D01*
X16731967Y-25490388D02*
X16722443Y-25452293D01*
X16722443Y-25452293D02*
X16722443Y-25404674D01*
X16722443Y-25404674D02*
X16731967Y-25366579D01*
X16731967Y-25366579D02*
X16741491Y-25347531D01*
X16741491Y-25347531D02*
X16751015Y-25338008D01*
X16751015Y-25338008D02*
X16770062Y-25328484D01*
X16960539Y-25328484D02*
X16979586Y-25328484D01*
X16979586Y-25328484D02*
X16998634Y-25338008D01*
X16998634Y-25338008D02*
X17008158Y-25347531D01*
X17008158Y-25347531D02*
X17017682Y-25366579D01*
X17017682Y-25366579D02*
X17027205Y-25404674D01*
X17027205Y-25404674D02*
X17027205Y-25452293D01*
X17027205Y-25452293D02*
X17017682Y-25490388D01*
X17017682Y-25490388D02*
X17008158Y-25509436D01*
X17008158Y-25509436D02*
X16998634Y-25518960D01*
X16998634Y-25518960D02*
X16979586Y-25528484D01*
X16979586Y-25528484D02*
X16960539Y-25528484D01*
X16960539Y-25528484D02*
X16941491Y-25518960D01*
X16941491Y-25518960D02*
X16931967Y-25509436D01*
X16931967Y-25509436D02*
X16922444Y-25490388D01*
X16922444Y-25490388D02*
X16912920Y-25452293D01*
X16912920Y-25452293D02*
X16912920Y-25404674D01*
X16912920Y-25404674D02*
X16922444Y-25366579D01*
X16922444Y-25366579D02*
X16931967Y-25347531D01*
X16931967Y-25347531D02*
X16941491Y-25338008D01*
X16941491Y-25338008D02*
X16960539Y-25328484D01*
X17112920Y-25528484D02*
X17112920Y-25395150D01*
X17112920Y-25414198D02*
X17122444Y-25404674D01*
X17122444Y-25404674D02*
X17141491Y-25395150D01*
X17141491Y-25395150D02*
X17170063Y-25395150D01*
X17170063Y-25395150D02*
X17189110Y-25404674D01*
X17189110Y-25404674D02*
X17198634Y-25423722D01*
X17198634Y-25423722D02*
X17198634Y-25528484D01*
X17198634Y-25423722D02*
X17208158Y-25404674D01*
X17208158Y-25404674D02*
X17227205Y-25395150D01*
X17227205Y-25395150D02*
X17255777Y-25395150D01*
X17255777Y-25395150D02*
X17274825Y-25404674D01*
X17274825Y-25404674D02*
X17284348Y-25423722D01*
X17284348Y-25423722D02*
X17284348Y-25528484D01*
X17379586Y-25528484D02*
X17379586Y-25395150D01*
X17379586Y-25414198D02*
X17389110Y-25404674D01*
X17389110Y-25404674D02*
X17408158Y-25395150D01*
X17408158Y-25395150D02*
X17436729Y-25395150D01*
X17436729Y-25395150D02*
X17455777Y-25404674D01*
X17455777Y-25404674D02*
X17465301Y-25423722D01*
X17465301Y-25423722D02*
X17465301Y-25528484D01*
X17465301Y-25423722D02*
X17474825Y-25404674D01*
X17474825Y-25404674D02*
X17493872Y-25395150D01*
X17493872Y-25395150D02*
X17522444Y-25395150D01*
X17522444Y-25395150D02*
X17541491Y-25404674D01*
X17541491Y-25404674D02*
X17551015Y-25423722D01*
X17551015Y-25423722D02*
X17551015Y-25528484D01*
X17941491Y-25318960D02*
X17770063Y-25576103D01*
X18198634Y-25328484D02*
X18217682Y-25328484D01*
X18217682Y-25328484D02*
X18236729Y-25338008D01*
X18236729Y-25338008D02*
X18246253Y-25347531D01*
X18246253Y-25347531D02*
X18255777Y-25366579D01*
X18255777Y-25366579D02*
X18265301Y-25404674D01*
X18265301Y-25404674D02*
X18265301Y-25452293D01*
X18265301Y-25452293D02*
X18255777Y-25490388D01*
X18255777Y-25490388D02*
X18246253Y-25509436D01*
X18246253Y-25509436D02*
X18236729Y-25518960D01*
X18236729Y-25518960D02*
X18217682Y-25528484D01*
X18217682Y-25528484D02*
X18198634Y-25528484D01*
X18198634Y-25528484D02*
X18179587Y-25518960D01*
X18179587Y-25518960D02*
X18170063Y-25509436D01*
X18170063Y-25509436D02*
X18160539Y-25490388D01*
X18160539Y-25490388D02*
X18151015Y-25452293D01*
X18151015Y-25452293D02*
X18151015Y-25404674D01*
X18151015Y-25404674D02*
X18160539Y-25366579D01*
X18160539Y-25366579D02*
X18170063Y-25347531D01*
X18170063Y-25347531D02*
X18179587Y-25338008D01*
X18179587Y-25338008D02*
X18198634Y-25328484D01*
X18351015Y-25509436D02*
X18360539Y-25518960D01*
X18360539Y-25518960D02*
X18351015Y-25528484D01*
X18351015Y-25528484D02*
X18341491Y-25518960D01*
X18341491Y-25518960D02*
X18351015Y-25509436D01*
X18351015Y-25509436D02*
X18351015Y-25528484D01*
X18484348Y-25328484D02*
X18503396Y-25328484D01*
X18503396Y-25328484D02*
X18522444Y-25338008D01*
X18522444Y-25338008D02*
X18531968Y-25347531D01*
X18531968Y-25347531D02*
X18541491Y-25366579D01*
X18541491Y-25366579D02*
X18551015Y-25404674D01*
X18551015Y-25404674D02*
X18551015Y-25452293D01*
X18551015Y-25452293D02*
X18541491Y-25490388D01*
X18541491Y-25490388D02*
X18531968Y-25509436D01*
X18531968Y-25509436D02*
X18522444Y-25518960D01*
X18522444Y-25518960D02*
X18503396Y-25528484D01*
X18503396Y-25528484D02*
X18484348Y-25528484D01*
X18484348Y-25528484D02*
X18465301Y-25518960D01*
X18465301Y-25518960D02*
X18455777Y-25509436D01*
X18455777Y-25509436D02*
X18446253Y-25490388D01*
X18446253Y-25490388D02*
X18436729Y-25452293D01*
X18436729Y-25452293D02*
X18436729Y-25404674D01*
X18436729Y-25404674D02*
X18446253Y-25366579D01*
X18446253Y-25366579D02*
X18455777Y-25347531D01*
X18455777Y-25347531D02*
X18465301Y-25338008D01*
X18465301Y-25338008D02*
X18484348Y-25328484D01*
X18731968Y-25328484D02*
X18636729Y-25328484D01*
X18636729Y-25328484D02*
X18627206Y-25423722D01*
X18627206Y-25423722D02*
X18636729Y-25414198D01*
X18636729Y-25414198D02*
X18655777Y-25404674D01*
X18655777Y-25404674D02*
X18703396Y-25404674D01*
X18703396Y-25404674D02*
X18722444Y-25414198D01*
X18722444Y-25414198D02*
X18731968Y-25423722D01*
X18731968Y-25423722D02*
X18741491Y-25442769D01*
X18741491Y-25442769D02*
X18741491Y-25490388D01*
X18741491Y-25490388D02*
X18731968Y-25509436D01*
X18731968Y-25509436D02*
X18722444Y-25518960D01*
X18722444Y-25518960D02*
X18703396Y-25528484D01*
X18703396Y-25528484D02*
X18655777Y-25528484D01*
X18655777Y-25528484D02*
X18636729Y-25518960D01*
X18636729Y-25518960D02*
X18627206Y-25509436D01*
X18836729Y-25528484D02*
X18874825Y-25528484D01*
X18874825Y-25528484D02*
X18893872Y-25518960D01*
X18893872Y-25518960D02*
X18903396Y-25509436D01*
X18903396Y-25509436D02*
X18922444Y-25480865D01*
X18922444Y-25480865D02*
X18931968Y-25442769D01*
X18931968Y-25442769D02*
X18931968Y-25366579D01*
X18931968Y-25366579D02*
X18922444Y-25347531D01*
X18922444Y-25347531D02*
X18912920Y-25338008D01*
X18912920Y-25338008D02*
X18893872Y-25328484D01*
X18893872Y-25328484D02*
X18855777Y-25328484D01*
X18855777Y-25328484D02*
X18836729Y-25338008D01*
X18836729Y-25338008D02*
X18827206Y-25347531D01*
X18827206Y-25347531D02*
X18817682Y-25366579D01*
X18817682Y-25366579D02*
X18817682Y-25414198D01*
X18817682Y-25414198D02*
X18827206Y-25433246D01*
X18827206Y-25433246D02*
X18836729Y-25442769D01*
X18836729Y-25442769D02*
X18855777Y-25452293D01*
X18855777Y-25452293D02*
X18893872Y-25452293D01*
X18893872Y-25452293D02*
X18912920Y-25442769D01*
X18912920Y-25442769D02*
X18922444Y-25433246D01*
X18922444Y-25433246D02*
X18931968Y-25414198D01*
X19122444Y-25528484D02*
X19008158Y-25528484D01*
X19065301Y-25528484D02*
X19065301Y-25328484D01*
X19065301Y-25328484D02*
X19046253Y-25357055D01*
X19046253Y-25357055D02*
X19027206Y-25376103D01*
X19027206Y-25376103D02*
X19008158Y-25385627D01*
X19198634Y-25328484D02*
X19198634Y-25366579D01*
X19274825Y-25328484D02*
X19274825Y-25366579D01*
X19570063Y-25604674D02*
X19560539Y-25595150D01*
X19560539Y-25595150D02*
X19541491Y-25566579D01*
X19541491Y-25566579D02*
X19531968Y-25547531D01*
X19531968Y-25547531D02*
X19522444Y-25518960D01*
X19522444Y-25518960D02*
X19512920Y-25471341D01*
X19512920Y-25471341D02*
X19512920Y-25433246D01*
X19512920Y-25433246D02*
X19522444Y-25385627D01*
X19522444Y-25385627D02*
X19531968Y-25357055D01*
X19531968Y-25357055D02*
X19541491Y-25338008D01*
X19541491Y-25338008D02*
X19560539Y-25309436D01*
X19560539Y-25309436D02*
X19570063Y-25299912D01*
X19684349Y-25328484D02*
X19703396Y-25328484D01*
X19703396Y-25328484D02*
X19722444Y-25338008D01*
X19722444Y-25338008D02*
X19731968Y-25347531D01*
X19731968Y-25347531D02*
X19741491Y-25366579D01*
X19741491Y-25366579D02*
X19751015Y-25404674D01*
X19751015Y-25404674D02*
X19751015Y-25452293D01*
X19751015Y-25452293D02*
X19741491Y-25490388D01*
X19741491Y-25490388D02*
X19731968Y-25509436D01*
X19731968Y-25509436D02*
X19722444Y-25518960D01*
X19722444Y-25518960D02*
X19703396Y-25528484D01*
X19703396Y-25528484D02*
X19684349Y-25528484D01*
X19684349Y-25528484D02*
X19665301Y-25518960D01*
X19665301Y-25518960D02*
X19655777Y-25509436D01*
X19655777Y-25509436D02*
X19646253Y-25490388D01*
X19646253Y-25490388D02*
X19636730Y-25452293D01*
X19636730Y-25452293D02*
X19636730Y-25404674D01*
X19636730Y-25404674D02*
X19646253Y-25366579D01*
X19646253Y-25366579D02*
X19655777Y-25347531D01*
X19655777Y-25347531D02*
X19665301Y-25338008D01*
X19665301Y-25338008D02*
X19684349Y-25328484D01*
X19989111Y-25528484D02*
X19989111Y-25328484D01*
X20074825Y-25528484D02*
X20074825Y-25423722D01*
X20074825Y-25423722D02*
X20065301Y-25404674D01*
X20065301Y-25404674D02*
X20046253Y-25395150D01*
X20046253Y-25395150D02*
X20017682Y-25395150D01*
X20017682Y-25395150D02*
X19998634Y-25404674D01*
X19998634Y-25404674D02*
X19989111Y-25414198D01*
X20198634Y-25528484D02*
X20179587Y-25518960D01*
X20179587Y-25518960D02*
X20170063Y-25509436D01*
X20170063Y-25509436D02*
X20160539Y-25490388D01*
X20160539Y-25490388D02*
X20160539Y-25433246D01*
X20160539Y-25433246D02*
X20170063Y-25414198D01*
X20170063Y-25414198D02*
X20179587Y-25404674D01*
X20179587Y-25404674D02*
X20198634Y-25395150D01*
X20198634Y-25395150D02*
X20227206Y-25395150D01*
X20227206Y-25395150D02*
X20246253Y-25404674D01*
X20246253Y-25404674D02*
X20255777Y-25414198D01*
X20255777Y-25414198D02*
X20265301Y-25433246D01*
X20265301Y-25433246D02*
X20265301Y-25490388D01*
X20265301Y-25490388D02*
X20255777Y-25509436D01*
X20255777Y-25509436D02*
X20246253Y-25518960D01*
X20246253Y-25518960D02*
X20227206Y-25528484D01*
X20227206Y-25528484D02*
X20198634Y-25528484D01*
X20379587Y-25528484D02*
X20360539Y-25518960D01*
X20360539Y-25518960D02*
X20351015Y-25499912D01*
X20351015Y-25499912D02*
X20351015Y-25328484D01*
X20531968Y-25518960D02*
X20512920Y-25528484D01*
X20512920Y-25528484D02*
X20474825Y-25528484D01*
X20474825Y-25528484D02*
X20455777Y-25518960D01*
X20455777Y-25518960D02*
X20446253Y-25499912D01*
X20446253Y-25499912D02*
X20446253Y-25423722D01*
X20446253Y-25423722D02*
X20455777Y-25404674D01*
X20455777Y-25404674D02*
X20474825Y-25395150D01*
X20474825Y-25395150D02*
X20512920Y-25395150D01*
X20512920Y-25395150D02*
X20531968Y-25404674D01*
X20531968Y-25404674D02*
X20541492Y-25423722D01*
X20541492Y-25423722D02*
X20541492Y-25442769D01*
X20541492Y-25442769D02*
X20446253Y-25461817D01*
X20617682Y-25518960D02*
X20636730Y-25528484D01*
X20636730Y-25528484D02*
X20674825Y-25528484D01*
X20674825Y-25528484D02*
X20693873Y-25518960D01*
X20693873Y-25518960D02*
X20703396Y-25499912D01*
X20703396Y-25499912D02*
X20703396Y-25490388D01*
X20703396Y-25490388D02*
X20693873Y-25471341D01*
X20693873Y-25471341D02*
X20674825Y-25461817D01*
X20674825Y-25461817D02*
X20646253Y-25461817D01*
X20646253Y-25461817D02*
X20627206Y-25452293D01*
X20627206Y-25452293D02*
X20617682Y-25433246D01*
X20617682Y-25433246D02*
X20617682Y-25423722D01*
X20617682Y-25423722D02*
X20627206Y-25404674D01*
X20627206Y-25404674D02*
X20646253Y-25395150D01*
X20646253Y-25395150D02*
X20674825Y-25395150D01*
X20674825Y-25395150D02*
X20693873Y-25404674D01*
X20941492Y-25452293D02*
X21093873Y-25452293D01*
X21017682Y-25528484D02*
X21017682Y-25376103D01*
X21427206Y-25395150D02*
X21427206Y-25528484D01*
X21379587Y-25318960D02*
X21331968Y-25461817D01*
X21331968Y-25461817D02*
X21455777Y-25461817D01*
X21674825Y-25518960D02*
X21693873Y-25528484D01*
X21693873Y-25528484D02*
X21731968Y-25528484D01*
X21731968Y-25528484D02*
X21751016Y-25518960D01*
X21751016Y-25518960D02*
X21760539Y-25499912D01*
X21760539Y-25499912D02*
X21760539Y-25490388D01*
X21760539Y-25490388D02*
X21751016Y-25471341D01*
X21751016Y-25471341D02*
X21731968Y-25461817D01*
X21731968Y-25461817D02*
X21703396Y-25461817D01*
X21703396Y-25461817D02*
X21684349Y-25452293D01*
X21684349Y-25452293D02*
X21674825Y-25433246D01*
X21674825Y-25433246D02*
X21674825Y-25423722D01*
X21674825Y-25423722D02*
X21684349Y-25404674D01*
X21684349Y-25404674D02*
X21703396Y-25395150D01*
X21703396Y-25395150D02*
X21731968Y-25395150D01*
X21731968Y-25395150D02*
X21751016Y-25404674D01*
X21874825Y-25528484D02*
X21855777Y-25518960D01*
X21855777Y-25518960D02*
X21846254Y-25499912D01*
X21846254Y-25499912D02*
X21846254Y-25328484D01*
X21979587Y-25528484D02*
X21960539Y-25518960D01*
X21960539Y-25518960D02*
X21951016Y-25509436D01*
X21951016Y-25509436D02*
X21941492Y-25490388D01*
X21941492Y-25490388D02*
X21941492Y-25433246D01*
X21941492Y-25433246D02*
X21951016Y-25414198D01*
X21951016Y-25414198D02*
X21960539Y-25404674D01*
X21960539Y-25404674D02*
X21979587Y-25395150D01*
X21979587Y-25395150D02*
X22008158Y-25395150D01*
X22008158Y-25395150D02*
X22027206Y-25404674D01*
X22027206Y-25404674D02*
X22036730Y-25414198D01*
X22036730Y-25414198D02*
X22046254Y-25433246D01*
X22046254Y-25433246D02*
X22046254Y-25490388D01*
X22046254Y-25490388D02*
X22036730Y-25509436D01*
X22036730Y-25509436D02*
X22027206Y-25518960D01*
X22027206Y-25518960D02*
X22008158Y-25528484D01*
X22008158Y-25528484D02*
X21979587Y-25528484D01*
X22103397Y-25395150D02*
X22179587Y-25395150D01*
X22131968Y-25328484D02*
X22131968Y-25499912D01*
X22131968Y-25499912D02*
X22141492Y-25518960D01*
X22141492Y-25518960D02*
X22160539Y-25528484D01*
X22160539Y-25528484D02*
X22179587Y-25528484D01*
X22236730Y-25518960D02*
X22255777Y-25528484D01*
X22255777Y-25528484D02*
X22293873Y-25528484D01*
X22293873Y-25528484D02*
X22312920Y-25518960D01*
X22312920Y-25518960D02*
X22322444Y-25499912D01*
X22322444Y-25499912D02*
X22322444Y-25490388D01*
X22322444Y-25490388D02*
X22312920Y-25471341D01*
X22312920Y-25471341D02*
X22293873Y-25461817D01*
X22293873Y-25461817D02*
X22265301Y-25461817D01*
X22265301Y-25461817D02*
X22246254Y-25452293D01*
X22246254Y-25452293D02*
X22236730Y-25433246D01*
X22236730Y-25433246D02*
X22236730Y-25423722D01*
X22236730Y-25423722D02*
X22246254Y-25404674D01*
X22246254Y-25404674D02*
X22265301Y-25395150D01*
X22265301Y-25395150D02*
X22293873Y-25395150D01*
X22293873Y-25395150D02*
X22312920Y-25404674D01*
X22389111Y-25604674D02*
X22398635Y-25595150D01*
X22398635Y-25595150D02*
X22417682Y-25566579D01*
X22417682Y-25566579D02*
X22427206Y-25547531D01*
X22427206Y-25547531D02*
X22436730Y-25518960D01*
X22436730Y-25518960D02*
X22446254Y-25471341D01*
X22446254Y-25471341D02*
X22446254Y-25433246D01*
X22446254Y-25433246D02*
X22436730Y-25385627D01*
X22436730Y-25385627D02*
X22427206Y-25357055D01*
X22427206Y-25357055D02*
X22417682Y-25338008D01*
X22417682Y-25338008D02*
X22398635Y-25309436D01*
X22398635Y-25309436D02*
X22389111Y-25299912D01*
D15*
X15905000Y-25797000D02*
X15995000Y-25707000D01*
X15905000Y-25617000D01*
X15815000Y-25707000D01*
X15905000Y-25797000D01*
D11*
X16360539Y-25798484D02*
X16246253Y-25798484D01*
X16303396Y-25798484D02*
X16303396Y-25598484D01*
X16303396Y-25598484D02*
X16284348Y-25627055D01*
X16284348Y-25627055D02*
X16265301Y-25646103D01*
X16265301Y-25646103D02*
X16246253Y-25655627D01*
X16446253Y-25779436D02*
X16455777Y-25788960D01*
X16455777Y-25788960D02*
X16446253Y-25798484D01*
X16446253Y-25798484D02*
X16436729Y-25788960D01*
X16436729Y-25788960D02*
X16446253Y-25779436D01*
X16446253Y-25779436D02*
X16446253Y-25798484D01*
X16570062Y-25684198D02*
X16551015Y-25674674D01*
X16551015Y-25674674D02*
X16541491Y-25665150D01*
X16541491Y-25665150D02*
X16531967Y-25646103D01*
X16531967Y-25646103D02*
X16531967Y-25636579D01*
X16531967Y-25636579D02*
X16541491Y-25617531D01*
X16541491Y-25617531D02*
X16551015Y-25608008D01*
X16551015Y-25608008D02*
X16570062Y-25598484D01*
X16570062Y-25598484D02*
X16608158Y-25598484D01*
X16608158Y-25598484D02*
X16627205Y-25608008D01*
X16627205Y-25608008D02*
X16636729Y-25617531D01*
X16636729Y-25617531D02*
X16646253Y-25636579D01*
X16646253Y-25636579D02*
X16646253Y-25646103D01*
X16646253Y-25646103D02*
X16636729Y-25665150D01*
X16636729Y-25665150D02*
X16627205Y-25674674D01*
X16627205Y-25674674D02*
X16608158Y-25684198D01*
X16608158Y-25684198D02*
X16570062Y-25684198D01*
X16570062Y-25684198D02*
X16551015Y-25693722D01*
X16551015Y-25693722D02*
X16541491Y-25703246D01*
X16541491Y-25703246D02*
X16531967Y-25722293D01*
X16531967Y-25722293D02*
X16531967Y-25760388D01*
X16531967Y-25760388D02*
X16541491Y-25779436D01*
X16541491Y-25779436D02*
X16551015Y-25788960D01*
X16551015Y-25788960D02*
X16570062Y-25798484D01*
X16570062Y-25798484D02*
X16608158Y-25798484D01*
X16608158Y-25798484D02*
X16627205Y-25788960D01*
X16627205Y-25788960D02*
X16636729Y-25779436D01*
X16636729Y-25779436D02*
X16646253Y-25760388D01*
X16646253Y-25760388D02*
X16646253Y-25722293D01*
X16646253Y-25722293D02*
X16636729Y-25703246D01*
X16636729Y-25703246D02*
X16627205Y-25693722D01*
X16627205Y-25693722D02*
X16608158Y-25684198D01*
X16770062Y-25598484D02*
X16789110Y-25598484D01*
X16789110Y-25598484D02*
X16808158Y-25608008D01*
X16808158Y-25608008D02*
X16817682Y-25617531D01*
X16817682Y-25617531D02*
X16827205Y-25636579D01*
X16827205Y-25636579D02*
X16836729Y-25674674D01*
X16836729Y-25674674D02*
X16836729Y-25722293D01*
X16836729Y-25722293D02*
X16827205Y-25760388D01*
X16827205Y-25760388D02*
X16817682Y-25779436D01*
X16817682Y-25779436D02*
X16808158Y-25788960D01*
X16808158Y-25788960D02*
X16789110Y-25798484D01*
X16789110Y-25798484D02*
X16770062Y-25798484D01*
X16770062Y-25798484D02*
X16751015Y-25788960D01*
X16751015Y-25788960D02*
X16741491Y-25779436D01*
X16741491Y-25779436D02*
X16731967Y-25760388D01*
X16731967Y-25760388D02*
X16722443Y-25722293D01*
X16722443Y-25722293D02*
X16722443Y-25674674D01*
X16722443Y-25674674D02*
X16731967Y-25636579D01*
X16731967Y-25636579D02*
X16741491Y-25617531D01*
X16741491Y-25617531D02*
X16751015Y-25608008D01*
X16751015Y-25608008D02*
X16770062Y-25598484D01*
X16960539Y-25598484D02*
X16979586Y-25598484D01*
X16979586Y-25598484D02*
X16998634Y-25608008D01*
X16998634Y-25608008D02*
X17008158Y-25617531D01*
X17008158Y-25617531D02*
X17017682Y-25636579D01*
X17017682Y-25636579D02*
X17027205Y-25674674D01*
X17027205Y-25674674D02*
X17027205Y-25722293D01*
X17027205Y-25722293D02*
X17017682Y-25760388D01*
X17017682Y-25760388D02*
X17008158Y-25779436D01*
X17008158Y-25779436D02*
X16998634Y-25788960D01*
X16998634Y-25788960D02*
X16979586Y-25798484D01*
X16979586Y-25798484D02*
X16960539Y-25798484D01*
X16960539Y-25798484D02*
X16941491Y-25788960D01*
X16941491Y-25788960D02*
X16931967Y-25779436D01*
X16931967Y-25779436D02*
X16922444Y-25760388D01*
X16922444Y-25760388D02*
X16912920Y-25722293D01*
X16912920Y-25722293D02*
X16912920Y-25674674D01*
X16912920Y-25674674D02*
X16922444Y-25636579D01*
X16922444Y-25636579D02*
X16931967Y-25617531D01*
X16931967Y-25617531D02*
X16941491Y-25608008D01*
X16941491Y-25608008D02*
X16960539Y-25598484D01*
X17112920Y-25798484D02*
X17112920Y-25665150D01*
X17112920Y-25684198D02*
X17122444Y-25674674D01*
X17122444Y-25674674D02*
X17141491Y-25665150D01*
X17141491Y-25665150D02*
X17170063Y-25665150D01*
X17170063Y-25665150D02*
X17189110Y-25674674D01*
X17189110Y-25674674D02*
X17198634Y-25693722D01*
X17198634Y-25693722D02*
X17198634Y-25798484D01*
X17198634Y-25693722D02*
X17208158Y-25674674D01*
X17208158Y-25674674D02*
X17227205Y-25665150D01*
X17227205Y-25665150D02*
X17255777Y-25665150D01*
X17255777Y-25665150D02*
X17274825Y-25674674D01*
X17274825Y-25674674D02*
X17284348Y-25693722D01*
X17284348Y-25693722D02*
X17284348Y-25798484D01*
X17379586Y-25798484D02*
X17379586Y-25665150D01*
X17379586Y-25684198D02*
X17389110Y-25674674D01*
X17389110Y-25674674D02*
X17408158Y-25665150D01*
X17408158Y-25665150D02*
X17436729Y-25665150D01*
X17436729Y-25665150D02*
X17455777Y-25674674D01*
X17455777Y-25674674D02*
X17465301Y-25693722D01*
X17465301Y-25693722D02*
X17465301Y-25798484D01*
X17465301Y-25693722D02*
X17474825Y-25674674D01*
X17474825Y-25674674D02*
X17493872Y-25665150D01*
X17493872Y-25665150D02*
X17522444Y-25665150D01*
X17522444Y-25665150D02*
X17541491Y-25674674D01*
X17541491Y-25674674D02*
X17551015Y-25693722D01*
X17551015Y-25693722D02*
X17551015Y-25798484D01*
X17941491Y-25588960D02*
X17770063Y-25846103D01*
X18198634Y-25598484D02*
X18217682Y-25598484D01*
X18217682Y-25598484D02*
X18236729Y-25608008D01*
X18236729Y-25608008D02*
X18246253Y-25617531D01*
X18246253Y-25617531D02*
X18255777Y-25636579D01*
X18255777Y-25636579D02*
X18265301Y-25674674D01*
X18265301Y-25674674D02*
X18265301Y-25722293D01*
X18265301Y-25722293D02*
X18255777Y-25760388D01*
X18255777Y-25760388D02*
X18246253Y-25779436D01*
X18246253Y-25779436D02*
X18236729Y-25788960D01*
X18236729Y-25788960D02*
X18217682Y-25798484D01*
X18217682Y-25798484D02*
X18198634Y-25798484D01*
X18198634Y-25798484D02*
X18179587Y-25788960D01*
X18179587Y-25788960D02*
X18170063Y-25779436D01*
X18170063Y-25779436D02*
X18160539Y-25760388D01*
X18160539Y-25760388D02*
X18151015Y-25722293D01*
X18151015Y-25722293D02*
X18151015Y-25674674D01*
X18151015Y-25674674D02*
X18160539Y-25636579D01*
X18160539Y-25636579D02*
X18170063Y-25617531D01*
X18170063Y-25617531D02*
X18179587Y-25608008D01*
X18179587Y-25608008D02*
X18198634Y-25598484D01*
X18351015Y-25779436D02*
X18360539Y-25788960D01*
X18360539Y-25788960D02*
X18351015Y-25798484D01*
X18351015Y-25798484D02*
X18341491Y-25788960D01*
X18341491Y-25788960D02*
X18351015Y-25779436D01*
X18351015Y-25779436D02*
X18351015Y-25798484D01*
X18484348Y-25598484D02*
X18503396Y-25598484D01*
X18503396Y-25598484D02*
X18522444Y-25608008D01*
X18522444Y-25608008D02*
X18531968Y-25617531D01*
X18531968Y-25617531D02*
X18541491Y-25636579D01*
X18541491Y-25636579D02*
X18551015Y-25674674D01*
X18551015Y-25674674D02*
X18551015Y-25722293D01*
X18551015Y-25722293D02*
X18541491Y-25760388D01*
X18541491Y-25760388D02*
X18531968Y-25779436D01*
X18531968Y-25779436D02*
X18522444Y-25788960D01*
X18522444Y-25788960D02*
X18503396Y-25798484D01*
X18503396Y-25798484D02*
X18484348Y-25798484D01*
X18484348Y-25798484D02*
X18465301Y-25788960D01*
X18465301Y-25788960D02*
X18455777Y-25779436D01*
X18455777Y-25779436D02*
X18446253Y-25760388D01*
X18446253Y-25760388D02*
X18436729Y-25722293D01*
X18436729Y-25722293D02*
X18436729Y-25674674D01*
X18436729Y-25674674D02*
X18446253Y-25636579D01*
X18446253Y-25636579D02*
X18455777Y-25617531D01*
X18455777Y-25617531D02*
X18465301Y-25608008D01*
X18465301Y-25608008D02*
X18484348Y-25598484D01*
X18617682Y-25598484D02*
X18751015Y-25598484D01*
X18751015Y-25598484D02*
X18665301Y-25798484D01*
X18865301Y-25598484D02*
X18884349Y-25598484D01*
X18884349Y-25598484D02*
X18903396Y-25608008D01*
X18903396Y-25608008D02*
X18912920Y-25617531D01*
X18912920Y-25617531D02*
X18922444Y-25636579D01*
X18922444Y-25636579D02*
X18931968Y-25674674D01*
X18931968Y-25674674D02*
X18931968Y-25722293D01*
X18931968Y-25722293D02*
X18922444Y-25760388D01*
X18922444Y-25760388D02*
X18912920Y-25779436D01*
X18912920Y-25779436D02*
X18903396Y-25788960D01*
X18903396Y-25788960D02*
X18884349Y-25798484D01*
X18884349Y-25798484D02*
X18865301Y-25798484D01*
X18865301Y-25798484D02*
X18846253Y-25788960D01*
X18846253Y-25788960D02*
X18836729Y-25779436D01*
X18836729Y-25779436D02*
X18827206Y-25760388D01*
X18827206Y-25760388D02*
X18817682Y-25722293D01*
X18817682Y-25722293D02*
X18817682Y-25674674D01*
X18817682Y-25674674D02*
X18827206Y-25636579D01*
X18827206Y-25636579D02*
X18836729Y-25617531D01*
X18836729Y-25617531D02*
X18846253Y-25608008D01*
X18846253Y-25608008D02*
X18865301Y-25598484D01*
X19027206Y-25798484D02*
X19065301Y-25798484D01*
X19065301Y-25798484D02*
X19084349Y-25788960D01*
X19084349Y-25788960D02*
X19093872Y-25779436D01*
X19093872Y-25779436D02*
X19112920Y-25750865D01*
X19112920Y-25750865D02*
X19122444Y-25712769D01*
X19122444Y-25712769D02*
X19122444Y-25636579D01*
X19122444Y-25636579D02*
X19112920Y-25617531D01*
X19112920Y-25617531D02*
X19103396Y-25608008D01*
X19103396Y-25608008D02*
X19084349Y-25598484D01*
X19084349Y-25598484D02*
X19046253Y-25598484D01*
X19046253Y-25598484D02*
X19027206Y-25608008D01*
X19027206Y-25608008D02*
X19017682Y-25617531D01*
X19017682Y-25617531D02*
X19008158Y-25636579D01*
X19008158Y-25636579D02*
X19008158Y-25684198D01*
X19008158Y-25684198D02*
X19017682Y-25703246D01*
X19017682Y-25703246D02*
X19027206Y-25712769D01*
X19027206Y-25712769D02*
X19046253Y-25722293D01*
X19046253Y-25722293D02*
X19084349Y-25722293D01*
X19084349Y-25722293D02*
X19103396Y-25712769D01*
X19103396Y-25712769D02*
X19112920Y-25703246D01*
X19112920Y-25703246D02*
X19122444Y-25684198D01*
X19198634Y-25598484D02*
X19198634Y-25636579D01*
X19274825Y-25598484D02*
X19274825Y-25636579D01*
X19570063Y-25874674D02*
X19560539Y-25865150D01*
X19560539Y-25865150D02*
X19541491Y-25836579D01*
X19541491Y-25836579D02*
X19531968Y-25817531D01*
X19531968Y-25817531D02*
X19522444Y-25788960D01*
X19522444Y-25788960D02*
X19512920Y-25741341D01*
X19512920Y-25741341D02*
X19512920Y-25703246D01*
X19512920Y-25703246D02*
X19522444Y-25655627D01*
X19522444Y-25655627D02*
X19531968Y-25627055D01*
X19531968Y-25627055D02*
X19541491Y-25608008D01*
X19541491Y-25608008D02*
X19560539Y-25579436D01*
X19560539Y-25579436D02*
X19570063Y-25569912D01*
X19636730Y-25617531D02*
X19646253Y-25608008D01*
X19646253Y-25608008D02*
X19665301Y-25598484D01*
X19665301Y-25598484D02*
X19712920Y-25598484D01*
X19712920Y-25598484D02*
X19731968Y-25608008D01*
X19731968Y-25608008D02*
X19741491Y-25617531D01*
X19741491Y-25617531D02*
X19751015Y-25636579D01*
X19751015Y-25636579D02*
X19751015Y-25655627D01*
X19751015Y-25655627D02*
X19741491Y-25684198D01*
X19741491Y-25684198D02*
X19627206Y-25798484D01*
X19627206Y-25798484D02*
X19751015Y-25798484D01*
X19989111Y-25798484D02*
X19989111Y-25598484D01*
X20074825Y-25798484D02*
X20074825Y-25693722D01*
X20074825Y-25693722D02*
X20065301Y-25674674D01*
X20065301Y-25674674D02*
X20046253Y-25665150D01*
X20046253Y-25665150D02*
X20017682Y-25665150D01*
X20017682Y-25665150D02*
X19998634Y-25674674D01*
X19998634Y-25674674D02*
X19989111Y-25684198D01*
X20198634Y-25798484D02*
X20179587Y-25788960D01*
X20179587Y-25788960D02*
X20170063Y-25779436D01*
X20170063Y-25779436D02*
X20160539Y-25760388D01*
X20160539Y-25760388D02*
X20160539Y-25703246D01*
X20160539Y-25703246D02*
X20170063Y-25684198D01*
X20170063Y-25684198D02*
X20179587Y-25674674D01*
X20179587Y-25674674D02*
X20198634Y-25665150D01*
X20198634Y-25665150D02*
X20227206Y-25665150D01*
X20227206Y-25665150D02*
X20246253Y-25674674D01*
X20246253Y-25674674D02*
X20255777Y-25684198D01*
X20255777Y-25684198D02*
X20265301Y-25703246D01*
X20265301Y-25703246D02*
X20265301Y-25760388D01*
X20265301Y-25760388D02*
X20255777Y-25779436D01*
X20255777Y-25779436D02*
X20246253Y-25788960D01*
X20246253Y-25788960D02*
X20227206Y-25798484D01*
X20227206Y-25798484D02*
X20198634Y-25798484D01*
X20379587Y-25798484D02*
X20360539Y-25788960D01*
X20360539Y-25788960D02*
X20351015Y-25769912D01*
X20351015Y-25769912D02*
X20351015Y-25598484D01*
X20531968Y-25788960D02*
X20512920Y-25798484D01*
X20512920Y-25798484D02*
X20474825Y-25798484D01*
X20474825Y-25798484D02*
X20455777Y-25788960D01*
X20455777Y-25788960D02*
X20446253Y-25769912D01*
X20446253Y-25769912D02*
X20446253Y-25693722D01*
X20446253Y-25693722D02*
X20455777Y-25674674D01*
X20455777Y-25674674D02*
X20474825Y-25665150D01*
X20474825Y-25665150D02*
X20512920Y-25665150D01*
X20512920Y-25665150D02*
X20531968Y-25674674D01*
X20531968Y-25674674D02*
X20541492Y-25693722D01*
X20541492Y-25693722D02*
X20541492Y-25712769D01*
X20541492Y-25712769D02*
X20446253Y-25731817D01*
X20617682Y-25788960D02*
X20636730Y-25798484D01*
X20636730Y-25798484D02*
X20674825Y-25798484D01*
X20674825Y-25798484D02*
X20693873Y-25788960D01*
X20693873Y-25788960D02*
X20703396Y-25769912D01*
X20703396Y-25769912D02*
X20703396Y-25760388D01*
X20703396Y-25760388D02*
X20693873Y-25741341D01*
X20693873Y-25741341D02*
X20674825Y-25731817D01*
X20674825Y-25731817D02*
X20646253Y-25731817D01*
X20646253Y-25731817D02*
X20627206Y-25722293D01*
X20627206Y-25722293D02*
X20617682Y-25703246D01*
X20617682Y-25703246D02*
X20617682Y-25693722D01*
X20617682Y-25693722D02*
X20627206Y-25674674D01*
X20627206Y-25674674D02*
X20646253Y-25665150D01*
X20646253Y-25665150D02*
X20674825Y-25665150D01*
X20674825Y-25665150D02*
X20693873Y-25674674D01*
X20770063Y-25874674D02*
X20779587Y-25865150D01*
X20779587Y-25865150D02*
X20798634Y-25836579D01*
X20798634Y-25836579D02*
X20808158Y-25817531D01*
X20808158Y-25817531D02*
X20817682Y-25788960D01*
X20817682Y-25788960D02*
X20827206Y-25741341D01*
X20827206Y-25741341D02*
X20827206Y-25703246D01*
X20827206Y-25703246D02*
X20817682Y-25655627D01*
X20817682Y-25655627D02*
X20808158Y-25627055D01*
X20808158Y-25627055D02*
X20798634Y-25608008D01*
X20798634Y-25608008D02*
X20779587Y-25579436D01*
X20779587Y-25579436D02*
X20770063Y-25569912D01*
X15795000Y-25907000D02*
X15995000Y-26107000D01*
X15995000Y-25907000D02*
X15795000Y-26107000D01*
X15995000Y-26007000D02*
G75*
G02*
X15795000Y-26007000I-100000J0D01*
G01*
X15795000Y-26007000D02*
G75*
G02*
X15995000Y-26007000I100000J0D01*
G01*
X16246253Y-25917531D02*
X16255777Y-25908008D01*
X16255777Y-25908008D02*
X16274824Y-25898484D01*
X16274824Y-25898484D02*
X16322443Y-25898484D01*
X16322443Y-25898484D02*
X16341491Y-25908008D01*
X16341491Y-25908008D02*
X16351015Y-25917531D01*
X16351015Y-25917531D02*
X16360539Y-25936579D01*
X16360539Y-25936579D02*
X16360539Y-25955627D01*
X16360539Y-25955627D02*
X16351015Y-25984198D01*
X16351015Y-25984198D02*
X16236729Y-26098484D01*
X16236729Y-26098484D02*
X16360539Y-26098484D01*
X16446253Y-26079436D02*
X16455777Y-26088960D01*
X16455777Y-26088960D02*
X16446253Y-26098484D01*
X16446253Y-26098484D02*
X16436729Y-26088960D01*
X16436729Y-26088960D02*
X16446253Y-26079436D01*
X16446253Y-26079436D02*
X16446253Y-26098484D01*
X16579586Y-25898484D02*
X16598634Y-25898484D01*
X16598634Y-25898484D02*
X16617682Y-25908008D01*
X16617682Y-25908008D02*
X16627205Y-25917531D01*
X16627205Y-25917531D02*
X16636729Y-25936579D01*
X16636729Y-25936579D02*
X16646253Y-25974674D01*
X16646253Y-25974674D02*
X16646253Y-26022293D01*
X16646253Y-26022293D02*
X16636729Y-26060388D01*
X16636729Y-26060388D02*
X16627205Y-26079436D01*
X16627205Y-26079436D02*
X16617682Y-26088960D01*
X16617682Y-26088960D02*
X16598634Y-26098484D01*
X16598634Y-26098484D02*
X16579586Y-26098484D01*
X16579586Y-26098484D02*
X16560539Y-26088960D01*
X16560539Y-26088960D02*
X16551015Y-26079436D01*
X16551015Y-26079436D02*
X16541491Y-26060388D01*
X16541491Y-26060388D02*
X16531967Y-26022293D01*
X16531967Y-26022293D02*
X16531967Y-25974674D01*
X16531967Y-25974674D02*
X16541491Y-25936579D01*
X16541491Y-25936579D02*
X16551015Y-25917531D01*
X16551015Y-25917531D02*
X16560539Y-25908008D01*
X16560539Y-25908008D02*
X16579586Y-25898484D01*
X16770062Y-25898484D02*
X16789110Y-25898484D01*
X16789110Y-25898484D02*
X16808158Y-25908008D01*
X16808158Y-25908008D02*
X16817682Y-25917531D01*
X16817682Y-25917531D02*
X16827205Y-25936579D01*
X16827205Y-25936579D02*
X16836729Y-25974674D01*
X16836729Y-25974674D02*
X16836729Y-26022293D01*
X16836729Y-26022293D02*
X16827205Y-26060388D01*
X16827205Y-26060388D02*
X16817682Y-26079436D01*
X16817682Y-26079436D02*
X16808158Y-26088960D01*
X16808158Y-26088960D02*
X16789110Y-26098484D01*
X16789110Y-26098484D02*
X16770062Y-26098484D01*
X16770062Y-26098484D02*
X16751015Y-26088960D01*
X16751015Y-26088960D02*
X16741491Y-26079436D01*
X16741491Y-26079436D02*
X16731967Y-26060388D01*
X16731967Y-26060388D02*
X16722443Y-26022293D01*
X16722443Y-26022293D02*
X16722443Y-25974674D01*
X16722443Y-25974674D02*
X16731967Y-25936579D01*
X16731967Y-25936579D02*
X16741491Y-25917531D01*
X16741491Y-25917531D02*
X16751015Y-25908008D01*
X16751015Y-25908008D02*
X16770062Y-25898484D01*
X16960539Y-25898484D02*
X16979586Y-25898484D01*
X16979586Y-25898484D02*
X16998634Y-25908008D01*
X16998634Y-25908008D02*
X17008158Y-25917531D01*
X17008158Y-25917531D02*
X17017682Y-25936579D01*
X17017682Y-25936579D02*
X17027205Y-25974674D01*
X17027205Y-25974674D02*
X17027205Y-26022293D01*
X17027205Y-26022293D02*
X17017682Y-26060388D01*
X17017682Y-26060388D02*
X17008158Y-26079436D01*
X17008158Y-26079436D02*
X16998634Y-26088960D01*
X16998634Y-26088960D02*
X16979586Y-26098484D01*
X16979586Y-26098484D02*
X16960539Y-26098484D01*
X16960539Y-26098484D02*
X16941491Y-26088960D01*
X16941491Y-26088960D02*
X16931967Y-26079436D01*
X16931967Y-26079436D02*
X16922444Y-26060388D01*
X16922444Y-26060388D02*
X16912920Y-26022293D01*
X16912920Y-26022293D02*
X16912920Y-25974674D01*
X16912920Y-25974674D02*
X16922444Y-25936579D01*
X16922444Y-25936579D02*
X16931967Y-25917531D01*
X16931967Y-25917531D02*
X16941491Y-25908008D01*
X16941491Y-25908008D02*
X16960539Y-25898484D01*
X17112920Y-26098484D02*
X17112920Y-25965150D01*
X17112920Y-25984198D02*
X17122444Y-25974674D01*
X17122444Y-25974674D02*
X17141491Y-25965150D01*
X17141491Y-25965150D02*
X17170063Y-25965150D01*
X17170063Y-25965150D02*
X17189110Y-25974674D01*
X17189110Y-25974674D02*
X17198634Y-25993722D01*
X17198634Y-25993722D02*
X17198634Y-26098484D01*
X17198634Y-25993722D02*
X17208158Y-25974674D01*
X17208158Y-25974674D02*
X17227205Y-25965150D01*
X17227205Y-25965150D02*
X17255777Y-25965150D01*
X17255777Y-25965150D02*
X17274825Y-25974674D01*
X17274825Y-25974674D02*
X17284348Y-25993722D01*
X17284348Y-25993722D02*
X17284348Y-26098484D01*
X17379586Y-26098484D02*
X17379586Y-25965150D01*
X17379586Y-25984198D02*
X17389110Y-25974674D01*
X17389110Y-25974674D02*
X17408158Y-25965150D01*
X17408158Y-25965150D02*
X17436729Y-25965150D01*
X17436729Y-25965150D02*
X17455777Y-25974674D01*
X17455777Y-25974674D02*
X17465301Y-25993722D01*
X17465301Y-25993722D02*
X17465301Y-26098484D01*
X17465301Y-25993722D02*
X17474825Y-25974674D01*
X17474825Y-25974674D02*
X17493872Y-25965150D01*
X17493872Y-25965150D02*
X17522444Y-25965150D01*
X17522444Y-25965150D02*
X17541491Y-25974674D01*
X17541491Y-25974674D02*
X17551015Y-25993722D01*
X17551015Y-25993722D02*
X17551015Y-26098484D01*
X17941491Y-25888960D02*
X17770063Y-26146103D01*
X18198634Y-25898484D02*
X18217682Y-25898484D01*
X18217682Y-25898484D02*
X18236729Y-25908008D01*
X18236729Y-25908008D02*
X18246253Y-25917531D01*
X18246253Y-25917531D02*
X18255777Y-25936579D01*
X18255777Y-25936579D02*
X18265301Y-25974674D01*
X18265301Y-25974674D02*
X18265301Y-26022293D01*
X18265301Y-26022293D02*
X18255777Y-26060388D01*
X18255777Y-26060388D02*
X18246253Y-26079436D01*
X18246253Y-26079436D02*
X18236729Y-26088960D01*
X18236729Y-26088960D02*
X18217682Y-26098484D01*
X18217682Y-26098484D02*
X18198634Y-26098484D01*
X18198634Y-26098484D02*
X18179587Y-26088960D01*
X18179587Y-26088960D02*
X18170063Y-26079436D01*
X18170063Y-26079436D02*
X18160539Y-26060388D01*
X18160539Y-26060388D02*
X18151015Y-26022293D01*
X18151015Y-26022293D02*
X18151015Y-25974674D01*
X18151015Y-25974674D02*
X18160539Y-25936579D01*
X18160539Y-25936579D02*
X18170063Y-25917531D01*
X18170063Y-25917531D02*
X18179587Y-25908008D01*
X18179587Y-25908008D02*
X18198634Y-25898484D01*
X18351015Y-26079436D02*
X18360539Y-26088960D01*
X18360539Y-26088960D02*
X18351015Y-26098484D01*
X18351015Y-26098484D02*
X18341491Y-26088960D01*
X18341491Y-26088960D02*
X18351015Y-26079436D01*
X18351015Y-26079436D02*
X18351015Y-26098484D01*
X18484348Y-25898484D02*
X18503396Y-25898484D01*
X18503396Y-25898484D02*
X18522444Y-25908008D01*
X18522444Y-25908008D02*
X18531968Y-25917531D01*
X18531968Y-25917531D02*
X18541491Y-25936579D01*
X18541491Y-25936579D02*
X18551015Y-25974674D01*
X18551015Y-25974674D02*
X18551015Y-26022293D01*
X18551015Y-26022293D02*
X18541491Y-26060388D01*
X18541491Y-26060388D02*
X18531968Y-26079436D01*
X18531968Y-26079436D02*
X18522444Y-26088960D01*
X18522444Y-26088960D02*
X18503396Y-26098484D01*
X18503396Y-26098484D02*
X18484348Y-26098484D01*
X18484348Y-26098484D02*
X18465301Y-26088960D01*
X18465301Y-26088960D02*
X18455777Y-26079436D01*
X18455777Y-26079436D02*
X18446253Y-26060388D01*
X18446253Y-26060388D02*
X18436729Y-26022293D01*
X18436729Y-26022293D02*
X18436729Y-25974674D01*
X18436729Y-25974674D02*
X18446253Y-25936579D01*
X18446253Y-25936579D02*
X18455777Y-25917531D01*
X18455777Y-25917531D02*
X18465301Y-25908008D01*
X18465301Y-25908008D02*
X18484348Y-25898484D01*
X18617682Y-25898484D02*
X18751015Y-25898484D01*
X18751015Y-25898484D02*
X18665301Y-26098484D01*
X18855777Y-25984198D02*
X18836729Y-25974674D01*
X18836729Y-25974674D02*
X18827206Y-25965150D01*
X18827206Y-25965150D02*
X18817682Y-25946103D01*
X18817682Y-25946103D02*
X18817682Y-25936579D01*
X18817682Y-25936579D02*
X18827206Y-25917531D01*
X18827206Y-25917531D02*
X18836729Y-25908008D01*
X18836729Y-25908008D02*
X18855777Y-25898484D01*
X18855777Y-25898484D02*
X18893872Y-25898484D01*
X18893872Y-25898484D02*
X18912920Y-25908008D01*
X18912920Y-25908008D02*
X18922444Y-25917531D01*
X18922444Y-25917531D02*
X18931968Y-25936579D01*
X18931968Y-25936579D02*
X18931968Y-25946103D01*
X18931968Y-25946103D02*
X18922444Y-25965150D01*
X18922444Y-25965150D02*
X18912920Y-25974674D01*
X18912920Y-25974674D02*
X18893872Y-25984198D01*
X18893872Y-25984198D02*
X18855777Y-25984198D01*
X18855777Y-25984198D02*
X18836729Y-25993722D01*
X18836729Y-25993722D02*
X18827206Y-26003246D01*
X18827206Y-26003246D02*
X18817682Y-26022293D01*
X18817682Y-26022293D02*
X18817682Y-26060388D01*
X18817682Y-26060388D02*
X18827206Y-26079436D01*
X18827206Y-26079436D02*
X18836729Y-26088960D01*
X18836729Y-26088960D02*
X18855777Y-26098484D01*
X18855777Y-26098484D02*
X18893872Y-26098484D01*
X18893872Y-26098484D02*
X18912920Y-26088960D01*
X18912920Y-26088960D02*
X18922444Y-26079436D01*
X18922444Y-26079436D02*
X18931968Y-26060388D01*
X18931968Y-26060388D02*
X18931968Y-26022293D01*
X18931968Y-26022293D02*
X18922444Y-26003246D01*
X18922444Y-26003246D02*
X18912920Y-25993722D01*
X18912920Y-25993722D02*
X18893872Y-25984198D01*
X18998634Y-25898484D02*
X19131968Y-25898484D01*
X19131968Y-25898484D02*
X19046253Y-26098484D01*
X19198634Y-25898484D02*
X19198634Y-25936579D01*
X19274825Y-25898484D02*
X19274825Y-25936579D01*
X19570063Y-26174674D02*
X19560539Y-26165150D01*
X19560539Y-26165150D02*
X19541491Y-26136579D01*
X19541491Y-26136579D02*
X19531968Y-26117531D01*
X19531968Y-26117531D02*
X19522444Y-26088960D01*
X19522444Y-26088960D02*
X19512920Y-26041341D01*
X19512920Y-26041341D02*
X19512920Y-26003246D01*
X19512920Y-26003246D02*
X19522444Y-25955627D01*
X19522444Y-25955627D02*
X19531968Y-25927055D01*
X19531968Y-25927055D02*
X19541491Y-25908008D01*
X19541491Y-25908008D02*
X19560539Y-25879436D01*
X19560539Y-25879436D02*
X19570063Y-25869912D01*
X19636730Y-25917531D02*
X19646253Y-25908008D01*
X19646253Y-25908008D02*
X19665301Y-25898484D01*
X19665301Y-25898484D02*
X19712920Y-25898484D01*
X19712920Y-25898484D02*
X19731968Y-25908008D01*
X19731968Y-25908008D02*
X19741491Y-25917531D01*
X19741491Y-25917531D02*
X19751015Y-25936579D01*
X19751015Y-25936579D02*
X19751015Y-25955627D01*
X19751015Y-25955627D02*
X19741491Y-25984198D01*
X19741491Y-25984198D02*
X19627206Y-26098484D01*
X19627206Y-26098484D02*
X19751015Y-26098484D01*
X19989111Y-26098484D02*
X19989111Y-25898484D01*
X20074825Y-26098484D02*
X20074825Y-25993722D01*
X20074825Y-25993722D02*
X20065301Y-25974674D01*
X20065301Y-25974674D02*
X20046253Y-25965150D01*
X20046253Y-25965150D02*
X20017682Y-25965150D01*
X20017682Y-25965150D02*
X19998634Y-25974674D01*
X19998634Y-25974674D02*
X19989111Y-25984198D01*
X20198634Y-26098484D02*
X20179587Y-26088960D01*
X20179587Y-26088960D02*
X20170063Y-26079436D01*
X20170063Y-26079436D02*
X20160539Y-26060388D01*
X20160539Y-26060388D02*
X20160539Y-26003246D01*
X20160539Y-26003246D02*
X20170063Y-25984198D01*
X20170063Y-25984198D02*
X20179587Y-25974674D01*
X20179587Y-25974674D02*
X20198634Y-25965150D01*
X20198634Y-25965150D02*
X20227206Y-25965150D01*
X20227206Y-25965150D02*
X20246253Y-25974674D01*
X20246253Y-25974674D02*
X20255777Y-25984198D01*
X20255777Y-25984198D02*
X20265301Y-26003246D01*
X20265301Y-26003246D02*
X20265301Y-26060388D01*
X20265301Y-26060388D02*
X20255777Y-26079436D01*
X20255777Y-26079436D02*
X20246253Y-26088960D01*
X20246253Y-26088960D02*
X20227206Y-26098484D01*
X20227206Y-26098484D02*
X20198634Y-26098484D01*
X20379587Y-26098484D02*
X20360539Y-26088960D01*
X20360539Y-26088960D02*
X20351015Y-26069912D01*
X20351015Y-26069912D02*
X20351015Y-25898484D01*
X20531968Y-26088960D02*
X20512920Y-26098484D01*
X20512920Y-26098484D02*
X20474825Y-26098484D01*
X20474825Y-26098484D02*
X20455777Y-26088960D01*
X20455777Y-26088960D02*
X20446253Y-26069912D01*
X20446253Y-26069912D02*
X20446253Y-25993722D01*
X20446253Y-25993722D02*
X20455777Y-25974674D01*
X20455777Y-25974674D02*
X20474825Y-25965150D01*
X20474825Y-25965150D02*
X20512920Y-25965150D01*
X20512920Y-25965150D02*
X20531968Y-25974674D01*
X20531968Y-25974674D02*
X20541492Y-25993722D01*
X20541492Y-25993722D02*
X20541492Y-26012769D01*
X20541492Y-26012769D02*
X20446253Y-26031817D01*
X20617682Y-26088960D02*
X20636730Y-26098484D01*
X20636730Y-26098484D02*
X20674825Y-26098484D01*
X20674825Y-26098484D02*
X20693873Y-26088960D01*
X20693873Y-26088960D02*
X20703396Y-26069912D01*
X20703396Y-26069912D02*
X20703396Y-26060388D01*
X20703396Y-26060388D02*
X20693873Y-26041341D01*
X20693873Y-26041341D02*
X20674825Y-26031817D01*
X20674825Y-26031817D02*
X20646253Y-26031817D01*
X20646253Y-26031817D02*
X20627206Y-26022293D01*
X20627206Y-26022293D02*
X20617682Y-26003246D01*
X20617682Y-26003246D02*
X20617682Y-25993722D01*
X20617682Y-25993722D02*
X20627206Y-25974674D01*
X20627206Y-25974674D02*
X20646253Y-25965150D01*
X20646253Y-25965150D02*
X20674825Y-25965150D01*
X20674825Y-25965150D02*
X20693873Y-25974674D01*
X20770063Y-26174674D02*
X20779587Y-26165150D01*
X20779587Y-26165150D02*
X20798634Y-26136579D01*
X20798634Y-26136579D02*
X20808158Y-26117531D01*
X20808158Y-26117531D02*
X20817682Y-26088960D01*
X20817682Y-26088960D02*
X20827206Y-26041341D01*
X20827206Y-26041341D02*
X20827206Y-26003246D01*
X20827206Y-26003246D02*
X20817682Y-25955627D01*
X20817682Y-25955627D02*
X20808158Y-25927055D01*
X20808158Y-25927055D02*
X20798634Y-25908008D01*
X20798634Y-25908008D02*
X20779587Y-25879436D01*
X20779587Y-25879436D02*
X20770063Y-25869912D01*
M02*
